G04 #@! TF.GenerationSoftware,KiCad,Pcbnew,(5.1.2)-2*
G04 #@! TF.CreationDate,2019-12-14T19:53:28+01:00*
G04 #@! TF.ProjectId,IS1212_click,49533132-3132-45f6-936c-69636b2e6b69,rev?*
G04 #@! TF.SameCoordinates,Original*
G04 #@! TF.FileFunction,Soldermask,Top*
G04 #@! TF.FilePolarity,Negative*
%FSLAX46Y46*%
G04 Gerber Fmt 4.6, Leading zero omitted, Abs format (unit mm)*
G04 Created by KiCad (PCBNEW (5.1.2)-2) date 2019-12-14 19:53:28*
%MOMM*%
%LPD*%
G04 APERTURE LIST*
%ADD10C,0.100000*%
G04 APERTURE END LIST*
D10*
G36*
X87806588Y-147702234D02*
G01*
X87806591Y-147702235D01*
X87976388Y-147753742D01*
X88132878Y-147837388D01*
X88270043Y-147949957D01*
X88382612Y-148087122D01*
X88466258Y-148243612D01*
X88511875Y-148393992D01*
X88517766Y-148413412D01*
X88535158Y-148590000D01*
X88517766Y-148766588D01*
X88517765Y-148766591D01*
X88466258Y-148936388D01*
X88382612Y-149092878D01*
X88270043Y-149230043D01*
X88132878Y-149342612D01*
X87976388Y-149426258D01*
X87826008Y-149471875D01*
X87806588Y-149477766D01*
X87674249Y-149490800D01*
X87585751Y-149490800D01*
X87453412Y-149477766D01*
X87433992Y-149471875D01*
X87283612Y-149426258D01*
X87127122Y-149342612D01*
X86989957Y-149230043D01*
X86877388Y-149092878D01*
X86793742Y-148936388D01*
X86742235Y-148766591D01*
X86742234Y-148766588D01*
X86724842Y-148590000D01*
X86742234Y-148413412D01*
X86748125Y-148393992D01*
X86793742Y-148243612D01*
X86877388Y-148087122D01*
X86989957Y-147949957D01*
X87127122Y-147837388D01*
X87283612Y-147753742D01*
X87453409Y-147702235D01*
X87453412Y-147702234D01*
X87585751Y-147689200D01*
X87674249Y-147689200D01*
X87806588Y-147702234D01*
X87806588Y-147702234D01*
G37*
G36*
X64946588Y-147702234D02*
G01*
X64946591Y-147702235D01*
X65116388Y-147753742D01*
X65272878Y-147837388D01*
X65410043Y-147949957D01*
X65522612Y-148087122D01*
X65606258Y-148243612D01*
X65651875Y-148393992D01*
X65657766Y-148413412D01*
X65675158Y-148590000D01*
X65657766Y-148766588D01*
X65657765Y-148766591D01*
X65606258Y-148936388D01*
X65522612Y-149092878D01*
X65410043Y-149230043D01*
X65272878Y-149342612D01*
X65116388Y-149426258D01*
X64966008Y-149471875D01*
X64946588Y-149477766D01*
X64814249Y-149490800D01*
X64725751Y-149490800D01*
X64593412Y-149477766D01*
X64573992Y-149471875D01*
X64423612Y-149426258D01*
X64267122Y-149342612D01*
X64129957Y-149230043D01*
X64017388Y-149092878D01*
X63933742Y-148936388D01*
X63882235Y-148766591D01*
X63882234Y-148766588D01*
X63864842Y-148590000D01*
X63882234Y-148413412D01*
X63888125Y-148393992D01*
X63933742Y-148243612D01*
X64017388Y-148087122D01*
X64129957Y-147949957D01*
X64267122Y-147837388D01*
X64423612Y-147753742D01*
X64593409Y-147702235D01*
X64593412Y-147702234D01*
X64725751Y-147689200D01*
X64814249Y-147689200D01*
X64946588Y-147702234D01*
X64946588Y-147702234D01*
G37*
G36*
X76165800Y-147435800D02*
G01*
X74964200Y-147435800D01*
X74964200Y-145934200D01*
X76165800Y-145934200D01*
X76165800Y-147435800D01*
X76165800Y-147435800D01*
G37*
G36*
X77915800Y-147435800D02*
G01*
X76714200Y-147435800D01*
X76714200Y-145934200D01*
X77915800Y-145934200D01*
X77915800Y-147435800D01*
X77915800Y-147435800D01*
G37*
G36*
X82216860Y-145939249D02*
G01*
X82264941Y-145953833D01*
X82309257Y-145977521D01*
X82348100Y-146009400D01*
X82379979Y-146048243D01*
X82403667Y-146092559D01*
X82418251Y-146140640D01*
X82423300Y-146191901D01*
X82423300Y-147178099D01*
X82418251Y-147229360D01*
X82403667Y-147277441D01*
X82379979Y-147321757D01*
X82348100Y-147360600D01*
X82309257Y-147392479D01*
X82264941Y-147416167D01*
X82216860Y-147430751D01*
X82165599Y-147435800D01*
X81604401Y-147435800D01*
X81553140Y-147430751D01*
X81505059Y-147416167D01*
X81460743Y-147392479D01*
X81421900Y-147360600D01*
X81390021Y-147321757D01*
X81366333Y-147277441D01*
X81351749Y-147229360D01*
X81346700Y-147178099D01*
X81346700Y-146191901D01*
X81351749Y-146140640D01*
X81366333Y-146092559D01*
X81390021Y-146048243D01*
X81421900Y-146009400D01*
X81460743Y-145977521D01*
X81505059Y-145953833D01*
X81553140Y-145939249D01*
X81604401Y-145934200D01*
X82165599Y-145934200D01*
X82216860Y-145939249D01*
X82216860Y-145939249D01*
G37*
G36*
X80341860Y-145939249D02*
G01*
X80389941Y-145953833D01*
X80434257Y-145977521D01*
X80473100Y-146009400D01*
X80504979Y-146048243D01*
X80528667Y-146092559D01*
X80543251Y-146140640D01*
X80548300Y-146191901D01*
X80548300Y-147178099D01*
X80543251Y-147229360D01*
X80528667Y-147277441D01*
X80504979Y-147321757D01*
X80473100Y-147360600D01*
X80434257Y-147392479D01*
X80389941Y-147416167D01*
X80341860Y-147430751D01*
X80290599Y-147435800D01*
X79729401Y-147435800D01*
X79678140Y-147430751D01*
X79630059Y-147416167D01*
X79585743Y-147392479D01*
X79546900Y-147360600D01*
X79515021Y-147321757D01*
X79491333Y-147277441D01*
X79476749Y-147229360D01*
X79471700Y-147178099D01*
X79471700Y-146191901D01*
X79476749Y-146140640D01*
X79491333Y-146092559D01*
X79515021Y-146048243D01*
X79546900Y-146009400D01*
X79585743Y-145977521D01*
X79630059Y-145953833D01*
X79678140Y-145939249D01*
X79729401Y-145934200D01*
X80290599Y-145934200D01*
X80341860Y-145939249D01*
X80341860Y-145939249D01*
G37*
G36*
X73659360Y-145939249D02*
G01*
X73707441Y-145953833D01*
X73751757Y-145977521D01*
X73790600Y-146009400D01*
X73822479Y-146048243D01*
X73846167Y-146092559D01*
X73860751Y-146140640D01*
X73865800Y-146191901D01*
X73865800Y-147178099D01*
X73860751Y-147229360D01*
X73846167Y-147277441D01*
X73822479Y-147321757D01*
X73790600Y-147360600D01*
X73751757Y-147392479D01*
X73707441Y-147416167D01*
X73659360Y-147430751D01*
X73608099Y-147435800D01*
X73046901Y-147435800D01*
X72995640Y-147430751D01*
X72947559Y-147416167D01*
X72903243Y-147392479D01*
X72864400Y-147360600D01*
X72832521Y-147321757D01*
X72808833Y-147277441D01*
X72794249Y-147229360D01*
X72789200Y-147178099D01*
X72789200Y-146191901D01*
X72794249Y-146140640D01*
X72808833Y-146092559D01*
X72832521Y-146048243D01*
X72864400Y-146009400D01*
X72903243Y-145977521D01*
X72947559Y-145953833D01*
X72995640Y-145939249D01*
X73046901Y-145934200D01*
X73608099Y-145934200D01*
X73659360Y-145939249D01*
X73659360Y-145939249D01*
G37*
G36*
X69917460Y-145939249D02*
G01*
X69965541Y-145953833D01*
X70009857Y-145977521D01*
X70048700Y-146009400D01*
X70080579Y-146048243D01*
X70104267Y-146092559D01*
X70118851Y-146140640D01*
X70123900Y-146191901D01*
X70123900Y-147178099D01*
X70118851Y-147229360D01*
X70104267Y-147277441D01*
X70080579Y-147321757D01*
X70048700Y-147360600D01*
X70009857Y-147392479D01*
X69965541Y-147416167D01*
X69917460Y-147430751D01*
X69866199Y-147435800D01*
X69305001Y-147435800D01*
X69253740Y-147430751D01*
X69205659Y-147416167D01*
X69161343Y-147392479D01*
X69122500Y-147360600D01*
X69090621Y-147321757D01*
X69066933Y-147277441D01*
X69052349Y-147229360D01*
X69047300Y-147178099D01*
X69047300Y-146191901D01*
X69052349Y-146140640D01*
X69066933Y-146092559D01*
X69090621Y-146048243D01*
X69122500Y-146009400D01*
X69161343Y-145977521D01*
X69205659Y-145953833D01*
X69253740Y-145939249D01*
X69305001Y-145934200D01*
X69866199Y-145934200D01*
X69917460Y-145939249D01*
X69917460Y-145939249D01*
G37*
G36*
X71784360Y-145939249D02*
G01*
X71832441Y-145953833D01*
X71876757Y-145977521D01*
X71915600Y-146009400D01*
X71947479Y-146048243D01*
X71971167Y-146092559D01*
X71985751Y-146140640D01*
X71990800Y-146191901D01*
X71990800Y-147178099D01*
X71985751Y-147229360D01*
X71971167Y-147277441D01*
X71947479Y-147321757D01*
X71915600Y-147360600D01*
X71876757Y-147392479D01*
X71832441Y-147416167D01*
X71784360Y-147430751D01*
X71733099Y-147435800D01*
X71171901Y-147435800D01*
X71120640Y-147430751D01*
X71072559Y-147416167D01*
X71028243Y-147392479D01*
X70989400Y-147360600D01*
X70957521Y-147321757D01*
X70933833Y-147277441D01*
X70919249Y-147229360D01*
X70914200Y-147178099D01*
X70914200Y-146191901D01*
X70919249Y-146140640D01*
X70933833Y-146092559D01*
X70957521Y-146048243D01*
X70989400Y-146009400D01*
X71028243Y-145977521D01*
X71072559Y-145953833D01*
X71120640Y-145939249D01*
X71171901Y-145934200D01*
X71733099Y-145934200D01*
X71784360Y-145939249D01*
X71784360Y-145939249D01*
G37*
G36*
X87806588Y-145162234D02*
G01*
X87806591Y-145162235D01*
X87976388Y-145213742D01*
X88132878Y-145297388D01*
X88270043Y-145409957D01*
X88382612Y-145547122D01*
X88466258Y-145703612D01*
X88511875Y-145853992D01*
X88517766Y-145873412D01*
X88535158Y-146050000D01*
X88517766Y-146226588D01*
X88517765Y-146226591D01*
X88466258Y-146396388D01*
X88382612Y-146552878D01*
X88270043Y-146690043D01*
X88132878Y-146802612D01*
X87976388Y-146886258D01*
X87826008Y-146931875D01*
X87806588Y-146937766D01*
X87674249Y-146950800D01*
X87585751Y-146950800D01*
X87453412Y-146937766D01*
X87433992Y-146931875D01*
X87283612Y-146886258D01*
X87127122Y-146802612D01*
X86989957Y-146690043D01*
X86877388Y-146552878D01*
X86793742Y-146396388D01*
X86742235Y-146226591D01*
X86742234Y-146226588D01*
X86724842Y-146050000D01*
X86742234Y-145873412D01*
X86748125Y-145853992D01*
X86793742Y-145703612D01*
X86877388Y-145547122D01*
X86989957Y-145409957D01*
X87127122Y-145297388D01*
X87283612Y-145213742D01*
X87453409Y-145162235D01*
X87453412Y-145162234D01*
X87585751Y-145149200D01*
X87674249Y-145149200D01*
X87806588Y-145162234D01*
X87806588Y-145162234D01*
G37*
G36*
X64946588Y-145162234D02*
G01*
X64946591Y-145162235D01*
X65116388Y-145213742D01*
X65272878Y-145297388D01*
X65410043Y-145409957D01*
X65522612Y-145547122D01*
X65606258Y-145703612D01*
X65651875Y-145853992D01*
X65657766Y-145873412D01*
X65675158Y-146050000D01*
X65657766Y-146226588D01*
X65657765Y-146226591D01*
X65606258Y-146396388D01*
X65522612Y-146552878D01*
X65410043Y-146690043D01*
X65272878Y-146802612D01*
X65116388Y-146886258D01*
X64966008Y-146931875D01*
X64946588Y-146937766D01*
X64814249Y-146950800D01*
X64725751Y-146950800D01*
X64593412Y-146937766D01*
X64573992Y-146931875D01*
X64423612Y-146886258D01*
X64267122Y-146802612D01*
X64129957Y-146690043D01*
X64017388Y-146552878D01*
X63933742Y-146396388D01*
X63882235Y-146226591D01*
X63882234Y-146226588D01*
X63864842Y-146050000D01*
X63882234Y-145873412D01*
X63888125Y-145853992D01*
X63933742Y-145703612D01*
X64017388Y-145547122D01*
X64129957Y-145409957D01*
X64267122Y-145297388D01*
X64423612Y-145213742D01*
X64593409Y-145162235D01*
X64593412Y-145162234D01*
X64725751Y-145149200D01*
X64814249Y-145149200D01*
X64946588Y-145162234D01*
X64946588Y-145162234D01*
G37*
G36*
X64946588Y-142622234D02*
G01*
X64946591Y-142622235D01*
X65116388Y-142673742D01*
X65272878Y-142757388D01*
X65410043Y-142869957D01*
X65522612Y-143007122D01*
X65606258Y-143163612D01*
X65651875Y-143313992D01*
X65657766Y-143333412D01*
X65675158Y-143510000D01*
X65657766Y-143686588D01*
X65657765Y-143686591D01*
X65606258Y-143856388D01*
X65522612Y-144012878D01*
X65410043Y-144150043D01*
X65272878Y-144262612D01*
X65116388Y-144346258D01*
X64966008Y-144391875D01*
X64946588Y-144397766D01*
X64814249Y-144410800D01*
X64725751Y-144410800D01*
X64593412Y-144397766D01*
X64573992Y-144391875D01*
X64423612Y-144346258D01*
X64267122Y-144262612D01*
X64129957Y-144150043D01*
X64017388Y-144012878D01*
X63933742Y-143856388D01*
X63882235Y-143686591D01*
X63882234Y-143686588D01*
X63864842Y-143510000D01*
X63882234Y-143333412D01*
X63888125Y-143313992D01*
X63933742Y-143163612D01*
X64017388Y-143007122D01*
X64129957Y-142869957D01*
X64267122Y-142757388D01*
X64423612Y-142673742D01*
X64593409Y-142622235D01*
X64593412Y-142622234D01*
X64725751Y-142609200D01*
X64814249Y-142609200D01*
X64946588Y-142622234D01*
X64946588Y-142622234D01*
G37*
G36*
X87806588Y-142622234D02*
G01*
X87806591Y-142622235D01*
X87976388Y-142673742D01*
X88132878Y-142757388D01*
X88270043Y-142869957D01*
X88382612Y-143007122D01*
X88466258Y-143163612D01*
X88511875Y-143313992D01*
X88517766Y-143333412D01*
X88535158Y-143510000D01*
X88517766Y-143686588D01*
X88517765Y-143686591D01*
X88466258Y-143856388D01*
X88382612Y-144012878D01*
X88270043Y-144150043D01*
X88132878Y-144262612D01*
X87976388Y-144346258D01*
X87826008Y-144391875D01*
X87806588Y-144397766D01*
X87674249Y-144410800D01*
X87585751Y-144410800D01*
X87453412Y-144397766D01*
X87433992Y-144391875D01*
X87283612Y-144346258D01*
X87127122Y-144262612D01*
X86989957Y-144150043D01*
X86877388Y-144012878D01*
X86793742Y-143856388D01*
X86742235Y-143686591D01*
X86742234Y-143686588D01*
X86724842Y-143510000D01*
X86742234Y-143333412D01*
X86748125Y-143313992D01*
X86793742Y-143163612D01*
X86877388Y-143007122D01*
X86989957Y-142869957D01*
X87127122Y-142757388D01*
X87283612Y-142673742D01*
X87453409Y-142622235D01*
X87453412Y-142622234D01*
X87585751Y-142609200D01*
X87674249Y-142609200D01*
X87806588Y-142622234D01*
X87806588Y-142622234D01*
G37*
G36*
X79706860Y-142129249D02*
G01*
X79754941Y-142143833D01*
X79799257Y-142167521D01*
X79838100Y-142199400D01*
X79869979Y-142238243D01*
X79893667Y-142282559D01*
X79908251Y-142330640D01*
X79913300Y-142381901D01*
X79913300Y-143368099D01*
X79908251Y-143419360D01*
X79893667Y-143467441D01*
X79869979Y-143511757D01*
X79838100Y-143550600D01*
X79799257Y-143582479D01*
X79754941Y-143606167D01*
X79706860Y-143620751D01*
X79655599Y-143625800D01*
X79094401Y-143625800D01*
X79043140Y-143620751D01*
X78995059Y-143606167D01*
X78950743Y-143582479D01*
X78911900Y-143550600D01*
X78880021Y-143511757D01*
X78856333Y-143467441D01*
X78841749Y-143419360D01*
X78836700Y-143368099D01*
X78836700Y-142381901D01*
X78841749Y-142330640D01*
X78856333Y-142282559D01*
X78880021Y-142238243D01*
X78911900Y-142199400D01*
X78950743Y-142167521D01*
X78995059Y-142143833D01*
X79043140Y-142129249D01*
X79094401Y-142124200D01*
X79655599Y-142124200D01*
X79706860Y-142129249D01*
X79706860Y-142129249D01*
G37*
G36*
X83516860Y-142129249D02*
G01*
X83564941Y-142143833D01*
X83609257Y-142167521D01*
X83648100Y-142199400D01*
X83679979Y-142238243D01*
X83703667Y-142282559D01*
X83718251Y-142330640D01*
X83723300Y-142381901D01*
X83723300Y-143368099D01*
X83718251Y-143419360D01*
X83703667Y-143467441D01*
X83679979Y-143511757D01*
X83648100Y-143550600D01*
X83609257Y-143582479D01*
X83564941Y-143606167D01*
X83516860Y-143620751D01*
X83465599Y-143625800D01*
X82904401Y-143625800D01*
X82853140Y-143620751D01*
X82805059Y-143606167D01*
X82760743Y-143582479D01*
X82721900Y-143550600D01*
X82690021Y-143511757D01*
X82666333Y-143467441D01*
X82651749Y-143419360D01*
X82646700Y-143368099D01*
X82646700Y-142381901D01*
X82651749Y-142330640D01*
X82666333Y-142282559D01*
X82690021Y-142238243D01*
X82721900Y-142199400D01*
X82760743Y-142167521D01*
X82805059Y-142143833D01*
X82853140Y-142129249D01*
X82904401Y-142124200D01*
X83465599Y-142124200D01*
X83516860Y-142129249D01*
X83516860Y-142129249D01*
G37*
G36*
X81641860Y-142129249D02*
G01*
X81689941Y-142143833D01*
X81734257Y-142167521D01*
X81773100Y-142199400D01*
X81804979Y-142238243D01*
X81828667Y-142282559D01*
X81843251Y-142330640D01*
X81848300Y-142381901D01*
X81848300Y-143368099D01*
X81843251Y-143419360D01*
X81828667Y-143467441D01*
X81804979Y-143511757D01*
X81773100Y-143550600D01*
X81734257Y-143582479D01*
X81689941Y-143606167D01*
X81641860Y-143620751D01*
X81590599Y-143625800D01*
X81029401Y-143625800D01*
X80978140Y-143620751D01*
X80930059Y-143606167D01*
X80885743Y-143582479D01*
X80846900Y-143550600D01*
X80815021Y-143511757D01*
X80791333Y-143467441D01*
X80776749Y-143419360D01*
X80771700Y-143368099D01*
X80771700Y-142381901D01*
X80776749Y-142330640D01*
X80791333Y-142282559D01*
X80815021Y-142238243D01*
X80846900Y-142199400D01*
X80885743Y-142167521D01*
X80930059Y-142143833D01*
X80978140Y-142129249D01*
X81029401Y-142124200D01*
X81590599Y-142124200D01*
X81641860Y-142129249D01*
X81641860Y-142129249D01*
G37*
G36*
X77831860Y-142129249D02*
G01*
X77879941Y-142143833D01*
X77924257Y-142167521D01*
X77963100Y-142199400D01*
X77994979Y-142238243D01*
X78018667Y-142282559D01*
X78033251Y-142330640D01*
X78038300Y-142381901D01*
X78038300Y-143368099D01*
X78033251Y-143419360D01*
X78018667Y-143467441D01*
X77994979Y-143511757D01*
X77963100Y-143550600D01*
X77924257Y-143582479D01*
X77879941Y-143606167D01*
X77831860Y-143620751D01*
X77780599Y-143625800D01*
X77219401Y-143625800D01*
X77168140Y-143620751D01*
X77120059Y-143606167D01*
X77075743Y-143582479D01*
X77036900Y-143550600D01*
X77005021Y-143511757D01*
X76981333Y-143467441D01*
X76966749Y-143419360D01*
X76961700Y-143368099D01*
X76961700Y-142381901D01*
X76966749Y-142330640D01*
X76981333Y-142282559D01*
X77005021Y-142238243D01*
X77036900Y-142199400D01*
X77075743Y-142167521D01*
X77120059Y-142143833D01*
X77168140Y-142129249D01*
X77219401Y-142124200D01*
X77780599Y-142124200D01*
X77831860Y-142129249D01*
X77831860Y-142129249D01*
G37*
G36*
X75261860Y-142129249D02*
G01*
X75309941Y-142143833D01*
X75354257Y-142167521D01*
X75393100Y-142199400D01*
X75424979Y-142238243D01*
X75448667Y-142282559D01*
X75463251Y-142330640D01*
X75468300Y-142381901D01*
X75468300Y-143368099D01*
X75463251Y-143419360D01*
X75448667Y-143467441D01*
X75424979Y-143511757D01*
X75393100Y-143550600D01*
X75354257Y-143582479D01*
X75309941Y-143606167D01*
X75261860Y-143620751D01*
X75210599Y-143625800D01*
X74649401Y-143625800D01*
X74598140Y-143620751D01*
X74550059Y-143606167D01*
X74505743Y-143582479D01*
X74466900Y-143550600D01*
X74435021Y-143511757D01*
X74411333Y-143467441D01*
X74396749Y-143419360D01*
X74391700Y-143368099D01*
X74391700Y-142381901D01*
X74396749Y-142330640D01*
X74411333Y-142282559D01*
X74435021Y-142238243D01*
X74466900Y-142199400D01*
X74505743Y-142167521D01*
X74550059Y-142143833D01*
X74598140Y-142129249D01*
X74649401Y-142124200D01*
X75210599Y-142124200D01*
X75261860Y-142129249D01*
X75261860Y-142129249D01*
G37*
G36*
X71451860Y-142129249D02*
G01*
X71499941Y-142143833D01*
X71544257Y-142167521D01*
X71583100Y-142199400D01*
X71614979Y-142238243D01*
X71638667Y-142282559D01*
X71653251Y-142330640D01*
X71658300Y-142381901D01*
X71658300Y-143368099D01*
X71653251Y-143419360D01*
X71638667Y-143467441D01*
X71614979Y-143511757D01*
X71583100Y-143550600D01*
X71544257Y-143582479D01*
X71499941Y-143606167D01*
X71451860Y-143620751D01*
X71400599Y-143625800D01*
X70839401Y-143625800D01*
X70788140Y-143620751D01*
X70740059Y-143606167D01*
X70695743Y-143582479D01*
X70656900Y-143550600D01*
X70625021Y-143511757D01*
X70601333Y-143467441D01*
X70586749Y-143419360D01*
X70581700Y-143368099D01*
X70581700Y-142381901D01*
X70586749Y-142330640D01*
X70601333Y-142282559D01*
X70625021Y-142238243D01*
X70656900Y-142199400D01*
X70695743Y-142167521D01*
X70740059Y-142143833D01*
X70788140Y-142129249D01*
X70839401Y-142124200D01*
X71400599Y-142124200D01*
X71451860Y-142129249D01*
X71451860Y-142129249D01*
G37*
G36*
X69576860Y-142129249D02*
G01*
X69624941Y-142143833D01*
X69669257Y-142167521D01*
X69708100Y-142199400D01*
X69739979Y-142238243D01*
X69763667Y-142282559D01*
X69778251Y-142330640D01*
X69783300Y-142381901D01*
X69783300Y-143368099D01*
X69778251Y-143419360D01*
X69763667Y-143467441D01*
X69739979Y-143511757D01*
X69708100Y-143550600D01*
X69669257Y-143582479D01*
X69624941Y-143606167D01*
X69576860Y-143620751D01*
X69525599Y-143625800D01*
X68964401Y-143625800D01*
X68913140Y-143620751D01*
X68865059Y-143606167D01*
X68820743Y-143582479D01*
X68781900Y-143550600D01*
X68750021Y-143511757D01*
X68726333Y-143467441D01*
X68711749Y-143419360D01*
X68706700Y-143368099D01*
X68706700Y-142381901D01*
X68711749Y-142330640D01*
X68726333Y-142282559D01*
X68750021Y-142238243D01*
X68781900Y-142199400D01*
X68820743Y-142167521D01*
X68865059Y-142143833D01*
X68913140Y-142129249D01*
X68964401Y-142124200D01*
X69525599Y-142124200D01*
X69576860Y-142129249D01*
X69576860Y-142129249D01*
G37*
G36*
X73386860Y-142129249D02*
G01*
X73434941Y-142143833D01*
X73479257Y-142167521D01*
X73518100Y-142199400D01*
X73549979Y-142238243D01*
X73573667Y-142282559D01*
X73588251Y-142330640D01*
X73593300Y-142381901D01*
X73593300Y-143368099D01*
X73588251Y-143419360D01*
X73573667Y-143467441D01*
X73549979Y-143511757D01*
X73518100Y-143550600D01*
X73479257Y-143582479D01*
X73434941Y-143606167D01*
X73386860Y-143620751D01*
X73335599Y-143625800D01*
X72774401Y-143625800D01*
X72723140Y-143620751D01*
X72675059Y-143606167D01*
X72630743Y-143582479D01*
X72591900Y-143550600D01*
X72560021Y-143511757D01*
X72536333Y-143467441D01*
X72521749Y-143419360D01*
X72516700Y-143368099D01*
X72516700Y-142381901D01*
X72521749Y-142330640D01*
X72536333Y-142282559D01*
X72560021Y-142238243D01*
X72591900Y-142199400D01*
X72630743Y-142167521D01*
X72675059Y-142143833D01*
X72723140Y-142129249D01*
X72774401Y-142124200D01*
X73335599Y-142124200D01*
X73386860Y-142129249D01*
X73386860Y-142129249D01*
G37*
G36*
X87806588Y-140082234D02*
G01*
X87806591Y-140082235D01*
X87976388Y-140133742D01*
X88132878Y-140217388D01*
X88270043Y-140329957D01*
X88382612Y-140467122D01*
X88466258Y-140623612D01*
X88511875Y-140773992D01*
X88517766Y-140793412D01*
X88535158Y-140970000D01*
X88517766Y-141146588D01*
X88517765Y-141146591D01*
X88466258Y-141316388D01*
X88382612Y-141472878D01*
X88270043Y-141610043D01*
X88132878Y-141722612D01*
X87976388Y-141806258D01*
X87826008Y-141851875D01*
X87806588Y-141857766D01*
X87674249Y-141870800D01*
X87585751Y-141870800D01*
X87453412Y-141857766D01*
X87433992Y-141851875D01*
X87283612Y-141806258D01*
X87127122Y-141722612D01*
X86989957Y-141610043D01*
X86877388Y-141472878D01*
X86793742Y-141316388D01*
X86742235Y-141146591D01*
X86742234Y-141146588D01*
X86724842Y-140970000D01*
X86742234Y-140793412D01*
X86748125Y-140773992D01*
X86793742Y-140623612D01*
X86877388Y-140467122D01*
X86989957Y-140329957D01*
X87127122Y-140217388D01*
X87283612Y-140133742D01*
X87453409Y-140082235D01*
X87453412Y-140082234D01*
X87585751Y-140069200D01*
X87674249Y-140069200D01*
X87806588Y-140082234D01*
X87806588Y-140082234D01*
G37*
G36*
X64946588Y-140082234D02*
G01*
X64946591Y-140082235D01*
X65116388Y-140133742D01*
X65272878Y-140217388D01*
X65410043Y-140329957D01*
X65522612Y-140467122D01*
X65606258Y-140623612D01*
X65651875Y-140773992D01*
X65657766Y-140793412D01*
X65675158Y-140970000D01*
X65657766Y-141146588D01*
X65657765Y-141146591D01*
X65606258Y-141316388D01*
X65522612Y-141472878D01*
X65410043Y-141610043D01*
X65272878Y-141722612D01*
X65116388Y-141806258D01*
X64966008Y-141851875D01*
X64946588Y-141857766D01*
X64814249Y-141870800D01*
X64725751Y-141870800D01*
X64593412Y-141857766D01*
X64573992Y-141851875D01*
X64423612Y-141806258D01*
X64267122Y-141722612D01*
X64129957Y-141610043D01*
X64017388Y-141472878D01*
X63933742Y-141316388D01*
X63882235Y-141146591D01*
X63882234Y-141146588D01*
X63864842Y-140970000D01*
X63882234Y-140793412D01*
X63888125Y-140773992D01*
X63933742Y-140623612D01*
X64017388Y-140467122D01*
X64129957Y-140329957D01*
X64267122Y-140217388D01*
X64423612Y-140133742D01*
X64593409Y-140082235D01*
X64593412Y-140082234D01*
X64725751Y-140069200D01*
X64814249Y-140069200D01*
X64946588Y-140082234D01*
X64946588Y-140082234D01*
G37*
G36*
X64946588Y-137542234D02*
G01*
X64946591Y-137542235D01*
X65116388Y-137593742D01*
X65272878Y-137677388D01*
X65410043Y-137789957D01*
X65522612Y-137927122D01*
X65606258Y-138083612D01*
X65651875Y-138233992D01*
X65657766Y-138253412D01*
X65675158Y-138430000D01*
X65657766Y-138606588D01*
X65657765Y-138606591D01*
X65606258Y-138776388D01*
X65522612Y-138932878D01*
X65410043Y-139070043D01*
X65272878Y-139182612D01*
X65116388Y-139266258D01*
X64966008Y-139311875D01*
X64946588Y-139317766D01*
X64814249Y-139330800D01*
X64725751Y-139330800D01*
X64593412Y-139317766D01*
X64573992Y-139311875D01*
X64423612Y-139266258D01*
X64267122Y-139182612D01*
X64129957Y-139070043D01*
X64017388Y-138932878D01*
X63933742Y-138776388D01*
X63882235Y-138606591D01*
X63882234Y-138606588D01*
X63864842Y-138430000D01*
X63882234Y-138253412D01*
X63888125Y-138233992D01*
X63933742Y-138083612D01*
X64017388Y-137927122D01*
X64129957Y-137789957D01*
X64267122Y-137677388D01*
X64423612Y-137593742D01*
X64593409Y-137542235D01*
X64593412Y-137542234D01*
X64725751Y-137529200D01*
X64814249Y-137529200D01*
X64946588Y-137542234D01*
X64946588Y-137542234D01*
G37*
G36*
X87806588Y-137542234D02*
G01*
X87806591Y-137542235D01*
X87976388Y-137593742D01*
X88132878Y-137677388D01*
X88270043Y-137789957D01*
X88382612Y-137927122D01*
X88466258Y-138083612D01*
X88511875Y-138233992D01*
X88517766Y-138253412D01*
X88535158Y-138430000D01*
X88517766Y-138606588D01*
X88517765Y-138606591D01*
X88466258Y-138776388D01*
X88382612Y-138932878D01*
X88270043Y-139070043D01*
X88132878Y-139182612D01*
X87976388Y-139266258D01*
X87826008Y-139311875D01*
X87806588Y-139317766D01*
X87674249Y-139330800D01*
X87585751Y-139330800D01*
X87453412Y-139317766D01*
X87433992Y-139311875D01*
X87283612Y-139266258D01*
X87127122Y-139182612D01*
X86989957Y-139070043D01*
X86877388Y-138932878D01*
X86793742Y-138776388D01*
X86742235Y-138606591D01*
X86742234Y-138606588D01*
X86724842Y-138430000D01*
X86742234Y-138253412D01*
X86748125Y-138233992D01*
X86793742Y-138083612D01*
X86877388Y-137927122D01*
X86989957Y-137789957D01*
X87127122Y-137677388D01*
X87283612Y-137593742D01*
X87453409Y-137542235D01*
X87453412Y-137542234D01*
X87585751Y-137529200D01*
X87674249Y-137529200D01*
X87806588Y-137542234D01*
X87806588Y-137542234D01*
G37*
G36*
X71565800Y-138545800D02*
G01*
X70364200Y-138545800D01*
X70364200Y-137044200D01*
X71565800Y-137044200D01*
X71565800Y-138545800D01*
X71565800Y-138545800D01*
G37*
G36*
X69815800Y-138545800D02*
G01*
X68614200Y-138545800D01*
X68614200Y-137044200D01*
X69815800Y-137044200D01*
X69815800Y-138545800D01*
X69815800Y-138545800D01*
G37*
G36*
X82007800Y-138545800D02*
G01*
X80806200Y-138545800D01*
X80806200Y-137044200D01*
X82007800Y-137044200D01*
X82007800Y-138545800D01*
X82007800Y-138545800D01*
G37*
G36*
X79693800Y-138545800D02*
G01*
X78492200Y-138545800D01*
X78492200Y-137044200D01*
X79693800Y-137044200D01*
X79693800Y-138545800D01*
X79693800Y-138545800D01*
G37*
G36*
X77943800Y-138545800D02*
G01*
X76742200Y-138545800D01*
X76742200Y-137044200D01*
X77943800Y-137044200D01*
X77943800Y-138545800D01*
X77943800Y-138545800D01*
G37*
G36*
X75629800Y-138545800D02*
G01*
X74428200Y-138545800D01*
X74428200Y-137044200D01*
X75629800Y-137044200D01*
X75629800Y-138545800D01*
X75629800Y-138545800D01*
G37*
G36*
X73879800Y-138545800D02*
G01*
X72678200Y-138545800D01*
X72678200Y-137044200D01*
X73879800Y-137044200D01*
X73879800Y-138545800D01*
X73879800Y-138545800D01*
G37*
G36*
X83757800Y-138545800D02*
G01*
X82556200Y-138545800D01*
X82556200Y-137044200D01*
X83757800Y-137044200D01*
X83757800Y-138545800D01*
X83757800Y-138545800D01*
G37*
G36*
X64946588Y-135002234D02*
G01*
X64946591Y-135002235D01*
X65116388Y-135053742D01*
X65272878Y-135137388D01*
X65410043Y-135249957D01*
X65522612Y-135387122D01*
X65606258Y-135543612D01*
X65651875Y-135693992D01*
X65657766Y-135713412D01*
X65675158Y-135890000D01*
X65657766Y-136066588D01*
X65657765Y-136066591D01*
X65606258Y-136236388D01*
X65522612Y-136392878D01*
X65410043Y-136530043D01*
X65272878Y-136642612D01*
X65116388Y-136726258D01*
X64966008Y-136771875D01*
X64946588Y-136777766D01*
X64814249Y-136790800D01*
X64725751Y-136790800D01*
X64593412Y-136777766D01*
X64573992Y-136771875D01*
X64423612Y-136726258D01*
X64267122Y-136642612D01*
X64129957Y-136530043D01*
X64017388Y-136392878D01*
X63933742Y-136236388D01*
X63882235Y-136066591D01*
X63882234Y-136066588D01*
X63864842Y-135890000D01*
X63882234Y-135713412D01*
X63888125Y-135693992D01*
X63933742Y-135543612D01*
X64017388Y-135387122D01*
X64129957Y-135249957D01*
X64267122Y-135137388D01*
X64423612Y-135053742D01*
X64593409Y-135002235D01*
X64593412Y-135002234D01*
X64725751Y-134989200D01*
X64814249Y-134989200D01*
X64946588Y-135002234D01*
X64946588Y-135002234D01*
G37*
G36*
X87806588Y-135002234D02*
G01*
X87806591Y-135002235D01*
X87976388Y-135053742D01*
X88132878Y-135137388D01*
X88270043Y-135249957D01*
X88382612Y-135387122D01*
X88466258Y-135543612D01*
X88511875Y-135693992D01*
X88517766Y-135713412D01*
X88535158Y-135890000D01*
X88517766Y-136066588D01*
X88517765Y-136066591D01*
X88466258Y-136236388D01*
X88382612Y-136392878D01*
X88270043Y-136530043D01*
X88132878Y-136642612D01*
X87976388Y-136726258D01*
X87826008Y-136771875D01*
X87806588Y-136777766D01*
X87674249Y-136790800D01*
X87585751Y-136790800D01*
X87453412Y-136777766D01*
X87433992Y-136771875D01*
X87283612Y-136726258D01*
X87127122Y-136642612D01*
X86989957Y-136530043D01*
X86877388Y-136392878D01*
X86793742Y-136236388D01*
X86742235Y-136066591D01*
X86742234Y-136066588D01*
X86724842Y-135890000D01*
X86742234Y-135713412D01*
X86748125Y-135693992D01*
X86793742Y-135543612D01*
X86877388Y-135387122D01*
X86989957Y-135249957D01*
X87127122Y-135137388D01*
X87283612Y-135053742D01*
X87453409Y-135002235D01*
X87453412Y-135002234D01*
X87585751Y-134989200D01*
X87674249Y-134989200D01*
X87806588Y-135002234D01*
X87806588Y-135002234D01*
G37*
G36*
X87806588Y-132462234D02*
G01*
X87806591Y-132462235D01*
X87976388Y-132513742D01*
X88132878Y-132597388D01*
X88270043Y-132709957D01*
X88382612Y-132847122D01*
X88466258Y-133003612D01*
X88511875Y-133153992D01*
X88517766Y-133173412D01*
X88535158Y-133350000D01*
X88517766Y-133526588D01*
X88517765Y-133526591D01*
X88466258Y-133696388D01*
X88382612Y-133852878D01*
X88270043Y-133990043D01*
X88132878Y-134102612D01*
X87976388Y-134186258D01*
X87826008Y-134231875D01*
X87806588Y-134237766D01*
X87674249Y-134250800D01*
X87585751Y-134250800D01*
X87453412Y-134237766D01*
X87433992Y-134231875D01*
X87283612Y-134186258D01*
X87127122Y-134102612D01*
X86989957Y-133990043D01*
X86877388Y-133852878D01*
X86793742Y-133696388D01*
X86742235Y-133526591D01*
X86742234Y-133526588D01*
X86724842Y-133350000D01*
X86742234Y-133173412D01*
X86748125Y-133153992D01*
X86793742Y-133003612D01*
X86877388Y-132847122D01*
X86989957Y-132709957D01*
X87127122Y-132597388D01*
X87283612Y-132513742D01*
X87453409Y-132462235D01*
X87453412Y-132462234D01*
X87585751Y-132449200D01*
X87674249Y-132449200D01*
X87806588Y-132462234D01*
X87806588Y-132462234D01*
G37*
G36*
X64946588Y-132462234D02*
G01*
X64946591Y-132462235D01*
X65116388Y-132513742D01*
X65272878Y-132597388D01*
X65410043Y-132709957D01*
X65522612Y-132847122D01*
X65606258Y-133003612D01*
X65651875Y-133153992D01*
X65657766Y-133173412D01*
X65675158Y-133350000D01*
X65657766Y-133526588D01*
X65657765Y-133526591D01*
X65606258Y-133696388D01*
X65522612Y-133852878D01*
X65410043Y-133990043D01*
X65272878Y-134102612D01*
X65116388Y-134186258D01*
X64966008Y-134231875D01*
X64946588Y-134237766D01*
X64814249Y-134250800D01*
X64725751Y-134250800D01*
X64593412Y-134237766D01*
X64573992Y-134231875D01*
X64423612Y-134186258D01*
X64267122Y-134102612D01*
X64129957Y-133990043D01*
X64017388Y-133852878D01*
X63933742Y-133696388D01*
X63882235Y-133526591D01*
X63882234Y-133526588D01*
X63864842Y-133350000D01*
X63882234Y-133173412D01*
X63888125Y-133153992D01*
X63933742Y-133003612D01*
X64017388Y-132847122D01*
X64129957Y-132709957D01*
X64267122Y-132597388D01*
X64423612Y-132513742D01*
X64593409Y-132462235D01*
X64593412Y-132462234D01*
X64725751Y-132449200D01*
X64814249Y-132449200D01*
X64946588Y-132462234D01*
X64946588Y-132462234D01*
G37*
G36*
X80899000Y-134200900D02*
G01*
X80391000Y-134200900D01*
X80391000Y-132499100D01*
X80899000Y-132499100D01*
X80899000Y-134200900D01*
X80899000Y-134200900D01*
G37*
G36*
X81534000Y-134200900D02*
G01*
X81026000Y-134200900D01*
X81026000Y-132499100D01*
X81534000Y-132499100D01*
X81534000Y-134200900D01*
X81534000Y-134200900D01*
G37*
G36*
X73914000Y-134200900D02*
G01*
X73406000Y-134200900D01*
X73406000Y-132499100D01*
X73914000Y-132499100D01*
X73914000Y-134200900D01*
X73914000Y-134200900D01*
G37*
G36*
X73279000Y-134200900D02*
G01*
X72771000Y-134200900D01*
X72771000Y-132499100D01*
X73279000Y-132499100D01*
X73279000Y-134200900D01*
X73279000Y-134200900D01*
G37*
G36*
X72644000Y-134200900D02*
G01*
X72136000Y-134200900D01*
X72136000Y-132499100D01*
X72644000Y-132499100D01*
X72644000Y-134200900D01*
X72644000Y-134200900D01*
G37*
G36*
X72009000Y-134200900D02*
G01*
X71501000Y-134200900D01*
X71501000Y-132499100D01*
X72009000Y-132499100D01*
X72009000Y-134200900D01*
X72009000Y-134200900D01*
G37*
G36*
X71374000Y-134200900D02*
G01*
X70866000Y-134200900D01*
X70866000Y-132499100D01*
X71374000Y-132499100D01*
X71374000Y-134200900D01*
X71374000Y-134200900D01*
G37*
G36*
X70739000Y-134200900D02*
G01*
X70231000Y-134200900D01*
X70231000Y-132499100D01*
X70739000Y-132499100D01*
X70739000Y-134200900D01*
X70739000Y-134200900D01*
G37*
G36*
X78359000Y-134200900D02*
G01*
X77851000Y-134200900D01*
X77851000Y-132499100D01*
X78359000Y-132499100D01*
X78359000Y-134200900D01*
X78359000Y-134200900D01*
G37*
G36*
X78994000Y-134200900D02*
G01*
X78486000Y-134200900D01*
X78486000Y-132499100D01*
X78994000Y-132499100D01*
X78994000Y-134200900D01*
X78994000Y-134200900D01*
G37*
G36*
X79629000Y-134200900D02*
G01*
X79121000Y-134200900D01*
X79121000Y-132499100D01*
X79629000Y-132499100D01*
X79629000Y-134200900D01*
X79629000Y-134200900D01*
G37*
G36*
X80264000Y-134200900D02*
G01*
X79756000Y-134200900D01*
X79756000Y-132499100D01*
X80264000Y-132499100D01*
X80264000Y-134200900D01*
X80264000Y-134200900D01*
G37*
G36*
X82169000Y-134200900D02*
G01*
X81661000Y-134200900D01*
X81661000Y-132499100D01*
X82169000Y-132499100D01*
X82169000Y-134200900D01*
X82169000Y-134200900D01*
G37*
G36*
X82804000Y-134200900D02*
G01*
X82296000Y-134200900D01*
X82296000Y-132499100D01*
X82804000Y-132499100D01*
X82804000Y-134200900D01*
X82804000Y-134200900D01*
G37*
G36*
X74549000Y-134200900D02*
G01*
X74041000Y-134200900D01*
X74041000Y-132499100D01*
X74549000Y-132499100D01*
X74549000Y-134200900D01*
X74549000Y-134200900D01*
G37*
G36*
X70104000Y-134200900D02*
G01*
X69596000Y-134200900D01*
X69596000Y-132499100D01*
X70104000Y-132499100D01*
X70104000Y-134200900D01*
X70104000Y-134200900D01*
G37*
G36*
X88530800Y-131710800D02*
G01*
X86729200Y-131710800D01*
X86729200Y-129909200D01*
X88530800Y-129909200D01*
X88530800Y-131710800D01*
X88530800Y-131710800D01*
G37*
G36*
X65670800Y-131710800D02*
G01*
X63869200Y-131710800D01*
X63869200Y-129909200D01*
X65670800Y-129909200D01*
X65670800Y-131710800D01*
X65670800Y-131710800D01*
G37*
G36*
X78359000Y-128790700D02*
G01*
X77851000Y-128790700D01*
X77851000Y-127088900D01*
X78359000Y-127088900D01*
X78359000Y-128790700D01*
X78359000Y-128790700D01*
G37*
G36*
X70739000Y-128790700D02*
G01*
X70231000Y-128790700D01*
X70231000Y-127088900D01*
X70739000Y-127088900D01*
X70739000Y-128790700D01*
X70739000Y-128790700D01*
G37*
G36*
X71374000Y-128790700D02*
G01*
X70866000Y-128790700D01*
X70866000Y-127088900D01*
X71374000Y-127088900D01*
X71374000Y-128790700D01*
X71374000Y-128790700D01*
G37*
G36*
X72009000Y-128790700D02*
G01*
X71501000Y-128790700D01*
X71501000Y-127088900D01*
X72009000Y-127088900D01*
X72009000Y-128790700D01*
X72009000Y-128790700D01*
G37*
G36*
X73279000Y-128790700D02*
G01*
X72771000Y-128790700D01*
X72771000Y-127088900D01*
X73279000Y-127088900D01*
X73279000Y-128790700D01*
X73279000Y-128790700D01*
G37*
G36*
X73914000Y-128790700D02*
G01*
X73406000Y-128790700D01*
X73406000Y-127088900D01*
X73914000Y-127088900D01*
X73914000Y-128790700D01*
X73914000Y-128790700D01*
G37*
G36*
X74549000Y-128790700D02*
G01*
X74041000Y-128790700D01*
X74041000Y-127088900D01*
X74549000Y-127088900D01*
X74549000Y-128790700D01*
X74549000Y-128790700D01*
G37*
G36*
X72644000Y-128790700D02*
G01*
X72136000Y-128790700D01*
X72136000Y-127088900D01*
X72644000Y-127088900D01*
X72644000Y-128790700D01*
X72644000Y-128790700D01*
G37*
G36*
X82804000Y-128790700D02*
G01*
X82296000Y-128790700D01*
X82296000Y-127088900D01*
X82804000Y-127088900D01*
X82804000Y-128790700D01*
X82804000Y-128790700D01*
G37*
G36*
X82169000Y-128790700D02*
G01*
X81661000Y-128790700D01*
X81661000Y-127088900D01*
X82169000Y-127088900D01*
X82169000Y-128790700D01*
X82169000Y-128790700D01*
G37*
G36*
X81534000Y-128790700D02*
G01*
X81026000Y-128790700D01*
X81026000Y-127088900D01*
X81534000Y-127088900D01*
X81534000Y-128790700D01*
X81534000Y-128790700D01*
G37*
G36*
X80899000Y-128790700D02*
G01*
X80391000Y-128790700D01*
X80391000Y-127088900D01*
X80899000Y-127088900D01*
X80899000Y-128790700D01*
X80899000Y-128790700D01*
G37*
G36*
X79629000Y-128790700D02*
G01*
X79121000Y-128790700D01*
X79121000Y-127088900D01*
X79629000Y-127088900D01*
X79629000Y-128790700D01*
X79629000Y-128790700D01*
G37*
G36*
X78994000Y-128790700D02*
G01*
X78486000Y-128790700D01*
X78486000Y-127088900D01*
X78994000Y-127088900D01*
X78994000Y-128790700D01*
X78994000Y-128790700D01*
G37*
G36*
X80264000Y-128790700D02*
G01*
X79756000Y-128790700D01*
X79756000Y-127088900D01*
X80264000Y-127088900D01*
X80264000Y-128790700D01*
X80264000Y-128790700D01*
G37*
G36*
X70104000Y-128790700D02*
G01*
X69596000Y-128790700D01*
X69596000Y-127088900D01*
X70104000Y-127088900D01*
X70104000Y-128790700D01*
X70104000Y-128790700D01*
G37*
G36*
X78950463Y-122269222D02*
G01*
X78998286Y-122283729D01*
X79042366Y-122307290D01*
X79081002Y-122338998D01*
X79112710Y-122377634D01*
X79136271Y-122421714D01*
X79150778Y-122469537D01*
X79155800Y-122520530D01*
X79155800Y-123859470D01*
X79150778Y-123910463D01*
X79136271Y-123958286D01*
X79112710Y-124002366D01*
X79081002Y-124041002D01*
X79042366Y-124072710D01*
X78998286Y-124096271D01*
X78950463Y-124110778D01*
X78899470Y-124115800D01*
X78060530Y-124115800D01*
X78009537Y-124110778D01*
X77961714Y-124096271D01*
X77917634Y-124072710D01*
X77878998Y-124041002D01*
X77847290Y-124002366D01*
X77823729Y-123958286D01*
X77809222Y-123910463D01*
X77804200Y-123859470D01*
X77804200Y-122520530D01*
X77809222Y-122469537D01*
X77823729Y-122421714D01*
X77847290Y-122377634D01*
X77878998Y-122338998D01*
X77917634Y-122307290D01*
X77961714Y-122283729D01*
X78009537Y-122269222D01*
X78060530Y-122264200D01*
X78899470Y-122264200D01*
X78950463Y-122269222D01*
X78950463Y-122269222D01*
G37*
G36*
X69050463Y-122269222D02*
G01*
X69098286Y-122283729D01*
X69142366Y-122307290D01*
X69181002Y-122338998D01*
X69212710Y-122377634D01*
X69236271Y-122421714D01*
X69250778Y-122469537D01*
X69255800Y-122520530D01*
X69255800Y-123859470D01*
X69250778Y-123910463D01*
X69236271Y-123958286D01*
X69212710Y-124002366D01*
X69181002Y-124041002D01*
X69142366Y-124072710D01*
X69098286Y-124096271D01*
X69050463Y-124110778D01*
X68999470Y-124115800D01*
X68160530Y-124115800D01*
X68109537Y-124110778D01*
X68061714Y-124096271D01*
X68017634Y-124072710D01*
X67978998Y-124041002D01*
X67947290Y-124002366D01*
X67923729Y-123958286D01*
X67909222Y-123910463D01*
X67904200Y-123859470D01*
X67904200Y-122520530D01*
X67909222Y-122469537D01*
X67923729Y-122421714D01*
X67947290Y-122377634D01*
X67978998Y-122338998D01*
X68017634Y-122307290D01*
X68061714Y-122283729D01*
X68109537Y-122269222D01*
X68160530Y-122264200D01*
X68999470Y-122264200D01*
X69050463Y-122269222D01*
X69050463Y-122269222D01*
G37*
G36*
X74765463Y-122269222D02*
G01*
X74813286Y-122283729D01*
X74857366Y-122307290D01*
X74896002Y-122338998D01*
X74927710Y-122377634D01*
X74951271Y-122421714D01*
X74965778Y-122469537D01*
X74970800Y-122520530D01*
X74970800Y-123859470D01*
X74965778Y-123910463D01*
X74951271Y-123958286D01*
X74927710Y-124002366D01*
X74896002Y-124041002D01*
X74857366Y-124072710D01*
X74813286Y-124096271D01*
X74765463Y-124110778D01*
X74714470Y-124115800D01*
X73875530Y-124115800D01*
X73824537Y-124110778D01*
X73776714Y-124096271D01*
X73732634Y-124072710D01*
X73693998Y-124041002D01*
X73662290Y-124002366D01*
X73638729Y-123958286D01*
X73624222Y-123910463D01*
X73619200Y-123859470D01*
X73619200Y-122520530D01*
X73624222Y-122469537D01*
X73638729Y-122421714D01*
X73662290Y-122377634D01*
X73693998Y-122338998D01*
X73732634Y-122307290D01*
X73776714Y-122283729D01*
X73824537Y-122269222D01*
X73875530Y-122264200D01*
X74714470Y-122264200D01*
X74765463Y-122269222D01*
X74765463Y-122269222D01*
G37*
G36*
X71965463Y-122269222D02*
G01*
X72013286Y-122283729D01*
X72057366Y-122307290D01*
X72096002Y-122338998D01*
X72127710Y-122377634D01*
X72151271Y-122421714D01*
X72165778Y-122469537D01*
X72170800Y-122520530D01*
X72170800Y-123859470D01*
X72165778Y-123910463D01*
X72151271Y-123958286D01*
X72127710Y-124002366D01*
X72096002Y-124041002D01*
X72057366Y-124072710D01*
X72013286Y-124096271D01*
X71965463Y-124110778D01*
X71914470Y-124115800D01*
X71075530Y-124115800D01*
X71024537Y-124110778D01*
X70976714Y-124096271D01*
X70932634Y-124072710D01*
X70893998Y-124041002D01*
X70862290Y-124002366D01*
X70838729Y-123958286D01*
X70824222Y-123910463D01*
X70819200Y-123859470D01*
X70819200Y-122520530D01*
X70824222Y-122469537D01*
X70838729Y-122421714D01*
X70862290Y-122377634D01*
X70893998Y-122338998D01*
X70932634Y-122307290D01*
X70976714Y-122283729D01*
X71024537Y-122269222D01*
X71075530Y-122264200D01*
X71914470Y-122264200D01*
X71965463Y-122269222D01*
X71965463Y-122269222D01*
G37*
G36*
X84665463Y-122269222D02*
G01*
X84713286Y-122283729D01*
X84757366Y-122307290D01*
X84796002Y-122338998D01*
X84827710Y-122377634D01*
X84851271Y-122421714D01*
X84865778Y-122469537D01*
X84870800Y-122520530D01*
X84870800Y-123859470D01*
X84865778Y-123910463D01*
X84851271Y-123958286D01*
X84827710Y-124002366D01*
X84796002Y-124041002D01*
X84757366Y-124072710D01*
X84713286Y-124096271D01*
X84665463Y-124110778D01*
X84614470Y-124115800D01*
X83775530Y-124115800D01*
X83724537Y-124110778D01*
X83676714Y-124096271D01*
X83632634Y-124072710D01*
X83593998Y-124041002D01*
X83562290Y-124002366D01*
X83538729Y-123958286D01*
X83524222Y-123910463D01*
X83519200Y-123859470D01*
X83519200Y-122520530D01*
X83524222Y-122469537D01*
X83538729Y-122421714D01*
X83562290Y-122377634D01*
X83593998Y-122338998D01*
X83632634Y-122307290D01*
X83676714Y-122283729D01*
X83724537Y-122269222D01*
X83775530Y-122264200D01*
X84614470Y-122264200D01*
X84665463Y-122269222D01*
X84665463Y-122269222D01*
G37*
G36*
X87465463Y-122269222D02*
G01*
X87513286Y-122283729D01*
X87557366Y-122307290D01*
X87596002Y-122338998D01*
X87627710Y-122377634D01*
X87651271Y-122421714D01*
X87665778Y-122469537D01*
X87670800Y-122520530D01*
X87670800Y-123859470D01*
X87665778Y-123910463D01*
X87651271Y-123958286D01*
X87627710Y-124002366D01*
X87596002Y-124041002D01*
X87557366Y-124072710D01*
X87513286Y-124096271D01*
X87465463Y-124110778D01*
X87414470Y-124115800D01*
X86575530Y-124115800D01*
X86524537Y-124110778D01*
X86476714Y-124096271D01*
X86432634Y-124072710D01*
X86393998Y-124041002D01*
X86362290Y-124002366D01*
X86338729Y-123958286D01*
X86324222Y-123910463D01*
X86319200Y-123859470D01*
X86319200Y-122520530D01*
X86324222Y-122469537D01*
X86338729Y-122421714D01*
X86362290Y-122377634D01*
X86393998Y-122338998D01*
X86432634Y-122307290D01*
X86476714Y-122283729D01*
X86524537Y-122269222D01*
X86575530Y-122264200D01*
X87414470Y-122264200D01*
X87465463Y-122269222D01*
X87465463Y-122269222D01*
G37*
G36*
X81750463Y-122269222D02*
G01*
X81798286Y-122283729D01*
X81842366Y-122307290D01*
X81881002Y-122338998D01*
X81912710Y-122377634D01*
X81936271Y-122421714D01*
X81950778Y-122469537D01*
X81955800Y-122520530D01*
X81955800Y-123859470D01*
X81950778Y-123910463D01*
X81936271Y-123958286D01*
X81912710Y-124002366D01*
X81881002Y-124041002D01*
X81842366Y-124072710D01*
X81798286Y-124096271D01*
X81750463Y-124110778D01*
X81699470Y-124115800D01*
X80860530Y-124115800D01*
X80809537Y-124110778D01*
X80761714Y-124096271D01*
X80717634Y-124072710D01*
X80678998Y-124041002D01*
X80647290Y-124002366D01*
X80623729Y-123958286D01*
X80609222Y-123910463D01*
X80604200Y-123859470D01*
X80604200Y-122520530D01*
X80609222Y-122469537D01*
X80623729Y-122421714D01*
X80647290Y-122377634D01*
X80678998Y-122338998D01*
X80717634Y-122307290D01*
X80761714Y-122283729D01*
X80809537Y-122269222D01*
X80860530Y-122264200D01*
X81699470Y-122264200D01*
X81750463Y-122269222D01*
X81750463Y-122269222D01*
G37*
G36*
X66250463Y-122269222D02*
G01*
X66298286Y-122283729D01*
X66342366Y-122307290D01*
X66381002Y-122338998D01*
X66412710Y-122377634D01*
X66436271Y-122421714D01*
X66450778Y-122469537D01*
X66455800Y-122520530D01*
X66455800Y-123859470D01*
X66450778Y-123910463D01*
X66436271Y-123958286D01*
X66412710Y-124002366D01*
X66381002Y-124041002D01*
X66342366Y-124072710D01*
X66298286Y-124096271D01*
X66250463Y-124110778D01*
X66199470Y-124115800D01*
X65360530Y-124115800D01*
X65309537Y-124110778D01*
X65261714Y-124096271D01*
X65217634Y-124072710D01*
X65178998Y-124041002D01*
X65147290Y-124002366D01*
X65123729Y-123958286D01*
X65109222Y-123910463D01*
X65104200Y-123859470D01*
X65104200Y-122520530D01*
X65109222Y-122469537D01*
X65123729Y-122421714D01*
X65147290Y-122377634D01*
X65178998Y-122338998D01*
X65217634Y-122307290D01*
X65261714Y-122283729D01*
X65309537Y-122269222D01*
X65360530Y-122264200D01*
X66199470Y-122264200D01*
X66250463Y-122269222D01*
X66250463Y-122269222D01*
G37*
G36*
X68579360Y-117999249D02*
G01*
X68627441Y-118013833D01*
X68671757Y-118037521D01*
X68710600Y-118069400D01*
X68742479Y-118108243D01*
X68766167Y-118152559D01*
X68780751Y-118200640D01*
X68785800Y-118251901D01*
X68785800Y-119238099D01*
X68780751Y-119289360D01*
X68766167Y-119337441D01*
X68742479Y-119381757D01*
X68710600Y-119420600D01*
X68671757Y-119452479D01*
X68627441Y-119476167D01*
X68579360Y-119490751D01*
X68528099Y-119495800D01*
X67966901Y-119495800D01*
X67915640Y-119490751D01*
X67867559Y-119476167D01*
X67823243Y-119452479D01*
X67784400Y-119420600D01*
X67752521Y-119381757D01*
X67728833Y-119337441D01*
X67714249Y-119289360D01*
X67709200Y-119238099D01*
X67709200Y-118251901D01*
X67714249Y-118200640D01*
X67728833Y-118152559D01*
X67752521Y-118108243D01*
X67784400Y-118069400D01*
X67823243Y-118037521D01*
X67867559Y-118013833D01*
X67915640Y-117999249D01*
X67966901Y-117994200D01*
X68528099Y-117994200D01*
X68579360Y-117999249D01*
X68579360Y-117999249D01*
G37*
G36*
X66704360Y-117999249D02*
G01*
X66752441Y-118013833D01*
X66796757Y-118037521D01*
X66835600Y-118069400D01*
X66867479Y-118108243D01*
X66891167Y-118152559D01*
X66905751Y-118200640D01*
X66910800Y-118251901D01*
X66910800Y-119238099D01*
X66905751Y-119289360D01*
X66891167Y-119337441D01*
X66867479Y-119381757D01*
X66835600Y-119420600D01*
X66796757Y-119452479D01*
X66752441Y-119476167D01*
X66704360Y-119490751D01*
X66653099Y-119495800D01*
X66091901Y-119495800D01*
X66040640Y-119490751D01*
X65992559Y-119476167D01*
X65948243Y-119452479D01*
X65909400Y-119420600D01*
X65877521Y-119381757D01*
X65853833Y-119337441D01*
X65839249Y-119289360D01*
X65834200Y-119238099D01*
X65834200Y-118251901D01*
X65839249Y-118200640D01*
X65853833Y-118152559D01*
X65877521Y-118108243D01*
X65909400Y-118069400D01*
X65948243Y-118037521D01*
X65992559Y-118013833D01*
X66040640Y-117999249D01*
X66091901Y-117994200D01*
X66653099Y-117994200D01*
X66704360Y-117999249D01*
X66704360Y-117999249D01*
G37*
G36*
X85119360Y-117999249D02*
G01*
X85167441Y-118013833D01*
X85211757Y-118037521D01*
X85250600Y-118069400D01*
X85282479Y-118108243D01*
X85306167Y-118152559D01*
X85320751Y-118200640D01*
X85325800Y-118251901D01*
X85325800Y-119238099D01*
X85320751Y-119289360D01*
X85306167Y-119337441D01*
X85282479Y-119381757D01*
X85250600Y-119420600D01*
X85211757Y-119452479D01*
X85167441Y-119476167D01*
X85119360Y-119490751D01*
X85068099Y-119495800D01*
X84506901Y-119495800D01*
X84455640Y-119490751D01*
X84407559Y-119476167D01*
X84363243Y-119452479D01*
X84324400Y-119420600D01*
X84292521Y-119381757D01*
X84268833Y-119337441D01*
X84254249Y-119289360D01*
X84249200Y-119238099D01*
X84249200Y-118251901D01*
X84254249Y-118200640D01*
X84268833Y-118152559D01*
X84292521Y-118108243D01*
X84324400Y-118069400D01*
X84363243Y-118037521D01*
X84407559Y-118013833D01*
X84455640Y-117999249D01*
X84506901Y-117994200D01*
X85068099Y-117994200D01*
X85119360Y-117999249D01*
X85119360Y-117999249D01*
G37*
G36*
X74294360Y-117999249D02*
G01*
X74342441Y-118013833D01*
X74386757Y-118037521D01*
X74425600Y-118069400D01*
X74457479Y-118108243D01*
X74481167Y-118152559D01*
X74495751Y-118200640D01*
X74500800Y-118251901D01*
X74500800Y-119238099D01*
X74495751Y-119289360D01*
X74481167Y-119337441D01*
X74457479Y-119381757D01*
X74425600Y-119420600D01*
X74386757Y-119452479D01*
X74342441Y-119476167D01*
X74294360Y-119490751D01*
X74243099Y-119495800D01*
X73681901Y-119495800D01*
X73630640Y-119490751D01*
X73582559Y-119476167D01*
X73538243Y-119452479D01*
X73499400Y-119420600D01*
X73467521Y-119381757D01*
X73443833Y-119337441D01*
X73429249Y-119289360D01*
X73424200Y-119238099D01*
X73424200Y-118251901D01*
X73429249Y-118200640D01*
X73443833Y-118152559D01*
X73467521Y-118108243D01*
X73499400Y-118069400D01*
X73538243Y-118037521D01*
X73582559Y-118013833D01*
X73630640Y-117999249D01*
X73681901Y-117994200D01*
X74243099Y-117994200D01*
X74294360Y-117999249D01*
X74294360Y-117999249D01*
G37*
G36*
X81279360Y-117999249D02*
G01*
X81327441Y-118013833D01*
X81371757Y-118037521D01*
X81410600Y-118069400D01*
X81442479Y-118108243D01*
X81466167Y-118152559D01*
X81480751Y-118200640D01*
X81485800Y-118251901D01*
X81485800Y-119238099D01*
X81480751Y-119289360D01*
X81466167Y-119337441D01*
X81442479Y-119381757D01*
X81410600Y-119420600D01*
X81371757Y-119452479D01*
X81327441Y-119476167D01*
X81279360Y-119490751D01*
X81228099Y-119495800D01*
X80666901Y-119495800D01*
X80615640Y-119490751D01*
X80567559Y-119476167D01*
X80523243Y-119452479D01*
X80484400Y-119420600D01*
X80452521Y-119381757D01*
X80428833Y-119337441D01*
X80414249Y-119289360D01*
X80409200Y-119238099D01*
X80409200Y-118251901D01*
X80414249Y-118200640D01*
X80428833Y-118152559D01*
X80452521Y-118108243D01*
X80484400Y-118069400D01*
X80523243Y-118037521D01*
X80567559Y-118013833D01*
X80615640Y-117999249D01*
X80666901Y-117994200D01*
X81228099Y-117994200D01*
X81279360Y-117999249D01*
X81279360Y-117999249D01*
G37*
G36*
X72419360Y-117999249D02*
G01*
X72467441Y-118013833D01*
X72511757Y-118037521D01*
X72550600Y-118069400D01*
X72582479Y-118108243D01*
X72606167Y-118152559D01*
X72620751Y-118200640D01*
X72625800Y-118251901D01*
X72625800Y-119238099D01*
X72620751Y-119289360D01*
X72606167Y-119337441D01*
X72582479Y-119381757D01*
X72550600Y-119420600D01*
X72511757Y-119452479D01*
X72467441Y-119476167D01*
X72419360Y-119490751D01*
X72368099Y-119495800D01*
X71806901Y-119495800D01*
X71755640Y-119490751D01*
X71707559Y-119476167D01*
X71663243Y-119452479D01*
X71624400Y-119420600D01*
X71592521Y-119381757D01*
X71568833Y-119337441D01*
X71554249Y-119289360D01*
X71549200Y-119238099D01*
X71549200Y-118251901D01*
X71554249Y-118200640D01*
X71568833Y-118152559D01*
X71592521Y-118108243D01*
X71624400Y-118069400D01*
X71663243Y-118037521D01*
X71707559Y-118013833D01*
X71755640Y-117999249D01*
X71806901Y-117994200D01*
X72368099Y-117994200D01*
X72419360Y-117999249D01*
X72419360Y-117999249D01*
G37*
G36*
X86994360Y-117999249D02*
G01*
X87042441Y-118013833D01*
X87086757Y-118037521D01*
X87125600Y-118069400D01*
X87157479Y-118108243D01*
X87181167Y-118152559D01*
X87195751Y-118200640D01*
X87200800Y-118251901D01*
X87200800Y-119238099D01*
X87195751Y-119289360D01*
X87181167Y-119337441D01*
X87157479Y-119381757D01*
X87125600Y-119420600D01*
X87086757Y-119452479D01*
X87042441Y-119476167D01*
X86994360Y-119490751D01*
X86943099Y-119495800D01*
X86381901Y-119495800D01*
X86330640Y-119490751D01*
X86282559Y-119476167D01*
X86238243Y-119452479D01*
X86199400Y-119420600D01*
X86167521Y-119381757D01*
X86143833Y-119337441D01*
X86129249Y-119289360D01*
X86124200Y-119238099D01*
X86124200Y-118251901D01*
X86129249Y-118200640D01*
X86143833Y-118152559D01*
X86167521Y-118108243D01*
X86199400Y-118069400D01*
X86238243Y-118037521D01*
X86282559Y-118013833D01*
X86330640Y-117999249D01*
X86381901Y-117994200D01*
X86943099Y-117994200D01*
X86994360Y-117999249D01*
X86994360Y-117999249D01*
G37*
G36*
X79404360Y-117999249D02*
G01*
X79452441Y-118013833D01*
X79496757Y-118037521D01*
X79535600Y-118069400D01*
X79567479Y-118108243D01*
X79591167Y-118152559D01*
X79605751Y-118200640D01*
X79610800Y-118251901D01*
X79610800Y-119238099D01*
X79605751Y-119289360D01*
X79591167Y-119337441D01*
X79567479Y-119381757D01*
X79535600Y-119420600D01*
X79496757Y-119452479D01*
X79452441Y-119476167D01*
X79404360Y-119490751D01*
X79353099Y-119495800D01*
X78791901Y-119495800D01*
X78740640Y-119490751D01*
X78692559Y-119476167D01*
X78648243Y-119452479D01*
X78609400Y-119420600D01*
X78577521Y-119381757D01*
X78553833Y-119337441D01*
X78539249Y-119289360D01*
X78534200Y-119238099D01*
X78534200Y-118251901D01*
X78539249Y-118200640D01*
X78553833Y-118152559D01*
X78577521Y-118108243D01*
X78609400Y-118069400D01*
X78648243Y-118037521D01*
X78692559Y-118013833D01*
X78740640Y-117999249D01*
X78791901Y-117994200D01*
X79353099Y-117994200D01*
X79404360Y-117999249D01*
X79404360Y-117999249D01*
G37*
G36*
X78950463Y-113379222D02*
G01*
X78998286Y-113393729D01*
X79042366Y-113417290D01*
X79081002Y-113448998D01*
X79112710Y-113487634D01*
X79136271Y-113531714D01*
X79150778Y-113579537D01*
X79155800Y-113630530D01*
X79155800Y-114969470D01*
X79150778Y-115020463D01*
X79136271Y-115068286D01*
X79112710Y-115112366D01*
X79081002Y-115151002D01*
X79042366Y-115182710D01*
X78998286Y-115206271D01*
X78950463Y-115220778D01*
X78899470Y-115225800D01*
X78060530Y-115225800D01*
X78009537Y-115220778D01*
X77961714Y-115206271D01*
X77917634Y-115182710D01*
X77878998Y-115151002D01*
X77847290Y-115112366D01*
X77823729Y-115068286D01*
X77809222Y-115020463D01*
X77804200Y-114969470D01*
X77804200Y-113630530D01*
X77809222Y-113579537D01*
X77823729Y-113531714D01*
X77847290Y-113487634D01*
X77878998Y-113448998D01*
X77917634Y-113417290D01*
X77961714Y-113393729D01*
X78009537Y-113379222D01*
X78060530Y-113374200D01*
X78899470Y-113374200D01*
X78950463Y-113379222D01*
X78950463Y-113379222D01*
G37*
G36*
X71965463Y-113379222D02*
G01*
X72013286Y-113393729D01*
X72057366Y-113417290D01*
X72096002Y-113448998D01*
X72127710Y-113487634D01*
X72151271Y-113531714D01*
X72165778Y-113579537D01*
X72170800Y-113630530D01*
X72170800Y-114969470D01*
X72165778Y-115020463D01*
X72151271Y-115068286D01*
X72127710Y-115112366D01*
X72096002Y-115151002D01*
X72057366Y-115182710D01*
X72013286Y-115206271D01*
X71965463Y-115220778D01*
X71914470Y-115225800D01*
X71075530Y-115225800D01*
X71024537Y-115220778D01*
X70976714Y-115206271D01*
X70932634Y-115182710D01*
X70893998Y-115151002D01*
X70862290Y-115112366D01*
X70838729Y-115068286D01*
X70824222Y-115020463D01*
X70819200Y-114969470D01*
X70819200Y-113630530D01*
X70824222Y-113579537D01*
X70838729Y-113531714D01*
X70862290Y-113487634D01*
X70893998Y-113448998D01*
X70932634Y-113417290D01*
X70976714Y-113393729D01*
X71024537Y-113379222D01*
X71075530Y-113374200D01*
X71914470Y-113374200D01*
X71965463Y-113379222D01*
X71965463Y-113379222D01*
G37*
G36*
X81750463Y-113379222D02*
G01*
X81798286Y-113393729D01*
X81842366Y-113417290D01*
X81881002Y-113448998D01*
X81912710Y-113487634D01*
X81936271Y-113531714D01*
X81950778Y-113579537D01*
X81955800Y-113630530D01*
X81955800Y-114969470D01*
X81950778Y-115020463D01*
X81936271Y-115068286D01*
X81912710Y-115112366D01*
X81881002Y-115151002D01*
X81842366Y-115182710D01*
X81798286Y-115206271D01*
X81750463Y-115220778D01*
X81699470Y-115225800D01*
X80860530Y-115225800D01*
X80809537Y-115220778D01*
X80761714Y-115206271D01*
X80717634Y-115182710D01*
X80678998Y-115151002D01*
X80647290Y-115112366D01*
X80623729Y-115068286D01*
X80609222Y-115020463D01*
X80604200Y-114969470D01*
X80604200Y-113630530D01*
X80609222Y-113579537D01*
X80623729Y-113531714D01*
X80647290Y-113487634D01*
X80678998Y-113448998D01*
X80717634Y-113417290D01*
X80761714Y-113393729D01*
X80809537Y-113379222D01*
X80860530Y-113374200D01*
X81699470Y-113374200D01*
X81750463Y-113379222D01*
X81750463Y-113379222D01*
G37*
G36*
X84665463Y-113379222D02*
G01*
X84713286Y-113393729D01*
X84757366Y-113417290D01*
X84796002Y-113448998D01*
X84827710Y-113487634D01*
X84851271Y-113531714D01*
X84865778Y-113579537D01*
X84870800Y-113630530D01*
X84870800Y-114969470D01*
X84865778Y-115020463D01*
X84851271Y-115068286D01*
X84827710Y-115112366D01*
X84796002Y-115151002D01*
X84757366Y-115182710D01*
X84713286Y-115206271D01*
X84665463Y-115220778D01*
X84614470Y-115225800D01*
X83775530Y-115225800D01*
X83724537Y-115220778D01*
X83676714Y-115206271D01*
X83632634Y-115182710D01*
X83593998Y-115151002D01*
X83562290Y-115112366D01*
X83538729Y-115068286D01*
X83524222Y-115020463D01*
X83519200Y-114969470D01*
X83519200Y-113630530D01*
X83524222Y-113579537D01*
X83538729Y-113531714D01*
X83562290Y-113487634D01*
X83593998Y-113448998D01*
X83632634Y-113417290D01*
X83676714Y-113393729D01*
X83724537Y-113379222D01*
X83775530Y-113374200D01*
X84614470Y-113374200D01*
X84665463Y-113379222D01*
X84665463Y-113379222D01*
G37*
G36*
X87465463Y-113379222D02*
G01*
X87513286Y-113393729D01*
X87557366Y-113417290D01*
X87596002Y-113448998D01*
X87627710Y-113487634D01*
X87651271Y-113531714D01*
X87665778Y-113579537D01*
X87670800Y-113630530D01*
X87670800Y-114969470D01*
X87665778Y-115020463D01*
X87651271Y-115068286D01*
X87627710Y-115112366D01*
X87596002Y-115151002D01*
X87557366Y-115182710D01*
X87513286Y-115206271D01*
X87465463Y-115220778D01*
X87414470Y-115225800D01*
X86575530Y-115225800D01*
X86524537Y-115220778D01*
X86476714Y-115206271D01*
X86432634Y-115182710D01*
X86393998Y-115151002D01*
X86362290Y-115112366D01*
X86338729Y-115068286D01*
X86324222Y-115020463D01*
X86319200Y-114969470D01*
X86319200Y-113630530D01*
X86324222Y-113579537D01*
X86338729Y-113531714D01*
X86362290Y-113487634D01*
X86393998Y-113448998D01*
X86432634Y-113417290D01*
X86476714Y-113393729D01*
X86524537Y-113379222D01*
X86575530Y-113374200D01*
X87414470Y-113374200D01*
X87465463Y-113379222D01*
X87465463Y-113379222D01*
G37*
G36*
X74765463Y-113379222D02*
G01*
X74813286Y-113393729D01*
X74857366Y-113417290D01*
X74896002Y-113448998D01*
X74927710Y-113487634D01*
X74951271Y-113531714D01*
X74965778Y-113579537D01*
X74970800Y-113630530D01*
X74970800Y-114969470D01*
X74965778Y-115020463D01*
X74951271Y-115068286D01*
X74927710Y-115112366D01*
X74896002Y-115151002D01*
X74857366Y-115182710D01*
X74813286Y-115206271D01*
X74765463Y-115220778D01*
X74714470Y-115225800D01*
X73875530Y-115225800D01*
X73824537Y-115220778D01*
X73776714Y-115206271D01*
X73732634Y-115182710D01*
X73693998Y-115151002D01*
X73662290Y-115112366D01*
X73638729Y-115068286D01*
X73624222Y-115020463D01*
X73619200Y-114969470D01*
X73619200Y-113630530D01*
X73624222Y-113579537D01*
X73638729Y-113531714D01*
X73662290Y-113487634D01*
X73693998Y-113448998D01*
X73732634Y-113417290D01*
X73776714Y-113393729D01*
X73824537Y-113379222D01*
X73875530Y-113374200D01*
X74714470Y-113374200D01*
X74765463Y-113379222D01*
X74765463Y-113379222D01*
G37*
G36*
X66250463Y-113379222D02*
G01*
X66298286Y-113393729D01*
X66342366Y-113417290D01*
X66381002Y-113448998D01*
X66412710Y-113487634D01*
X66436271Y-113531714D01*
X66450778Y-113579537D01*
X66455800Y-113630530D01*
X66455800Y-114969470D01*
X66450778Y-115020463D01*
X66436271Y-115068286D01*
X66412710Y-115112366D01*
X66381002Y-115151002D01*
X66342366Y-115182710D01*
X66298286Y-115206271D01*
X66250463Y-115220778D01*
X66199470Y-115225800D01*
X65360530Y-115225800D01*
X65309537Y-115220778D01*
X65261714Y-115206271D01*
X65217634Y-115182710D01*
X65178998Y-115151002D01*
X65147290Y-115112366D01*
X65123729Y-115068286D01*
X65109222Y-115020463D01*
X65104200Y-114969470D01*
X65104200Y-113630530D01*
X65109222Y-113579537D01*
X65123729Y-113531714D01*
X65147290Y-113487634D01*
X65178998Y-113448998D01*
X65217634Y-113417290D01*
X65261714Y-113393729D01*
X65309537Y-113379222D01*
X65360530Y-113374200D01*
X66199470Y-113374200D01*
X66250463Y-113379222D01*
X66250463Y-113379222D01*
G37*
G36*
X69050463Y-113379222D02*
G01*
X69098286Y-113393729D01*
X69142366Y-113417290D01*
X69181002Y-113448998D01*
X69212710Y-113487634D01*
X69236271Y-113531714D01*
X69250778Y-113579537D01*
X69255800Y-113630530D01*
X69255800Y-114969470D01*
X69250778Y-115020463D01*
X69236271Y-115068286D01*
X69212710Y-115112366D01*
X69181002Y-115151002D01*
X69142366Y-115182710D01*
X69098286Y-115206271D01*
X69050463Y-115220778D01*
X68999470Y-115225800D01*
X68160530Y-115225800D01*
X68109537Y-115220778D01*
X68061714Y-115206271D01*
X68017634Y-115182710D01*
X67978998Y-115151002D01*
X67947290Y-115112366D01*
X67923729Y-115068286D01*
X67909222Y-115020463D01*
X67904200Y-114969470D01*
X67904200Y-113630530D01*
X67909222Y-113579537D01*
X67923729Y-113531714D01*
X67947290Y-113487634D01*
X67978998Y-113448998D01*
X68017634Y-113417290D01*
X68061714Y-113393729D01*
X68109537Y-113379222D01*
X68160530Y-113374200D01*
X68999470Y-113374200D01*
X69050463Y-113379222D01*
X69050463Y-113379222D01*
G37*
G36*
X87806588Y-108332234D02*
G01*
X87806591Y-108332235D01*
X87976388Y-108383742D01*
X88132878Y-108467388D01*
X88270043Y-108579957D01*
X88382612Y-108717122D01*
X88466258Y-108873612D01*
X88511875Y-109023992D01*
X88517766Y-109043412D01*
X88535158Y-109220000D01*
X88517766Y-109396588D01*
X88517765Y-109396591D01*
X88466258Y-109566388D01*
X88382612Y-109722878D01*
X88270043Y-109860043D01*
X88132878Y-109972612D01*
X87976388Y-110056258D01*
X87826008Y-110101875D01*
X87806588Y-110107766D01*
X87674249Y-110120800D01*
X87585751Y-110120800D01*
X87453412Y-110107766D01*
X87433992Y-110101875D01*
X87283612Y-110056258D01*
X87127122Y-109972612D01*
X86989957Y-109860043D01*
X86877388Y-109722878D01*
X86793742Y-109566388D01*
X86742235Y-109396591D01*
X86742234Y-109396588D01*
X86724842Y-109220000D01*
X86742234Y-109043412D01*
X86748125Y-109023992D01*
X86793742Y-108873612D01*
X86877388Y-108717122D01*
X86989957Y-108579957D01*
X87127122Y-108467388D01*
X87283612Y-108383742D01*
X87453409Y-108332235D01*
X87453412Y-108332234D01*
X87585751Y-108319200D01*
X87674249Y-108319200D01*
X87806588Y-108332234D01*
X87806588Y-108332234D01*
G37*
G36*
X64946588Y-108332234D02*
G01*
X64946591Y-108332235D01*
X65116388Y-108383742D01*
X65272878Y-108467388D01*
X65410043Y-108579957D01*
X65522612Y-108717122D01*
X65606258Y-108873612D01*
X65651875Y-109023992D01*
X65657766Y-109043412D01*
X65675158Y-109220000D01*
X65657766Y-109396588D01*
X65657765Y-109396591D01*
X65606258Y-109566388D01*
X65522612Y-109722878D01*
X65410043Y-109860043D01*
X65272878Y-109972612D01*
X65116388Y-110056258D01*
X64966008Y-110101875D01*
X64946588Y-110107766D01*
X64814249Y-110120800D01*
X64725751Y-110120800D01*
X64593412Y-110107766D01*
X64573992Y-110101875D01*
X64423612Y-110056258D01*
X64267122Y-109972612D01*
X64129957Y-109860043D01*
X64017388Y-109722878D01*
X63933742Y-109566388D01*
X63882235Y-109396591D01*
X63882234Y-109396588D01*
X63864842Y-109220000D01*
X63882234Y-109043412D01*
X63888125Y-109023992D01*
X63933742Y-108873612D01*
X64017388Y-108717122D01*
X64129957Y-108579957D01*
X64267122Y-108467388D01*
X64423612Y-108383742D01*
X64593409Y-108332235D01*
X64593412Y-108332234D01*
X64725751Y-108319200D01*
X64814249Y-108319200D01*
X64946588Y-108332234D01*
X64946588Y-108332234D01*
G37*
G36*
X64946588Y-105792234D02*
G01*
X64946591Y-105792235D01*
X65116388Y-105843742D01*
X65272878Y-105927388D01*
X65410043Y-106039957D01*
X65522612Y-106177122D01*
X65606258Y-106333612D01*
X65651875Y-106483992D01*
X65657766Y-106503412D01*
X65675158Y-106680000D01*
X65657766Y-106856588D01*
X65657765Y-106856591D01*
X65606258Y-107026388D01*
X65522612Y-107182878D01*
X65410043Y-107320043D01*
X65272878Y-107432612D01*
X65116388Y-107516258D01*
X64966008Y-107561875D01*
X64946588Y-107567766D01*
X64814249Y-107580800D01*
X64725751Y-107580800D01*
X64593412Y-107567766D01*
X64573992Y-107561875D01*
X64423612Y-107516258D01*
X64267122Y-107432612D01*
X64129957Y-107320043D01*
X64017388Y-107182878D01*
X63933742Y-107026388D01*
X63882235Y-106856591D01*
X63882234Y-106856588D01*
X63864842Y-106680000D01*
X63882234Y-106503412D01*
X63888125Y-106483992D01*
X63933742Y-106333612D01*
X64017388Y-106177122D01*
X64129957Y-106039957D01*
X64267122Y-105927388D01*
X64423612Y-105843742D01*
X64593409Y-105792235D01*
X64593412Y-105792234D01*
X64725751Y-105779200D01*
X64814249Y-105779200D01*
X64946588Y-105792234D01*
X64946588Y-105792234D01*
G37*
G36*
X87806588Y-105792234D02*
G01*
X87806591Y-105792235D01*
X87976388Y-105843742D01*
X88132878Y-105927388D01*
X88270043Y-106039957D01*
X88382612Y-106177122D01*
X88466258Y-106333612D01*
X88511875Y-106483992D01*
X88517766Y-106503412D01*
X88535158Y-106680000D01*
X88517766Y-106856588D01*
X88517765Y-106856591D01*
X88466258Y-107026388D01*
X88382612Y-107182878D01*
X88270043Y-107320043D01*
X88132878Y-107432612D01*
X87976388Y-107516258D01*
X87826008Y-107561875D01*
X87806588Y-107567766D01*
X87674249Y-107580800D01*
X87585751Y-107580800D01*
X87453412Y-107567766D01*
X87433992Y-107561875D01*
X87283612Y-107516258D01*
X87127122Y-107432612D01*
X86989957Y-107320043D01*
X86877388Y-107182878D01*
X86793742Y-107026388D01*
X86742235Y-106856591D01*
X86742234Y-106856588D01*
X86724842Y-106680000D01*
X86742234Y-106503412D01*
X86748125Y-106483992D01*
X86793742Y-106333612D01*
X86877388Y-106177122D01*
X86989957Y-106039957D01*
X87127122Y-105927388D01*
X87283612Y-105843742D01*
X87453409Y-105792235D01*
X87453412Y-105792234D01*
X87585751Y-105779200D01*
X87674249Y-105779200D01*
X87806588Y-105792234D01*
X87806588Y-105792234D01*
G37*
G36*
X87806588Y-103252234D02*
G01*
X87806591Y-103252235D01*
X87976388Y-103303742D01*
X88132878Y-103387388D01*
X88270043Y-103499957D01*
X88382612Y-103637122D01*
X88466258Y-103793612D01*
X88511875Y-103943992D01*
X88517766Y-103963412D01*
X88535158Y-104140000D01*
X88517766Y-104316588D01*
X88517765Y-104316591D01*
X88466258Y-104486388D01*
X88382612Y-104642878D01*
X88270043Y-104780043D01*
X88132878Y-104892612D01*
X87976388Y-104976258D01*
X87826008Y-105021875D01*
X87806588Y-105027766D01*
X87674249Y-105040800D01*
X87585751Y-105040800D01*
X87453412Y-105027766D01*
X87433992Y-105021875D01*
X87283612Y-104976258D01*
X87127122Y-104892612D01*
X86989957Y-104780043D01*
X86877388Y-104642878D01*
X86793742Y-104486388D01*
X86742235Y-104316591D01*
X86742234Y-104316588D01*
X86724842Y-104140000D01*
X86742234Y-103963412D01*
X86748125Y-103943992D01*
X86793742Y-103793612D01*
X86877388Y-103637122D01*
X86989957Y-103499957D01*
X87127122Y-103387388D01*
X87283612Y-103303742D01*
X87453409Y-103252235D01*
X87453412Y-103252234D01*
X87585751Y-103239200D01*
X87674249Y-103239200D01*
X87806588Y-103252234D01*
X87806588Y-103252234D01*
G37*
G36*
X64946588Y-103252234D02*
G01*
X64946591Y-103252235D01*
X65116388Y-103303742D01*
X65272878Y-103387388D01*
X65410043Y-103499957D01*
X65522612Y-103637122D01*
X65606258Y-103793612D01*
X65651875Y-103943992D01*
X65657766Y-103963412D01*
X65675158Y-104140000D01*
X65657766Y-104316588D01*
X65657765Y-104316591D01*
X65606258Y-104486388D01*
X65522612Y-104642878D01*
X65410043Y-104780043D01*
X65272878Y-104892612D01*
X65116388Y-104976258D01*
X64966008Y-105021875D01*
X64946588Y-105027766D01*
X64814249Y-105040800D01*
X64725751Y-105040800D01*
X64593412Y-105027766D01*
X64573992Y-105021875D01*
X64423612Y-104976258D01*
X64267122Y-104892612D01*
X64129957Y-104780043D01*
X64017388Y-104642878D01*
X63933742Y-104486388D01*
X63882235Y-104316591D01*
X63882234Y-104316588D01*
X63864842Y-104140000D01*
X63882234Y-103963412D01*
X63888125Y-103943992D01*
X63933742Y-103793612D01*
X64017388Y-103637122D01*
X64129957Y-103499957D01*
X64267122Y-103387388D01*
X64423612Y-103303742D01*
X64593409Y-103252235D01*
X64593412Y-103252234D01*
X64725751Y-103239200D01*
X64814249Y-103239200D01*
X64946588Y-103252234D01*
X64946588Y-103252234D01*
G37*
G36*
X64946588Y-100712234D02*
G01*
X64946591Y-100712235D01*
X65116388Y-100763742D01*
X65272878Y-100847388D01*
X65410043Y-100959957D01*
X65522612Y-101097122D01*
X65606258Y-101253612D01*
X65651875Y-101403992D01*
X65657766Y-101423412D01*
X65675158Y-101600000D01*
X65657766Y-101776588D01*
X65657765Y-101776591D01*
X65606258Y-101946388D01*
X65522612Y-102102878D01*
X65410043Y-102240043D01*
X65272878Y-102352612D01*
X65116388Y-102436258D01*
X64966008Y-102481875D01*
X64946588Y-102487766D01*
X64814249Y-102500800D01*
X64725751Y-102500800D01*
X64593412Y-102487766D01*
X64573992Y-102481875D01*
X64423612Y-102436258D01*
X64267122Y-102352612D01*
X64129957Y-102240043D01*
X64017388Y-102102878D01*
X63933742Y-101946388D01*
X63882235Y-101776591D01*
X63882234Y-101776588D01*
X63864842Y-101600000D01*
X63882234Y-101423412D01*
X63888125Y-101403992D01*
X63933742Y-101253612D01*
X64017388Y-101097122D01*
X64129957Y-100959957D01*
X64267122Y-100847388D01*
X64423612Y-100763742D01*
X64593409Y-100712235D01*
X64593412Y-100712234D01*
X64725751Y-100699200D01*
X64814249Y-100699200D01*
X64946588Y-100712234D01*
X64946588Y-100712234D01*
G37*
G36*
X87806588Y-100712234D02*
G01*
X87806591Y-100712235D01*
X87976388Y-100763742D01*
X88132878Y-100847388D01*
X88270043Y-100959957D01*
X88382612Y-101097122D01*
X88466258Y-101253612D01*
X88511875Y-101403992D01*
X88517766Y-101423412D01*
X88535158Y-101600000D01*
X88517766Y-101776588D01*
X88517765Y-101776591D01*
X88466258Y-101946388D01*
X88382612Y-102102878D01*
X88270043Y-102240043D01*
X88132878Y-102352612D01*
X87976388Y-102436258D01*
X87826008Y-102481875D01*
X87806588Y-102487766D01*
X87674249Y-102500800D01*
X87585751Y-102500800D01*
X87453412Y-102487766D01*
X87433992Y-102481875D01*
X87283612Y-102436258D01*
X87127122Y-102352612D01*
X86989957Y-102240043D01*
X86877388Y-102102878D01*
X86793742Y-101946388D01*
X86742235Y-101776591D01*
X86742234Y-101776588D01*
X86724842Y-101600000D01*
X86742234Y-101423412D01*
X86748125Y-101403992D01*
X86793742Y-101253612D01*
X86877388Y-101097122D01*
X86989957Y-100959957D01*
X87127122Y-100847388D01*
X87283612Y-100763742D01*
X87453409Y-100712235D01*
X87453412Y-100712234D01*
X87585751Y-100699200D01*
X87674249Y-100699200D01*
X87806588Y-100712234D01*
X87806588Y-100712234D01*
G37*
G36*
X64946588Y-98172234D02*
G01*
X64946591Y-98172235D01*
X65116388Y-98223742D01*
X65272878Y-98307388D01*
X65410043Y-98419957D01*
X65522612Y-98557122D01*
X65606258Y-98713612D01*
X65611686Y-98731507D01*
X65657766Y-98883412D01*
X65675158Y-99060000D01*
X65657766Y-99236588D01*
X65656364Y-99241209D01*
X65606258Y-99406388D01*
X65522612Y-99562878D01*
X65410043Y-99700043D01*
X65272878Y-99812612D01*
X65116388Y-99896258D01*
X64966008Y-99941875D01*
X64946588Y-99947766D01*
X64814249Y-99960800D01*
X64725751Y-99960800D01*
X64593412Y-99947766D01*
X64573992Y-99941875D01*
X64423612Y-99896258D01*
X64267122Y-99812612D01*
X64129957Y-99700043D01*
X64017388Y-99562878D01*
X63933742Y-99406388D01*
X63883636Y-99241209D01*
X63882234Y-99236588D01*
X63864842Y-99060000D01*
X63882234Y-98883412D01*
X63928314Y-98731507D01*
X63933742Y-98713612D01*
X64017388Y-98557122D01*
X64129957Y-98419957D01*
X64267122Y-98307388D01*
X64423612Y-98223742D01*
X64593409Y-98172235D01*
X64593412Y-98172234D01*
X64725751Y-98159200D01*
X64814249Y-98159200D01*
X64946588Y-98172234D01*
X64946588Y-98172234D01*
G37*
G36*
X87806588Y-98172234D02*
G01*
X87806591Y-98172235D01*
X87976388Y-98223742D01*
X88132878Y-98307388D01*
X88270043Y-98419957D01*
X88382612Y-98557122D01*
X88466258Y-98713612D01*
X88471686Y-98731507D01*
X88517766Y-98883412D01*
X88535158Y-99060000D01*
X88517766Y-99236588D01*
X88516364Y-99241209D01*
X88466258Y-99406388D01*
X88382612Y-99562878D01*
X88270043Y-99700043D01*
X88132878Y-99812612D01*
X87976388Y-99896258D01*
X87826008Y-99941875D01*
X87806588Y-99947766D01*
X87674249Y-99960800D01*
X87585751Y-99960800D01*
X87453412Y-99947766D01*
X87433992Y-99941875D01*
X87283612Y-99896258D01*
X87127122Y-99812612D01*
X86989957Y-99700043D01*
X86877388Y-99562878D01*
X86793742Y-99406388D01*
X86743636Y-99241209D01*
X86742234Y-99236588D01*
X86724842Y-99060000D01*
X86742234Y-98883412D01*
X86788314Y-98731507D01*
X86793742Y-98713612D01*
X86877388Y-98557122D01*
X86989957Y-98419957D01*
X87127122Y-98307388D01*
X87283612Y-98223742D01*
X87453409Y-98172235D01*
X87453412Y-98172234D01*
X87585751Y-98159200D01*
X87674249Y-98159200D01*
X87806588Y-98172234D01*
X87806588Y-98172234D01*
G37*
G36*
X77776507Y-97414582D02*
G01*
X77967740Y-97493793D01*
X78139846Y-97608791D01*
X78286209Y-97755154D01*
X78401207Y-97927260D01*
X78480418Y-98118493D01*
X78520800Y-98321505D01*
X78520800Y-98528495D01*
X78480418Y-98731507D01*
X78401207Y-98922740D01*
X78286209Y-99094846D01*
X78139846Y-99241209D01*
X77967740Y-99356207D01*
X77776507Y-99435418D01*
X77573495Y-99475800D01*
X77366505Y-99475800D01*
X77163493Y-99435418D01*
X76972260Y-99356207D01*
X76800154Y-99241209D01*
X76653791Y-99094846D01*
X76538793Y-98922740D01*
X76459582Y-98731507D01*
X76419200Y-98528495D01*
X76419200Y-98321505D01*
X76459582Y-98118493D01*
X76538793Y-97927260D01*
X76653791Y-97755154D01*
X76800154Y-97608791D01*
X76972260Y-97493793D01*
X77163493Y-97414582D01*
X77366505Y-97374200D01*
X77573495Y-97374200D01*
X77776507Y-97414582D01*
X77776507Y-97414582D01*
G37*
G36*
X75236507Y-97414582D02*
G01*
X75427740Y-97493793D01*
X75599846Y-97608791D01*
X75746209Y-97755154D01*
X75861207Y-97927260D01*
X75940418Y-98118493D01*
X75980800Y-98321505D01*
X75980800Y-98528495D01*
X75940418Y-98731507D01*
X75861207Y-98922740D01*
X75746209Y-99094846D01*
X75599846Y-99241209D01*
X75427740Y-99356207D01*
X75236507Y-99435418D01*
X75033495Y-99475800D01*
X74826505Y-99475800D01*
X74623493Y-99435418D01*
X74432260Y-99356207D01*
X74260154Y-99241209D01*
X74113791Y-99094846D01*
X73998793Y-98922740D01*
X73919582Y-98731507D01*
X73879200Y-98528495D01*
X73879200Y-98321505D01*
X73919582Y-98118493D01*
X73998793Y-97927260D01*
X74113791Y-97755154D01*
X74260154Y-97608791D01*
X74432260Y-97493793D01*
X74623493Y-97414582D01*
X74826505Y-97374200D01*
X75033495Y-97374200D01*
X75236507Y-97414582D01*
X75236507Y-97414582D01*
G37*
G36*
X65670800Y-97420800D02*
G01*
X63869200Y-97420800D01*
X63869200Y-95619200D01*
X65670800Y-95619200D01*
X65670800Y-97420800D01*
X65670800Y-97420800D01*
G37*
G36*
X88530800Y-97420800D02*
G01*
X86729200Y-97420800D01*
X86729200Y-95619200D01*
X88530800Y-95619200D01*
X88530800Y-97420800D01*
X88530800Y-97420800D01*
G37*
M02*
