G04 #@! TF.GenerationSoftware,KiCad,Pcbnew,(5.1.2)-2*
G04 #@! TF.CreationDate,2019-12-14T19:53:28+01:00*
G04 #@! TF.ProjectId,IS1212_click,49533132-3132-45f6-936c-69636b2e6b69,rev?*
G04 #@! TF.SameCoordinates,Original*
G04 #@! TF.FileFunction,Paste,Top*
G04 #@! TF.FilePolarity,Positive*
%FSLAX46Y46*%
G04 Gerber Fmt 4.6, Leading zero omitted, Abs format (unit mm)*
G04 Created by KiCad (PCBNEW (5.1.2)-2) date 2019-12-14 19:53:28*
%MOMM*%
%LPD*%
G04 APERTURE LIST*
%ADD10R,0.406400X1.600200*%
%ADD11C,0.100000*%
%ADD12C,0.975000*%
%ADD13C,1.250000*%
%ADD14R,1.100000X1.400000*%
G04 APERTURE END LIST*
D10*
X74295000Y-133350000D03*
X73660000Y-133350000D03*
X73025000Y-133350000D03*
X72390000Y-133350000D03*
X71755000Y-133350000D03*
X71120000Y-133350000D03*
X70485000Y-133350000D03*
X69850000Y-133350000D03*
X74295000Y-127939800D03*
X73660000Y-127939800D03*
X73025000Y-127939800D03*
X72390000Y-127939800D03*
X71755000Y-127939800D03*
X71120000Y-127939800D03*
X70485000Y-127939800D03*
X69850000Y-127939800D03*
X78105000Y-127939800D03*
X78740000Y-127939800D03*
X79375000Y-127939800D03*
X80010000Y-127939800D03*
X80645000Y-127939800D03*
X81280000Y-127939800D03*
X81915000Y-127939800D03*
X82550000Y-127939800D03*
X78105000Y-133350000D03*
X78740000Y-133350000D03*
X79375000Y-133350000D03*
X80010000Y-133350000D03*
X80645000Y-133350000D03*
X81280000Y-133350000D03*
X81915000Y-133350000D03*
X82550000Y-133350000D03*
D11*
G36*
X66640142Y-118046174D02*
G01*
X66663803Y-118049684D01*
X66687007Y-118055496D01*
X66709529Y-118063554D01*
X66731153Y-118073782D01*
X66751670Y-118086079D01*
X66770883Y-118100329D01*
X66788607Y-118116393D01*
X66804671Y-118134117D01*
X66818921Y-118153330D01*
X66831218Y-118173847D01*
X66841446Y-118195471D01*
X66849504Y-118217993D01*
X66855316Y-118241197D01*
X66858826Y-118264858D01*
X66860000Y-118288750D01*
X66860000Y-119201250D01*
X66858826Y-119225142D01*
X66855316Y-119248803D01*
X66849504Y-119272007D01*
X66841446Y-119294529D01*
X66831218Y-119316153D01*
X66818921Y-119336670D01*
X66804671Y-119355883D01*
X66788607Y-119373607D01*
X66770883Y-119389671D01*
X66751670Y-119403921D01*
X66731153Y-119416218D01*
X66709529Y-119426446D01*
X66687007Y-119434504D01*
X66663803Y-119440316D01*
X66640142Y-119443826D01*
X66616250Y-119445000D01*
X66128750Y-119445000D01*
X66104858Y-119443826D01*
X66081197Y-119440316D01*
X66057993Y-119434504D01*
X66035471Y-119426446D01*
X66013847Y-119416218D01*
X65993330Y-119403921D01*
X65974117Y-119389671D01*
X65956393Y-119373607D01*
X65940329Y-119355883D01*
X65926079Y-119336670D01*
X65913782Y-119316153D01*
X65903554Y-119294529D01*
X65895496Y-119272007D01*
X65889684Y-119248803D01*
X65886174Y-119225142D01*
X65885000Y-119201250D01*
X65885000Y-118288750D01*
X65886174Y-118264858D01*
X65889684Y-118241197D01*
X65895496Y-118217993D01*
X65903554Y-118195471D01*
X65913782Y-118173847D01*
X65926079Y-118153330D01*
X65940329Y-118134117D01*
X65956393Y-118116393D01*
X65974117Y-118100329D01*
X65993330Y-118086079D01*
X66013847Y-118073782D01*
X66035471Y-118063554D01*
X66057993Y-118055496D01*
X66081197Y-118049684D01*
X66104858Y-118046174D01*
X66128750Y-118045000D01*
X66616250Y-118045000D01*
X66640142Y-118046174D01*
X66640142Y-118046174D01*
G37*
D12*
X66372500Y-118745000D03*
D11*
G36*
X68515142Y-118046174D02*
G01*
X68538803Y-118049684D01*
X68562007Y-118055496D01*
X68584529Y-118063554D01*
X68606153Y-118073782D01*
X68626670Y-118086079D01*
X68645883Y-118100329D01*
X68663607Y-118116393D01*
X68679671Y-118134117D01*
X68693921Y-118153330D01*
X68706218Y-118173847D01*
X68716446Y-118195471D01*
X68724504Y-118217993D01*
X68730316Y-118241197D01*
X68733826Y-118264858D01*
X68735000Y-118288750D01*
X68735000Y-119201250D01*
X68733826Y-119225142D01*
X68730316Y-119248803D01*
X68724504Y-119272007D01*
X68716446Y-119294529D01*
X68706218Y-119316153D01*
X68693921Y-119336670D01*
X68679671Y-119355883D01*
X68663607Y-119373607D01*
X68645883Y-119389671D01*
X68626670Y-119403921D01*
X68606153Y-119416218D01*
X68584529Y-119426446D01*
X68562007Y-119434504D01*
X68538803Y-119440316D01*
X68515142Y-119443826D01*
X68491250Y-119445000D01*
X68003750Y-119445000D01*
X67979858Y-119443826D01*
X67956197Y-119440316D01*
X67932993Y-119434504D01*
X67910471Y-119426446D01*
X67888847Y-119416218D01*
X67868330Y-119403921D01*
X67849117Y-119389671D01*
X67831393Y-119373607D01*
X67815329Y-119355883D01*
X67801079Y-119336670D01*
X67788782Y-119316153D01*
X67778554Y-119294529D01*
X67770496Y-119272007D01*
X67764684Y-119248803D01*
X67761174Y-119225142D01*
X67760000Y-119201250D01*
X67760000Y-118288750D01*
X67761174Y-118264858D01*
X67764684Y-118241197D01*
X67770496Y-118217993D01*
X67778554Y-118195471D01*
X67788782Y-118173847D01*
X67801079Y-118153330D01*
X67815329Y-118134117D01*
X67831393Y-118116393D01*
X67849117Y-118100329D01*
X67868330Y-118086079D01*
X67888847Y-118073782D01*
X67910471Y-118063554D01*
X67932993Y-118055496D01*
X67956197Y-118049684D01*
X67979858Y-118046174D01*
X68003750Y-118045000D01*
X68491250Y-118045000D01*
X68515142Y-118046174D01*
X68515142Y-118046174D01*
G37*
D12*
X68247500Y-118745000D03*
D11*
G36*
X74230142Y-118046174D02*
G01*
X74253803Y-118049684D01*
X74277007Y-118055496D01*
X74299529Y-118063554D01*
X74321153Y-118073782D01*
X74341670Y-118086079D01*
X74360883Y-118100329D01*
X74378607Y-118116393D01*
X74394671Y-118134117D01*
X74408921Y-118153330D01*
X74421218Y-118173847D01*
X74431446Y-118195471D01*
X74439504Y-118217993D01*
X74445316Y-118241197D01*
X74448826Y-118264858D01*
X74450000Y-118288750D01*
X74450000Y-119201250D01*
X74448826Y-119225142D01*
X74445316Y-119248803D01*
X74439504Y-119272007D01*
X74431446Y-119294529D01*
X74421218Y-119316153D01*
X74408921Y-119336670D01*
X74394671Y-119355883D01*
X74378607Y-119373607D01*
X74360883Y-119389671D01*
X74341670Y-119403921D01*
X74321153Y-119416218D01*
X74299529Y-119426446D01*
X74277007Y-119434504D01*
X74253803Y-119440316D01*
X74230142Y-119443826D01*
X74206250Y-119445000D01*
X73718750Y-119445000D01*
X73694858Y-119443826D01*
X73671197Y-119440316D01*
X73647993Y-119434504D01*
X73625471Y-119426446D01*
X73603847Y-119416218D01*
X73583330Y-119403921D01*
X73564117Y-119389671D01*
X73546393Y-119373607D01*
X73530329Y-119355883D01*
X73516079Y-119336670D01*
X73503782Y-119316153D01*
X73493554Y-119294529D01*
X73485496Y-119272007D01*
X73479684Y-119248803D01*
X73476174Y-119225142D01*
X73475000Y-119201250D01*
X73475000Y-118288750D01*
X73476174Y-118264858D01*
X73479684Y-118241197D01*
X73485496Y-118217993D01*
X73493554Y-118195471D01*
X73503782Y-118173847D01*
X73516079Y-118153330D01*
X73530329Y-118134117D01*
X73546393Y-118116393D01*
X73564117Y-118100329D01*
X73583330Y-118086079D01*
X73603847Y-118073782D01*
X73625471Y-118063554D01*
X73647993Y-118055496D01*
X73671197Y-118049684D01*
X73694858Y-118046174D01*
X73718750Y-118045000D01*
X74206250Y-118045000D01*
X74230142Y-118046174D01*
X74230142Y-118046174D01*
G37*
D12*
X73962500Y-118745000D03*
D11*
G36*
X72355142Y-118046174D02*
G01*
X72378803Y-118049684D01*
X72402007Y-118055496D01*
X72424529Y-118063554D01*
X72446153Y-118073782D01*
X72466670Y-118086079D01*
X72485883Y-118100329D01*
X72503607Y-118116393D01*
X72519671Y-118134117D01*
X72533921Y-118153330D01*
X72546218Y-118173847D01*
X72556446Y-118195471D01*
X72564504Y-118217993D01*
X72570316Y-118241197D01*
X72573826Y-118264858D01*
X72575000Y-118288750D01*
X72575000Y-119201250D01*
X72573826Y-119225142D01*
X72570316Y-119248803D01*
X72564504Y-119272007D01*
X72556446Y-119294529D01*
X72546218Y-119316153D01*
X72533921Y-119336670D01*
X72519671Y-119355883D01*
X72503607Y-119373607D01*
X72485883Y-119389671D01*
X72466670Y-119403921D01*
X72446153Y-119416218D01*
X72424529Y-119426446D01*
X72402007Y-119434504D01*
X72378803Y-119440316D01*
X72355142Y-119443826D01*
X72331250Y-119445000D01*
X71843750Y-119445000D01*
X71819858Y-119443826D01*
X71796197Y-119440316D01*
X71772993Y-119434504D01*
X71750471Y-119426446D01*
X71728847Y-119416218D01*
X71708330Y-119403921D01*
X71689117Y-119389671D01*
X71671393Y-119373607D01*
X71655329Y-119355883D01*
X71641079Y-119336670D01*
X71628782Y-119316153D01*
X71618554Y-119294529D01*
X71610496Y-119272007D01*
X71604684Y-119248803D01*
X71601174Y-119225142D01*
X71600000Y-119201250D01*
X71600000Y-118288750D01*
X71601174Y-118264858D01*
X71604684Y-118241197D01*
X71610496Y-118217993D01*
X71618554Y-118195471D01*
X71628782Y-118173847D01*
X71641079Y-118153330D01*
X71655329Y-118134117D01*
X71671393Y-118116393D01*
X71689117Y-118100329D01*
X71708330Y-118086079D01*
X71728847Y-118073782D01*
X71750471Y-118063554D01*
X71772993Y-118055496D01*
X71796197Y-118049684D01*
X71819858Y-118046174D01*
X71843750Y-118045000D01*
X72331250Y-118045000D01*
X72355142Y-118046174D01*
X72355142Y-118046174D01*
G37*
D12*
X72087500Y-118745000D03*
D11*
G36*
X79340142Y-118046174D02*
G01*
X79363803Y-118049684D01*
X79387007Y-118055496D01*
X79409529Y-118063554D01*
X79431153Y-118073782D01*
X79451670Y-118086079D01*
X79470883Y-118100329D01*
X79488607Y-118116393D01*
X79504671Y-118134117D01*
X79518921Y-118153330D01*
X79531218Y-118173847D01*
X79541446Y-118195471D01*
X79549504Y-118217993D01*
X79555316Y-118241197D01*
X79558826Y-118264858D01*
X79560000Y-118288750D01*
X79560000Y-119201250D01*
X79558826Y-119225142D01*
X79555316Y-119248803D01*
X79549504Y-119272007D01*
X79541446Y-119294529D01*
X79531218Y-119316153D01*
X79518921Y-119336670D01*
X79504671Y-119355883D01*
X79488607Y-119373607D01*
X79470883Y-119389671D01*
X79451670Y-119403921D01*
X79431153Y-119416218D01*
X79409529Y-119426446D01*
X79387007Y-119434504D01*
X79363803Y-119440316D01*
X79340142Y-119443826D01*
X79316250Y-119445000D01*
X78828750Y-119445000D01*
X78804858Y-119443826D01*
X78781197Y-119440316D01*
X78757993Y-119434504D01*
X78735471Y-119426446D01*
X78713847Y-119416218D01*
X78693330Y-119403921D01*
X78674117Y-119389671D01*
X78656393Y-119373607D01*
X78640329Y-119355883D01*
X78626079Y-119336670D01*
X78613782Y-119316153D01*
X78603554Y-119294529D01*
X78595496Y-119272007D01*
X78589684Y-119248803D01*
X78586174Y-119225142D01*
X78585000Y-119201250D01*
X78585000Y-118288750D01*
X78586174Y-118264858D01*
X78589684Y-118241197D01*
X78595496Y-118217993D01*
X78603554Y-118195471D01*
X78613782Y-118173847D01*
X78626079Y-118153330D01*
X78640329Y-118134117D01*
X78656393Y-118116393D01*
X78674117Y-118100329D01*
X78693330Y-118086079D01*
X78713847Y-118073782D01*
X78735471Y-118063554D01*
X78757993Y-118055496D01*
X78781197Y-118049684D01*
X78804858Y-118046174D01*
X78828750Y-118045000D01*
X79316250Y-118045000D01*
X79340142Y-118046174D01*
X79340142Y-118046174D01*
G37*
D12*
X79072500Y-118745000D03*
D11*
G36*
X81215142Y-118046174D02*
G01*
X81238803Y-118049684D01*
X81262007Y-118055496D01*
X81284529Y-118063554D01*
X81306153Y-118073782D01*
X81326670Y-118086079D01*
X81345883Y-118100329D01*
X81363607Y-118116393D01*
X81379671Y-118134117D01*
X81393921Y-118153330D01*
X81406218Y-118173847D01*
X81416446Y-118195471D01*
X81424504Y-118217993D01*
X81430316Y-118241197D01*
X81433826Y-118264858D01*
X81435000Y-118288750D01*
X81435000Y-119201250D01*
X81433826Y-119225142D01*
X81430316Y-119248803D01*
X81424504Y-119272007D01*
X81416446Y-119294529D01*
X81406218Y-119316153D01*
X81393921Y-119336670D01*
X81379671Y-119355883D01*
X81363607Y-119373607D01*
X81345883Y-119389671D01*
X81326670Y-119403921D01*
X81306153Y-119416218D01*
X81284529Y-119426446D01*
X81262007Y-119434504D01*
X81238803Y-119440316D01*
X81215142Y-119443826D01*
X81191250Y-119445000D01*
X80703750Y-119445000D01*
X80679858Y-119443826D01*
X80656197Y-119440316D01*
X80632993Y-119434504D01*
X80610471Y-119426446D01*
X80588847Y-119416218D01*
X80568330Y-119403921D01*
X80549117Y-119389671D01*
X80531393Y-119373607D01*
X80515329Y-119355883D01*
X80501079Y-119336670D01*
X80488782Y-119316153D01*
X80478554Y-119294529D01*
X80470496Y-119272007D01*
X80464684Y-119248803D01*
X80461174Y-119225142D01*
X80460000Y-119201250D01*
X80460000Y-118288750D01*
X80461174Y-118264858D01*
X80464684Y-118241197D01*
X80470496Y-118217993D01*
X80478554Y-118195471D01*
X80488782Y-118173847D01*
X80501079Y-118153330D01*
X80515329Y-118134117D01*
X80531393Y-118116393D01*
X80549117Y-118100329D01*
X80568330Y-118086079D01*
X80588847Y-118073782D01*
X80610471Y-118063554D01*
X80632993Y-118055496D01*
X80656197Y-118049684D01*
X80679858Y-118046174D01*
X80703750Y-118045000D01*
X81191250Y-118045000D01*
X81215142Y-118046174D01*
X81215142Y-118046174D01*
G37*
D12*
X80947500Y-118745000D03*
D11*
G36*
X85055142Y-118046174D02*
G01*
X85078803Y-118049684D01*
X85102007Y-118055496D01*
X85124529Y-118063554D01*
X85146153Y-118073782D01*
X85166670Y-118086079D01*
X85185883Y-118100329D01*
X85203607Y-118116393D01*
X85219671Y-118134117D01*
X85233921Y-118153330D01*
X85246218Y-118173847D01*
X85256446Y-118195471D01*
X85264504Y-118217993D01*
X85270316Y-118241197D01*
X85273826Y-118264858D01*
X85275000Y-118288750D01*
X85275000Y-119201250D01*
X85273826Y-119225142D01*
X85270316Y-119248803D01*
X85264504Y-119272007D01*
X85256446Y-119294529D01*
X85246218Y-119316153D01*
X85233921Y-119336670D01*
X85219671Y-119355883D01*
X85203607Y-119373607D01*
X85185883Y-119389671D01*
X85166670Y-119403921D01*
X85146153Y-119416218D01*
X85124529Y-119426446D01*
X85102007Y-119434504D01*
X85078803Y-119440316D01*
X85055142Y-119443826D01*
X85031250Y-119445000D01*
X84543750Y-119445000D01*
X84519858Y-119443826D01*
X84496197Y-119440316D01*
X84472993Y-119434504D01*
X84450471Y-119426446D01*
X84428847Y-119416218D01*
X84408330Y-119403921D01*
X84389117Y-119389671D01*
X84371393Y-119373607D01*
X84355329Y-119355883D01*
X84341079Y-119336670D01*
X84328782Y-119316153D01*
X84318554Y-119294529D01*
X84310496Y-119272007D01*
X84304684Y-119248803D01*
X84301174Y-119225142D01*
X84300000Y-119201250D01*
X84300000Y-118288750D01*
X84301174Y-118264858D01*
X84304684Y-118241197D01*
X84310496Y-118217993D01*
X84318554Y-118195471D01*
X84328782Y-118173847D01*
X84341079Y-118153330D01*
X84355329Y-118134117D01*
X84371393Y-118116393D01*
X84389117Y-118100329D01*
X84408330Y-118086079D01*
X84428847Y-118073782D01*
X84450471Y-118063554D01*
X84472993Y-118055496D01*
X84496197Y-118049684D01*
X84519858Y-118046174D01*
X84543750Y-118045000D01*
X85031250Y-118045000D01*
X85055142Y-118046174D01*
X85055142Y-118046174D01*
G37*
D12*
X84787500Y-118745000D03*
D11*
G36*
X86930142Y-118046174D02*
G01*
X86953803Y-118049684D01*
X86977007Y-118055496D01*
X86999529Y-118063554D01*
X87021153Y-118073782D01*
X87041670Y-118086079D01*
X87060883Y-118100329D01*
X87078607Y-118116393D01*
X87094671Y-118134117D01*
X87108921Y-118153330D01*
X87121218Y-118173847D01*
X87131446Y-118195471D01*
X87139504Y-118217993D01*
X87145316Y-118241197D01*
X87148826Y-118264858D01*
X87150000Y-118288750D01*
X87150000Y-119201250D01*
X87148826Y-119225142D01*
X87145316Y-119248803D01*
X87139504Y-119272007D01*
X87131446Y-119294529D01*
X87121218Y-119316153D01*
X87108921Y-119336670D01*
X87094671Y-119355883D01*
X87078607Y-119373607D01*
X87060883Y-119389671D01*
X87041670Y-119403921D01*
X87021153Y-119416218D01*
X86999529Y-119426446D01*
X86977007Y-119434504D01*
X86953803Y-119440316D01*
X86930142Y-119443826D01*
X86906250Y-119445000D01*
X86418750Y-119445000D01*
X86394858Y-119443826D01*
X86371197Y-119440316D01*
X86347993Y-119434504D01*
X86325471Y-119426446D01*
X86303847Y-119416218D01*
X86283330Y-119403921D01*
X86264117Y-119389671D01*
X86246393Y-119373607D01*
X86230329Y-119355883D01*
X86216079Y-119336670D01*
X86203782Y-119316153D01*
X86193554Y-119294529D01*
X86185496Y-119272007D01*
X86179684Y-119248803D01*
X86176174Y-119225142D01*
X86175000Y-119201250D01*
X86175000Y-118288750D01*
X86176174Y-118264858D01*
X86179684Y-118241197D01*
X86185496Y-118217993D01*
X86193554Y-118195471D01*
X86203782Y-118173847D01*
X86216079Y-118153330D01*
X86230329Y-118134117D01*
X86246393Y-118116393D01*
X86264117Y-118100329D01*
X86283330Y-118086079D01*
X86303847Y-118073782D01*
X86325471Y-118063554D01*
X86347993Y-118055496D01*
X86371197Y-118049684D01*
X86394858Y-118046174D01*
X86418750Y-118045000D01*
X86906250Y-118045000D01*
X86930142Y-118046174D01*
X86930142Y-118046174D01*
G37*
D12*
X86662500Y-118745000D03*
D11*
G36*
X82152642Y-145986174D02*
G01*
X82176303Y-145989684D01*
X82199507Y-145995496D01*
X82222029Y-146003554D01*
X82243653Y-146013782D01*
X82264170Y-146026079D01*
X82283383Y-146040329D01*
X82301107Y-146056393D01*
X82317171Y-146074117D01*
X82331421Y-146093330D01*
X82343718Y-146113847D01*
X82353946Y-146135471D01*
X82362004Y-146157993D01*
X82367816Y-146181197D01*
X82371326Y-146204858D01*
X82372500Y-146228750D01*
X82372500Y-147141250D01*
X82371326Y-147165142D01*
X82367816Y-147188803D01*
X82362004Y-147212007D01*
X82353946Y-147234529D01*
X82343718Y-147256153D01*
X82331421Y-147276670D01*
X82317171Y-147295883D01*
X82301107Y-147313607D01*
X82283383Y-147329671D01*
X82264170Y-147343921D01*
X82243653Y-147356218D01*
X82222029Y-147366446D01*
X82199507Y-147374504D01*
X82176303Y-147380316D01*
X82152642Y-147383826D01*
X82128750Y-147385000D01*
X81641250Y-147385000D01*
X81617358Y-147383826D01*
X81593697Y-147380316D01*
X81570493Y-147374504D01*
X81547971Y-147366446D01*
X81526347Y-147356218D01*
X81505830Y-147343921D01*
X81486617Y-147329671D01*
X81468893Y-147313607D01*
X81452829Y-147295883D01*
X81438579Y-147276670D01*
X81426282Y-147256153D01*
X81416054Y-147234529D01*
X81407996Y-147212007D01*
X81402184Y-147188803D01*
X81398674Y-147165142D01*
X81397500Y-147141250D01*
X81397500Y-146228750D01*
X81398674Y-146204858D01*
X81402184Y-146181197D01*
X81407996Y-146157993D01*
X81416054Y-146135471D01*
X81426282Y-146113847D01*
X81438579Y-146093330D01*
X81452829Y-146074117D01*
X81468893Y-146056393D01*
X81486617Y-146040329D01*
X81505830Y-146026079D01*
X81526347Y-146013782D01*
X81547971Y-146003554D01*
X81570493Y-145995496D01*
X81593697Y-145989684D01*
X81617358Y-145986174D01*
X81641250Y-145985000D01*
X82128750Y-145985000D01*
X82152642Y-145986174D01*
X82152642Y-145986174D01*
G37*
D12*
X81885000Y-146685000D03*
D11*
G36*
X80277642Y-145986174D02*
G01*
X80301303Y-145989684D01*
X80324507Y-145995496D01*
X80347029Y-146003554D01*
X80368653Y-146013782D01*
X80389170Y-146026079D01*
X80408383Y-146040329D01*
X80426107Y-146056393D01*
X80442171Y-146074117D01*
X80456421Y-146093330D01*
X80468718Y-146113847D01*
X80478946Y-146135471D01*
X80487004Y-146157993D01*
X80492816Y-146181197D01*
X80496326Y-146204858D01*
X80497500Y-146228750D01*
X80497500Y-147141250D01*
X80496326Y-147165142D01*
X80492816Y-147188803D01*
X80487004Y-147212007D01*
X80478946Y-147234529D01*
X80468718Y-147256153D01*
X80456421Y-147276670D01*
X80442171Y-147295883D01*
X80426107Y-147313607D01*
X80408383Y-147329671D01*
X80389170Y-147343921D01*
X80368653Y-147356218D01*
X80347029Y-147366446D01*
X80324507Y-147374504D01*
X80301303Y-147380316D01*
X80277642Y-147383826D01*
X80253750Y-147385000D01*
X79766250Y-147385000D01*
X79742358Y-147383826D01*
X79718697Y-147380316D01*
X79695493Y-147374504D01*
X79672971Y-147366446D01*
X79651347Y-147356218D01*
X79630830Y-147343921D01*
X79611617Y-147329671D01*
X79593893Y-147313607D01*
X79577829Y-147295883D01*
X79563579Y-147276670D01*
X79551282Y-147256153D01*
X79541054Y-147234529D01*
X79532996Y-147212007D01*
X79527184Y-147188803D01*
X79523674Y-147165142D01*
X79522500Y-147141250D01*
X79522500Y-146228750D01*
X79523674Y-146204858D01*
X79527184Y-146181197D01*
X79532996Y-146157993D01*
X79541054Y-146135471D01*
X79551282Y-146113847D01*
X79563579Y-146093330D01*
X79577829Y-146074117D01*
X79593893Y-146056393D01*
X79611617Y-146040329D01*
X79630830Y-146026079D01*
X79651347Y-146013782D01*
X79672971Y-146003554D01*
X79695493Y-145995496D01*
X79718697Y-145989684D01*
X79742358Y-145986174D01*
X79766250Y-145985000D01*
X80253750Y-145985000D01*
X80277642Y-145986174D01*
X80277642Y-145986174D01*
G37*
D12*
X80010000Y-146685000D03*
D11*
G36*
X66179504Y-122316204D02*
G01*
X66203773Y-122319804D01*
X66227571Y-122325765D01*
X66250671Y-122334030D01*
X66272849Y-122344520D01*
X66293893Y-122357133D01*
X66313598Y-122371747D01*
X66331777Y-122388223D01*
X66348253Y-122406402D01*
X66362867Y-122426107D01*
X66375480Y-122447151D01*
X66385970Y-122469329D01*
X66394235Y-122492429D01*
X66400196Y-122516227D01*
X66403796Y-122540496D01*
X66405000Y-122565000D01*
X66405000Y-123815000D01*
X66403796Y-123839504D01*
X66400196Y-123863773D01*
X66394235Y-123887571D01*
X66385970Y-123910671D01*
X66375480Y-123932849D01*
X66362867Y-123953893D01*
X66348253Y-123973598D01*
X66331777Y-123991777D01*
X66313598Y-124008253D01*
X66293893Y-124022867D01*
X66272849Y-124035480D01*
X66250671Y-124045970D01*
X66227571Y-124054235D01*
X66203773Y-124060196D01*
X66179504Y-124063796D01*
X66155000Y-124065000D01*
X65405000Y-124065000D01*
X65380496Y-124063796D01*
X65356227Y-124060196D01*
X65332429Y-124054235D01*
X65309329Y-124045970D01*
X65287151Y-124035480D01*
X65266107Y-124022867D01*
X65246402Y-124008253D01*
X65228223Y-123991777D01*
X65211747Y-123973598D01*
X65197133Y-123953893D01*
X65184520Y-123932849D01*
X65174030Y-123910671D01*
X65165765Y-123887571D01*
X65159804Y-123863773D01*
X65156204Y-123839504D01*
X65155000Y-123815000D01*
X65155000Y-122565000D01*
X65156204Y-122540496D01*
X65159804Y-122516227D01*
X65165765Y-122492429D01*
X65174030Y-122469329D01*
X65184520Y-122447151D01*
X65197133Y-122426107D01*
X65211747Y-122406402D01*
X65228223Y-122388223D01*
X65246402Y-122371747D01*
X65266107Y-122357133D01*
X65287151Y-122344520D01*
X65309329Y-122334030D01*
X65332429Y-122325765D01*
X65356227Y-122319804D01*
X65380496Y-122316204D01*
X65405000Y-122315000D01*
X66155000Y-122315000D01*
X66179504Y-122316204D01*
X66179504Y-122316204D01*
G37*
D13*
X65780000Y-123190000D03*
D11*
G36*
X68979504Y-122316204D02*
G01*
X69003773Y-122319804D01*
X69027571Y-122325765D01*
X69050671Y-122334030D01*
X69072849Y-122344520D01*
X69093893Y-122357133D01*
X69113598Y-122371747D01*
X69131777Y-122388223D01*
X69148253Y-122406402D01*
X69162867Y-122426107D01*
X69175480Y-122447151D01*
X69185970Y-122469329D01*
X69194235Y-122492429D01*
X69200196Y-122516227D01*
X69203796Y-122540496D01*
X69205000Y-122565000D01*
X69205000Y-123815000D01*
X69203796Y-123839504D01*
X69200196Y-123863773D01*
X69194235Y-123887571D01*
X69185970Y-123910671D01*
X69175480Y-123932849D01*
X69162867Y-123953893D01*
X69148253Y-123973598D01*
X69131777Y-123991777D01*
X69113598Y-124008253D01*
X69093893Y-124022867D01*
X69072849Y-124035480D01*
X69050671Y-124045970D01*
X69027571Y-124054235D01*
X69003773Y-124060196D01*
X68979504Y-124063796D01*
X68955000Y-124065000D01*
X68205000Y-124065000D01*
X68180496Y-124063796D01*
X68156227Y-124060196D01*
X68132429Y-124054235D01*
X68109329Y-124045970D01*
X68087151Y-124035480D01*
X68066107Y-124022867D01*
X68046402Y-124008253D01*
X68028223Y-123991777D01*
X68011747Y-123973598D01*
X67997133Y-123953893D01*
X67984520Y-123932849D01*
X67974030Y-123910671D01*
X67965765Y-123887571D01*
X67959804Y-123863773D01*
X67956204Y-123839504D01*
X67955000Y-123815000D01*
X67955000Y-122565000D01*
X67956204Y-122540496D01*
X67959804Y-122516227D01*
X67965765Y-122492429D01*
X67974030Y-122469329D01*
X67984520Y-122447151D01*
X67997133Y-122426107D01*
X68011747Y-122406402D01*
X68028223Y-122388223D01*
X68046402Y-122371747D01*
X68066107Y-122357133D01*
X68087151Y-122344520D01*
X68109329Y-122334030D01*
X68132429Y-122325765D01*
X68156227Y-122319804D01*
X68180496Y-122316204D01*
X68205000Y-122315000D01*
X68955000Y-122315000D01*
X68979504Y-122316204D01*
X68979504Y-122316204D01*
G37*
D13*
X68580000Y-123190000D03*
D11*
G36*
X74694504Y-113426204D02*
G01*
X74718773Y-113429804D01*
X74742571Y-113435765D01*
X74765671Y-113444030D01*
X74787849Y-113454520D01*
X74808893Y-113467133D01*
X74828598Y-113481747D01*
X74846777Y-113498223D01*
X74863253Y-113516402D01*
X74877867Y-113536107D01*
X74890480Y-113557151D01*
X74900970Y-113579329D01*
X74909235Y-113602429D01*
X74915196Y-113626227D01*
X74918796Y-113650496D01*
X74920000Y-113675000D01*
X74920000Y-114925000D01*
X74918796Y-114949504D01*
X74915196Y-114973773D01*
X74909235Y-114997571D01*
X74900970Y-115020671D01*
X74890480Y-115042849D01*
X74877867Y-115063893D01*
X74863253Y-115083598D01*
X74846777Y-115101777D01*
X74828598Y-115118253D01*
X74808893Y-115132867D01*
X74787849Y-115145480D01*
X74765671Y-115155970D01*
X74742571Y-115164235D01*
X74718773Y-115170196D01*
X74694504Y-115173796D01*
X74670000Y-115175000D01*
X73920000Y-115175000D01*
X73895496Y-115173796D01*
X73871227Y-115170196D01*
X73847429Y-115164235D01*
X73824329Y-115155970D01*
X73802151Y-115145480D01*
X73781107Y-115132867D01*
X73761402Y-115118253D01*
X73743223Y-115101777D01*
X73726747Y-115083598D01*
X73712133Y-115063893D01*
X73699520Y-115042849D01*
X73689030Y-115020671D01*
X73680765Y-114997571D01*
X73674804Y-114973773D01*
X73671204Y-114949504D01*
X73670000Y-114925000D01*
X73670000Y-113675000D01*
X73671204Y-113650496D01*
X73674804Y-113626227D01*
X73680765Y-113602429D01*
X73689030Y-113579329D01*
X73699520Y-113557151D01*
X73712133Y-113536107D01*
X73726747Y-113516402D01*
X73743223Y-113498223D01*
X73761402Y-113481747D01*
X73781107Y-113467133D01*
X73802151Y-113454520D01*
X73824329Y-113444030D01*
X73847429Y-113435765D01*
X73871227Y-113429804D01*
X73895496Y-113426204D01*
X73920000Y-113425000D01*
X74670000Y-113425000D01*
X74694504Y-113426204D01*
X74694504Y-113426204D01*
G37*
D13*
X74295000Y-114300000D03*
D11*
G36*
X71894504Y-113426204D02*
G01*
X71918773Y-113429804D01*
X71942571Y-113435765D01*
X71965671Y-113444030D01*
X71987849Y-113454520D01*
X72008893Y-113467133D01*
X72028598Y-113481747D01*
X72046777Y-113498223D01*
X72063253Y-113516402D01*
X72077867Y-113536107D01*
X72090480Y-113557151D01*
X72100970Y-113579329D01*
X72109235Y-113602429D01*
X72115196Y-113626227D01*
X72118796Y-113650496D01*
X72120000Y-113675000D01*
X72120000Y-114925000D01*
X72118796Y-114949504D01*
X72115196Y-114973773D01*
X72109235Y-114997571D01*
X72100970Y-115020671D01*
X72090480Y-115042849D01*
X72077867Y-115063893D01*
X72063253Y-115083598D01*
X72046777Y-115101777D01*
X72028598Y-115118253D01*
X72008893Y-115132867D01*
X71987849Y-115145480D01*
X71965671Y-115155970D01*
X71942571Y-115164235D01*
X71918773Y-115170196D01*
X71894504Y-115173796D01*
X71870000Y-115175000D01*
X71120000Y-115175000D01*
X71095496Y-115173796D01*
X71071227Y-115170196D01*
X71047429Y-115164235D01*
X71024329Y-115155970D01*
X71002151Y-115145480D01*
X70981107Y-115132867D01*
X70961402Y-115118253D01*
X70943223Y-115101777D01*
X70926747Y-115083598D01*
X70912133Y-115063893D01*
X70899520Y-115042849D01*
X70889030Y-115020671D01*
X70880765Y-114997571D01*
X70874804Y-114973773D01*
X70871204Y-114949504D01*
X70870000Y-114925000D01*
X70870000Y-113675000D01*
X70871204Y-113650496D01*
X70874804Y-113626227D01*
X70880765Y-113602429D01*
X70889030Y-113579329D01*
X70899520Y-113557151D01*
X70912133Y-113536107D01*
X70926747Y-113516402D01*
X70943223Y-113498223D01*
X70961402Y-113481747D01*
X70981107Y-113467133D01*
X71002151Y-113454520D01*
X71024329Y-113444030D01*
X71047429Y-113435765D01*
X71071227Y-113429804D01*
X71095496Y-113426204D01*
X71120000Y-113425000D01*
X71870000Y-113425000D01*
X71894504Y-113426204D01*
X71894504Y-113426204D01*
G37*
D13*
X71495000Y-114300000D03*
D11*
G36*
X81679504Y-122316204D02*
G01*
X81703773Y-122319804D01*
X81727571Y-122325765D01*
X81750671Y-122334030D01*
X81772849Y-122344520D01*
X81793893Y-122357133D01*
X81813598Y-122371747D01*
X81831777Y-122388223D01*
X81848253Y-122406402D01*
X81862867Y-122426107D01*
X81875480Y-122447151D01*
X81885970Y-122469329D01*
X81894235Y-122492429D01*
X81900196Y-122516227D01*
X81903796Y-122540496D01*
X81905000Y-122565000D01*
X81905000Y-123815000D01*
X81903796Y-123839504D01*
X81900196Y-123863773D01*
X81894235Y-123887571D01*
X81885970Y-123910671D01*
X81875480Y-123932849D01*
X81862867Y-123953893D01*
X81848253Y-123973598D01*
X81831777Y-123991777D01*
X81813598Y-124008253D01*
X81793893Y-124022867D01*
X81772849Y-124035480D01*
X81750671Y-124045970D01*
X81727571Y-124054235D01*
X81703773Y-124060196D01*
X81679504Y-124063796D01*
X81655000Y-124065000D01*
X80905000Y-124065000D01*
X80880496Y-124063796D01*
X80856227Y-124060196D01*
X80832429Y-124054235D01*
X80809329Y-124045970D01*
X80787151Y-124035480D01*
X80766107Y-124022867D01*
X80746402Y-124008253D01*
X80728223Y-123991777D01*
X80711747Y-123973598D01*
X80697133Y-123953893D01*
X80684520Y-123932849D01*
X80674030Y-123910671D01*
X80665765Y-123887571D01*
X80659804Y-123863773D01*
X80656204Y-123839504D01*
X80655000Y-123815000D01*
X80655000Y-122565000D01*
X80656204Y-122540496D01*
X80659804Y-122516227D01*
X80665765Y-122492429D01*
X80674030Y-122469329D01*
X80684520Y-122447151D01*
X80697133Y-122426107D01*
X80711747Y-122406402D01*
X80728223Y-122388223D01*
X80746402Y-122371747D01*
X80766107Y-122357133D01*
X80787151Y-122344520D01*
X80809329Y-122334030D01*
X80832429Y-122325765D01*
X80856227Y-122319804D01*
X80880496Y-122316204D01*
X80905000Y-122315000D01*
X81655000Y-122315000D01*
X81679504Y-122316204D01*
X81679504Y-122316204D01*
G37*
D13*
X81280000Y-123190000D03*
D11*
G36*
X78879504Y-122316204D02*
G01*
X78903773Y-122319804D01*
X78927571Y-122325765D01*
X78950671Y-122334030D01*
X78972849Y-122344520D01*
X78993893Y-122357133D01*
X79013598Y-122371747D01*
X79031777Y-122388223D01*
X79048253Y-122406402D01*
X79062867Y-122426107D01*
X79075480Y-122447151D01*
X79085970Y-122469329D01*
X79094235Y-122492429D01*
X79100196Y-122516227D01*
X79103796Y-122540496D01*
X79105000Y-122565000D01*
X79105000Y-123815000D01*
X79103796Y-123839504D01*
X79100196Y-123863773D01*
X79094235Y-123887571D01*
X79085970Y-123910671D01*
X79075480Y-123932849D01*
X79062867Y-123953893D01*
X79048253Y-123973598D01*
X79031777Y-123991777D01*
X79013598Y-124008253D01*
X78993893Y-124022867D01*
X78972849Y-124035480D01*
X78950671Y-124045970D01*
X78927571Y-124054235D01*
X78903773Y-124060196D01*
X78879504Y-124063796D01*
X78855000Y-124065000D01*
X78105000Y-124065000D01*
X78080496Y-124063796D01*
X78056227Y-124060196D01*
X78032429Y-124054235D01*
X78009329Y-124045970D01*
X77987151Y-124035480D01*
X77966107Y-124022867D01*
X77946402Y-124008253D01*
X77928223Y-123991777D01*
X77911747Y-123973598D01*
X77897133Y-123953893D01*
X77884520Y-123932849D01*
X77874030Y-123910671D01*
X77865765Y-123887571D01*
X77859804Y-123863773D01*
X77856204Y-123839504D01*
X77855000Y-123815000D01*
X77855000Y-122565000D01*
X77856204Y-122540496D01*
X77859804Y-122516227D01*
X77865765Y-122492429D01*
X77874030Y-122469329D01*
X77884520Y-122447151D01*
X77897133Y-122426107D01*
X77911747Y-122406402D01*
X77928223Y-122388223D01*
X77946402Y-122371747D01*
X77966107Y-122357133D01*
X77987151Y-122344520D01*
X78009329Y-122334030D01*
X78032429Y-122325765D01*
X78056227Y-122319804D01*
X78080496Y-122316204D01*
X78105000Y-122315000D01*
X78855000Y-122315000D01*
X78879504Y-122316204D01*
X78879504Y-122316204D01*
G37*
D13*
X78480000Y-123190000D03*
D11*
G36*
X87394504Y-122316204D02*
G01*
X87418773Y-122319804D01*
X87442571Y-122325765D01*
X87465671Y-122334030D01*
X87487849Y-122344520D01*
X87508893Y-122357133D01*
X87528598Y-122371747D01*
X87546777Y-122388223D01*
X87563253Y-122406402D01*
X87577867Y-122426107D01*
X87590480Y-122447151D01*
X87600970Y-122469329D01*
X87609235Y-122492429D01*
X87615196Y-122516227D01*
X87618796Y-122540496D01*
X87620000Y-122565000D01*
X87620000Y-123815000D01*
X87618796Y-123839504D01*
X87615196Y-123863773D01*
X87609235Y-123887571D01*
X87600970Y-123910671D01*
X87590480Y-123932849D01*
X87577867Y-123953893D01*
X87563253Y-123973598D01*
X87546777Y-123991777D01*
X87528598Y-124008253D01*
X87508893Y-124022867D01*
X87487849Y-124035480D01*
X87465671Y-124045970D01*
X87442571Y-124054235D01*
X87418773Y-124060196D01*
X87394504Y-124063796D01*
X87370000Y-124065000D01*
X86620000Y-124065000D01*
X86595496Y-124063796D01*
X86571227Y-124060196D01*
X86547429Y-124054235D01*
X86524329Y-124045970D01*
X86502151Y-124035480D01*
X86481107Y-124022867D01*
X86461402Y-124008253D01*
X86443223Y-123991777D01*
X86426747Y-123973598D01*
X86412133Y-123953893D01*
X86399520Y-123932849D01*
X86389030Y-123910671D01*
X86380765Y-123887571D01*
X86374804Y-123863773D01*
X86371204Y-123839504D01*
X86370000Y-123815000D01*
X86370000Y-122565000D01*
X86371204Y-122540496D01*
X86374804Y-122516227D01*
X86380765Y-122492429D01*
X86389030Y-122469329D01*
X86399520Y-122447151D01*
X86412133Y-122426107D01*
X86426747Y-122406402D01*
X86443223Y-122388223D01*
X86461402Y-122371747D01*
X86481107Y-122357133D01*
X86502151Y-122344520D01*
X86524329Y-122334030D01*
X86547429Y-122325765D01*
X86571227Y-122319804D01*
X86595496Y-122316204D01*
X86620000Y-122315000D01*
X87370000Y-122315000D01*
X87394504Y-122316204D01*
X87394504Y-122316204D01*
G37*
D13*
X86995000Y-123190000D03*
D11*
G36*
X84594504Y-122316204D02*
G01*
X84618773Y-122319804D01*
X84642571Y-122325765D01*
X84665671Y-122334030D01*
X84687849Y-122344520D01*
X84708893Y-122357133D01*
X84728598Y-122371747D01*
X84746777Y-122388223D01*
X84763253Y-122406402D01*
X84777867Y-122426107D01*
X84790480Y-122447151D01*
X84800970Y-122469329D01*
X84809235Y-122492429D01*
X84815196Y-122516227D01*
X84818796Y-122540496D01*
X84820000Y-122565000D01*
X84820000Y-123815000D01*
X84818796Y-123839504D01*
X84815196Y-123863773D01*
X84809235Y-123887571D01*
X84800970Y-123910671D01*
X84790480Y-123932849D01*
X84777867Y-123953893D01*
X84763253Y-123973598D01*
X84746777Y-123991777D01*
X84728598Y-124008253D01*
X84708893Y-124022867D01*
X84687849Y-124035480D01*
X84665671Y-124045970D01*
X84642571Y-124054235D01*
X84618773Y-124060196D01*
X84594504Y-124063796D01*
X84570000Y-124065000D01*
X83820000Y-124065000D01*
X83795496Y-124063796D01*
X83771227Y-124060196D01*
X83747429Y-124054235D01*
X83724329Y-124045970D01*
X83702151Y-124035480D01*
X83681107Y-124022867D01*
X83661402Y-124008253D01*
X83643223Y-123991777D01*
X83626747Y-123973598D01*
X83612133Y-123953893D01*
X83599520Y-123932849D01*
X83589030Y-123910671D01*
X83580765Y-123887571D01*
X83574804Y-123863773D01*
X83571204Y-123839504D01*
X83570000Y-123815000D01*
X83570000Y-122565000D01*
X83571204Y-122540496D01*
X83574804Y-122516227D01*
X83580765Y-122492429D01*
X83589030Y-122469329D01*
X83599520Y-122447151D01*
X83612133Y-122426107D01*
X83626747Y-122406402D01*
X83643223Y-122388223D01*
X83661402Y-122371747D01*
X83681107Y-122357133D01*
X83702151Y-122344520D01*
X83724329Y-122334030D01*
X83747429Y-122325765D01*
X83771227Y-122319804D01*
X83795496Y-122316204D01*
X83820000Y-122315000D01*
X84570000Y-122315000D01*
X84594504Y-122316204D01*
X84594504Y-122316204D01*
G37*
D13*
X84195000Y-123190000D03*
D11*
G36*
X66179504Y-113426204D02*
G01*
X66203773Y-113429804D01*
X66227571Y-113435765D01*
X66250671Y-113444030D01*
X66272849Y-113454520D01*
X66293893Y-113467133D01*
X66313598Y-113481747D01*
X66331777Y-113498223D01*
X66348253Y-113516402D01*
X66362867Y-113536107D01*
X66375480Y-113557151D01*
X66385970Y-113579329D01*
X66394235Y-113602429D01*
X66400196Y-113626227D01*
X66403796Y-113650496D01*
X66405000Y-113675000D01*
X66405000Y-114925000D01*
X66403796Y-114949504D01*
X66400196Y-114973773D01*
X66394235Y-114997571D01*
X66385970Y-115020671D01*
X66375480Y-115042849D01*
X66362867Y-115063893D01*
X66348253Y-115083598D01*
X66331777Y-115101777D01*
X66313598Y-115118253D01*
X66293893Y-115132867D01*
X66272849Y-115145480D01*
X66250671Y-115155970D01*
X66227571Y-115164235D01*
X66203773Y-115170196D01*
X66179504Y-115173796D01*
X66155000Y-115175000D01*
X65405000Y-115175000D01*
X65380496Y-115173796D01*
X65356227Y-115170196D01*
X65332429Y-115164235D01*
X65309329Y-115155970D01*
X65287151Y-115145480D01*
X65266107Y-115132867D01*
X65246402Y-115118253D01*
X65228223Y-115101777D01*
X65211747Y-115083598D01*
X65197133Y-115063893D01*
X65184520Y-115042849D01*
X65174030Y-115020671D01*
X65165765Y-114997571D01*
X65159804Y-114973773D01*
X65156204Y-114949504D01*
X65155000Y-114925000D01*
X65155000Y-113675000D01*
X65156204Y-113650496D01*
X65159804Y-113626227D01*
X65165765Y-113602429D01*
X65174030Y-113579329D01*
X65184520Y-113557151D01*
X65197133Y-113536107D01*
X65211747Y-113516402D01*
X65228223Y-113498223D01*
X65246402Y-113481747D01*
X65266107Y-113467133D01*
X65287151Y-113454520D01*
X65309329Y-113444030D01*
X65332429Y-113435765D01*
X65356227Y-113429804D01*
X65380496Y-113426204D01*
X65405000Y-113425000D01*
X66155000Y-113425000D01*
X66179504Y-113426204D01*
X66179504Y-113426204D01*
G37*
D13*
X65780000Y-114300000D03*
D11*
G36*
X68979504Y-113426204D02*
G01*
X69003773Y-113429804D01*
X69027571Y-113435765D01*
X69050671Y-113444030D01*
X69072849Y-113454520D01*
X69093893Y-113467133D01*
X69113598Y-113481747D01*
X69131777Y-113498223D01*
X69148253Y-113516402D01*
X69162867Y-113536107D01*
X69175480Y-113557151D01*
X69185970Y-113579329D01*
X69194235Y-113602429D01*
X69200196Y-113626227D01*
X69203796Y-113650496D01*
X69205000Y-113675000D01*
X69205000Y-114925000D01*
X69203796Y-114949504D01*
X69200196Y-114973773D01*
X69194235Y-114997571D01*
X69185970Y-115020671D01*
X69175480Y-115042849D01*
X69162867Y-115063893D01*
X69148253Y-115083598D01*
X69131777Y-115101777D01*
X69113598Y-115118253D01*
X69093893Y-115132867D01*
X69072849Y-115145480D01*
X69050671Y-115155970D01*
X69027571Y-115164235D01*
X69003773Y-115170196D01*
X68979504Y-115173796D01*
X68955000Y-115175000D01*
X68205000Y-115175000D01*
X68180496Y-115173796D01*
X68156227Y-115170196D01*
X68132429Y-115164235D01*
X68109329Y-115155970D01*
X68087151Y-115145480D01*
X68066107Y-115132867D01*
X68046402Y-115118253D01*
X68028223Y-115101777D01*
X68011747Y-115083598D01*
X67997133Y-115063893D01*
X67984520Y-115042849D01*
X67974030Y-115020671D01*
X67965765Y-114997571D01*
X67959804Y-114973773D01*
X67956204Y-114949504D01*
X67955000Y-114925000D01*
X67955000Y-113675000D01*
X67956204Y-113650496D01*
X67959804Y-113626227D01*
X67965765Y-113602429D01*
X67974030Y-113579329D01*
X67984520Y-113557151D01*
X67997133Y-113536107D01*
X68011747Y-113516402D01*
X68028223Y-113498223D01*
X68046402Y-113481747D01*
X68066107Y-113467133D01*
X68087151Y-113454520D01*
X68109329Y-113444030D01*
X68132429Y-113435765D01*
X68156227Y-113429804D01*
X68180496Y-113426204D01*
X68205000Y-113425000D01*
X68955000Y-113425000D01*
X68979504Y-113426204D01*
X68979504Y-113426204D01*
G37*
D13*
X68580000Y-114300000D03*
D11*
G36*
X71894504Y-122316204D02*
G01*
X71918773Y-122319804D01*
X71942571Y-122325765D01*
X71965671Y-122334030D01*
X71987849Y-122344520D01*
X72008893Y-122357133D01*
X72028598Y-122371747D01*
X72046777Y-122388223D01*
X72063253Y-122406402D01*
X72077867Y-122426107D01*
X72090480Y-122447151D01*
X72100970Y-122469329D01*
X72109235Y-122492429D01*
X72115196Y-122516227D01*
X72118796Y-122540496D01*
X72120000Y-122565000D01*
X72120000Y-123815000D01*
X72118796Y-123839504D01*
X72115196Y-123863773D01*
X72109235Y-123887571D01*
X72100970Y-123910671D01*
X72090480Y-123932849D01*
X72077867Y-123953893D01*
X72063253Y-123973598D01*
X72046777Y-123991777D01*
X72028598Y-124008253D01*
X72008893Y-124022867D01*
X71987849Y-124035480D01*
X71965671Y-124045970D01*
X71942571Y-124054235D01*
X71918773Y-124060196D01*
X71894504Y-124063796D01*
X71870000Y-124065000D01*
X71120000Y-124065000D01*
X71095496Y-124063796D01*
X71071227Y-124060196D01*
X71047429Y-124054235D01*
X71024329Y-124045970D01*
X71002151Y-124035480D01*
X70981107Y-124022867D01*
X70961402Y-124008253D01*
X70943223Y-123991777D01*
X70926747Y-123973598D01*
X70912133Y-123953893D01*
X70899520Y-123932849D01*
X70889030Y-123910671D01*
X70880765Y-123887571D01*
X70874804Y-123863773D01*
X70871204Y-123839504D01*
X70870000Y-123815000D01*
X70870000Y-122565000D01*
X70871204Y-122540496D01*
X70874804Y-122516227D01*
X70880765Y-122492429D01*
X70889030Y-122469329D01*
X70899520Y-122447151D01*
X70912133Y-122426107D01*
X70926747Y-122406402D01*
X70943223Y-122388223D01*
X70961402Y-122371747D01*
X70981107Y-122357133D01*
X71002151Y-122344520D01*
X71024329Y-122334030D01*
X71047429Y-122325765D01*
X71071227Y-122319804D01*
X71095496Y-122316204D01*
X71120000Y-122315000D01*
X71870000Y-122315000D01*
X71894504Y-122316204D01*
X71894504Y-122316204D01*
G37*
D13*
X71495000Y-123190000D03*
D11*
G36*
X74694504Y-122316204D02*
G01*
X74718773Y-122319804D01*
X74742571Y-122325765D01*
X74765671Y-122334030D01*
X74787849Y-122344520D01*
X74808893Y-122357133D01*
X74828598Y-122371747D01*
X74846777Y-122388223D01*
X74863253Y-122406402D01*
X74877867Y-122426107D01*
X74890480Y-122447151D01*
X74900970Y-122469329D01*
X74909235Y-122492429D01*
X74915196Y-122516227D01*
X74918796Y-122540496D01*
X74920000Y-122565000D01*
X74920000Y-123815000D01*
X74918796Y-123839504D01*
X74915196Y-123863773D01*
X74909235Y-123887571D01*
X74900970Y-123910671D01*
X74890480Y-123932849D01*
X74877867Y-123953893D01*
X74863253Y-123973598D01*
X74846777Y-123991777D01*
X74828598Y-124008253D01*
X74808893Y-124022867D01*
X74787849Y-124035480D01*
X74765671Y-124045970D01*
X74742571Y-124054235D01*
X74718773Y-124060196D01*
X74694504Y-124063796D01*
X74670000Y-124065000D01*
X73920000Y-124065000D01*
X73895496Y-124063796D01*
X73871227Y-124060196D01*
X73847429Y-124054235D01*
X73824329Y-124045970D01*
X73802151Y-124035480D01*
X73781107Y-124022867D01*
X73761402Y-124008253D01*
X73743223Y-123991777D01*
X73726747Y-123973598D01*
X73712133Y-123953893D01*
X73699520Y-123932849D01*
X73689030Y-123910671D01*
X73680765Y-123887571D01*
X73674804Y-123863773D01*
X73671204Y-123839504D01*
X73670000Y-123815000D01*
X73670000Y-122565000D01*
X73671204Y-122540496D01*
X73674804Y-122516227D01*
X73680765Y-122492429D01*
X73689030Y-122469329D01*
X73699520Y-122447151D01*
X73712133Y-122426107D01*
X73726747Y-122406402D01*
X73743223Y-122388223D01*
X73761402Y-122371747D01*
X73781107Y-122357133D01*
X73802151Y-122344520D01*
X73824329Y-122334030D01*
X73847429Y-122325765D01*
X73871227Y-122319804D01*
X73895496Y-122316204D01*
X73920000Y-122315000D01*
X74670000Y-122315000D01*
X74694504Y-122316204D01*
X74694504Y-122316204D01*
G37*
D13*
X74295000Y-123190000D03*
D11*
G36*
X78879504Y-113426204D02*
G01*
X78903773Y-113429804D01*
X78927571Y-113435765D01*
X78950671Y-113444030D01*
X78972849Y-113454520D01*
X78993893Y-113467133D01*
X79013598Y-113481747D01*
X79031777Y-113498223D01*
X79048253Y-113516402D01*
X79062867Y-113536107D01*
X79075480Y-113557151D01*
X79085970Y-113579329D01*
X79094235Y-113602429D01*
X79100196Y-113626227D01*
X79103796Y-113650496D01*
X79105000Y-113675000D01*
X79105000Y-114925000D01*
X79103796Y-114949504D01*
X79100196Y-114973773D01*
X79094235Y-114997571D01*
X79085970Y-115020671D01*
X79075480Y-115042849D01*
X79062867Y-115063893D01*
X79048253Y-115083598D01*
X79031777Y-115101777D01*
X79013598Y-115118253D01*
X78993893Y-115132867D01*
X78972849Y-115145480D01*
X78950671Y-115155970D01*
X78927571Y-115164235D01*
X78903773Y-115170196D01*
X78879504Y-115173796D01*
X78855000Y-115175000D01*
X78105000Y-115175000D01*
X78080496Y-115173796D01*
X78056227Y-115170196D01*
X78032429Y-115164235D01*
X78009329Y-115155970D01*
X77987151Y-115145480D01*
X77966107Y-115132867D01*
X77946402Y-115118253D01*
X77928223Y-115101777D01*
X77911747Y-115083598D01*
X77897133Y-115063893D01*
X77884520Y-115042849D01*
X77874030Y-115020671D01*
X77865765Y-114997571D01*
X77859804Y-114973773D01*
X77856204Y-114949504D01*
X77855000Y-114925000D01*
X77855000Y-113675000D01*
X77856204Y-113650496D01*
X77859804Y-113626227D01*
X77865765Y-113602429D01*
X77874030Y-113579329D01*
X77884520Y-113557151D01*
X77897133Y-113536107D01*
X77911747Y-113516402D01*
X77928223Y-113498223D01*
X77946402Y-113481747D01*
X77966107Y-113467133D01*
X77987151Y-113454520D01*
X78009329Y-113444030D01*
X78032429Y-113435765D01*
X78056227Y-113429804D01*
X78080496Y-113426204D01*
X78105000Y-113425000D01*
X78855000Y-113425000D01*
X78879504Y-113426204D01*
X78879504Y-113426204D01*
G37*
D13*
X78480000Y-114300000D03*
D11*
G36*
X81679504Y-113426204D02*
G01*
X81703773Y-113429804D01*
X81727571Y-113435765D01*
X81750671Y-113444030D01*
X81772849Y-113454520D01*
X81793893Y-113467133D01*
X81813598Y-113481747D01*
X81831777Y-113498223D01*
X81848253Y-113516402D01*
X81862867Y-113536107D01*
X81875480Y-113557151D01*
X81885970Y-113579329D01*
X81894235Y-113602429D01*
X81900196Y-113626227D01*
X81903796Y-113650496D01*
X81905000Y-113675000D01*
X81905000Y-114925000D01*
X81903796Y-114949504D01*
X81900196Y-114973773D01*
X81894235Y-114997571D01*
X81885970Y-115020671D01*
X81875480Y-115042849D01*
X81862867Y-115063893D01*
X81848253Y-115083598D01*
X81831777Y-115101777D01*
X81813598Y-115118253D01*
X81793893Y-115132867D01*
X81772849Y-115145480D01*
X81750671Y-115155970D01*
X81727571Y-115164235D01*
X81703773Y-115170196D01*
X81679504Y-115173796D01*
X81655000Y-115175000D01*
X80905000Y-115175000D01*
X80880496Y-115173796D01*
X80856227Y-115170196D01*
X80832429Y-115164235D01*
X80809329Y-115155970D01*
X80787151Y-115145480D01*
X80766107Y-115132867D01*
X80746402Y-115118253D01*
X80728223Y-115101777D01*
X80711747Y-115083598D01*
X80697133Y-115063893D01*
X80684520Y-115042849D01*
X80674030Y-115020671D01*
X80665765Y-114997571D01*
X80659804Y-114973773D01*
X80656204Y-114949504D01*
X80655000Y-114925000D01*
X80655000Y-113675000D01*
X80656204Y-113650496D01*
X80659804Y-113626227D01*
X80665765Y-113602429D01*
X80674030Y-113579329D01*
X80684520Y-113557151D01*
X80697133Y-113536107D01*
X80711747Y-113516402D01*
X80728223Y-113498223D01*
X80746402Y-113481747D01*
X80766107Y-113467133D01*
X80787151Y-113454520D01*
X80809329Y-113444030D01*
X80832429Y-113435765D01*
X80856227Y-113429804D01*
X80880496Y-113426204D01*
X80905000Y-113425000D01*
X81655000Y-113425000D01*
X81679504Y-113426204D01*
X81679504Y-113426204D01*
G37*
D13*
X81280000Y-114300000D03*
D11*
G36*
X84594504Y-113426204D02*
G01*
X84618773Y-113429804D01*
X84642571Y-113435765D01*
X84665671Y-113444030D01*
X84687849Y-113454520D01*
X84708893Y-113467133D01*
X84728598Y-113481747D01*
X84746777Y-113498223D01*
X84763253Y-113516402D01*
X84777867Y-113536107D01*
X84790480Y-113557151D01*
X84800970Y-113579329D01*
X84809235Y-113602429D01*
X84815196Y-113626227D01*
X84818796Y-113650496D01*
X84820000Y-113675000D01*
X84820000Y-114925000D01*
X84818796Y-114949504D01*
X84815196Y-114973773D01*
X84809235Y-114997571D01*
X84800970Y-115020671D01*
X84790480Y-115042849D01*
X84777867Y-115063893D01*
X84763253Y-115083598D01*
X84746777Y-115101777D01*
X84728598Y-115118253D01*
X84708893Y-115132867D01*
X84687849Y-115145480D01*
X84665671Y-115155970D01*
X84642571Y-115164235D01*
X84618773Y-115170196D01*
X84594504Y-115173796D01*
X84570000Y-115175000D01*
X83820000Y-115175000D01*
X83795496Y-115173796D01*
X83771227Y-115170196D01*
X83747429Y-115164235D01*
X83724329Y-115155970D01*
X83702151Y-115145480D01*
X83681107Y-115132867D01*
X83661402Y-115118253D01*
X83643223Y-115101777D01*
X83626747Y-115083598D01*
X83612133Y-115063893D01*
X83599520Y-115042849D01*
X83589030Y-115020671D01*
X83580765Y-114997571D01*
X83574804Y-114973773D01*
X83571204Y-114949504D01*
X83570000Y-114925000D01*
X83570000Y-113675000D01*
X83571204Y-113650496D01*
X83574804Y-113626227D01*
X83580765Y-113602429D01*
X83589030Y-113579329D01*
X83599520Y-113557151D01*
X83612133Y-113536107D01*
X83626747Y-113516402D01*
X83643223Y-113498223D01*
X83661402Y-113481747D01*
X83681107Y-113467133D01*
X83702151Y-113454520D01*
X83724329Y-113444030D01*
X83747429Y-113435765D01*
X83771227Y-113429804D01*
X83795496Y-113426204D01*
X83820000Y-113425000D01*
X84570000Y-113425000D01*
X84594504Y-113426204D01*
X84594504Y-113426204D01*
G37*
D13*
X84195000Y-114300000D03*
D11*
G36*
X87394504Y-113426204D02*
G01*
X87418773Y-113429804D01*
X87442571Y-113435765D01*
X87465671Y-113444030D01*
X87487849Y-113454520D01*
X87508893Y-113467133D01*
X87528598Y-113481747D01*
X87546777Y-113498223D01*
X87563253Y-113516402D01*
X87577867Y-113536107D01*
X87590480Y-113557151D01*
X87600970Y-113579329D01*
X87609235Y-113602429D01*
X87615196Y-113626227D01*
X87618796Y-113650496D01*
X87620000Y-113675000D01*
X87620000Y-114925000D01*
X87618796Y-114949504D01*
X87615196Y-114973773D01*
X87609235Y-114997571D01*
X87600970Y-115020671D01*
X87590480Y-115042849D01*
X87577867Y-115063893D01*
X87563253Y-115083598D01*
X87546777Y-115101777D01*
X87528598Y-115118253D01*
X87508893Y-115132867D01*
X87487849Y-115145480D01*
X87465671Y-115155970D01*
X87442571Y-115164235D01*
X87418773Y-115170196D01*
X87394504Y-115173796D01*
X87370000Y-115175000D01*
X86620000Y-115175000D01*
X86595496Y-115173796D01*
X86571227Y-115170196D01*
X86547429Y-115164235D01*
X86524329Y-115155970D01*
X86502151Y-115145480D01*
X86481107Y-115132867D01*
X86461402Y-115118253D01*
X86443223Y-115101777D01*
X86426747Y-115083598D01*
X86412133Y-115063893D01*
X86399520Y-115042849D01*
X86389030Y-115020671D01*
X86380765Y-114997571D01*
X86374804Y-114973773D01*
X86371204Y-114949504D01*
X86370000Y-114925000D01*
X86370000Y-113675000D01*
X86371204Y-113650496D01*
X86374804Y-113626227D01*
X86380765Y-113602429D01*
X86389030Y-113579329D01*
X86399520Y-113557151D01*
X86412133Y-113536107D01*
X86426747Y-113516402D01*
X86443223Y-113498223D01*
X86461402Y-113481747D01*
X86481107Y-113467133D01*
X86502151Y-113454520D01*
X86524329Y-113444030D01*
X86547429Y-113435765D01*
X86571227Y-113429804D01*
X86595496Y-113426204D01*
X86620000Y-113425000D01*
X87370000Y-113425000D01*
X87394504Y-113426204D01*
X87394504Y-113426204D01*
G37*
D13*
X86995000Y-114300000D03*
D11*
G36*
X71720142Y-145986174D02*
G01*
X71743803Y-145989684D01*
X71767007Y-145995496D01*
X71789529Y-146003554D01*
X71811153Y-146013782D01*
X71831670Y-146026079D01*
X71850883Y-146040329D01*
X71868607Y-146056393D01*
X71884671Y-146074117D01*
X71898921Y-146093330D01*
X71911218Y-146113847D01*
X71921446Y-146135471D01*
X71929504Y-146157993D01*
X71935316Y-146181197D01*
X71938826Y-146204858D01*
X71940000Y-146228750D01*
X71940000Y-147141250D01*
X71938826Y-147165142D01*
X71935316Y-147188803D01*
X71929504Y-147212007D01*
X71921446Y-147234529D01*
X71911218Y-147256153D01*
X71898921Y-147276670D01*
X71884671Y-147295883D01*
X71868607Y-147313607D01*
X71850883Y-147329671D01*
X71831670Y-147343921D01*
X71811153Y-147356218D01*
X71789529Y-147366446D01*
X71767007Y-147374504D01*
X71743803Y-147380316D01*
X71720142Y-147383826D01*
X71696250Y-147385000D01*
X71208750Y-147385000D01*
X71184858Y-147383826D01*
X71161197Y-147380316D01*
X71137993Y-147374504D01*
X71115471Y-147366446D01*
X71093847Y-147356218D01*
X71073330Y-147343921D01*
X71054117Y-147329671D01*
X71036393Y-147313607D01*
X71020329Y-147295883D01*
X71006079Y-147276670D01*
X70993782Y-147256153D01*
X70983554Y-147234529D01*
X70975496Y-147212007D01*
X70969684Y-147188803D01*
X70966174Y-147165142D01*
X70965000Y-147141250D01*
X70965000Y-146228750D01*
X70966174Y-146204858D01*
X70969684Y-146181197D01*
X70975496Y-146157993D01*
X70983554Y-146135471D01*
X70993782Y-146113847D01*
X71006079Y-146093330D01*
X71020329Y-146074117D01*
X71036393Y-146056393D01*
X71054117Y-146040329D01*
X71073330Y-146026079D01*
X71093847Y-146013782D01*
X71115471Y-146003554D01*
X71137993Y-145995496D01*
X71161197Y-145989684D01*
X71184858Y-145986174D01*
X71208750Y-145985000D01*
X71696250Y-145985000D01*
X71720142Y-145986174D01*
X71720142Y-145986174D01*
G37*
D12*
X71452500Y-146685000D03*
D11*
G36*
X73595142Y-145986174D02*
G01*
X73618803Y-145989684D01*
X73642007Y-145995496D01*
X73664529Y-146003554D01*
X73686153Y-146013782D01*
X73706670Y-146026079D01*
X73725883Y-146040329D01*
X73743607Y-146056393D01*
X73759671Y-146074117D01*
X73773921Y-146093330D01*
X73786218Y-146113847D01*
X73796446Y-146135471D01*
X73804504Y-146157993D01*
X73810316Y-146181197D01*
X73813826Y-146204858D01*
X73815000Y-146228750D01*
X73815000Y-147141250D01*
X73813826Y-147165142D01*
X73810316Y-147188803D01*
X73804504Y-147212007D01*
X73796446Y-147234529D01*
X73786218Y-147256153D01*
X73773921Y-147276670D01*
X73759671Y-147295883D01*
X73743607Y-147313607D01*
X73725883Y-147329671D01*
X73706670Y-147343921D01*
X73686153Y-147356218D01*
X73664529Y-147366446D01*
X73642007Y-147374504D01*
X73618803Y-147380316D01*
X73595142Y-147383826D01*
X73571250Y-147385000D01*
X73083750Y-147385000D01*
X73059858Y-147383826D01*
X73036197Y-147380316D01*
X73012993Y-147374504D01*
X72990471Y-147366446D01*
X72968847Y-147356218D01*
X72948330Y-147343921D01*
X72929117Y-147329671D01*
X72911393Y-147313607D01*
X72895329Y-147295883D01*
X72881079Y-147276670D01*
X72868782Y-147256153D01*
X72858554Y-147234529D01*
X72850496Y-147212007D01*
X72844684Y-147188803D01*
X72841174Y-147165142D01*
X72840000Y-147141250D01*
X72840000Y-146228750D01*
X72841174Y-146204858D01*
X72844684Y-146181197D01*
X72850496Y-146157993D01*
X72858554Y-146135471D01*
X72868782Y-146113847D01*
X72881079Y-146093330D01*
X72895329Y-146074117D01*
X72911393Y-146056393D01*
X72929117Y-146040329D01*
X72948330Y-146026079D01*
X72968847Y-146013782D01*
X72990471Y-146003554D01*
X73012993Y-145995496D01*
X73036197Y-145989684D01*
X73059858Y-145986174D01*
X73083750Y-145985000D01*
X73571250Y-145985000D01*
X73595142Y-145986174D01*
X73595142Y-145986174D01*
G37*
D12*
X73327500Y-146685000D03*
D11*
G36*
X69853242Y-145986174D02*
G01*
X69876903Y-145989684D01*
X69900107Y-145995496D01*
X69922629Y-146003554D01*
X69944253Y-146013782D01*
X69964770Y-146026079D01*
X69983983Y-146040329D01*
X70001707Y-146056393D01*
X70017771Y-146074117D01*
X70032021Y-146093330D01*
X70044318Y-146113847D01*
X70054546Y-146135471D01*
X70062604Y-146157993D01*
X70068416Y-146181197D01*
X70071926Y-146204858D01*
X70073100Y-146228750D01*
X70073100Y-147141250D01*
X70071926Y-147165142D01*
X70068416Y-147188803D01*
X70062604Y-147212007D01*
X70054546Y-147234529D01*
X70044318Y-147256153D01*
X70032021Y-147276670D01*
X70017771Y-147295883D01*
X70001707Y-147313607D01*
X69983983Y-147329671D01*
X69964770Y-147343921D01*
X69944253Y-147356218D01*
X69922629Y-147366446D01*
X69900107Y-147374504D01*
X69876903Y-147380316D01*
X69853242Y-147383826D01*
X69829350Y-147385000D01*
X69341850Y-147385000D01*
X69317958Y-147383826D01*
X69294297Y-147380316D01*
X69271093Y-147374504D01*
X69248571Y-147366446D01*
X69226947Y-147356218D01*
X69206430Y-147343921D01*
X69187217Y-147329671D01*
X69169493Y-147313607D01*
X69153429Y-147295883D01*
X69139179Y-147276670D01*
X69126882Y-147256153D01*
X69116654Y-147234529D01*
X69108596Y-147212007D01*
X69102784Y-147188803D01*
X69099274Y-147165142D01*
X69098100Y-147141250D01*
X69098100Y-146228750D01*
X69099274Y-146204858D01*
X69102784Y-146181197D01*
X69108596Y-146157993D01*
X69116654Y-146135471D01*
X69126882Y-146113847D01*
X69139179Y-146093330D01*
X69153429Y-146074117D01*
X69169493Y-146056393D01*
X69187217Y-146040329D01*
X69206430Y-146026079D01*
X69226947Y-146013782D01*
X69248571Y-146003554D01*
X69271093Y-145995496D01*
X69294297Y-145989684D01*
X69317958Y-145986174D01*
X69341850Y-145985000D01*
X69829350Y-145985000D01*
X69853242Y-145986174D01*
X69853242Y-145986174D01*
G37*
D12*
X69585600Y-146685000D03*
D11*
G36*
X71387642Y-142176174D02*
G01*
X71411303Y-142179684D01*
X71434507Y-142185496D01*
X71457029Y-142193554D01*
X71478653Y-142203782D01*
X71499170Y-142216079D01*
X71518383Y-142230329D01*
X71536107Y-142246393D01*
X71552171Y-142264117D01*
X71566421Y-142283330D01*
X71578718Y-142303847D01*
X71588946Y-142325471D01*
X71597004Y-142347993D01*
X71602816Y-142371197D01*
X71606326Y-142394858D01*
X71607500Y-142418750D01*
X71607500Y-143331250D01*
X71606326Y-143355142D01*
X71602816Y-143378803D01*
X71597004Y-143402007D01*
X71588946Y-143424529D01*
X71578718Y-143446153D01*
X71566421Y-143466670D01*
X71552171Y-143485883D01*
X71536107Y-143503607D01*
X71518383Y-143519671D01*
X71499170Y-143533921D01*
X71478653Y-143546218D01*
X71457029Y-143556446D01*
X71434507Y-143564504D01*
X71411303Y-143570316D01*
X71387642Y-143573826D01*
X71363750Y-143575000D01*
X70876250Y-143575000D01*
X70852358Y-143573826D01*
X70828697Y-143570316D01*
X70805493Y-143564504D01*
X70782971Y-143556446D01*
X70761347Y-143546218D01*
X70740830Y-143533921D01*
X70721617Y-143519671D01*
X70703893Y-143503607D01*
X70687829Y-143485883D01*
X70673579Y-143466670D01*
X70661282Y-143446153D01*
X70651054Y-143424529D01*
X70642996Y-143402007D01*
X70637184Y-143378803D01*
X70633674Y-143355142D01*
X70632500Y-143331250D01*
X70632500Y-142418750D01*
X70633674Y-142394858D01*
X70637184Y-142371197D01*
X70642996Y-142347993D01*
X70651054Y-142325471D01*
X70661282Y-142303847D01*
X70673579Y-142283330D01*
X70687829Y-142264117D01*
X70703893Y-142246393D01*
X70721617Y-142230329D01*
X70740830Y-142216079D01*
X70761347Y-142203782D01*
X70782971Y-142193554D01*
X70805493Y-142185496D01*
X70828697Y-142179684D01*
X70852358Y-142176174D01*
X70876250Y-142175000D01*
X71363750Y-142175000D01*
X71387642Y-142176174D01*
X71387642Y-142176174D01*
G37*
D12*
X71120000Y-142875000D03*
D11*
G36*
X69512642Y-142176174D02*
G01*
X69536303Y-142179684D01*
X69559507Y-142185496D01*
X69582029Y-142193554D01*
X69603653Y-142203782D01*
X69624170Y-142216079D01*
X69643383Y-142230329D01*
X69661107Y-142246393D01*
X69677171Y-142264117D01*
X69691421Y-142283330D01*
X69703718Y-142303847D01*
X69713946Y-142325471D01*
X69722004Y-142347993D01*
X69727816Y-142371197D01*
X69731326Y-142394858D01*
X69732500Y-142418750D01*
X69732500Y-143331250D01*
X69731326Y-143355142D01*
X69727816Y-143378803D01*
X69722004Y-143402007D01*
X69713946Y-143424529D01*
X69703718Y-143446153D01*
X69691421Y-143466670D01*
X69677171Y-143485883D01*
X69661107Y-143503607D01*
X69643383Y-143519671D01*
X69624170Y-143533921D01*
X69603653Y-143546218D01*
X69582029Y-143556446D01*
X69559507Y-143564504D01*
X69536303Y-143570316D01*
X69512642Y-143573826D01*
X69488750Y-143575000D01*
X69001250Y-143575000D01*
X68977358Y-143573826D01*
X68953697Y-143570316D01*
X68930493Y-143564504D01*
X68907971Y-143556446D01*
X68886347Y-143546218D01*
X68865830Y-143533921D01*
X68846617Y-143519671D01*
X68828893Y-143503607D01*
X68812829Y-143485883D01*
X68798579Y-143466670D01*
X68786282Y-143446153D01*
X68776054Y-143424529D01*
X68767996Y-143402007D01*
X68762184Y-143378803D01*
X68758674Y-143355142D01*
X68757500Y-143331250D01*
X68757500Y-142418750D01*
X68758674Y-142394858D01*
X68762184Y-142371197D01*
X68767996Y-142347993D01*
X68776054Y-142325471D01*
X68786282Y-142303847D01*
X68798579Y-142283330D01*
X68812829Y-142264117D01*
X68828893Y-142246393D01*
X68846617Y-142230329D01*
X68865830Y-142216079D01*
X68886347Y-142203782D01*
X68907971Y-142193554D01*
X68930493Y-142185496D01*
X68953697Y-142179684D01*
X68977358Y-142176174D01*
X69001250Y-142175000D01*
X69488750Y-142175000D01*
X69512642Y-142176174D01*
X69512642Y-142176174D01*
G37*
D12*
X69245000Y-142875000D03*
D11*
G36*
X73322642Y-142176174D02*
G01*
X73346303Y-142179684D01*
X73369507Y-142185496D01*
X73392029Y-142193554D01*
X73413653Y-142203782D01*
X73434170Y-142216079D01*
X73453383Y-142230329D01*
X73471107Y-142246393D01*
X73487171Y-142264117D01*
X73501421Y-142283330D01*
X73513718Y-142303847D01*
X73523946Y-142325471D01*
X73532004Y-142347993D01*
X73537816Y-142371197D01*
X73541326Y-142394858D01*
X73542500Y-142418750D01*
X73542500Y-143331250D01*
X73541326Y-143355142D01*
X73537816Y-143378803D01*
X73532004Y-143402007D01*
X73523946Y-143424529D01*
X73513718Y-143446153D01*
X73501421Y-143466670D01*
X73487171Y-143485883D01*
X73471107Y-143503607D01*
X73453383Y-143519671D01*
X73434170Y-143533921D01*
X73413653Y-143546218D01*
X73392029Y-143556446D01*
X73369507Y-143564504D01*
X73346303Y-143570316D01*
X73322642Y-143573826D01*
X73298750Y-143575000D01*
X72811250Y-143575000D01*
X72787358Y-143573826D01*
X72763697Y-143570316D01*
X72740493Y-143564504D01*
X72717971Y-143556446D01*
X72696347Y-143546218D01*
X72675830Y-143533921D01*
X72656617Y-143519671D01*
X72638893Y-143503607D01*
X72622829Y-143485883D01*
X72608579Y-143466670D01*
X72596282Y-143446153D01*
X72586054Y-143424529D01*
X72577996Y-143402007D01*
X72572184Y-143378803D01*
X72568674Y-143355142D01*
X72567500Y-143331250D01*
X72567500Y-142418750D01*
X72568674Y-142394858D01*
X72572184Y-142371197D01*
X72577996Y-142347993D01*
X72586054Y-142325471D01*
X72596282Y-142303847D01*
X72608579Y-142283330D01*
X72622829Y-142264117D01*
X72638893Y-142246393D01*
X72656617Y-142230329D01*
X72675830Y-142216079D01*
X72696347Y-142203782D01*
X72717971Y-142193554D01*
X72740493Y-142185496D01*
X72763697Y-142179684D01*
X72787358Y-142176174D01*
X72811250Y-142175000D01*
X73298750Y-142175000D01*
X73322642Y-142176174D01*
X73322642Y-142176174D01*
G37*
D12*
X73055000Y-142875000D03*
D11*
G36*
X75197642Y-142176174D02*
G01*
X75221303Y-142179684D01*
X75244507Y-142185496D01*
X75267029Y-142193554D01*
X75288653Y-142203782D01*
X75309170Y-142216079D01*
X75328383Y-142230329D01*
X75346107Y-142246393D01*
X75362171Y-142264117D01*
X75376421Y-142283330D01*
X75388718Y-142303847D01*
X75398946Y-142325471D01*
X75407004Y-142347993D01*
X75412816Y-142371197D01*
X75416326Y-142394858D01*
X75417500Y-142418750D01*
X75417500Y-143331250D01*
X75416326Y-143355142D01*
X75412816Y-143378803D01*
X75407004Y-143402007D01*
X75398946Y-143424529D01*
X75388718Y-143446153D01*
X75376421Y-143466670D01*
X75362171Y-143485883D01*
X75346107Y-143503607D01*
X75328383Y-143519671D01*
X75309170Y-143533921D01*
X75288653Y-143546218D01*
X75267029Y-143556446D01*
X75244507Y-143564504D01*
X75221303Y-143570316D01*
X75197642Y-143573826D01*
X75173750Y-143575000D01*
X74686250Y-143575000D01*
X74662358Y-143573826D01*
X74638697Y-143570316D01*
X74615493Y-143564504D01*
X74592971Y-143556446D01*
X74571347Y-143546218D01*
X74550830Y-143533921D01*
X74531617Y-143519671D01*
X74513893Y-143503607D01*
X74497829Y-143485883D01*
X74483579Y-143466670D01*
X74471282Y-143446153D01*
X74461054Y-143424529D01*
X74452996Y-143402007D01*
X74447184Y-143378803D01*
X74443674Y-143355142D01*
X74442500Y-143331250D01*
X74442500Y-142418750D01*
X74443674Y-142394858D01*
X74447184Y-142371197D01*
X74452996Y-142347993D01*
X74461054Y-142325471D01*
X74471282Y-142303847D01*
X74483579Y-142283330D01*
X74497829Y-142264117D01*
X74513893Y-142246393D01*
X74531617Y-142230329D01*
X74550830Y-142216079D01*
X74571347Y-142203782D01*
X74592971Y-142193554D01*
X74615493Y-142185496D01*
X74638697Y-142179684D01*
X74662358Y-142176174D01*
X74686250Y-142175000D01*
X75173750Y-142175000D01*
X75197642Y-142176174D01*
X75197642Y-142176174D01*
G37*
D12*
X74930000Y-142875000D03*
D11*
G36*
X79642642Y-142176174D02*
G01*
X79666303Y-142179684D01*
X79689507Y-142185496D01*
X79712029Y-142193554D01*
X79733653Y-142203782D01*
X79754170Y-142216079D01*
X79773383Y-142230329D01*
X79791107Y-142246393D01*
X79807171Y-142264117D01*
X79821421Y-142283330D01*
X79833718Y-142303847D01*
X79843946Y-142325471D01*
X79852004Y-142347993D01*
X79857816Y-142371197D01*
X79861326Y-142394858D01*
X79862500Y-142418750D01*
X79862500Y-143331250D01*
X79861326Y-143355142D01*
X79857816Y-143378803D01*
X79852004Y-143402007D01*
X79843946Y-143424529D01*
X79833718Y-143446153D01*
X79821421Y-143466670D01*
X79807171Y-143485883D01*
X79791107Y-143503607D01*
X79773383Y-143519671D01*
X79754170Y-143533921D01*
X79733653Y-143546218D01*
X79712029Y-143556446D01*
X79689507Y-143564504D01*
X79666303Y-143570316D01*
X79642642Y-143573826D01*
X79618750Y-143575000D01*
X79131250Y-143575000D01*
X79107358Y-143573826D01*
X79083697Y-143570316D01*
X79060493Y-143564504D01*
X79037971Y-143556446D01*
X79016347Y-143546218D01*
X78995830Y-143533921D01*
X78976617Y-143519671D01*
X78958893Y-143503607D01*
X78942829Y-143485883D01*
X78928579Y-143466670D01*
X78916282Y-143446153D01*
X78906054Y-143424529D01*
X78897996Y-143402007D01*
X78892184Y-143378803D01*
X78888674Y-143355142D01*
X78887500Y-143331250D01*
X78887500Y-142418750D01*
X78888674Y-142394858D01*
X78892184Y-142371197D01*
X78897996Y-142347993D01*
X78906054Y-142325471D01*
X78916282Y-142303847D01*
X78928579Y-142283330D01*
X78942829Y-142264117D01*
X78958893Y-142246393D01*
X78976617Y-142230329D01*
X78995830Y-142216079D01*
X79016347Y-142203782D01*
X79037971Y-142193554D01*
X79060493Y-142185496D01*
X79083697Y-142179684D01*
X79107358Y-142176174D01*
X79131250Y-142175000D01*
X79618750Y-142175000D01*
X79642642Y-142176174D01*
X79642642Y-142176174D01*
G37*
D12*
X79375000Y-142875000D03*
D11*
G36*
X77767642Y-142176174D02*
G01*
X77791303Y-142179684D01*
X77814507Y-142185496D01*
X77837029Y-142193554D01*
X77858653Y-142203782D01*
X77879170Y-142216079D01*
X77898383Y-142230329D01*
X77916107Y-142246393D01*
X77932171Y-142264117D01*
X77946421Y-142283330D01*
X77958718Y-142303847D01*
X77968946Y-142325471D01*
X77977004Y-142347993D01*
X77982816Y-142371197D01*
X77986326Y-142394858D01*
X77987500Y-142418750D01*
X77987500Y-143331250D01*
X77986326Y-143355142D01*
X77982816Y-143378803D01*
X77977004Y-143402007D01*
X77968946Y-143424529D01*
X77958718Y-143446153D01*
X77946421Y-143466670D01*
X77932171Y-143485883D01*
X77916107Y-143503607D01*
X77898383Y-143519671D01*
X77879170Y-143533921D01*
X77858653Y-143546218D01*
X77837029Y-143556446D01*
X77814507Y-143564504D01*
X77791303Y-143570316D01*
X77767642Y-143573826D01*
X77743750Y-143575000D01*
X77256250Y-143575000D01*
X77232358Y-143573826D01*
X77208697Y-143570316D01*
X77185493Y-143564504D01*
X77162971Y-143556446D01*
X77141347Y-143546218D01*
X77120830Y-143533921D01*
X77101617Y-143519671D01*
X77083893Y-143503607D01*
X77067829Y-143485883D01*
X77053579Y-143466670D01*
X77041282Y-143446153D01*
X77031054Y-143424529D01*
X77022996Y-143402007D01*
X77017184Y-143378803D01*
X77013674Y-143355142D01*
X77012500Y-143331250D01*
X77012500Y-142418750D01*
X77013674Y-142394858D01*
X77017184Y-142371197D01*
X77022996Y-142347993D01*
X77031054Y-142325471D01*
X77041282Y-142303847D01*
X77053579Y-142283330D01*
X77067829Y-142264117D01*
X77083893Y-142246393D01*
X77101617Y-142230329D01*
X77120830Y-142216079D01*
X77141347Y-142203782D01*
X77162971Y-142193554D01*
X77185493Y-142185496D01*
X77208697Y-142179684D01*
X77232358Y-142176174D01*
X77256250Y-142175000D01*
X77743750Y-142175000D01*
X77767642Y-142176174D01*
X77767642Y-142176174D01*
G37*
D12*
X77500000Y-142875000D03*
D11*
G36*
X81577642Y-142176174D02*
G01*
X81601303Y-142179684D01*
X81624507Y-142185496D01*
X81647029Y-142193554D01*
X81668653Y-142203782D01*
X81689170Y-142216079D01*
X81708383Y-142230329D01*
X81726107Y-142246393D01*
X81742171Y-142264117D01*
X81756421Y-142283330D01*
X81768718Y-142303847D01*
X81778946Y-142325471D01*
X81787004Y-142347993D01*
X81792816Y-142371197D01*
X81796326Y-142394858D01*
X81797500Y-142418750D01*
X81797500Y-143331250D01*
X81796326Y-143355142D01*
X81792816Y-143378803D01*
X81787004Y-143402007D01*
X81778946Y-143424529D01*
X81768718Y-143446153D01*
X81756421Y-143466670D01*
X81742171Y-143485883D01*
X81726107Y-143503607D01*
X81708383Y-143519671D01*
X81689170Y-143533921D01*
X81668653Y-143546218D01*
X81647029Y-143556446D01*
X81624507Y-143564504D01*
X81601303Y-143570316D01*
X81577642Y-143573826D01*
X81553750Y-143575000D01*
X81066250Y-143575000D01*
X81042358Y-143573826D01*
X81018697Y-143570316D01*
X80995493Y-143564504D01*
X80972971Y-143556446D01*
X80951347Y-143546218D01*
X80930830Y-143533921D01*
X80911617Y-143519671D01*
X80893893Y-143503607D01*
X80877829Y-143485883D01*
X80863579Y-143466670D01*
X80851282Y-143446153D01*
X80841054Y-143424529D01*
X80832996Y-143402007D01*
X80827184Y-143378803D01*
X80823674Y-143355142D01*
X80822500Y-143331250D01*
X80822500Y-142418750D01*
X80823674Y-142394858D01*
X80827184Y-142371197D01*
X80832996Y-142347993D01*
X80841054Y-142325471D01*
X80851282Y-142303847D01*
X80863579Y-142283330D01*
X80877829Y-142264117D01*
X80893893Y-142246393D01*
X80911617Y-142230329D01*
X80930830Y-142216079D01*
X80951347Y-142203782D01*
X80972971Y-142193554D01*
X80995493Y-142185496D01*
X81018697Y-142179684D01*
X81042358Y-142176174D01*
X81066250Y-142175000D01*
X81553750Y-142175000D01*
X81577642Y-142176174D01*
X81577642Y-142176174D01*
G37*
D12*
X81310000Y-142875000D03*
D11*
G36*
X83452642Y-142176174D02*
G01*
X83476303Y-142179684D01*
X83499507Y-142185496D01*
X83522029Y-142193554D01*
X83543653Y-142203782D01*
X83564170Y-142216079D01*
X83583383Y-142230329D01*
X83601107Y-142246393D01*
X83617171Y-142264117D01*
X83631421Y-142283330D01*
X83643718Y-142303847D01*
X83653946Y-142325471D01*
X83662004Y-142347993D01*
X83667816Y-142371197D01*
X83671326Y-142394858D01*
X83672500Y-142418750D01*
X83672500Y-143331250D01*
X83671326Y-143355142D01*
X83667816Y-143378803D01*
X83662004Y-143402007D01*
X83653946Y-143424529D01*
X83643718Y-143446153D01*
X83631421Y-143466670D01*
X83617171Y-143485883D01*
X83601107Y-143503607D01*
X83583383Y-143519671D01*
X83564170Y-143533921D01*
X83543653Y-143546218D01*
X83522029Y-143556446D01*
X83499507Y-143564504D01*
X83476303Y-143570316D01*
X83452642Y-143573826D01*
X83428750Y-143575000D01*
X82941250Y-143575000D01*
X82917358Y-143573826D01*
X82893697Y-143570316D01*
X82870493Y-143564504D01*
X82847971Y-143556446D01*
X82826347Y-143546218D01*
X82805830Y-143533921D01*
X82786617Y-143519671D01*
X82768893Y-143503607D01*
X82752829Y-143485883D01*
X82738579Y-143466670D01*
X82726282Y-143446153D01*
X82716054Y-143424529D01*
X82707996Y-143402007D01*
X82702184Y-143378803D01*
X82698674Y-143355142D01*
X82697500Y-143331250D01*
X82697500Y-142418750D01*
X82698674Y-142394858D01*
X82702184Y-142371197D01*
X82707996Y-142347993D01*
X82716054Y-142325471D01*
X82726282Y-142303847D01*
X82738579Y-142283330D01*
X82752829Y-142264117D01*
X82768893Y-142246393D01*
X82786617Y-142230329D01*
X82805830Y-142216079D01*
X82826347Y-142203782D01*
X82847971Y-142193554D01*
X82870493Y-142185496D01*
X82893697Y-142179684D01*
X82917358Y-142176174D01*
X82941250Y-142175000D01*
X83428750Y-142175000D01*
X83452642Y-142176174D01*
X83452642Y-142176174D01*
G37*
D12*
X83185000Y-142875000D03*
D14*
X70965000Y-137795000D03*
X69215000Y-137795000D03*
X73279000Y-137795000D03*
X75029000Y-137795000D03*
X77343000Y-137795000D03*
X79093000Y-137795000D03*
X83157000Y-137795000D03*
X81407000Y-137795000D03*
X75565000Y-146685000D03*
X77315000Y-146685000D03*
M02*
