G04 #@! TF.GenerationSoftware,KiCad,Pcbnew,(5.1.2)-2*
G04 #@! TF.CreationDate,2019-12-14T19:53:28+01:00*
G04 #@! TF.ProjectId,IS1212_click,49533132-3132-45f6-936c-69636b2e6b69,rev?*
G04 #@! TF.SameCoordinates,Original*
G04 #@! TF.FileFunction,Legend,Top*
G04 #@! TF.FilePolarity,Positive*
%FSLAX46Y46*%
G04 Gerber Fmt 4.6, Leading zero omitted, Abs format (unit mm)*
G04 Created by KiCad (PCBNEW (5.1.2)-2) date 2019-12-14 19:53:28*
%MOMM*%
%LPD*%
G04 APERTURE LIST*
%ADD10C,0.120000*%
%ADD11C,0.150000*%
%ADD12C,0.152400*%
%ADD13C,0.127000*%
%ADD14C,0.254000*%
%ADD15C,0.080000*%
%ADD16C,0.100000*%
G04 APERTURE END LIST*
D10*
X78486000Y-105664000D02*
X78994000Y-105664000D01*
X78994000Y-104648000D02*
X79756000Y-105410000D01*
X79756000Y-105410000D02*
X78994000Y-106172000D01*
X78486000Y-105156000D02*
X78994000Y-105156000D01*
X73406000Y-105410000D02*
X72644000Y-106172000D01*
X72644000Y-104648000D02*
X73406000Y-105410000D01*
X72136000Y-105664000D02*
X72644000Y-105664000D01*
X72136000Y-105156000D02*
X72644000Y-105156000D01*
X77851000Y-104013000D02*
X74041000Y-104013000D01*
X77851000Y-106553000D02*
X77851000Y-104013000D01*
X74041000Y-106553000D02*
X77851000Y-106553000D01*
X74041000Y-104013000D02*
X74041000Y-106553000D01*
D11*
X74946000Y-105735380D02*
X74946000Y-104735380D01*
X75374571Y-105687761D02*
X75517428Y-105735380D01*
X75755523Y-105735380D01*
X75850761Y-105687761D01*
X75898380Y-105640142D01*
X75946000Y-105544904D01*
X75946000Y-105449666D01*
X75898380Y-105354428D01*
X75850761Y-105306809D01*
X75755523Y-105259190D01*
X75565047Y-105211571D01*
X75469809Y-105163952D01*
X75422190Y-105116333D01*
X75374571Y-105021095D01*
X75374571Y-104925857D01*
X75422190Y-104830619D01*
X75469809Y-104783000D01*
X75565047Y-104735380D01*
X75803142Y-104735380D01*
X75946000Y-104783000D01*
X76565047Y-104735380D02*
X76755523Y-104735380D01*
X76850761Y-104783000D01*
X76946000Y-104878238D01*
X76993619Y-105068714D01*
X76993619Y-105402047D01*
X76946000Y-105592523D01*
X76850761Y-105687761D01*
X76755523Y-105735380D01*
X76565047Y-105735380D01*
X76469809Y-105687761D01*
X76374571Y-105592523D01*
X76326952Y-105402047D01*
X76326952Y-105068714D01*
X76374571Y-104878238D01*
X76469809Y-104783000D01*
X76565047Y-104735380D01*
D10*
X71501000Y-104013000D02*
X72136000Y-104013000D01*
X71501000Y-106553000D02*
X71501000Y-104013000D01*
X70866000Y-106553000D02*
X71501000Y-106553000D01*
X70866000Y-104013000D02*
X70866000Y-106553000D01*
X70231000Y-104013000D02*
X70866000Y-104013000D01*
X70231000Y-106553000D02*
X70231000Y-104013000D01*
X69596000Y-106553000D02*
X70231000Y-106553000D01*
X69596000Y-104013000D02*
X69596000Y-106553000D01*
X68961000Y-104013000D02*
X69596000Y-104013000D01*
X68961000Y-106553000D02*
X68961000Y-104013000D01*
X68326000Y-106553000D02*
X68961000Y-106553000D01*
X83693000Y-105283000D02*
X84328000Y-105283000D01*
X83693000Y-105918000D02*
X83693000Y-105283000D01*
X83058000Y-105918000D02*
X83693000Y-105918000D01*
X83058000Y-105283000D02*
X83058000Y-105918000D01*
X82423000Y-105283000D02*
X83058000Y-105283000D01*
X82423000Y-105918000D02*
X82423000Y-105283000D01*
X81788000Y-105918000D02*
X82423000Y-105918000D01*
X81788000Y-105283000D02*
X81788000Y-105918000D01*
X81153000Y-105283000D02*
X81788000Y-105283000D01*
X81153000Y-105918000D02*
X81153000Y-105283000D01*
X80518000Y-105918000D02*
X81153000Y-105918000D01*
X88900000Y-147320000D02*
X86360000Y-147320000D01*
X88900000Y-144780000D02*
X86360000Y-144780000D01*
X88900000Y-142240000D02*
X86360000Y-142240000D01*
X88900000Y-139700000D02*
X86360000Y-139700000D01*
X88900000Y-137160000D02*
X86360000Y-137160000D01*
X88900000Y-134620000D02*
X86360000Y-134620000D01*
X88900000Y-132080000D02*
X86360000Y-132080000D01*
X63500000Y-132080000D02*
X66040000Y-132080000D01*
X63500000Y-134620000D02*
X66040000Y-134620000D01*
X63500000Y-137160000D02*
X66040000Y-137160000D01*
X63500000Y-139700000D02*
X66040000Y-139700000D01*
X63500000Y-142240000D02*
X66040000Y-142240000D01*
X63500000Y-144780000D02*
X66040000Y-144780000D01*
X63500000Y-147320000D02*
X66040000Y-147320000D01*
D11*
X73986571Y-102198714D02*
X74240571Y-102960714D01*
X74494571Y-102198714D01*
X74748571Y-102960714D02*
X74748571Y-102198714D01*
X74748571Y-102489000D02*
X74821142Y-102452714D01*
X74966285Y-102452714D01*
X75038857Y-102489000D01*
X75075142Y-102525285D01*
X75111428Y-102597857D01*
X75111428Y-102815571D01*
X75075142Y-102888142D01*
X75038857Y-102924428D01*
X74966285Y-102960714D01*
X74821142Y-102960714D01*
X74748571Y-102924428D01*
X75438000Y-102960714D02*
X75438000Y-102198714D01*
X75438000Y-102489000D02*
X75510571Y-102452714D01*
X75655714Y-102452714D01*
X75728285Y-102489000D01*
X75764571Y-102525285D01*
X75800857Y-102597857D01*
X75800857Y-102815571D01*
X75764571Y-102888142D01*
X75728285Y-102924428D01*
X75655714Y-102960714D01*
X75510571Y-102960714D01*
X75438000Y-102924428D01*
D12*
X85688714Y-131572000D02*
X84926714Y-131572000D01*
X85688714Y-131209142D02*
X84926714Y-131209142D01*
X85688714Y-130773714D01*
X84926714Y-130773714D01*
X84926714Y-130483428D02*
X84926714Y-130011714D01*
X85217000Y-130265714D01*
X85217000Y-130156857D01*
X85253285Y-130084285D01*
X85289571Y-130048000D01*
X85362142Y-130011714D01*
X85543571Y-130011714D01*
X85616142Y-130048000D01*
X85652428Y-130084285D01*
X85688714Y-130156857D01*
X85688714Y-130374571D01*
X85652428Y-130447142D01*
X85616142Y-130483428D01*
X85688714Y-134112000D02*
X84926714Y-134112000D01*
X85688714Y-133749142D02*
X84926714Y-133749142D01*
X85688714Y-133313714D01*
X84926714Y-133313714D01*
X85180714Y-132624285D02*
X85688714Y-132624285D01*
X84890428Y-132805714D02*
X85434714Y-132987142D01*
X85434714Y-132515428D01*
X85688714Y-136488714D02*
X84926714Y-136488714D01*
X85688714Y-136053285D01*
X84926714Y-136053285D01*
X85616142Y-135255000D02*
X85652428Y-135291285D01*
X85688714Y-135400142D01*
X85688714Y-135472714D01*
X85652428Y-135581571D01*
X85579857Y-135654142D01*
X85507285Y-135690428D01*
X85362142Y-135726714D01*
X85253285Y-135726714D01*
X85108142Y-135690428D01*
X85035571Y-135654142D01*
X84963000Y-135581571D01*
X84926714Y-135472714D01*
X84926714Y-135400142D01*
X84963000Y-135291285D01*
X84999285Y-135255000D01*
X85688714Y-139028714D02*
X84926714Y-139028714D01*
X85688714Y-138593285D01*
X84926714Y-138593285D01*
X85616142Y-137795000D02*
X85652428Y-137831285D01*
X85688714Y-137940142D01*
X85688714Y-138012714D01*
X85652428Y-138121571D01*
X85579857Y-138194142D01*
X85507285Y-138230428D01*
X85362142Y-138266714D01*
X85253285Y-138266714D01*
X85108142Y-138230428D01*
X85035571Y-138194142D01*
X84963000Y-138121571D01*
X84926714Y-138012714D01*
X84926714Y-137940142D01*
X84963000Y-137831285D01*
X84999285Y-137795000D01*
X85688714Y-141568714D02*
X84926714Y-141568714D01*
X85688714Y-141133285D01*
X84926714Y-141133285D01*
X85616142Y-140335000D02*
X85652428Y-140371285D01*
X85688714Y-140480142D01*
X85688714Y-140552714D01*
X85652428Y-140661571D01*
X85579857Y-140734142D01*
X85507285Y-140770428D01*
X85362142Y-140806714D01*
X85253285Y-140806714D01*
X85108142Y-140770428D01*
X85035571Y-140734142D01*
X84963000Y-140661571D01*
X84926714Y-140552714D01*
X84926714Y-140480142D01*
X84963000Y-140371285D01*
X84999285Y-140335000D01*
X85688714Y-144108714D02*
X84926714Y-144108714D01*
X85688714Y-143673285D01*
X84926714Y-143673285D01*
X85616142Y-142875000D02*
X85652428Y-142911285D01*
X85688714Y-143020142D01*
X85688714Y-143092714D01*
X85652428Y-143201571D01*
X85579857Y-143274142D01*
X85507285Y-143310428D01*
X85362142Y-143346714D01*
X85253285Y-143346714D01*
X85108142Y-143310428D01*
X85035571Y-143274142D01*
X84963000Y-143201571D01*
X84926714Y-143092714D01*
X84926714Y-143020142D01*
X84963000Y-142911285D01*
X84999285Y-142875000D01*
D13*
X84926714Y-146195142D02*
X84926714Y-146558000D01*
X85289571Y-146594285D01*
X85253285Y-146558000D01*
X85217000Y-146485428D01*
X85217000Y-146304000D01*
X85253285Y-146231428D01*
X85289571Y-146195142D01*
X85362142Y-146158857D01*
X85543571Y-146158857D01*
X85616142Y-146195142D01*
X85652428Y-146231428D01*
X85688714Y-146304000D01*
X85688714Y-146485428D01*
X85652428Y-146558000D01*
X85616142Y-146594285D01*
X84926714Y-145941142D02*
X85688714Y-145687142D01*
X84926714Y-145433142D01*
D12*
X84963000Y-149170571D02*
X84926714Y-149243142D01*
X84926714Y-149352000D01*
X84963000Y-149460857D01*
X85035571Y-149533428D01*
X85108142Y-149569714D01*
X85253285Y-149606000D01*
X85362142Y-149606000D01*
X85507285Y-149569714D01*
X85579857Y-149533428D01*
X85652428Y-149460857D01*
X85688714Y-149352000D01*
X85688714Y-149279428D01*
X85652428Y-149170571D01*
X85616142Y-149134285D01*
X85362142Y-149134285D01*
X85362142Y-149279428D01*
X85688714Y-148807714D02*
X84926714Y-148807714D01*
X85688714Y-148372285D01*
X84926714Y-148372285D01*
X85688714Y-148009428D02*
X84926714Y-148009428D01*
X84926714Y-147828000D01*
X84963000Y-147719142D01*
X85035571Y-147646571D01*
X85108142Y-147610285D01*
X85253285Y-147574000D01*
X85362142Y-147574000D01*
X85507285Y-147610285D01*
X85579857Y-147646571D01*
X85652428Y-147719142D01*
X85688714Y-147828000D01*
X85688714Y-148009428D01*
X66675000Y-149424571D02*
X66638714Y-149497142D01*
X66638714Y-149606000D01*
X66675000Y-149714857D01*
X66747571Y-149787428D01*
X66820142Y-149823714D01*
X66965285Y-149860000D01*
X67074142Y-149860000D01*
X67219285Y-149823714D01*
X67291857Y-149787428D01*
X67364428Y-149714857D01*
X67400714Y-149606000D01*
X67400714Y-149533428D01*
X67364428Y-149424571D01*
X67328142Y-149388285D01*
X67074142Y-149388285D01*
X67074142Y-149533428D01*
X67400714Y-149061714D02*
X66638714Y-149061714D01*
X67400714Y-148626285D01*
X66638714Y-148626285D01*
X67400714Y-148263428D02*
X66638714Y-148263428D01*
X66638714Y-148082000D01*
X66675000Y-147973142D01*
X66747571Y-147900571D01*
X66820142Y-147864285D01*
X66965285Y-147828000D01*
X67074142Y-147828000D01*
X67219285Y-147864285D01*
X67291857Y-147900571D01*
X67364428Y-147973142D01*
X67400714Y-148082000D01*
X67400714Y-148263428D01*
X66638714Y-146993428D02*
X66638714Y-146521714D01*
X66929000Y-146775714D01*
X66929000Y-146666857D01*
X66965285Y-146594285D01*
X67001571Y-146558000D01*
X67074142Y-146521714D01*
X67255571Y-146521714D01*
X67328142Y-146558000D01*
X67364428Y-146594285D01*
X67400714Y-146666857D01*
X67400714Y-146884571D01*
X67364428Y-146957142D01*
X67328142Y-146993428D01*
X66638714Y-146304000D02*
X67400714Y-146050000D01*
X66638714Y-145796000D01*
X66638714Y-145614571D02*
X66638714Y-145142857D01*
X66929000Y-145396857D01*
X66929000Y-145288000D01*
X66965285Y-145215428D01*
X67001571Y-145179142D01*
X67074142Y-145142857D01*
X67255571Y-145142857D01*
X67328142Y-145179142D01*
X67364428Y-145215428D01*
X67400714Y-145288000D01*
X67400714Y-145505714D01*
X67364428Y-145578285D01*
X67328142Y-145614571D01*
X67400714Y-144108714D02*
X66638714Y-144108714D01*
X67400714Y-143673285D01*
X66638714Y-143673285D01*
X67328142Y-142875000D02*
X67364428Y-142911285D01*
X67400714Y-143020142D01*
X67400714Y-143092714D01*
X67364428Y-143201571D01*
X67291857Y-143274142D01*
X67219285Y-143310428D01*
X67074142Y-143346714D01*
X66965285Y-143346714D01*
X66820142Y-143310428D01*
X66747571Y-143274142D01*
X66675000Y-143201571D01*
X66638714Y-143092714D01*
X66638714Y-143020142D01*
X66675000Y-142911285D01*
X66711285Y-142875000D01*
X67400714Y-141568714D02*
X66638714Y-141568714D01*
X67400714Y-141133285D01*
X66638714Y-141133285D01*
X67328142Y-140335000D02*
X67364428Y-140371285D01*
X67400714Y-140480142D01*
X67400714Y-140552714D01*
X67364428Y-140661571D01*
X67291857Y-140734142D01*
X67219285Y-140770428D01*
X67074142Y-140806714D01*
X66965285Y-140806714D01*
X66820142Y-140770428D01*
X66747571Y-140734142D01*
X66675000Y-140661571D01*
X66638714Y-140552714D01*
X66638714Y-140480142D01*
X66675000Y-140371285D01*
X66711285Y-140335000D01*
X67400714Y-139028714D02*
X66638714Y-139028714D01*
X67400714Y-138593285D01*
X66638714Y-138593285D01*
X67328142Y-137795000D02*
X67364428Y-137831285D01*
X67400714Y-137940142D01*
X67400714Y-138012714D01*
X67364428Y-138121571D01*
X67291857Y-138194142D01*
X67219285Y-138230428D01*
X67074142Y-138266714D01*
X66965285Y-138266714D01*
X66820142Y-138230428D01*
X66747571Y-138194142D01*
X66675000Y-138121571D01*
X66638714Y-138012714D01*
X66638714Y-137940142D01*
X66675000Y-137831285D01*
X66711285Y-137795000D01*
X67400714Y-136652000D02*
X66638714Y-136652000D01*
X67400714Y-136289142D02*
X66638714Y-136289142D01*
X67400714Y-135853714D01*
X66638714Y-135853714D01*
X66711285Y-135527142D02*
X66675000Y-135490857D01*
X66638714Y-135418285D01*
X66638714Y-135236857D01*
X66675000Y-135164285D01*
X66711285Y-135128000D01*
X66783857Y-135091714D01*
X66856428Y-135091714D01*
X66965285Y-135128000D01*
X67400714Y-135563428D01*
X67400714Y-135091714D01*
X67400714Y-134112000D02*
X66638714Y-134112000D01*
X67400714Y-133749142D02*
X66638714Y-133749142D01*
X67400714Y-133313714D01*
X66638714Y-133313714D01*
X67400714Y-132551714D02*
X67400714Y-132987142D01*
X67400714Y-132769428D02*
X66638714Y-132769428D01*
X66747571Y-132842000D01*
X66820142Y-132914571D01*
X66856428Y-132987142D01*
X67400714Y-131408714D02*
X66638714Y-131408714D01*
X67400714Y-130973285D01*
X66638714Y-130973285D01*
X67328142Y-130175000D02*
X67364428Y-130211285D01*
X67400714Y-130320142D01*
X67400714Y-130392714D01*
X67364428Y-130501571D01*
X67291857Y-130574142D01*
X67219285Y-130610428D01*
X67074142Y-130646714D01*
X66965285Y-130646714D01*
X66820142Y-130610428D01*
X66747571Y-130574142D01*
X66675000Y-130501571D01*
X66638714Y-130392714D01*
X66638714Y-130320142D01*
X66675000Y-130211285D01*
X66711285Y-130175000D01*
X72498857Y-148680714D02*
X72136000Y-148680714D01*
X72099714Y-149043571D01*
X72136000Y-149007285D01*
X72208571Y-148971000D01*
X72390000Y-148971000D01*
X72462571Y-149007285D01*
X72498857Y-149043571D01*
X72535142Y-149116142D01*
X72535142Y-149297571D01*
X72498857Y-149370142D01*
X72462571Y-149406428D01*
X72390000Y-149442714D01*
X72208571Y-149442714D01*
X72136000Y-149406428D01*
X72099714Y-149370142D01*
X72752857Y-148680714D02*
X73006857Y-149442714D01*
X73260857Y-148680714D01*
X69414571Y-148680714D02*
X69886285Y-148680714D01*
X69632285Y-148971000D01*
X69741142Y-148971000D01*
X69813714Y-149007285D01*
X69850000Y-149043571D01*
X69886285Y-149116142D01*
X69886285Y-149297571D01*
X69850000Y-149370142D01*
X69813714Y-149406428D01*
X69741142Y-149442714D01*
X69523428Y-149442714D01*
X69450857Y-149406428D01*
X69414571Y-149370142D01*
X70104000Y-148680714D02*
X70358000Y-149442714D01*
X70612000Y-148680714D01*
X70793428Y-148680714D02*
X71265142Y-148680714D01*
X71011142Y-148971000D01*
X71120000Y-148971000D01*
X71192571Y-149007285D01*
X71228857Y-149043571D01*
X71265142Y-149116142D01*
X71265142Y-149297571D01*
X71228857Y-149370142D01*
X71192571Y-149406428D01*
X71120000Y-149442714D01*
X70902285Y-149442714D01*
X70829714Y-149406428D01*
X70793428Y-149370142D01*
D10*
X73406000Y-148209000D02*
X73406000Y-147828000D01*
X71882000Y-148209000D02*
X73406000Y-148209000D01*
X71882000Y-147828000D02*
X71882000Y-148209000D01*
X71120000Y-148209000D02*
X71120000Y-147828000D01*
X69596000Y-148209000D02*
X71120000Y-148209000D01*
X69596000Y-147828000D02*
X69596000Y-148209000D01*
D14*
X69305714Y-151704523D02*
X69305714Y-150434523D01*
X69850000Y-151644047D02*
X70031428Y-151704523D01*
X70333809Y-151704523D01*
X70454761Y-151644047D01*
X70515238Y-151583571D01*
X70575714Y-151462619D01*
X70575714Y-151341666D01*
X70515238Y-151220714D01*
X70454761Y-151160238D01*
X70333809Y-151099761D01*
X70091904Y-151039285D01*
X69970952Y-150978809D01*
X69910476Y-150918333D01*
X69850000Y-150797380D01*
X69850000Y-150676428D01*
X69910476Y-150555476D01*
X69970952Y-150495000D01*
X70091904Y-150434523D01*
X70394285Y-150434523D01*
X70575714Y-150495000D01*
X71361904Y-150434523D02*
X71603809Y-150434523D01*
X71724761Y-150495000D01*
X71845714Y-150615952D01*
X71906190Y-150857857D01*
X71906190Y-151281190D01*
X71845714Y-151523095D01*
X71724761Y-151644047D01*
X71603809Y-151704523D01*
X71361904Y-151704523D01*
X71240952Y-151644047D01*
X71120000Y-151523095D01*
X71059523Y-151281190D01*
X71059523Y-150857857D01*
X71120000Y-150615952D01*
X71240952Y-150495000D01*
X71361904Y-150434523D01*
X73418095Y-151704523D02*
X73418095Y-150434523D01*
X74022857Y-151704523D02*
X74022857Y-150434523D01*
X74748571Y-151704523D01*
X74748571Y-150434523D01*
X75353333Y-151704523D02*
X75353333Y-150434523D01*
X75837142Y-150434523D01*
X75958095Y-150495000D01*
X76018571Y-150555476D01*
X76079047Y-150676428D01*
X76079047Y-150857857D01*
X76018571Y-150978809D01*
X75958095Y-151039285D01*
X75837142Y-151099761D01*
X75353333Y-151099761D01*
X76623333Y-150434523D02*
X76623333Y-151462619D01*
X76683809Y-151583571D01*
X76744285Y-151644047D01*
X76865238Y-151704523D01*
X77107142Y-151704523D01*
X77228095Y-151644047D01*
X77288571Y-151583571D01*
X77349047Y-151462619D01*
X77349047Y-150434523D01*
X77772380Y-150434523D02*
X78498095Y-150434523D01*
X78135238Y-151704523D02*
X78135238Y-150434523D01*
X80433333Y-150857857D02*
X80433333Y-151704523D01*
X80130952Y-150374047D02*
X79828571Y-151281190D01*
X80614761Y-151281190D01*
X81824285Y-151583571D02*
X81763809Y-151644047D01*
X81582380Y-151704523D01*
X81461428Y-151704523D01*
X81280000Y-151644047D01*
X81159047Y-151523095D01*
X81098571Y-151402142D01*
X81038095Y-151160238D01*
X81038095Y-150978809D01*
X81098571Y-150736904D01*
X81159047Y-150615952D01*
X81280000Y-150495000D01*
X81461428Y-150434523D01*
X81582380Y-150434523D01*
X81763809Y-150495000D01*
X81824285Y-150555476D01*
X82368571Y-151704523D02*
X82368571Y-150434523D01*
X82368571Y-151039285D02*
X83094285Y-151039285D01*
X83094285Y-151704523D02*
X83094285Y-150434523D01*
D11*
X77143428Y-102235000D02*
X77070857Y-102198714D01*
X76962000Y-102198714D01*
X76853142Y-102235000D01*
X76780571Y-102307571D01*
X76744285Y-102380142D01*
X76708000Y-102525285D01*
X76708000Y-102634142D01*
X76744285Y-102779285D01*
X76780571Y-102851857D01*
X76853142Y-102924428D01*
X76962000Y-102960714D01*
X77034571Y-102960714D01*
X77143428Y-102924428D01*
X77179714Y-102888142D01*
X77179714Y-102634142D01*
X77034571Y-102634142D01*
X77506285Y-102960714D02*
X77506285Y-102198714D01*
X77941714Y-102960714D01*
X77941714Y-102198714D01*
X78304571Y-102960714D02*
X78304571Y-102198714D01*
X78486000Y-102198714D01*
X78594857Y-102235000D01*
X78667428Y-102307571D01*
X78703714Y-102380142D01*
X78740000Y-102525285D01*
X78740000Y-102634142D01*
X78703714Y-102779285D01*
X78667428Y-102851857D01*
X78594857Y-102924428D01*
X78486000Y-102960714D01*
X78304571Y-102960714D01*
D10*
X86360000Y-105410000D02*
X88900000Y-105410000D01*
X86360000Y-100330000D02*
X88900000Y-100330000D01*
X63500000Y-100330000D02*
X66040000Y-100330000D01*
X63500000Y-105410000D02*
X66040000Y-105410000D01*
D11*
X84328000Y-103214714D02*
X84328000Y-102452714D01*
X84690857Y-103214714D02*
X84690857Y-102452714D01*
X85126285Y-103214714D01*
X85126285Y-102452714D01*
X85815714Y-102706714D02*
X85815714Y-103214714D01*
X85634285Y-102416428D02*
X85452857Y-102960714D01*
X85924571Y-102960714D01*
X84328000Y-108294714D02*
X84328000Y-107532714D01*
X84690857Y-108294714D02*
X84690857Y-107532714D01*
X85126285Y-108294714D01*
X85126285Y-107532714D01*
X85416571Y-107532714D02*
X85888285Y-107532714D01*
X85634285Y-107823000D01*
X85743142Y-107823000D01*
X85815714Y-107859285D01*
X85852000Y-107895571D01*
X85888285Y-107968142D01*
X85888285Y-108149571D01*
X85852000Y-108222142D01*
X85815714Y-108258428D01*
X85743142Y-108294714D01*
X85525428Y-108294714D01*
X85452857Y-108258428D01*
X85416571Y-108222142D01*
X66548000Y-108294714D02*
X66548000Y-107532714D01*
X66910857Y-108294714D02*
X66910857Y-107532714D01*
X67346285Y-108294714D01*
X67346285Y-107532714D01*
X67672857Y-107605285D02*
X67709142Y-107569000D01*
X67781714Y-107532714D01*
X67963142Y-107532714D01*
X68035714Y-107569000D01*
X68072000Y-107605285D01*
X68108285Y-107677857D01*
X68108285Y-107750428D01*
X68072000Y-107859285D01*
X67636571Y-108294714D01*
X68108285Y-108294714D01*
X66548000Y-103214714D02*
X66548000Y-102452714D01*
X66910857Y-103214714D02*
X66910857Y-102452714D01*
X67346285Y-103214714D01*
X67346285Y-102452714D01*
X68108285Y-103214714D02*
X67672857Y-103214714D01*
X67890571Y-103214714D02*
X67890571Y-102452714D01*
X67818000Y-102561571D01*
X67745428Y-102634142D01*
X67672857Y-102670428D01*
X84146571Y-96102714D02*
X84400571Y-96864714D01*
X84654571Y-96102714D01*
X84908571Y-96864714D02*
X84908571Y-96102714D01*
X84908571Y-96393000D02*
X84981142Y-96356714D01*
X85126285Y-96356714D01*
X85198857Y-96393000D01*
X85235142Y-96429285D01*
X85271428Y-96501857D01*
X85271428Y-96719571D01*
X85235142Y-96792142D01*
X85198857Y-96828428D01*
X85126285Y-96864714D01*
X84981142Y-96864714D01*
X84908571Y-96828428D01*
X85598000Y-96864714D02*
X85598000Y-96102714D01*
X85598000Y-96393000D02*
X85670571Y-96356714D01*
X85815714Y-96356714D01*
X85888285Y-96393000D01*
X85924571Y-96429285D01*
X85960857Y-96501857D01*
X85960857Y-96719571D01*
X85924571Y-96792142D01*
X85888285Y-96828428D01*
X85815714Y-96864714D01*
X85670571Y-96864714D01*
X85598000Y-96828428D01*
X84255428Y-98679000D02*
X84182857Y-98642714D01*
X84074000Y-98642714D01*
X83965142Y-98679000D01*
X83892571Y-98751571D01*
X83856285Y-98824142D01*
X83820000Y-98969285D01*
X83820000Y-99078142D01*
X83856285Y-99223285D01*
X83892571Y-99295857D01*
X83965142Y-99368428D01*
X84074000Y-99404714D01*
X84146571Y-99404714D01*
X84255428Y-99368428D01*
X84291714Y-99332142D01*
X84291714Y-99078142D01*
X84146571Y-99078142D01*
X84618285Y-99404714D02*
X84618285Y-98642714D01*
X85053714Y-99404714D01*
X85053714Y-98642714D01*
X85416571Y-99404714D02*
X85416571Y-98642714D01*
X85598000Y-98642714D01*
X85706857Y-98679000D01*
X85779428Y-98751571D01*
X85815714Y-98824142D01*
X85852000Y-98969285D01*
X85852000Y-99078142D01*
X85815714Y-99223285D01*
X85779428Y-99295857D01*
X85706857Y-99368428D01*
X85598000Y-99404714D01*
X85416571Y-99404714D01*
X66983428Y-98679000D02*
X66910857Y-98642714D01*
X66802000Y-98642714D01*
X66693142Y-98679000D01*
X66620571Y-98751571D01*
X66584285Y-98824142D01*
X66548000Y-98969285D01*
X66548000Y-99078142D01*
X66584285Y-99223285D01*
X66620571Y-99295857D01*
X66693142Y-99368428D01*
X66802000Y-99404714D01*
X66874571Y-99404714D01*
X66983428Y-99368428D01*
X67019714Y-99332142D01*
X67019714Y-99078142D01*
X66874571Y-99078142D01*
X67346285Y-99404714D02*
X67346285Y-98642714D01*
X67781714Y-99404714D01*
X67781714Y-98642714D01*
X68144571Y-99404714D02*
X68144571Y-98642714D01*
X68326000Y-98642714D01*
X68434857Y-98679000D01*
X68507428Y-98751571D01*
X68543714Y-98824142D01*
X68580000Y-98969285D01*
X68580000Y-99078142D01*
X68543714Y-99223285D01*
X68507428Y-99295857D01*
X68434857Y-99368428D01*
X68326000Y-99404714D01*
X68144571Y-99404714D01*
X66620571Y-96102714D02*
X66874571Y-96864714D01*
X67128571Y-96102714D01*
X67382571Y-96864714D02*
X67382571Y-96102714D01*
X67382571Y-96393000D02*
X67455142Y-96356714D01*
X67600285Y-96356714D01*
X67672857Y-96393000D01*
X67709142Y-96429285D01*
X67745428Y-96501857D01*
X67745428Y-96719571D01*
X67709142Y-96792142D01*
X67672857Y-96828428D01*
X67600285Y-96864714D01*
X67455142Y-96864714D01*
X67382571Y-96828428D01*
X68072000Y-96864714D02*
X68072000Y-96102714D01*
X68072000Y-96393000D02*
X68144571Y-96356714D01*
X68289714Y-96356714D01*
X68362285Y-96393000D01*
X68398571Y-96429285D01*
X68434857Y-96501857D01*
X68434857Y-96719571D01*
X68398571Y-96792142D01*
X68362285Y-96828428D01*
X68289714Y-96864714D01*
X68144571Y-96864714D01*
X68072000Y-96828428D01*
D10*
X69469000Y-132334000D02*
X74676000Y-132334000D01*
X69469000Y-132334000D02*
X69469000Y-129032000D01*
X69469000Y-129032000D02*
X74676000Y-129032000D01*
X74676000Y-129032000D02*
X74676000Y-132334000D01*
X70231000Y-131699000D02*
X70231000Y-129667000D01*
X78486000Y-131699000D02*
X78486000Y-129667000D01*
X82931000Y-129032000D02*
X82931000Y-132334000D01*
X77724000Y-129032000D02*
X82931000Y-129032000D01*
X77724000Y-132334000D02*
X77724000Y-129032000D01*
X77724000Y-132334000D02*
X82931000Y-132334000D01*
X63440000Y-110550000D02*
X66100000Y-110550000D01*
X63440000Y-97790000D02*
X63440000Y-110550000D01*
X66100000Y-97790000D02*
X66100000Y-110550000D01*
X63440000Y-97790000D02*
X66100000Y-97790000D01*
X63440000Y-96520000D02*
X63440000Y-95190000D01*
X63440000Y-95190000D02*
X64770000Y-95190000D01*
X86300000Y-95190000D02*
X87630000Y-95190000D01*
X86300000Y-96520000D02*
X86300000Y-95190000D01*
X86300000Y-97790000D02*
X88960000Y-97790000D01*
X88960000Y-97790000D02*
X88960000Y-110550000D01*
X86300000Y-97790000D02*
X86300000Y-110550000D01*
X86300000Y-110550000D02*
X88960000Y-110550000D01*
X79121000Y-101600000D02*
X73279000Y-101600000D01*
X73279000Y-101600000D02*
X73279000Y-95250000D01*
X73279000Y-95250000D02*
X79121000Y-95250000D01*
X79121000Y-95250000D02*
X79121000Y-101600000D01*
X77470000Y-95250000D02*
X77470000Y-96393000D01*
X77978000Y-96393000D02*
X76962000Y-96393000D01*
X74930000Y-96393000D02*
X74930000Y-95250000D01*
X75438000Y-96393000D02*
X74422000Y-96393000D01*
X67051422Y-118035000D02*
X67568578Y-118035000D01*
X67051422Y-119455000D02*
X67568578Y-119455000D01*
X72766422Y-119455000D02*
X73283578Y-119455000D01*
X72766422Y-118035000D02*
X73283578Y-118035000D01*
X79751422Y-118035000D02*
X80268578Y-118035000D01*
X79751422Y-119455000D02*
X80268578Y-119455000D01*
X85983578Y-118035000D02*
X85466422Y-118035000D01*
X85983578Y-119455000D02*
X85466422Y-119455000D01*
X81206078Y-147395000D02*
X80688922Y-147395000D01*
X81206078Y-145975000D02*
X80688922Y-145975000D01*
X66577936Y-122280000D02*
X67782064Y-122280000D01*
X66577936Y-124100000D02*
X67782064Y-124100000D01*
X72292936Y-115210000D02*
X73497064Y-115210000D01*
X72292936Y-113390000D02*
X73497064Y-113390000D01*
X79277936Y-124100000D02*
X80482064Y-124100000D01*
X79277936Y-122280000D02*
X80482064Y-122280000D01*
X84992936Y-124100000D02*
X86197064Y-124100000D01*
X84992936Y-122280000D02*
X86197064Y-122280000D01*
X67782064Y-113390000D02*
X66577936Y-113390000D01*
X67782064Y-115210000D02*
X66577936Y-115210000D01*
X72292936Y-122280000D02*
X73497064Y-122280000D01*
X72292936Y-124100000D02*
X73497064Y-124100000D01*
X79277936Y-113390000D02*
X80482064Y-113390000D01*
X79277936Y-115210000D02*
X80482064Y-115210000D01*
X84992936Y-113390000D02*
X86197064Y-113390000D01*
X84992936Y-115210000D02*
X86197064Y-115210000D01*
X72648578Y-145975000D02*
X72131422Y-145975000D01*
X72648578Y-147395000D02*
X72131422Y-147395000D01*
X70781678Y-145975000D02*
X70264522Y-145975000D01*
X70781678Y-147395000D02*
X70264522Y-147395000D01*
X69923922Y-143585000D02*
X70441078Y-143585000D01*
X69923922Y-142165000D02*
X70441078Y-142165000D01*
X73733922Y-142165000D02*
X74251078Y-142165000D01*
X73733922Y-143585000D02*
X74251078Y-143585000D01*
X78178922Y-143585000D02*
X78696078Y-143585000D01*
X78178922Y-142165000D02*
X78696078Y-142165000D01*
X81988922Y-142165000D02*
X82506078Y-142165000D01*
X81988922Y-143585000D02*
X82506078Y-143585000D01*
D15*
X71856600Y-137033000D02*
X71856600Y-138557000D01*
X71564500Y-137033000D02*
X71856600Y-137033000D01*
X71564500Y-138557000D02*
X71856600Y-138557000D01*
X71780400Y-137033000D02*
X71780400Y-138557000D01*
X71704200Y-137033000D02*
X71704200Y-138557000D01*
X71628000Y-137033000D02*
X71628000Y-138557000D01*
X70281800Y-137033000D02*
X70281800Y-138557000D01*
X68580000Y-138557000D02*
X68580000Y-137033000D01*
X71564500Y-138557000D02*
X68580000Y-138557000D01*
X71564500Y-137033000D02*
X71564500Y-138557000D01*
X68580000Y-137033000D02*
X71564500Y-137033000D01*
X72644000Y-137033000D02*
X75628500Y-137033000D01*
X75628500Y-137033000D02*
X75628500Y-138557000D01*
X75628500Y-138557000D02*
X72644000Y-138557000D01*
X72644000Y-138557000D02*
X72644000Y-137033000D01*
X74345800Y-137033000D02*
X74345800Y-138557000D01*
X75692000Y-137033000D02*
X75692000Y-138557000D01*
X75768200Y-137033000D02*
X75768200Y-138557000D01*
X75844400Y-137033000D02*
X75844400Y-138557000D01*
X75628500Y-138557000D02*
X75920600Y-138557000D01*
X75628500Y-137033000D02*
X75920600Y-137033000D01*
X75920600Y-137033000D02*
X75920600Y-138557000D01*
X76708000Y-137033000D02*
X79692500Y-137033000D01*
X79692500Y-137033000D02*
X79692500Y-138557000D01*
X79692500Y-138557000D02*
X76708000Y-138557000D01*
X76708000Y-138557000D02*
X76708000Y-137033000D01*
X78409800Y-137033000D02*
X78409800Y-138557000D01*
X79756000Y-137033000D02*
X79756000Y-138557000D01*
X79832200Y-137033000D02*
X79832200Y-138557000D01*
X79908400Y-137033000D02*
X79908400Y-138557000D01*
X79692500Y-138557000D02*
X79984600Y-138557000D01*
X79692500Y-137033000D02*
X79984600Y-137033000D01*
X79984600Y-137033000D02*
X79984600Y-138557000D01*
X84048600Y-137033000D02*
X84048600Y-138557000D01*
X83756500Y-137033000D02*
X84048600Y-137033000D01*
X83756500Y-138557000D02*
X84048600Y-138557000D01*
X83972400Y-137033000D02*
X83972400Y-138557000D01*
X83896200Y-137033000D02*
X83896200Y-138557000D01*
X83820000Y-137033000D02*
X83820000Y-138557000D01*
X82473800Y-137033000D02*
X82473800Y-138557000D01*
X80772000Y-138557000D02*
X80772000Y-137033000D01*
X83756500Y-138557000D02*
X80772000Y-138557000D01*
X83756500Y-137033000D02*
X83756500Y-138557000D01*
X80772000Y-137033000D02*
X83756500Y-137033000D01*
X74930000Y-145923000D02*
X77914500Y-145923000D01*
X77914500Y-145923000D02*
X77914500Y-147447000D01*
X77914500Y-147447000D02*
X74930000Y-147447000D01*
X74930000Y-147447000D02*
X74930000Y-145923000D01*
X76631800Y-145923000D02*
X76631800Y-147447000D01*
X77978000Y-145923000D02*
X77978000Y-147447000D01*
X78054200Y-145923000D02*
X78054200Y-147447000D01*
X78130400Y-145923000D02*
X78130400Y-147447000D01*
X77914500Y-147447000D02*
X78206600Y-147447000D01*
X77914500Y-145923000D02*
X78206600Y-145923000D01*
X78206600Y-145923000D02*
X78206600Y-147447000D01*
D12*
X67364428Y-127852714D02*
X67364428Y-128469571D01*
X67400714Y-128542142D01*
X67437000Y-128578428D01*
X67509571Y-128614714D01*
X67654714Y-128614714D01*
X67727285Y-128578428D01*
X67763571Y-128542142D01*
X67799857Y-128469571D01*
X67799857Y-127852714D01*
X68561857Y-128614714D02*
X68126428Y-128614714D01*
X68344142Y-128614714D02*
X68344142Y-127852714D01*
X68271571Y-127961571D01*
X68199000Y-128034142D01*
X68126428Y-128070428D01*
X83874428Y-127852714D02*
X83874428Y-128469571D01*
X83910714Y-128542142D01*
X83947000Y-128578428D01*
X84019571Y-128614714D01*
X84164714Y-128614714D01*
X84237285Y-128578428D01*
X84273571Y-128542142D01*
X84309857Y-128469571D01*
X84309857Y-127852714D01*
X84636428Y-127925285D02*
X84672714Y-127889000D01*
X84745285Y-127852714D01*
X84926714Y-127852714D01*
X84999285Y-127889000D01*
X85035571Y-127925285D01*
X85071857Y-127997857D01*
X85071857Y-128070428D01*
X85035571Y-128179285D01*
X84600142Y-128614714D01*
X85071857Y-128614714D01*
D11*
X66838285Y-117367142D02*
X66802000Y-117403428D01*
X66693142Y-117439714D01*
X66620571Y-117439714D01*
X66511714Y-117403428D01*
X66439142Y-117330857D01*
X66402857Y-117258285D01*
X66366571Y-117113142D01*
X66366571Y-117004285D01*
X66402857Y-116859142D01*
X66439142Y-116786571D01*
X66511714Y-116714000D01*
X66620571Y-116677714D01*
X66693142Y-116677714D01*
X66802000Y-116714000D01*
X66838285Y-116750285D01*
X67273714Y-117439714D02*
X67201142Y-117403428D01*
X67164857Y-117367142D01*
X67128571Y-117294571D01*
X67128571Y-117076857D01*
X67164857Y-117004285D01*
X67201142Y-116968000D01*
X67273714Y-116931714D01*
X67382571Y-116931714D01*
X67455142Y-116968000D01*
X67491428Y-117004285D01*
X67527714Y-117076857D01*
X67527714Y-117294571D01*
X67491428Y-117367142D01*
X67455142Y-117403428D01*
X67382571Y-117439714D01*
X67273714Y-117439714D01*
X68253428Y-117439714D02*
X67818000Y-117439714D01*
X68035714Y-117439714D02*
X68035714Y-116677714D01*
X67963142Y-116786571D01*
X67890571Y-116859142D01*
X67818000Y-116895428D01*
X72553285Y-117367142D02*
X72517000Y-117403428D01*
X72408142Y-117439714D01*
X72335571Y-117439714D01*
X72226714Y-117403428D01*
X72154142Y-117330857D01*
X72117857Y-117258285D01*
X72081571Y-117113142D01*
X72081571Y-117004285D01*
X72117857Y-116859142D01*
X72154142Y-116786571D01*
X72226714Y-116714000D01*
X72335571Y-116677714D01*
X72408142Y-116677714D01*
X72517000Y-116714000D01*
X72553285Y-116750285D01*
X72988714Y-117439714D02*
X72916142Y-117403428D01*
X72879857Y-117367142D01*
X72843571Y-117294571D01*
X72843571Y-117076857D01*
X72879857Y-117004285D01*
X72916142Y-116968000D01*
X72988714Y-116931714D01*
X73097571Y-116931714D01*
X73170142Y-116968000D01*
X73206428Y-117004285D01*
X73242714Y-117076857D01*
X73242714Y-117294571D01*
X73206428Y-117367142D01*
X73170142Y-117403428D01*
X73097571Y-117439714D01*
X72988714Y-117439714D01*
X73533000Y-116750285D02*
X73569285Y-116714000D01*
X73641857Y-116677714D01*
X73823285Y-116677714D01*
X73895857Y-116714000D01*
X73932142Y-116750285D01*
X73968428Y-116822857D01*
X73968428Y-116895428D01*
X73932142Y-117004285D01*
X73496714Y-117439714D01*
X73968428Y-117439714D01*
X79538285Y-117367142D02*
X79502000Y-117403428D01*
X79393142Y-117439714D01*
X79320571Y-117439714D01*
X79211714Y-117403428D01*
X79139142Y-117330857D01*
X79102857Y-117258285D01*
X79066571Y-117113142D01*
X79066571Y-117004285D01*
X79102857Y-116859142D01*
X79139142Y-116786571D01*
X79211714Y-116714000D01*
X79320571Y-116677714D01*
X79393142Y-116677714D01*
X79502000Y-116714000D01*
X79538285Y-116750285D01*
X79973714Y-117439714D02*
X79901142Y-117403428D01*
X79864857Y-117367142D01*
X79828571Y-117294571D01*
X79828571Y-117076857D01*
X79864857Y-117004285D01*
X79901142Y-116968000D01*
X79973714Y-116931714D01*
X80082571Y-116931714D01*
X80155142Y-116968000D01*
X80191428Y-117004285D01*
X80227714Y-117076857D01*
X80227714Y-117294571D01*
X80191428Y-117367142D01*
X80155142Y-117403428D01*
X80082571Y-117439714D01*
X79973714Y-117439714D01*
X80481714Y-116677714D02*
X80953428Y-116677714D01*
X80699428Y-116968000D01*
X80808285Y-116968000D01*
X80880857Y-117004285D01*
X80917142Y-117040571D01*
X80953428Y-117113142D01*
X80953428Y-117294571D01*
X80917142Y-117367142D01*
X80880857Y-117403428D01*
X80808285Y-117439714D01*
X80590571Y-117439714D01*
X80518000Y-117403428D01*
X80481714Y-117367142D01*
X85077785Y-117366142D02*
X85041500Y-117402428D01*
X84932642Y-117438714D01*
X84860071Y-117438714D01*
X84751214Y-117402428D01*
X84678642Y-117329857D01*
X84642357Y-117257285D01*
X84606071Y-117112142D01*
X84606071Y-117003285D01*
X84642357Y-116858142D01*
X84678642Y-116785571D01*
X84751214Y-116713000D01*
X84860071Y-116676714D01*
X84932642Y-116676714D01*
X85041500Y-116713000D01*
X85077785Y-116749285D01*
X85513214Y-117438714D02*
X85440642Y-117402428D01*
X85404357Y-117366142D01*
X85368071Y-117293571D01*
X85368071Y-117075857D01*
X85404357Y-117003285D01*
X85440642Y-116967000D01*
X85513214Y-116930714D01*
X85622071Y-116930714D01*
X85694642Y-116967000D01*
X85730928Y-117003285D01*
X85767214Y-117075857D01*
X85767214Y-117293571D01*
X85730928Y-117366142D01*
X85694642Y-117402428D01*
X85622071Y-117438714D01*
X85513214Y-117438714D01*
X86420357Y-116930714D02*
X86420357Y-117438714D01*
X86238928Y-116640428D02*
X86057500Y-117184714D01*
X86529214Y-117184714D01*
D12*
X80475785Y-148680714D02*
X80221785Y-148317857D01*
X80040357Y-148680714D02*
X80040357Y-147918714D01*
X80330642Y-147918714D01*
X80403214Y-147955000D01*
X80439500Y-147991285D01*
X80475785Y-148063857D01*
X80475785Y-148172714D01*
X80439500Y-148245285D01*
X80403214Y-148281571D01*
X80330642Y-148317857D01*
X80040357Y-148317857D01*
X80802357Y-148172714D02*
X80802357Y-148934714D01*
X80802357Y-148209000D02*
X80874928Y-148172714D01*
X81020071Y-148172714D01*
X81092642Y-148209000D01*
X81128928Y-148245285D01*
X81165214Y-148317857D01*
X81165214Y-148535571D01*
X81128928Y-148608142D01*
X81092642Y-148644428D01*
X81020071Y-148680714D01*
X80874928Y-148680714D01*
X80802357Y-148644428D01*
X81890928Y-148680714D02*
X81455500Y-148680714D01*
X81673214Y-148680714D02*
X81673214Y-147918714D01*
X81600642Y-148027571D01*
X81528071Y-148100142D01*
X81455500Y-148136428D01*
X66744571Y-121714714D02*
X66490571Y-121351857D01*
X66309142Y-121714714D02*
X66309142Y-120952714D01*
X66599428Y-120952714D01*
X66672000Y-120989000D01*
X66708285Y-121025285D01*
X66744571Y-121097857D01*
X66744571Y-121206714D01*
X66708285Y-121279285D01*
X66672000Y-121315571D01*
X66599428Y-121351857D01*
X66309142Y-121351857D01*
X67034857Y-121678428D02*
X67107428Y-121714714D01*
X67252571Y-121714714D01*
X67325142Y-121678428D01*
X67361428Y-121605857D01*
X67361428Y-121569571D01*
X67325142Y-121497000D01*
X67252571Y-121460714D01*
X67143714Y-121460714D01*
X67071142Y-121424428D01*
X67034857Y-121351857D01*
X67034857Y-121315571D01*
X67071142Y-121243000D01*
X67143714Y-121206714D01*
X67252571Y-121206714D01*
X67325142Y-121243000D01*
X68087142Y-121714714D02*
X67651714Y-121714714D01*
X67869428Y-121714714D02*
X67869428Y-120952714D01*
X67796857Y-121061571D01*
X67724285Y-121134142D01*
X67651714Y-121170428D01*
D11*
X72550285Y-112824714D02*
X72296285Y-112461857D01*
X72114857Y-112824714D02*
X72114857Y-112062714D01*
X72405142Y-112062714D01*
X72477714Y-112099000D01*
X72514000Y-112135285D01*
X72550285Y-112207857D01*
X72550285Y-112316714D01*
X72514000Y-112389285D01*
X72477714Y-112425571D01*
X72405142Y-112461857D01*
X72114857Y-112461857D01*
X72768000Y-112316714D02*
X73058285Y-112316714D01*
X72876857Y-112062714D02*
X72876857Y-112715857D01*
X72913142Y-112788428D01*
X72985714Y-112824714D01*
X73058285Y-112824714D01*
X73276000Y-112135285D02*
X73312285Y-112099000D01*
X73384857Y-112062714D01*
X73566285Y-112062714D01*
X73638857Y-112099000D01*
X73675142Y-112135285D01*
X73711428Y-112207857D01*
X73711428Y-112280428D01*
X73675142Y-112389285D01*
X73239714Y-112824714D01*
X73711428Y-112824714D01*
D12*
X79444571Y-121714714D02*
X79190571Y-121351857D01*
X79009142Y-121714714D02*
X79009142Y-120952714D01*
X79299428Y-120952714D01*
X79372000Y-120989000D01*
X79408285Y-121025285D01*
X79444571Y-121097857D01*
X79444571Y-121206714D01*
X79408285Y-121279285D01*
X79372000Y-121315571D01*
X79299428Y-121351857D01*
X79009142Y-121351857D01*
X79734857Y-121678428D02*
X79807428Y-121714714D01*
X79952571Y-121714714D01*
X80025142Y-121678428D01*
X80061428Y-121605857D01*
X80061428Y-121569571D01*
X80025142Y-121497000D01*
X79952571Y-121460714D01*
X79843714Y-121460714D01*
X79771142Y-121424428D01*
X79734857Y-121351857D01*
X79734857Y-121315571D01*
X79771142Y-121243000D01*
X79843714Y-121206714D01*
X79952571Y-121206714D01*
X80025142Y-121243000D01*
X80315428Y-120952714D02*
X80787142Y-120952714D01*
X80533142Y-121243000D01*
X80642000Y-121243000D01*
X80714571Y-121279285D01*
X80750857Y-121315571D01*
X80787142Y-121388142D01*
X80787142Y-121569571D01*
X80750857Y-121642142D01*
X80714571Y-121678428D01*
X80642000Y-121714714D01*
X80424285Y-121714714D01*
X80351714Y-121678428D01*
X80315428Y-121642142D01*
X85159571Y-121714714D02*
X84905571Y-121351857D01*
X84724142Y-121714714D02*
X84724142Y-120952714D01*
X85014428Y-120952714D01*
X85087000Y-120989000D01*
X85123285Y-121025285D01*
X85159571Y-121097857D01*
X85159571Y-121206714D01*
X85123285Y-121279285D01*
X85087000Y-121315571D01*
X85014428Y-121351857D01*
X84724142Y-121351857D01*
X85449857Y-121678428D02*
X85522428Y-121714714D01*
X85667571Y-121714714D01*
X85740142Y-121678428D01*
X85776428Y-121605857D01*
X85776428Y-121569571D01*
X85740142Y-121497000D01*
X85667571Y-121460714D01*
X85558714Y-121460714D01*
X85486142Y-121424428D01*
X85449857Y-121351857D01*
X85449857Y-121315571D01*
X85486142Y-121243000D01*
X85558714Y-121206714D01*
X85667571Y-121206714D01*
X85740142Y-121243000D01*
X86429571Y-121206714D02*
X86429571Y-121714714D01*
X86248142Y-120916428D02*
X86066714Y-121460714D01*
X86538428Y-121460714D01*
D11*
X66965285Y-112739714D02*
X66711285Y-112376857D01*
X66529857Y-112739714D02*
X66529857Y-111977714D01*
X66820142Y-111977714D01*
X66892714Y-112014000D01*
X66929000Y-112050285D01*
X66965285Y-112122857D01*
X66965285Y-112231714D01*
X66929000Y-112304285D01*
X66892714Y-112340571D01*
X66820142Y-112376857D01*
X66529857Y-112376857D01*
X67183000Y-112231714D02*
X67473285Y-112231714D01*
X67291857Y-111977714D02*
X67291857Y-112630857D01*
X67328142Y-112703428D01*
X67400714Y-112739714D01*
X67473285Y-112739714D01*
X68126428Y-112739714D02*
X67691000Y-112739714D01*
X67908714Y-112739714D02*
X67908714Y-111977714D01*
X67836142Y-112086571D01*
X67763571Y-112159142D01*
X67691000Y-112195428D01*
D12*
X72459571Y-121714714D02*
X72205571Y-121351857D01*
X72024142Y-121714714D02*
X72024142Y-120952714D01*
X72314428Y-120952714D01*
X72387000Y-120989000D01*
X72423285Y-121025285D01*
X72459571Y-121097857D01*
X72459571Y-121206714D01*
X72423285Y-121279285D01*
X72387000Y-121315571D01*
X72314428Y-121351857D01*
X72024142Y-121351857D01*
X72749857Y-121678428D02*
X72822428Y-121714714D01*
X72967571Y-121714714D01*
X73040142Y-121678428D01*
X73076428Y-121605857D01*
X73076428Y-121569571D01*
X73040142Y-121497000D01*
X72967571Y-121460714D01*
X72858714Y-121460714D01*
X72786142Y-121424428D01*
X72749857Y-121351857D01*
X72749857Y-121315571D01*
X72786142Y-121243000D01*
X72858714Y-121206714D01*
X72967571Y-121206714D01*
X73040142Y-121243000D01*
X73366714Y-121025285D02*
X73403000Y-120989000D01*
X73475571Y-120952714D01*
X73657000Y-120952714D01*
X73729571Y-120989000D01*
X73765857Y-121025285D01*
X73802142Y-121097857D01*
X73802142Y-121170428D01*
X73765857Y-121279285D01*
X73330428Y-121714714D01*
X73802142Y-121714714D01*
D11*
X79535285Y-112824714D02*
X79281285Y-112461857D01*
X79099857Y-112824714D02*
X79099857Y-112062714D01*
X79390142Y-112062714D01*
X79462714Y-112099000D01*
X79499000Y-112135285D01*
X79535285Y-112207857D01*
X79535285Y-112316714D01*
X79499000Y-112389285D01*
X79462714Y-112425571D01*
X79390142Y-112461857D01*
X79099857Y-112461857D01*
X79753000Y-112316714D02*
X80043285Y-112316714D01*
X79861857Y-112062714D02*
X79861857Y-112715857D01*
X79898142Y-112788428D01*
X79970714Y-112824714D01*
X80043285Y-112824714D01*
X80224714Y-112062714D02*
X80696428Y-112062714D01*
X80442428Y-112353000D01*
X80551285Y-112353000D01*
X80623857Y-112389285D01*
X80660142Y-112425571D01*
X80696428Y-112498142D01*
X80696428Y-112679571D01*
X80660142Y-112752142D01*
X80623857Y-112788428D01*
X80551285Y-112824714D01*
X80333571Y-112824714D01*
X80261000Y-112788428D01*
X80224714Y-112752142D01*
X85250285Y-112824714D02*
X84996285Y-112461857D01*
X84814857Y-112824714D02*
X84814857Y-112062714D01*
X85105142Y-112062714D01*
X85177714Y-112099000D01*
X85214000Y-112135285D01*
X85250285Y-112207857D01*
X85250285Y-112316714D01*
X85214000Y-112389285D01*
X85177714Y-112425571D01*
X85105142Y-112461857D01*
X84814857Y-112461857D01*
X85468000Y-112316714D02*
X85758285Y-112316714D01*
X85576857Y-112062714D02*
X85576857Y-112715857D01*
X85613142Y-112788428D01*
X85685714Y-112824714D01*
X85758285Y-112824714D01*
X86338857Y-112316714D02*
X86338857Y-112824714D01*
X86157428Y-112026428D02*
X85976000Y-112570714D01*
X86447714Y-112570714D01*
D12*
X69977000Y-141568714D02*
X69723000Y-141205857D01*
X69541571Y-141568714D02*
X69541571Y-140806714D01*
X69831857Y-140806714D01*
X69904428Y-140843000D01*
X69940714Y-140879285D01*
X69977000Y-140951857D01*
X69977000Y-141060714D01*
X69940714Y-141133285D01*
X69904428Y-141169571D01*
X69831857Y-141205857D01*
X69541571Y-141205857D01*
X70702714Y-141568714D02*
X70267285Y-141568714D01*
X70485000Y-141568714D02*
X70485000Y-140806714D01*
X70412428Y-140915571D01*
X70339857Y-140988142D01*
X70267285Y-141024428D01*
X73865500Y-141568714D02*
X73611500Y-141205857D01*
X73430071Y-141568714D02*
X73430071Y-140806714D01*
X73720357Y-140806714D01*
X73792928Y-140843000D01*
X73829214Y-140879285D01*
X73865500Y-140951857D01*
X73865500Y-141060714D01*
X73829214Y-141133285D01*
X73792928Y-141169571D01*
X73720357Y-141205857D01*
X73430071Y-141205857D01*
X74155785Y-140879285D02*
X74192071Y-140843000D01*
X74264642Y-140806714D01*
X74446071Y-140806714D01*
X74518642Y-140843000D01*
X74554928Y-140879285D01*
X74591214Y-140951857D01*
X74591214Y-141024428D01*
X74554928Y-141133285D01*
X74119500Y-141568714D01*
X74591214Y-141568714D01*
X78310500Y-141569714D02*
X78056500Y-141206857D01*
X77875071Y-141569714D02*
X77875071Y-140807714D01*
X78165357Y-140807714D01*
X78237928Y-140844000D01*
X78274214Y-140880285D01*
X78310500Y-140952857D01*
X78310500Y-141061714D01*
X78274214Y-141134285D01*
X78237928Y-141170571D01*
X78165357Y-141206857D01*
X77875071Y-141206857D01*
X78564500Y-140807714D02*
X79036214Y-140807714D01*
X78782214Y-141098000D01*
X78891071Y-141098000D01*
X78963642Y-141134285D01*
X78999928Y-141170571D01*
X79036214Y-141243142D01*
X79036214Y-141424571D01*
X78999928Y-141497142D01*
X78963642Y-141533428D01*
X78891071Y-141569714D01*
X78673357Y-141569714D01*
X78600785Y-141533428D01*
X78564500Y-141497142D01*
X82120500Y-141569714D02*
X81866500Y-141206857D01*
X81685071Y-141569714D02*
X81685071Y-140807714D01*
X81975357Y-140807714D01*
X82047928Y-140844000D01*
X82084214Y-140880285D01*
X82120500Y-140952857D01*
X82120500Y-141061714D01*
X82084214Y-141134285D01*
X82047928Y-141170571D01*
X81975357Y-141206857D01*
X81685071Y-141206857D01*
X82773642Y-141061714D02*
X82773642Y-141569714D01*
X82592214Y-140771428D02*
X82410785Y-141315714D01*
X82882500Y-141315714D01*
D16*
X69404000Y-136587666D02*
X69404000Y-135887666D01*
X69737333Y-136587666D02*
X69737333Y-135887666D01*
X70137333Y-136587666D01*
X70137333Y-135887666D01*
X70837333Y-136587666D02*
X70437333Y-136587666D01*
X70637333Y-136587666D02*
X70637333Y-135887666D01*
X70570666Y-135987666D01*
X70504000Y-136054333D01*
X70437333Y-136087666D01*
X73468000Y-136587666D02*
X73468000Y-135887666D01*
X73801333Y-136587666D02*
X73801333Y-135887666D01*
X74201333Y-136587666D01*
X74201333Y-135887666D01*
X74501333Y-135954333D02*
X74534666Y-135921000D01*
X74601333Y-135887666D01*
X74768000Y-135887666D01*
X74834666Y-135921000D01*
X74868000Y-135954333D01*
X74901333Y-136021000D01*
X74901333Y-136087666D01*
X74868000Y-136187666D01*
X74468000Y-136587666D01*
X74901333Y-136587666D01*
X77532000Y-136587666D02*
X77532000Y-135887666D01*
X77865333Y-136587666D02*
X77865333Y-135887666D01*
X78265333Y-136587666D01*
X78265333Y-135887666D01*
X78532000Y-135887666D02*
X78965333Y-135887666D01*
X78732000Y-136154333D01*
X78832000Y-136154333D01*
X78898666Y-136187666D01*
X78932000Y-136221000D01*
X78965333Y-136287666D01*
X78965333Y-136454333D01*
X78932000Y-136521000D01*
X78898666Y-136554333D01*
X78832000Y-136587666D01*
X78632000Y-136587666D01*
X78565333Y-136554333D01*
X78532000Y-136521000D01*
X81596000Y-136587666D02*
X81596000Y-135887666D01*
X81929333Y-136587666D02*
X81929333Y-135887666D01*
X82329333Y-136587666D01*
X82329333Y-135887666D01*
X82962666Y-136121000D02*
X82962666Y-136587666D01*
X82796000Y-135854333D02*
X82629333Y-136354333D01*
X83062666Y-136354333D01*
X75187333Y-145477666D02*
X75187333Y-144777666D01*
X75454000Y-144777666D01*
X75520666Y-144811000D01*
X75554000Y-144844333D01*
X75587333Y-144911000D01*
X75587333Y-145011000D01*
X75554000Y-145077666D01*
X75520666Y-145111000D01*
X75454000Y-145144333D01*
X75187333Y-145144333D01*
X75820666Y-144777666D02*
X75987333Y-145477666D01*
X76120666Y-144977666D01*
X76254000Y-145477666D01*
X76420666Y-144777666D01*
X77087333Y-145477666D02*
X76854000Y-145144333D01*
X76687333Y-145477666D02*
X76687333Y-144777666D01*
X76954000Y-144777666D01*
X77020666Y-144811000D01*
X77054000Y-144844333D01*
X77087333Y-144911000D01*
X77087333Y-145011000D01*
X77054000Y-145077666D01*
X77020666Y-145111000D01*
X76954000Y-145144333D01*
X76687333Y-145144333D01*
X77754000Y-145477666D02*
X77354000Y-145477666D01*
X77554000Y-145477666D02*
X77554000Y-144777666D01*
X77487333Y-144877666D01*
X77420666Y-144944333D01*
X77354000Y-144977666D01*
M02*
