G04 #@! TF.GenerationSoftware,KiCad,Pcbnew,(5.1.2)-2*
G04 #@! TF.CreationDate,2019-12-14T19:53:28+01:00*
G04 #@! TF.ProjectId,IS1212_click,49533132-3132-45f6-936c-69636b2e6b69,rev?*
G04 #@! TF.SameCoordinates,Original*
G04 #@! TF.FileFunction,Copper,L1,Top*
G04 #@! TF.FilePolarity,Positive*
%FSLAX46Y46*%
G04 Gerber Fmt 4.6, Leading zero omitted, Abs format (unit mm)*
G04 Created by KiCad (PCBNEW (5.1.2)-2) date 2019-12-14 19:53:28*
%MOMM*%
%LPD*%
G04 APERTURE LIST*
%ADD10R,0.406400X1.600200*%
%ADD11R,1.700000X1.700000*%
%ADD12O,1.700000X1.700000*%
%ADD13C,2.000000*%
%ADD14C,0.100000*%
%ADD15C,0.975000*%
%ADD16C,1.250000*%
%ADD17R,1.100000X1.400000*%
%ADD18C,0.800000*%
%ADD19C,0.381000*%
%ADD20C,0.254000*%
G04 APERTURE END LIST*
D10*
X74295000Y-133350000D03*
X73660000Y-133350000D03*
X73025000Y-133350000D03*
X72390000Y-133350000D03*
X71755000Y-133350000D03*
X71120000Y-133350000D03*
X70485000Y-133350000D03*
X69850000Y-133350000D03*
X74295000Y-127939800D03*
X73660000Y-127939800D03*
X73025000Y-127939800D03*
X72390000Y-127939800D03*
X71755000Y-127939800D03*
X71120000Y-127939800D03*
X70485000Y-127939800D03*
X69850000Y-127939800D03*
X78105000Y-127939800D03*
X78740000Y-127939800D03*
X79375000Y-127939800D03*
X80010000Y-127939800D03*
X80645000Y-127939800D03*
X81280000Y-127939800D03*
X81915000Y-127939800D03*
X82550000Y-127939800D03*
X78105000Y-133350000D03*
X78740000Y-133350000D03*
X79375000Y-133350000D03*
X80010000Y-133350000D03*
X80645000Y-133350000D03*
X81280000Y-133350000D03*
X81915000Y-133350000D03*
X82550000Y-133350000D03*
D11*
X64770000Y-96520000D03*
D12*
X64770000Y-99060000D03*
X64770000Y-101600000D03*
X64770000Y-104140000D03*
X64770000Y-106680000D03*
X64770000Y-109220000D03*
X87630000Y-109220000D03*
X87630000Y-106680000D03*
X87630000Y-104140000D03*
X87630000Y-101600000D03*
X87630000Y-99060000D03*
D11*
X87630000Y-96520000D03*
D13*
X74930000Y-98425000D03*
X77470000Y-98425000D03*
D14*
G36*
X66640142Y-118046174D02*
G01*
X66663803Y-118049684D01*
X66687007Y-118055496D01*
X66709529Y-118063554D01*
X66731153Y-118073782D01*
X66751670Y-118086079D01*
X66770883Y-118100329D01*
X66788607Y-118116393D01*
X66804671Y-118134117D01*
X66818921Y-118153330D01*
X66831218Y-118173847D01*
X66841446Y-118195471D01*
X66849504Y-118217993D01*
X66855316Y-118241197D01*
X66858826Y-118264858D01*
X66860000Y-118288750D01*
X66860000Y-119201250D01*
X66858826Y-119225142D01*
X66855316Y-119248803D01*
X66849504Y-119272007D01*
X66841446Y-119294529D01*
X66831218Y-119316153D01*
X66818921Y-119336670D01*
X66804671Y-119355883D01*
X66788607Y-119373607D01*
X66770883Y-119389671D01*
X66751670Y-119403921D01*
X66731153Y-119416218D01*
X66709529Y-119426446D01*
X66687007Y-119434504D01*
X66663803Y-119440316D01*
X66640142Y-119443826D01*
X66616250Y-119445000D01*
X66128750Y-119445000D01*
X66104858Y-119443826D01*
X66081197Y-119440316D01*
X66057993Y-119434504D01*
X66035471Y-119426446D01*
X66013847Y-119416218D01*
X65993330Y-119403921D01*
X65974117Y-119389671D01*
X65956393Y-119373607D01*
X65940329Y-119355883D01*
X65926079Y-119336670D01*
X65913782Y-119316153D01*
X65903554Y-119294529D01*
X65895496Y-119272007D01*
X65889684Y-119248803D01*
X65886174Y-119225142D01*
X65885000Y-119201250D01*
X65885000Y-118288750D01*
X65886174Y-118264858D01*
X65889684Y-118241197D01*
X65895496Y-118217993D01*
X65903554Y-118195471D01*
X65913782Y-118173847D01*
X65926079Y-118153330D01*
X65940329Y-118134117D01*
X65956393Y-118116393D01*
X65974117Y-118100329D01*
X65993330Y-118086079D01*
X66013847Y-118073782D01*
X66035471Y-118063554D01*
X66057993Y-118055496D01*
X66081197Y-118049684D01*
X66104858Y-118046174D01*
X66128750Y-118045000D01*
X66616250Y-118045000D01*
X66640142Y-118046174D01*
X66640142Y-118046174D01*
G37*
D15*
X66372500Y-118745000D03*
D14*
G36*
X68515142Y-118046174D02*
G01*
X68538803Y-118049684D01*
X68562007Y-118055496D01*
X68584529Y-118063554D01*
X68606153Y-118073782D01*
X68626670Y-118086079D01*
X68645883Y-118100329D01*
X68663607Y-118116393D01*
X68679671Y-118134117D01*
X68693921Y-118153330D01*
X68706218Y-118173847D01*
X68716446Y-118195471D01*
X68724504Y-118217993D01*
X68730316Y-118241197D01*
X68733826Y-118264858D01*
X68735000Y-118288750D01*
X68735000Y-119201250D01*
X68733826Y-119225142D01*
X68730316Y-119248803D01*
X68724504Y-119272007D01*
X68716446Y-119294529D01*
X68706218Y-119316153D01*
X68693921Y-119336670D01*
X68679671Y-119355883D01*
X68663607Y-119373607D01*
X68645883Y-119389671D01*
X68626670Y-119403921D01*
X68606153Y-119416218D01*
X68584529Y-119426446D01*
X68562007Y-119434504D01*
X68538803Y-119440316D01*
X68515142Y-119443826D01*
X68491250Y-119445000D01*
X68003750Y-119445000D01*
X67979858Y-119443826D01*
X67956197Y-119440316D01*
X67932993Y-119434504D01*
X67910471Y-119426446D01*
X67888847Y-119416218D01*
X67868330Y-119403921D01*
X67849117Y-119389671D01*
X67831393Y-119373607D01*
X67815329Y-119355883D01*
X67801079Y-119336670D01*
X67788782Y-119316153D01*
X67778554Y-119294529D01*
X67770496Y-119272007D01*
X67764684Y-119248803D01*
X67761174Y-119225142D01*
X67760000Y-119201250D01*
X67760000Y-118288750D01*
X67761174Y-118264858D01*
X67764684Y-118241197D01*
X67770496Y-118217993D01*
X67778554Y-118195471D01*
X67788782Y-118173847D01*
X67801079Y-118153330D01*
X67815329Y-118134117D01*
X67831393Y-118116393D01*
X67849117Y-118100329D01*
X67868330Y-118086079D01*
X67888847Y-118073782D01*
X67910471Y-118063554D01*
X67932993Y-118055496D01*
X67956197Y-118049684D01*
X67979858Y-118046174D01*
X68003750Y-118045000D01*
X68491250Y-118045000D01*
X68515142Y-118046174D01*
X68515142Y-118046174D01*
G37*
D15*
X68247500Y-118745000D03*
D14*
G36*
X74230142Y-118046174D02*
G01*
X74253803Y-118049684D01*
X74277007Y-118055496D01*
X74299529Y-118063554D01*
X74321153Y-118073782D01*
X74341670Y-118086079D01*
X74360883Y-118100329D01*
X74378607Y-118116393D01*
X74394671Y-118134117D01*
X74408921Y-118153330D01*
X74421218Y-118173847D01*
X74431446Y-118195471D01*
X74439504Y-118217993D01*
X74445316Y-118241197D01*
X74448826Y-118264858D01*
X74450000Y-118288750D01*
X74450000Y-119201250D01*
X74448826Y-119225142D01*
X74445316Y-119248803D01*
X74439504Y-119272007D01*
X74431446Y-119294529D01*
X74421218Y-119316153D01*
X74408921Y-119336670D01*
X74394671Y-119355883D01*
X74378607Y-119373607D01*
X74360883Y-119389671D01*
X74341670Y-119403921D01*
X74321153Y-119416218D01*
X74299529Y-119426446D01*
X74277007Y-119434504D01*
X74253803Y-119440316D01*
X74230142Y-119443826D01*
X74206250Y-119445000D01*
X73718750Y-119445000D01*
X73694858Y-119443826D01*
X73671197Y-119440316D01*
X73647993Y-119434504D01*
X73625471Y-119426446D01*
X73603847Y-119416218D01*
X73583330Y-119403921D01*
X73564117Y-119389671D01*
X73546393Y-119373607D01*
X73530329Y-119355883D01*
X73516079Y-119336670D01*
X73503782Y-119316153D01*
X73493554Y-119294529D01*
X73485496Y-119272007D01*
X73479684Y-119248803D01*
X73476174Y-119225142D01*
X73475000Y-119201250D01*
X73475000Y-118288750D01*
X73476174Y-118264858D01*
X73479684Y-118241197D01*
X73485496Y-118217993D01*
X73493554Y-118195471D01*
X73503782Y-118173847D01*
X73516079Y-118153330D01*
X73530329Y-118134117D01*
X73546393Y-118116393D01*
X73564117Y-118100329D01*
X73583330Y-118086079D01*
X73603847Y-118073782D01*
X73625471Y-118063554D01*
X73647993Y-118055496D01*
X73671197Y-118049684D01*
X73694858Y-118046174D01*
X73718750Y-118045000D01*
X74206250Y-118045000D01*
X74230142Y-118046174D01*
X74230142Y-118046174D01*
G37*
D15*
X73962500Y-118745000D03*
D14*
G36*
X72355142Y-118046174D02*
G01*
X72378803Y-118049684D01*
X72402007Y-118055496D01*
X72424529Y-118063554D01*
X72446153Y-118073782D01*
X72466670Y-118086079D01*
X72485883Y-118100329D01*
X72503607Y-118116393D01*
X72519671Y-118134117D01*
X72533921Y-118153330D01*
X72546218Y-118173847D01*
X72556446Y-118195471D01*
X72564504Y-118217993D01*
X72570316Y-118241197D01*
X72573826Y-118264858D01*
X72575000Y-118288750D01*
X72575000Y-119201250D01*
X72573826Y-119225142D01*
X72570316Y-119248803D01*
X72564504Y-119272007D01*
X72556446Y-119294529D01*
X72546218Y-119316153D01*
X72533921Y-119336670D01*
X72519671Y-119355883D01*
X72503607Y-119373607D01*
X72485883Y-119389671D01*
X72466670Y-119403921D01*
X72446153Y-119416218D01*
X72424529Y-119426446D01*
X72402007Y-119434504D01*
X72378803Y-119440316D01*
X72355142Y-119443826D01*
X72331250Y-119445000D01*
X71843750Y-119445000D01*
X71819858Y-119443826D01*
X71796197Y-119440316D01*
X71772993Y-119434504D01*
X71750471Y-119426446D01*
X71728847Y-119416218D01*
X71708330Y-119403921D01*
X71689117Y-119389671D01*
X71671393Y-119373607D01*
X71655329Y-119355883D01*
X71641079Y-119336670D01*
X71628782Y-119316153D01*
X71618554Y-119294529D01*
X71610496Y-119272007D01*
X71604684Y-119248803D01*
X71601174Y-119225142D01*
X71600000Y-119201250D01*
X71600000Y-118288750D01*
X71601174Y-118264858D01*
X71604684Y-118241197D01*
X71610496Y-118217993D01*
X71618554Y-118195471D01*
X71628782Y-118173847D01*
X71641079Y-118153330D01*
X71655329Y-118134117D01*
X71671393Y-118116393D01*
X71689117Y-118100329D01*
X71708330Y-118086079D01*
X71728847Y-118073782D01*
X71750471Y-118063554D01*
X71772993Y-118055496D01*
X71796197Y-118049684D01*
X71819858Y-118046174D01*
X71843750Y-118045000D01*
X72331250Y-118045000D01*
X72355142Y-118046174D01*
X72355142Y-118046174D01*
G37*
D15*
X72087500Y-118745000D03*
D14*
G36*
X79340142Y-118046174D02*
G01*
X79363803Y-118049684D01*
X79387007Y-118055496D01*
X79409529Y-118063554D01*
X79431153Y-118073782D01*
X79451670Y-118086079D01*
X79470883Y-118100329D01*
X79488607Y-118116393D01*
X79504671Y-118134117D01*
X79518921Y-118153330D01*
X79531218Y-118173847D01*
X79541446Y-118195471D01*
X79549504Y-118217993D01*
X79555316Y-118241197D01*
X79558826Y-118264858D01*
X79560000Y-118288750D01*
X79560000Y-119201250D01*
X79558826Y-119225142D01*
X79555316Y-119248803D01*
X79549504Y-119272007D01*
X79541446Y-119294529D01*
X79531218Y-119316153D01*
X79518921Y-119336670D01*
X79504671Y-119355883D01*
X79488607Y-119373607D01*
X79470883Y-119389671D01*
X79451670Y-119403921D01*
X79431153Y-119416218D01*
X79409529Y-119426446D01*
X79387007Y-119434504D01*
X79363803Y-119440316D01*
X79340142Y-119443826D01*
X79316250Y-119445000D01*
X78828750Y-119445000D01*
X78804858Y-119443826D01*
X78781197Y-119440316D01*
X78757993Y-119434504D01*
X78735471Y-119426446D01*
X78713847Y-119416218D01*
X78693330Y-119403921D01*
X78674117Y-119389671D01*
X78656393Y-119373607D01*
X78640329Y-119355883D01*
X78626079Y-119336670D01*
X78613782Y-119316153D01*
X78603554Y-119294529D01*
X78595496Y-119272007D01*
X78589684Y-119248803D01*
X78586174Y-119225142D01*
X78585000Y-119201250D01*
X78585000Y-118288750D01*
X78586174Y-118264858D01*
X78589684Y-118241197D01*
X78595496Y-118217993D01*
X78603554Y-118195471D01*
X78613782Y-118173847D01*
X78626079Y-118153330D01*
X78640329Y-118134117D01*
X78656393Y-118116393D01*
X78674117Y-118100329D01*
X78693330Y-118086079D01*
X78713847Y-118073782D01*
X78735471Y-118063554D01*
X78757993Y-118055496D01*
X78781197Y-118049684D01*
X78804858Y-118046174D01*
X78828750Y-118045000D01*
X79316250Y-118045000D01*
X79340142Y-118046174D01*
X79340142Y-118046174D01*
G37*
D15*
X79072500Y-118745000D03*
D14*
G36*
X81215142Y-118046174D02*
G01*
X81238803Y-118049684D01*
X81262007Y-118055496D01*
X81284529Y-118063554D01*
X81306153Y-118073782D01*
X81326670Y-118086079D01*
X81345883Y-118100329D01*
X81363607Y-118116393D01*
X81379671Y-118134117D01*
X81393921Y-118153330D01*
X81406218Y-118173847D01*
X81416446Y-118195471D01*
X81424504Y-118217993D01*
X81430316Y-118241197D01*
X81433826Y-118264858D01*
X81435000Y-118288750D01*
X81435000Y-119201250D01*
X81433826Y-119225142D01*
X81430316Y-119248803D01*
X81424504Y-119272007D01*
X81416446Y-119294529D01*
X81406218Y-119316153D01*
X81393921Y-119336670D01*
X81379671Y-119355883D01*
X81363607Y-119373607D01*
X81345883Y-119389671D01*
X81326670Y-119403921D01*
X81306153Y-119416218D01*
X81284529Y-119426446D01*
X81262007Y-119434504D01*
X81238803Y-119440316D01*
X81215142Y-119443826D01*
X81191250Y-119445000D01*
X80703750Y-119445000D01*
X80679858Y-119443826D01*
X80656197Y-119440316D01*
X80632993Y-119434504D01*
X80610471Y-119426446D01*
X80588847Y-119416218D01*
X80568330Y-119403921D01*
X80549117Y-119389671D01*
X80531393Y-119373607D01*
X80515329Y-119355883D01*
X80501079Y-119336670D01*
X80488782Y-119316153D01*
X80478554Y-119294529D01*
X80470496Y-119272007D01*
X80464684Y-119248803D01*
X80461174Y-119225142D01*
X80460000Y-119201250D01*
X80460000Y-118288750D01*
X80461174Y-118264858D01*
X80464684Y-118241197D01*
X80470496Y-118217993D01*
X80478554Y-118195471D01*
X80488782Y-118173847D01*
X80501079Y-118153330D01*
X80515329Y-118134117D01*
X80531393Y-118116393D01*
X80549117Y-118100329D01*
X80568330Y-118086079D01*
X80588847Y-118073782D01*
X80610471Y-118063554D01*
X80632993Y-118055496D01*
X80656197Y-118049684D01*
X80679858Y-118046174D01*
X80703750Y-118045000D01*
X81191250Y-118045000D01*
X81215142Y-118046174D01*
X81215142Y-118046174D01*
G37*
D15*
X80947500Y-118745000D03*
D14*
G36*
X85055142Y-118046174D02*
G01*
X85078803Y-118049684D01*
X85102007Y-118055496D01*
X85124529Y-118063554D01*
X85146153Y-118073782D01*
X85166670Y-118086079D01*
X85185883Y-118100329D01*
X85203607Y-118116393D01*
X85219671Y-118134117D01*
X85233921Y-118153330D01*
X85246218Y-118173847D01*
X85256446Y-118195471D01*
X85264504Y-118217993D01*
X85270316Y-118241197D01*
X85273826Y-118264858D01*
X85275000Y-118288750D01*
X85275000Y-119201250D01*
X85273826Y-119225142D01*
X85270316Y-119248803D01*
X85264504Y-119272007D01*
X85256446Y-119294529D01*
X85246218Y-119316153D01*
X85233921Y-119336670D01*
X85219671Y-119355883D01*
X85203607Y-119373607D01*
X85185883Y-119389671D01*
X85166670Y-119403921D01*
X85146153Y-119416218D01*
X85124529Y-119426446D01*
X85102007Y-119434504D01*
X85078803Y-119440316D01*
X85055142Y-119443826D01*
X85031250Y-119445000D01*
X84543750Y-119445000D01*
X84519858Y-119443826D01*
X84496197Y-119440316D01*
X84472993Y-119434504D01*
X84450471Y-119426446D01*
X84428847Y-119416218D01*
X84408330Y-119403921D01*
X84389117Y-119389671D01*
X84371393Y-119373607D01*
X84355329Y-119355883D01*
X84341079Y-119336670D01*
X84328782Y-119316153D01*
X84318554Y-119294529D01*
X84310496Y-119272007D01*
X84304684Y-119248803D01*
X84301174Y-119225142D01*
X84300000Y-119201250D01*
X84300000Y-118288750D01*
X84301174Y-118264858D01*
X84304684Y-118241197D01*
X84310496Y-118217993D01*
X84318554Y-118195471D01*
X84328782Y-118173847D01*
X84341079Y-118153330D01*
X84355329Y-118134117D01*
X84371393Y-118116393D01*
X84389117Y-118100329D01*
X84408330Y-118086079D01*
X84428847Y-118073782D01*
X84450471Y-118063554D01*
X84472993Y-118055496D01*
X84496197Y-118049684D01*
X84519858Y-118046174D01*
X84543750Y-118045000D01*
X85031250Y-118045000D01*
X85055142Y-118046174D01*
X85055142Y-118046174D01*
G37*
D15*
X84787500Y-118745000D03*
D14*
G36*
X86930142Y-118046174D02*
G01*
X86953803Y-118049684D01*
X86977007Y-118055496D01*
X86999529Y-118063554D01*
X87021153Y-118073782D01*
X87041670Y-118086079D01*
X87060883Y-118100329D01*
X87078607Y-118116393D01*
X87094671Y-118134117D01*
X87108921Y-118153330D01*
X87121218Y-118173847D01*
X87131446Y-118195471D01*
X87139504Y-118217993D01*
X87145316Y-118241197D01*
X87148826Y-118264858D01*
X87150000Y-118288750D01*
X87150000Y-119201250D01*
X87148826Y-119225142D01*
X87145316Y-119248803D01*
X87139504Y-119272007D01*
X87131446Y-119294529D01*
X87121218Y-119316153D01*
X87108921Y-119336670D01*
X87094671Y-119355883D01*
X87078607Y-119373607D01*
X87060883Y-119389671D01*
X87041670Y-119403921D01*
X87021153Y-119416218D01*
X86999529Y-119426446D01*
X86977007Y-119434504D01*
X86953803Y-119440316D01*
X86930142Y-119443826D01*
X86906250Y-119445000D01*
X86418750Y-119445000D01*
X86394858Y-119443826D01*
X86371197Y-119440316D01*
X86347993Y-119434504D01*
X86325471Y-119426446D01*
X86303847Y-119416218D01*
X86283330Y-119403921D01*
X86264117Y-119389671D01*
X86246393Y-119373607D01*
X86230329Y-119355883D01*
X86216079Y-119336670D01*
X86203782Y-119316153D01*
X86193554Y-119294529D01*
X86185496Y-119272007D01*
X86179684Y-119248803D01*
X86176174Y-119225142D01*
X86175000Y-119201250D01*
X86175000Y-118288750D01*
X86176174Y-118264858D01*
X86179684Y-118241197D01*
X86185496Y-118217993D01*
X86193554Y-118195471D01*
X86203782Y-118173847D01*
X86216079Y-118153330D01*
X86230329Y-118134117D01*
X86246393Y-118116393D01*
X86264117Y-118100329D01*
X86283330Y-118086079D01*
X86303847Y-118073782D01*
X86325471Y-118063554D01*
X86347993Y-118055496D01*
X86371197Y-118049684D01*
X86394858Y-118046174D01*
X86418750Y-118045000D01*
X86906250Y-118045000D01*
X86930142Y-118046174D01*
X86930142Y-118046174D01*
G37*
D15*
X86662500Y-118745000D03*
D14*
G36*
X82152642Y-145986174D02*
G01*
X82176303Y-145989684D01*
X82199507Y-145995496D01*
X82222029Y-146003554D01*
X82243653Y-146013782D01*
X82264170Y-146026079D01*
X82283383Y-146040329D01*
X82301107Y-146056393D01*
X82317171Y-146074117D01*
X82331421Y-146093330D01*
X82343718Y-146113847D01*
X82353946Y-146135471D01*
X82362004Y-146157993D01*
X82367816Y-146181197D01*
X82371326Y-146204858D01*
X82372500Y-146228750D01*
X82372500Y-147141250D01*
X82371326Y-147165142D01*
X82367816Y-147188803D01*
X82362004Y-147212007D01*
X82353946Y-147234529D01*
X82343718Y-147256153D01*
X82331421Y-147276670D01*
X82317171Y-147295883D01*
X82301107Y-147313607D01*
X82283383Y-147329671D01*
X82264170Y-147343921D01*
X82243653Y-147356218D01*
X82222029Y-147366446D01*
X82199507Y-147374504D01*
X82176303Y-147380316D01*
X82152642Y-147383826D01*
X82128750Y-147385000D01*
X81641250Y-147385000D01*
X81617358Y-147383826D01*
X81593697Y-147380316D01*
X81570493Y-147374504D01*
X81547971Y-147366446D01*
X81526347Y-147356218D01*
X81505830Y-147343921D01*
X81486617Y-147329671D01*
X81468893Y-147313607D01*
X81452829Y-147295883D01*
X81438579Y-147276670D01*
X81426282Y-147256153D01*
X81416054Y-147234529D01*
X81407996Y-147212007D01*
X81402184Y-147188803D01*
X81398674Y-147165142D01*
X81397500Y-147141250D01*
X81397500Y-146228750D01*
X81398674Y-146204858D01*
X81402184Y-146181197D01*
X81407996Y-146157993D01*
X81416054Y-146135471D01*
X81426282Y-146113847D01*
X81438579Y-146093330D01*
X81452829Y-146074117D01*
X81468893Y-146056393D01*
X81486617Y-146040329D01*
X81505830Y-146026079D01*
X81526347Y-146013782D01*
X81547971Y-146003554D01*
X81570493Y-145995496D01*
X81593697Y-145989684D01*
X81617358Y-145986174D01*
X81641250Y-145985000D01*
X82128750Y-145985000D01*
X82152642Y-145986174D01*
X82152642Y-145986174D01*
G37*
D15*
X81885000Y-146685000D03*
D14*
G36*
X80277642Y-145986174D02*
G01*
X80301303Y-145989684D01*
X80324507Y-145995496D01*
X80347029Y-146003554D01*
X80368653Y-146013782D01*
X80389170Y-146026079D01*
X80408383Y-146040329D01*
X80426107Y-146056393D01*
X80442171Y-146074117D01*
X80456421Y-146093330D01*
X80468718Y-146113847D01*
X80478946Y-146135471D01*
X80487004Y-146157993D01*
X80492816Y-146181197D01*
X80496326Y-146204858D01*
X80497500Y-146228750D01*
X80497500Y-147141250D01*
X80496326Y-147165142D01*
X80492816Y-147188803D01*
X80487004Y-147212007D01*
X80478946Y-147234529D01*
X80468718Y-147256153D01*
X80456421Y-147276670D01*
X80442171Y-147295883D01*
X80426107Y-147313607D01*
X80408383Y-147329671D01*
X80389170Y-147343921D01*
X80368653Y-147356218D01*
X80347029Y-147366446D01*
X80324507Y-147374504D01*
X80301303Y-147380316D01*
X80277642Y-147383826D01*
X80253750Y-147385000D01*
X79766250Y-147385000D01*
X79742358Y-147383826D01*
X79718697Y-147380316D01*
X79695493Y-147374504D01*
X79672971Y-147366446D01*
X79651347Y-147356218D01*
X79630830Y-147343921D01*
X79611617Y-147329671D01*
X79593893Y-147313607D01*
X79577829Y-147295883D01*
X79563579Y-147276670D01*
X79551282Y-147256153D01*
X79541054Y-147234529D01*
X79532996Y-147212007D01*
X79527184Y-147188803D01*
X79523674Y-147165142D01*
X79522500Y-147141250D01*
X79522500Y-146228750D01*
X79523674Y-146204858D01*
X79527184Y-146181197D01*
X79532996Y-146157993D01*
X79541054Y-146135471D01*
X79551282Y-146113847D01*
X79563579Y-146093330D01*
X79577829Y-146074117D01*
X79593893Y-146056393D01*
X79611617Y-146040329D01*
X79630830Y-146026079D01*
X79651347Y-146013782D01*
X79672971Y-146003554D01*
X79695493Y-145995496D01*
X79718697Y-145989684D01*
X79742358Y-145986174D01*
X79766250Y-145985000D01*
X80253750Y-145985000D01*
X80277642Y-145986174D01*
X80277642Y-145986174D01*
G37*
D15*
X80010000Y-146685000D03*
D14*
G36*
X66179504Y-122316204D02*
G01*
X66203773Y-122319804D01*
X66227571Y-122325765D01*
X66250671Y-122334030D01*
X66272849Y-122344520D01*
X66293893Y-122357133D01*
X66313598Y-122371747D01*
X66331777Y-122388223D01*
X66348253Y-122406402D01*
X66362867Y-122426107D01*
X66375480Y-122447151D01*
X66385970Y-122469329D01*
X66394235Y-122492429D01*
X66400196Y-122516227D01*
X66403796Y-122540496D01*
X66405000Y-122565000D01*
X66405000Y-123815000D01*
X66403796Y-123839504D01*
X66400196Y-123863773D01*
X66394235Y-123887571D01*
X66385970Y-123910671D01*
X66375480Y-123932849D01*
X66362867Y-123953893D01*
X66348253Y-123973598D01*
X66331777Y-123991777D01*
X66313598Y-124008253D01*
X66293893Y-124022867D01*
X66272849Y-124035480D01*
X66250671Y-124045970D01*
X66227571Y-124054235D01*
X66203773Y-124060196D01*
X66179504Y-124063796D01*
X66155000Y-124065000D01*
X65405000Y-124065000D01*
X65380496Y-124063796D01*
X65356227Y-124060196D01*
X65332429Y-124054235D01*
X65309329Y-124045970D01*
X65287151Y-124035480D01*
X65266107Y-124022867D01*
X65246402Y-124008253D01*
X65228223Y-123991777D01*
X65211747Y-123973598D01*
X65197133Y-123953893D01*
X65184520Y-123932849D01*
X65174030Y-123910671D01*
X65165765Y-123887571D01*
X65159804Y-123863773D01*
X65156204Y-123839504D01*
X65155000Y-123815000D01*
X65155000Y-122565000D01*
X65156204Y-122540496D01*
X65159804Y-122516227D01*
X65165765Y-122492429D01*
X65174030Y-122469329D01*
X65184520Y-122447151D01*
X65197133Y-122426107D01*
X65211747Y-122406402D01*
X65228223Y-122388223D01*
X65246402Y-122371747D01*
X65266107Y-122357133D01*
X65287151Y-122344520D01*
X65309329Y-122334030D01*
X65332429Y-122325765D01*
X65356227Y-122319804D01*
X65380496Y-122316204D01*
X65405000Y-122315000D01*
X66155000Y-122315000D01*
X66179504Y-122316204D01*
X66179504Y-122316204D01*
G37*
D16*
X65780000Y-123190000D03*
D14*
G36*
X68979504Y-122316204D02*
G01*
X69003773Y-122319804D01*
X69027571Y-122325765D01*
X69050671Y-122334030D01*
X69072849Y-122344520D01*
X69093893Y-122357133D01*
X69113598Y-122371747D01*
X69131777Y-122388223D01*
X69148253Y-122406402D01*
X69162867Y-122426107D01*
X69175480Y-122447151D01*
X69185970Y-122469329D01*
X69194235Y-122492429D01*
X69200196Y-122516227D01*
X69203796Y-122540496D01*
X69205000Y-122565000D01*
X69205000Y-123815000D01*
X69203796Y-123839504D01*
X69200196Y-123863773D01*
X69194235Y-123887571D01*
X69185970Y-123910671D01*
X69175480Y-123932849D01*
X69162867Y-123953893D01*
X69148253Y-123973598D01*
X69131777Y-123991777D01*
X69113598Y-124008253D01*
X69093893Y-124022867D01*
X69072849Y-124035480D01*
X69050671Y-124045970D01*
X69027571Y-124054235D01*
X69003773Y-124060196D01*
X68979504Y-124063796D01*
X68955000Y-124065000D01*
X68205000Y-124065000D01*
X68180496Y-124063796D01*
X68156227Y-124060196D01*
X68132429Y-124054235D01*
X68109329Y-124045970D01*
X68087151Y-124035480D01*
X68066107Y-124022867D01*
X68046402Y-124008253D01*
X68028223Y-123991777D01*
X68011747Y-123973598D01*
X67997133Y-123953893D01*
X67984520Y-123932849D01*
X67974030Y-123910671D01*
X67965765Y-123887571D01*
X67959804Y-123863773D01*
X67956204Y-123839504D01*
X67955000Y-123815000D01*
X67955000Y-122565000D01*
X67956204Y-122540496D01*
X67959804Y-122516227D01*
X67965765Y-122492429D01*
X67974030Y-122469329D01*
X67984520Y-122447151D01*
X67997133Y-122426107D01*
X68011747Y-122406402D01*
X68028223Y-122388223D01*
X68046402Y-122371747D01*
X68066107Y-122357133D01*
X68087151Y-122344520D01*
X68109329Y-122334030D01*
X68132429Y-122325765D01*
X68156227Y-122319804D01*
X68180496Y-122316204D01*
X68205000Y-122315000D01*
X68955000Y-122315000D01*
X68979504Y-122316204D01*
X68979504Y-122316204D01*
G37*
D16*
X68580000Y-123190000D03*
D14*
G36*
X74694504Y-113426204D02*
G01*
X74718773Y-113429804D01*
X74742571Y-113435765D01*
X74765671Y-113444030D01*
X74787849Y-113454520D01*
X74808893Y-113467133D01*
X74828598Y-113481747D01*
X74846777Y-113498223D01*
X74863253Y-113516402D01*
X74877867Y-113536107D01*
X74890480Y-113557151D01*
X74900970Y-113579329D01*
X74909235Y-113602429D01*
X74915196Y-113626227D01*
X74918796Y-113650496D01*
X74920000Y-113675000D01*
X74920000Y-114925000D01*
X74918796Y-114949504D01*
X74915196Y-114973773D01*
X74909235Y-114997571D01*
X74900970Y-115020671D01*
X74890480Y-115042849D01*
X74877867Y-115063893D01*
X74863253Y-115083598D01*
X74846777Y-115101777D01*
X74828598Y-115118253D01*
X74808893Y-115132867D01*
X74787849Y-115145480D01*
X74765671Y-115155970D01*
X74742571Y-115164235D01*
X74718773Y-115170196D01*
X74694504Y-115173796D01*
X74670000Y-115175000D01*
X73920000Y-115175000D01*
X73895496Y-115173796D01*
X73871227Y-115170196D01*
X73847429Y-115164235D01*
X73824329Y-115155970D01*
X73802151Y-115145480D01*
X73781107Y-115132867D01*
X73761402Y-115118253D01*
X73743223Y-115101777D01*
X73726747Y-115083598D01*
X73712133Y-115063893D01*
X73699520Y-115042849D01*
X73689030Y-115020671D01*
X73680765Y-114997571D01*
X73674804Y-114973773D01*
X73671204Y-114949504D01*
X73670000Y-114925000D01*
X73670000Y-113675000D01*
X73671204Y-113650496D01*
X73674804Y-113626227D01*
X73680765Y-113602429D01*
X73689030Y-113579329D01*
X73699520Y-113557151D01*
X73712133Y-113536107D01*
X73726747Y-113516402D01*
X73743223Y-113498223D01*
X73761402Y-113481747D01*
X73781107Y-113467133D01*
X73802151Y-113454520D01*
X73824329Y-113444030D01*
X73847429Y-113435765D01*
X73871227Y-113429804D01*
X73895496Y-113426204D01*
X73920000Y-113425000D01*
X74670000Y-113425000D01*
X74694504Y-113426204D01*
X74694504Y-113426204D01*
G37*
D16*
X74295000Y-114300000D03*
D14*
G36*
X71894504Y-113426204D02*
G01*
X71918773Y-113429804D01*
X71942571Y-113435765D01*
X71965671Y-113444030D01*
X71987849Y-113454520D01*
X72008893Y-113467133D01*
X72028598Y-113481747D01*
X72046777Y-113498223D01*
X72063253Y-113516402D01*
X72077867Y-113536107D01*
X72090480Y-113557151D01*
X72100970Y-113579329D01*
X72109235Y-113602429D01*
X72115196Y-113626227D01*
X72118796Y-113650496D01*
X72120000Y-113675000D01*
X72120000Y-114925000D01*
X72118796Y-114949504D01*
X72115196Y-114973773D01*
X72109235Y-114997571D01*
X72100970Y-115020671D01*
X72090480Y-115042849D01*
X72077867Y-115063893D01*
X72063253Y-115083598D01*
X72046777Y-115101777D01*
X72028598Y-115118253D01*
X72008893Y-115132867D01*
X71987849Y-115145480D01*
X71965671Y-115155970D01*
X71942571Y-115164235D01*
X71918773Y-115170196D01*
X71894504Y-115173796D01*
X71870000Y-115175000D01*
X71120000Y-115175000D01*
X71095496Y-115173796D01*
X71071227Y-115170196D01*
X71047429Y-115164235D01*
X71024329Y-115155970D01*
X71002151Y-115145480D01*
X70981107Y-115132867D01*
X70961402Y-115118253D01*
X70943223Y-115101777D01*
X70926747Y-115083598D01*
X70912133Y-115063893D01*
X70899520Y-115042849D01*
X70889030Y-115020671D01*
X70880765Y-114997571D01*
X70874804Y-114973773D01*
X70871204Y-114949504D01*
X70870000Y-114925000D01*
X70870000Y-113675000D01*
X70871204Y-113650496D01*
X70874804Y-113626227D01*
X70880765Y-113602429D01*
X70889030Y-113579329D01*
X70899520Y-113557151D01*
X70912133Y-113536107D01*
X70926747Y-113516402D01*
X70943223Y-113498223D01*
X70961402Y-113481747D01*
X70981107Y-113467133D01*
X71002151Y-113454520D01*
X71024329Y-113444030D01*
X71047429Y-113435765D01*
X71071227Y-113429804D01*
X71095496Y-113426204D01*
X71120000Y-113425000D01*
X71870000Y-113425000D01*
X71894504Y-113426204D01*
X71894504Y-113426204D01*
G37*
D16*
X71495000Y-114300000D03*
D14*
G36*
X81679504Y-122316204D02*
G01*
X81703773Y-122319804D01*
X81727571Y-122325765D01*
X81750671Y-122334030D01*
X81772849Y-122344520D01*
X81793893Y-122357133D01*
X81813598Y-122371747D01*
X81831777Y-122388223D01*
X81848253Y-122406402D01*
X81862867Y-122426107D01*
X81875480Y-122447151D01*
X81885970Y-122469329D01*
X81894235Y-122492429D01*
X81900196Y-122516227D01*
X81903796Y-122540496D01*
X81905000Y-122565000D01*
X81905000Y-123815000D01*
X81903796Y-123839504D01*
X81900196Y-123863773D01*
X81894235Y-123887571D01*
X81885970Y-123910671D01*
X81875480Y-123932849D01*
X81862867Y-123953893D01*
X81848253Y-123973598D01*
X81831777Y-123991777D01*
X81813598Y-124008253D01*
X81793893Y-124022867D01*
X81772849Y-124035480D01*
X81750671Y-124045970D01*
X81727571Y-124054235D01*
X81703773Y-124060196D01*
X81679504Y-124063796D01*
X81655000Y-124065000D01*
X80905000Y-124065000D01*
X80880496Y-124063796D01*
X80856227Y-124060196D01*
X80832429Y-124054235D01*
X80809329Y-124045970D01*
X80787151Y-124035480D01*
X80766107Y-124022867D01*
X80746402Y-124008253D01*
X80728223Y-123991777D01*
X80711747Y-123973598D01*
X80697133Y-123953893D01*
X80684520Y-123932849D01*
X80674030Y-123910671D01*
X80665765Y-123887571D01*
X80659804Y-123863773D01*
X80656204Y-123839504D01*
X80655000Y-123815000D01*
X80655000Y-122565000D01*
X80656204Y-122540496D01*
X80659804Y-122516227D01*
X80665765Y-122492429D01*
X80674030Y-122469329D01*
X80684520Y-122447151D01*
X80697133Y-122426107D01*
X80711747Y-122406402D01*
X80728223Y-122388223D01*
X80746402Y-122371747D01*
X80766107Y-122357133D01*
X80787151Y-122344520D01*
X80809329Y-122334030D01*
X80832429Y-122325765D01*
X80856227Y-122319804D01*
X80880496Y-122316204D01*
X80905000Y-122315000D01*
X81655000Y-122315000D01*
X81679504Y-122316204D01*
X81679504Y-122316204D01*
G37*
D16*
X81280000Y-123190000D03*
D14*
G36*
X78879504Y-122316204D02*
G01*
X78903773Y-122319804D01*
X78927571Y-122325765D01*
X78950671Y-122334030D01*
X78972849Y-122344520D01*
X78993893Y-122357133D01*
X79013598Y-122371747D01*
X79031777Y-122388223D01*
X79048253Y-122406402D01*
X79062867Y-122426107D01*
X79075480Y-122447151D01*
X79085970Y-122469329D01*
X79094235Y-122492429D01*
X79100196Y-122516227D01*
X79103796Y-122540496D01*
X79105000Y-122565000D01*
X79105000Y-123815000D01*
X79103796Y-123839504D01*
X79100196Y-123863773D01*
X79094235Y-123887571D01*
X79085970Y-123910671D01*
X79075480Y-123932849D01*
X79062867Y-123953893D01*
X79048253Y-123973598D01*
X79031777Y-123991777D01*
X79013598Y-124008253D01*
X78993893Y-124022867D01*
X78972849Y-124035480D01*
X78950671Y-124045970D01*
X78927571Y-124054235D01*
X78903773Y-124060196D01*
X78879504Y-124063796D01*
X78855000Y-124065000D01*
X78105000Y-124065000D01*
X78080496Y-124063796D01*
X78056227Y-124060196D01*
X78032429Y-124054235D01*
X78009329Y-124045970D01*
X77987151Y-124035480D01*
X77966107Y-124022867D01*
X77946402Y-124008253D01*
X77928223Y-123991777D01*
X77911747Y-123973598D01*
X77897133Y-123953893D01*
X77884520Y-123932849D01*
X77874030Y-123910671D01*
X77865765Y-123887571D01*
X77859804Y-123863773D01*
X77856204Y-123839504D01*
X77855000Y-123815000D01*
X77855000Y-122565000D01*
X77856204Y-122540496D01*
X77859804Y-122516227D01*
X77865765Y-122492429D01*
X77874030Y-122469329D01*
X77884520Y-122447151D01*
X77897133Y-122426107D01*
X77911747Y-122406402D01*
X77928223Y-122388223D01*
X77946402Y-122371747D01*
X77966107Y-122357133D01*
X77987151Y-122344520D01*
X78009329Y-122334030D01*
X78032429Y-122325765D01*
X78056227Y-122319804D01*
X78080496Y-122316204D01*
X78105000Y-122315000D01*
X78855000Y-122315000D01*
X78879504Y-122316204D01*
X78879504Y-122316204D01*
G37*
D16*
X78480000Y-123190000D03*
D14*
G36*
X87394504Y-122316204D02*
G01*
X87418773Y-122319804D01*
X87442571Y-122325765D01*
X87465671Y-122334030D01*
X87487849Y-122344520D01*
X87508893Y-122357133D01*
X87528598Y-122371747D01*
X87546777Y-122388223D01*
X87563253Y-122406402D01*
X87577867Y-122426107D01*
X87590480Y-122447151D01*
X87600970Y-122469329D01*
X87609235Y-122492429D01*
X87615196Y-122516227D01*
X87618796Y-122540496D01*
X87620000Y-122565000D01*
X87620000Y-123815000D01*
X87618796Y-123839504D01*
X87615196Y-123863773D01*
X87609235Y-123887571D01*
X87600970Y-123910671D01*
X87590480Y-123932849D01*
X87577867Y-123953893D01*
X87563253Y-123973598D01*
X87546777Y-123991777D01*
X87528598Y-124008253D01*
X87508893Y-124022867D01*
X87487849Y-124035480D01*
X87465671Y-124045970D01*
X87442571Y-124054235D01*
X87418773Y-124060196D01*
X87394504Y-124063796D01*
X87370000Y-124065000D01*
X86620000Y-124065000D01*
X86595496Y-124063796D01*
X86571227Y-124060196D01*
X86547429Y-124054235D01*
X86524329Y-124045970D01*
X86502151Y-124035480D01*
X86481107Y-124022867D01*
X86461402Y-124008253D01*
X86443223Y-123991777D01*
X86426747Y-123973598D01*
X86412133Y-123953893D01*
X86399520Y-123932849D01*
X86389030Y-123910671D01*
X86380765Y-123887571D01*
X86374804Y-123863773D01*
X86371204Y-123839504D01*
X86370000Y-123815000D01*
X86370000Y-122565000D01*
X86371204Y-122540496D01*
X86374804Y-122516227D01*
X86380765Y-122492429D01*
X86389030Y-122469329D01*
X86399520Y-122447151D01*
X86412133Y-122426107D01*
X86426747Y-122406402D01*
X86443223Y-122388223D01*
X86461402Y-122371747D01*
X86481107Y-122357133D01*
X86502151Y-122344520D01*
X86524329Y-122334030D01*
X86547429Y-122325765D01*
X86571227Y-122319804D01*
X86595496Y-122316204D01*
X86620000Y-122315000D01*
X87370000Y-122315000D01*
X87394504Y-122316204D01*
X87394504Y-122316204D01*
G37*
D16*
X86995000Y-123190000D03*
D14*
G36*
X84594504Y-122316204D02*
G01*
X84618773Y-122319804D01*
X84642571Y-122325765D01*
X84665671Y-122334030D01*
X84687849Y-122344520D01*
X84708893Y-122357133D01*
X84728598Y-122371747D01*
X84746777Y-122388223D01*
X84763253Y-122406402D01*
X84777867Y-122426107D01*
X84790480Y-122447151D01*
X84800970Y-122469329D01*
X84809235Y-122492429D01*
X84815196Y-122516227D01*
X84818796Y-122540496D01*
X84820000Y-122565000D01*
X84820000Y-123815000D01*
X84818796Y-123839504D01*
X84815196Y-123863773D01*
X84809235Y-123887571D01*
X84800970Y-123910671D01*
X84790480Y-123932849D01*
X84777867Y-123953893D01*
X84763253Y-123973598D01*
X84746777Y-123991777D01*
X84728598Y-124008253D01*
X84708893Y-124022867D01*
X84687849Y-124035480D01*
X84665671Y-124045970D01*
X84642571Y-124054235D01*
X84618773Y-124060196D01*
X84594504Y-124063796D01*
X84570000Y-124065000D01*
X83820000Y-124065000D01*
X83795496Y-124063796D01*
X83771227Y-124060196D01*
X83747429Y-124054235D01*
X83724329Y-124045970D01*
X83702151Y-124035480D01*
X83681107Y-124022867D01*
X83661402Y-124008253D01*
X83643223Y-123991777D01*
X83626747Y-123973598D01*
X83612133Y-123953893D01*
X83599520Y-123932849D01*
X83589030Y-123910671D01*
X83580765Y-123887571D01*
X83574804Y-123863773D01*
X83571204Y-123839504D01*
X83570000Y-123815000D01*
X83570000Y-122565000D01*
X83571204Y-122540496D01*
X83574804Y-122516227D01*
X83580765Y-122492429D01*
X83589030Y-122469329D01*
X83599520Y-122447151D01*
X83612133Y-122426107D01*
X83626747Y-122406402D01*
X83643223Y-122388223D01*
X83661402Y-122371747D01*
X83681107Y-122357133D01*
X83702151Y-122344520D01*
X83724329Y-122334030D01*
X83747429Y-122325765D01*
X83771227Y-122319804D01*
X83795496Y-122316204D01*
X83820000Y-122315000D01*
X84570000Y-122315000D01*
X84594504Y-122316204D01*
X84594504Y-122316204D01*
G37*
D16*
X84195000Y-123190000D03*
D14*
G36*
X66179504Y-113426204D02*
G01*
X66203773Y-113429804D01*
X66227571Y-113435765D01*
X66250671Y-113444030D01*
X66272849Y-113454520D01*
X66293893Y-113467133D01*
X66313598Y-113481747D01*
X66331777Y-113498223D01*
X66348253Y-113516402D01*
X66362867Y-113536107D01*
X66375480Y-113557151D01*
X66385970Y-113579329D01*
X66394235Y-113602429D01*
X66400196Y-113626227D01*
X66403796Y-113650496D01*
X66405000Y-113675000D01*
X66405000Y-114925000D01*
X66403796Y-114949504D01*
X66400196Y-114973773D01*
X66394235Y-114997571D01*
X66385970Y-115020671D01*
X66375480Y-115042849D01*
X66362867Y-115063893D01*
X66348253Y-115083598D01*
X66331777Y-115101777D01*
X66313598Y-115118253D01*
X66293893Y-115132867D01*
X66272849Y-115145480D01*
X66250671Y-115155970D01*
X66227571Y-115164235D01*
X66203773Y-115170196D01*
X66179504Y-115173796D01*
X66155000Y-115175000D01*
X65405000Y-115175000D01*
X65380496Y-115173796D01*
X65356227Y-115170196D01*
X65332429Y-115164235D01*
X65309329Y-115155970D01*
X65287151Y-115145480D01*
X65266107Y-115132867D01*
X65246402Y-115118253D01*
X65228223Y-115101777D01*
X65211747Y-115083598D01*
X65197133Y-115063893D01*
X65184520Y-115042849D01*
X65174030Y-115020671D01*
X65165765Y-114997571D01*
X65159804Y-114973773D01*
X65156204Y-114949504D01*
X65155000Y-114925000D01*
X65155000Y-113675000D01*
X65156204Y-113650496D01*
X65159804Y-113626227D01*
X65165765Y-113602429D01*
X65174030Y-113579329D01*
X65184520Y-113557151D01*
X65197133Y-113536107D01*
X65211747Y-113516402D01*
X65228223Y-113498223D01*
X65246402Y-113481747D01*
X65266107Y-113467133D01*
X65287151Y-113454520D01*
X65309329Y-113444030D01*
X65332429Y-113435765D01*
X65356227Y-113429804D01*
X65380496Y-113426204D01*
X65405000Y-113425000D01*
X66155000Y-113425000D01*
X66179504Y-113426204D01*
X66179504Y-113426204D01*
G37*
D16*
X65780000Y-114300000D03*
D14*
G36*
X68979504Y-113426204D02*
G01*
X69003773Y-113429804D01*
X69027571Y-113435765D01*
X69050671Y-113444030D01*
X69072849Y-113454520D01*
X69093893Y-113467133D01*
X69113598Y-113481747D01*
X69131777Y-113498223D01*
X69148253Y-113516402D01*
X69162867Y-113536107D01*
X69175480Y-113557151D01*
X69185970Y-113579329D01*
X69194235Y-113602429D01*
X69200196Y-113626227D01*
X69203796Y-113650496D01*
X69205000Y-113675000D01*
X69205000Y-114925000D01*
X69203796Y-114949504D01*
X69200196Y-114973773D01*
X69194235Y-114997571D01*
X69185970Y-115020671D01*
X69175480Y-115042849D01*
X69162867Y-115063893D01*
X69148253Y-115083598D01*
X69131777Y-115101777D01*
X69113598Y-115118253D01*
X69093893Y-115132867D01*
X69072849Y-115145480D01*
X69050671Y-115155970D01*
X69027571Y-115164235D01*
X69003773Y-115170196D01*
X68979504Y-115173796D01*
X68955000Y-115175000D01*
X68205000Y-115175000D01*
X68180496Y-115173796D01*
X68156227Y-115170196D01*
X68132429Y-115164235D01*
X68109329Y-115155970D01*
X68087151Y-115145480D01*
X68066107Y-115132867D01*
X68046402Y-115118253D01*
X68028223Y-115101777D01*
X68011747Y-115083598D01*
X67997133Y-115063893D01*
X67984520Y-115042849D01*
X67974030Y-115020671D01*
X67965765Y-114997571D01*
X67959804Y-114973773D01*
X67956204Y-114949504D01*
X67955000Y-114925000D01*
X67955000Y-113675000D01*
X67956204Y-113650496D01*
X67959804Y-113626227D01*
X67965765Y-113602429D01*
X67974030Y-113579329D01*
X67984520Y-113557151D01*
X67997133Y-113536107D01*
X68011747Y-113516402D01*
X68028223Y-113498223D01*
X68046402Y-113481747D01*
X68066107Y-113467133D01*
X68087151Y-113454520D01*
X68109329Y-113444030D01*
X68132429Y-113435765D01*
X68156227Y-113429804D01*
X68180496Y-113426204D01*
X68205000Y-113425000D01*
X68955000Y-113425000D01*
X68979504Y-113426204D01*
X68979504Y-113426204D01*
G37*
D16*
X68580000Y-114300000D03*
D14*
G36*
X71894504Y-122316204D02*
G01*
X71918773Y-122319804D01*
X71942571Y-122325765D01*
X71965671Y-122334030D01*
X71987849Y-122344520D01*
X72008893Y-122357133D01*
X72028598Y-122371747D01*
X72046777Y-122388223D01*
X72063253Y-122406402D01*
X72077867Y-122426107D01*
X72090480Y-122447151D01*
X72100970Y-122469329D01*
X72109235Y-122492429D01*
X72115196Y-122516227D01*
X72118796Y-122540496D01*
X72120000Y-122565000D01*
X72120000Y-123815000D01*
X72118796Y-123839504D01*
X72115196Y-123863773D01*
X72109235Y-123887571D01*
X72100970Y-123910671D01*
X72090480Y-123932849D01*
X72077867Y-123953893D01*
X72063253Y-123973598D01*
X72046777Y-123991777D01*
X72028598Y-124008253D01*
X72008893Y-124022867D01*
X71987849Y-124035480D01*
X71965671Y-124045970D01*
X71942571Y-124054235D01*
X71918773Y-124060196D01*
X71894504Y-124063796D01*
X71870000Y-124065000D01*
X71120000Y-124065000D01*
X71095496Y-124063796D01*
X71071227Y-124060196D01*
X71047429Y-124054235D01*
X71024329Y-124045970D01*
X71002151Y-124035480D01*
X70981107Y-124022867D01*
X70961402Y-124008253D01*
X70943223Y-123991777D01*
X70926747Y-123973598D01*
X70912133Y-123953893D01*
X70899520Y-123932849D01*
X70889030Y-123910671D01*
X70880765Y-123887571D01*
X70874804Y-123863773D01*
X70871204Y-123839504D01*
X70870000Y-123815000D01*
X70870000Y-122565000D01*
X70871204Y-122540496D01*
X70874804Y-122516227D01*
X70880765Y-122492429D01*
X70889030Y-122469329D01*
X70899520Y-122447151D01*
X70912133Y-122426107D01*
X70926747Y-122406402D01*
X70943223Y-122388223D01*
X70961402Y-122371747D01*
X70981107Y-122357133D01*
X71002151Y-122344520D01*
X71024329Y-122334030D01*
X71047429Y-122325765D01*
X71071227Y-122319804D01*
X71095496Y-122316204D01*
X71120000Y-122315000D01*
X71870000Y-122315000D01*
X71894504Y-122316204D01*
X71894504Y-122316204D01*
G37*
D16*
X71495000Y-123190000D03*
D14*
G36*
X74694504Y-122316204D02*
G01*
X74718773Y-122319804D01*
X74742571Y-122325765D01*
X74765671Y-122334030D01*
X74787849Y-122344520D01*
X74808893Y-122357133D01*
X74828598Y-122371747D01*
X74846777Y-122388223D01*
X74863253Y-122406402D01*
X74877867Y-122426107D01*
X74890480Y-122447151D01*
X74900970Y-122469329D01*
X74909235Y-122492429D01*
X74915196Y-122516227D01*
X74918796Y-122540496D01*
X74920000Y-122565000D01*
X74920000Y-123815000D01*
X74918796Y-123839504D01*
X74915196Y-123863773D01*
X74909235Y-123887571D01*
X74900970Y-123910671D01*
X74890480Y-123932849D01*
X74877867Y-123953893D01*
X74863253Y-123973598D01*
X74846777Y-123991777D01*
X74828598Y-124008253D01*
X74808893Y-124022867D01*
X74787849Y-124035480D01*
X74765671Y-124045970D01*
X74742571Y-124054235D01*
X74718773Y-124060196D01*
X74694504Y-124063796D01*
X74670000Y-124065000D01*
X73920000Y-124065000D01*
X73895496Y-124063796D01*
X73871227Y-124060196D01*
X73847429Y-124054235D01*
X73824329Y-124045970D01*
X73802151Y-124035480D01*
X73781107Y-124022867D01*
X73761402Y-124008253D01*
X73743223Y-123991777D01*
X73726747Y-123973598D01*
X73712133Y-123953893D01*
X73699520Y-123932849D01*
X73689030Y-123910671D01*
X73680765Y-123887571D01*
X73674804Y-123863773D01*
X73671204Y-123839504D01*
X73670000Y-123815000D01*
X73670000Y-122565000D01*
X73671204Y-122540496D01*
X73674804Y-122516227D01*
X73680765Y-122492429D01*
X73689030Y-122469329D01*
X73699520Y-122447151D01*
X73712133Y-122426107D01*
X73726747Y-122406402D01*
X73743223Y-122388223D01*
X73761402Y-122371747D01*
X73781107Y-122357133D01*
X73802151Y-122344520D01*
X73824329Y-122334030D01*
X73847429Y-122325765D01*
X73871227Y-122319804D01*
X73895496Y-122316204D01*
X73920000Y-122315000D01*
X74670000Y-122315000D01*
X74694504Y-122316204D01*
X74694504Y-122316204D01*
G37*
D16*
X74295000Y-123190000D03*
D14*
G36*
X78879504Y-113426204D02*
G01*
X78903773Y-113429804D01*
X78927571Y-113435765D01*
X78950671Y-113444030D01*
X78972849Y-113454520D01*
X78993893Y-113467133D01*
X79013598Y-113481747D01*
X79031777Y-113498223D01*
X79048253Y-113516402D01*
X79062867Y-113536107D01*
X79075480Y-113557151D01*
X79085970Y-113579329D01*
X79094235Y-113602429D01*
X79100196Y-113626227D01*
X79103796Y-113650496D01*
X79105000Y-113675000D01*
X79105000Y-114925000D01*
X79103796Y-114949504D01*
X79100196Y-114973773D01*
X79094235Y-114997571D01*
X79085970Y-115020671D01*
X79075480Y-115042849D01*
X79062867Y-115063893D01*
X79048253Y-115083598D01*
X79031777Y-115101777D01*
X79013598Y-115118253D01*
X78993893Y-115132867D01*
X78972849Y-115145480D01*
X78950671Y-115155970D01*
X78927571Y-115164235D01*
X78903773Y-115170196D01*
X78879504Y-115173796D01*
X78855000Y-115175000D01*
X78105000Y-115175000D01*
X78080496Y-115173796D01*
X78056227Y-115170196D01*
X78032429Y-115164235D01*
X78009329Y-115155970D01*
X77987151Y-115145480D01*
X77966107Y-115132867D01*
X77946402Y-115118253D01*
X77928223Y-115101777D01*
X77911747Y-115083598D01*
X77897133Y-115063893D01*
X77884520Y-115042849D01*
X77874030Y-115020671D01*
X77865765Y-114997571D01*
X77859804Y-114973773D01*
X77856204Y-114949504D01*
X77855000Y-114925000D01*
X77855000Y-113675000D01*
X77856204Y-113650496D01*
X77859804Y-113626227D01*
X77865765Y-113602429D01*
X77874030Y-113579329D01*
X77884520Y-113557151D01*
X77897133Y-113536107D01*
X77911747Y-113516402D01*
X77928223Y-113498223D01*
X77946402Y-113481747D01*
X77966107Y-113467133D01*
X77987151Y-113454520D01*
X78009329Y-113444030D01*
X78032429Y-113435765D01*
X78056227Y-113429804D01*
X78080496Y-113426204D01*
X78105000Y-113425000D01*
X78855000Y-113425000D01*
X78879504Y-113426204D01*
X78879504Y-113426204D01*
G37*
D16*
X78480000Y-114300000D03*
D14*
G36*
X81679504Y-113426204D02*
G01*
X81703773Y-113429804D01*
X81727571Y-113435765D01*
X81750671Y-113444030D01*
X81772849Y-113454520D01*
X81793893Y-113467133D01*
X81813598Y-113481747D01*
X81831777Y-113498223D01*
X81848253Y-113516402D01*
X81862867Y-113536107D01*
X81875480Y-113557151D01*
X81885970Y-113579329D01*
X81894235Y-113602429D01*
X81900196Y-113626227D01*
X81903796Y-113650496D01*
X81905000Y-113675000D01*
X81905000Y-114925000D01*
X81903796Y-114949504D01*
X81900196Y-114973773D01*
X81894235Y-114997571D01*
X81885970Y-115020671D01*
X81875480Y-115042849D01*
X81862867Y-115063893D01*
X81848253Y-115083598D01*
X81831777Y-115101777D01*
X81813598Y-115118253D01*
X81793893Y-115132867D01*
X81772849Y-115145480D01*
X81750671Y-115155970D01*
X81727571Y-115164235D01*
X81703773Y-115170196D01*
X81679504Y-115173796D01*
X81655000Y-115175000D01*
X80905000Y-115175000D01*
X80880496Y-115173796D01*
X80856227Y-115170196D01*
X80832429Y-115164235D01*
X80809329Y-115155970D01*
X80787151Y-115145480D01*
X80766107Y-115132867D01*
X80746402Y-115118253D01*
X80728223Y-115101777D01*
X80711747Y-115083598D01*
X80697133Y-115063893D01*
X80684520Y-115042849D01*
X80674030Y-115020671D01*
X80665765Y-114997571D01*
X80659804Y-114973773D01*
X80656204Y-114949504D01*
X80655000Y-114925000D01*
X80655000Y-113675000D01*
X80656204Y-113650496D01*
X80659804Y-113626227D01*
X80665765Y-113602429D01*
X80674030Y-113579329D01*
X80684520Y-113557151D01*
X80697133Y-113536107D01*
X80711747Y-113516402D01*
X80728223Y-113498223D01*
X80746402Y-113481747D01*
X80766107Y-113467133D01*
X80787151Y-113454520D01*
X80809329Y-113444030D01*
X80832429Y-113435765D01*
X80856227Y-113429804D01*
X80880496Y-113426204D01*
X80905000Y-113425000D01*
X81655000Y-113425000D01*
X81679504Y-113426204D01*
X81679504Y-113426204D01*
G37*
D16*
X81280000Y-114300000D03*
D14*
G36*
X84594504Y-113426204D02*
G01*
X84618773Y-113429804D01*
X84642571Y-113435765D01*
X84665671Y-113444030D01*
X84687849Y-113454520D01*
X84708893Y-113467133D01*
X84728598Y-113481747D01*
X84746777Y-113498223D01*
X84763253Y-113516402D01*
X84777867Y-113536107D01*
X84790480Y-113557151D01*
X84800970Y-113579329D01*
X84809235Y-113602429D01*
X84815196Y-113626227D01*
X84818796Y-113650496D01*
X84820000Y-113675000D01*
X84820000Y-114925000D01*
X84818796Y-114949504D01*
X84815196Y-114973773D01*
X84809235Y-114997571D01*
X84800970Y-115020671D01*
X84790480Y-115042849D01*
X84777867Y-115063893D01*
X84763253Y-115083598D01*
X84746777Y-115101777D01*
X84728598Y-115118253D01*
X84708893Y-115132867D01*
X84687849Y-115145480D01*
X84665671Y-115155970D01*
X84642571Y-115164235D01*
X84618773Y-115170196D01*
X84594504Y-115173796D01*
X84570000Y-115175000D01*
X83820000Y-115175000D01*
X83795496Y-115173796D01*
X83771227Y-115170196D01*
X83747429Y-115164235D01*
X83724329Y-115155970D01*
X83702151Y-115145480D01*
X83681107Y-115132867D01*
X83661402Y-115118253D01*
X83643223Y-115101777D01*
X83626747Y-115083598D01*
X83612133Y-115063893D01*
X83599520Y-115042849D01*
X83589030Y-115020671D01*
X83580765Y-114997571D01*
X83574804Y-114973773D01*
X83571204Y-114949504D01*
X83570000Y-114925000D01*
X83570000Y-113675000D01*
X83571204Y-113650496D01*
X83574804Y-113626227D01*
X83580765Y-113602429D01*
X83589030Y-113579329D01*
X83599520Y-113557151D01*
X83612133Y-113536107D01*
X83626747Y-113516402D01*
X83643223Y-113498223D01*
X83661402Y-113481747D01*
X83681107Y-113467133D01*
X83702151Y-113454520D01*
X83724329Y-113444030D01*
X83747429Y-113435765D01*
X83771227Y-113429804D01*
X83795496Y-113426204D01*
X83820000Y-113425000D01*
X84570000Y-113425000D01*
X84594504Y-113426204D01*
X84594504Y-113426204D01*
G37*
D16*
X84195000Y-114300000D03*
D14*
G36*
X87394504Y-113426204D02*
G01*
X87418773Y-113429804D01*
X87442571Y-113435765D01*
X87465671Y-113444030D01*
X87487849Y-113454520D01*
X87508893Y-113467133D01*
X87528598Y-113481747D01*
X87546777Y-113498223D01*
X87563253Y-113516402D01*
X87577867Y-113536107D01*
X87590480Y-113557151D01*
X87600970Y-113579329D01*
X87609235Y-113602429D01*
X87615196Y-113626227D01*
X87618796Y-113650496D01*
X87620000Y-113675000D01*
X87620000Y-114925000D01*
X87618796Y-114949504D01*
X87615196Y-114973773D01*
X87609235Y-114997571D01*
X87600970Y-115020671D01*
X87590480Y-115042849D01*
X87577867Y-115063893D01*
X87563253Y-115083598D01*
X87546777Y-115101777D01*
X87528598Y-115118253D01*
X87508893Y-115132867D01*
X87487849Y-115145480D01*
X87465671Y-115155970D01*
X87442571Y-115164235D01*
X87418773Y-115170196D01*
X87394504Y-115173796D01*
X87370000Y-115175000D01*
X86620000Y-115175000D01*
X86595496Y-115173796D01*
X86571227Y-115170196D01*
X86547429Y-115164235D01*
X86524329Y-115155970D01*
X86502151Y-115145480D01*
X86481107Y-115132867D01*
X86461402Y-115118253D01*
X86443223Y-115101777D01*
X86426747Y-115083598D01*
X86412133Y-115063893D01*
X86399520Y-115042849D01*
X86389030Y-115020671D01*
X86380765Y-114997571D01*
X86374804Y-114973773D01*
X86371204Y-114949504D01*
X86370000Y-114925000D01*
X86370000Y-113675000D01*
X86371204Y-113650496D01*
X86374804Y-113626227D01*
X86380765Y-113602429D01*
X86389030Y-113579329D01*
X86399520Y-113557151D01*
X86412133Y-113536107D01*
X86426747Y-113516402D01*
X86443223Y-113498223D01*
X86461402Y-113481747D01*
X86481107Y-113467133D01*
X86502151Y-113454520D01*
X86524329Y-113444030D01*
X86547429Y-113435765D01*
X86571227Y-113429804D01*
X86595496Y-113426204D01*
X86620000Y-113425000D01*
X87370000Y-113425000D01*
X87394504Y-113426204D01*
X87394504Y-113426204D01*
G37*
D16*
X86995000Y-114300000D03*
D14*
G36*
X71720142Y-145986174D02*
G01*
X71743803Y-145989684D01*
X71767007Y-145995496D01*
X71789529Y-146003554D01*
X71811153Y-146013782D01*
X71831670Y-146026079D01*
X71850883Y-146040329D01*
X71868607Y-146056393D01*
X71884671Y-146074117D01*
X71898921Y-146093330D01*
X71911218Y-146113847D01*
X71921446Y-146135471D01*
X71929504Y-146157993D01*
X71935316Y-146181197D01*
X71938826Y-146204858D01*
X71940000Y-146228750D01*
X71940000Y-147141250D01*
X71938826Y-147165142D01*
X71935316Y-147188803D01*
X71929504Y-147212007D01*
X71921446Y-147234529D01*
X71911218Y-147256153D01*
X71898921Y-147276670D01*
X71884671Y-147295883D01*
X71868607Y-147313607D01*
X71850883Y-147329671D01*
X71831670Y-147343921D01*
X71811153Y-147356218D01*
X71789529Y-147366446D01*
X71767007Y-147374504D01*
X71743803Y-147380316D01*
X71720142Y-147383826D01*
X71696250Y-147385000D01*
X71208750Y-147385000D01*
X71184858Y-147383826D01*
X71161197Y-147380316D01*
X71137993Y-147374504D01*
X71115471Y-147366446D01*
X71093847Y-147356218D01*
X71073330Y-147343921D01*
X71054117Y-147329671D01*
X71036393Y-147313607D01*
X71020329Y-147295883D01*
X71006079Y-147276670D01*
X70993782Y-147256153D01*
X70983554Y-147234529D01*
X70975496Y-147212007D01*
X70969684Y-147188803D01*
X70966174Y-147165142D01*
X70965000Y-147141250D01*
X70965000Y-146228750D01*
X70966174Y-146204858D01*
X70969684Y-146181197D01*
X70975496Y-146157993D01*
X70983554Y-146135471D01*
X70993782Y-146113847D01*
X71006079Y-146093330D01*
X71020329Y-146074117D01*
X71036393Y-146056393D01*
X71054117Y-146040329D01*
X71073330Y-146026079D01*
X71093847Y-146013782D01*
X71115471Y-146003554D01*
X71137993Y-145995496D01*
X71161197Y-145989684D01*
X71184858Y-145986174D01*
X71208750Y-145985000D01*
X71696250Y-145985000D01*
X71720142Y-145986174D01*
X71720142Y-145986174D01*
G37*
D15*
X71452500Y-146685000D03*
D14*
G36*
X73595142Y-145986174D02*
G01*
X73618803Y-145989684D01*
X73642007Y-145995496D01*
X73664529Y-146003554D01*
X73686153Y-146013782D01*
X73706670Y-146026079D01*
X73725883Y-146040329D01*
X73743607Y-146056393D01*
X73759671Y-146074117D01*
X73773921Y-146093330D01*
X73786218Y-146113847D01*
X73796446Y-146135471D01*
X73804504Y-146157993D01*
X73810316Y-146181197D01*
X73813826Y-146204858D01*
X73815000Y-146228750D01*
X73815000Y-147141250D01*
X73813826Y-147165142D01*
X73810316Y-147188803D01*
X73804504Y-147212007D01*
X73796446Y-147234529D01*
X73786218Y-147256153D01*
X73773921Y-147276670D01*
X73759671Y-147295883D01*
X73743607Y-147313607D01*
X73725883Y-147329671D01*
X73706670Y-147343921D01*
X73686153Y-147356218D01*
X73664529Y-147366446D01*
X73642007Y-147374504D01*
X73618803Y-147380316D01*
X73595142Y-147383826D01*
X73571250Y-147385000D01*
X73083750Y-147385000D01*
X73059858Y-147383826D01*
X73036197Y-147380316D01*
X73012993Y-147374504D01*
X72990471Y-147366446D01*
X72968847Y-147356218D01*
X72948330Y-147343921D01*
X72929117Y-147329671D01*
X72911393Y-147313607D01*
X72895329Y-147295883D01*
X72881079Y-147276670D01*
X72868782Y-147256153D01*
X72858554Y-147234529D01*
X72850496Y-147212007D01*
X72844684Y-147188803D01*
X72841174Y-147165142D01*
X72840000Y-147141250D01*
X72840000Y-146228750D01*
X72841174Y-146204858D01*
X72844684Y-146181197D01*
X72850496Y-146157993D01*
X72858554Y-146135471D01*
X72868782Y-146113847D01*
X72881079Y-146093330D01*
X72895329Y-146074117D01*
X72911393Y-146056393D01*
X72929117Y-146040329D01*
X72948330Y-146026079D01*
X72968847Y-146013782D01*
X72990471Y-146003554D01*
X73012993Y-145995496D01*
X73036197Y-145989684D01*
X73059858Y-145986174D01*
X73083750Y-145985000D01*
X73571250Y-145985000D01*
X73595142Y-145986174D01*
X73595142Y-145986174D01*
G37*
D15*
X73327500Y-146685000D03*
D14*
G36*
X69853242Y-145986174D02*
G01*
X69876903Y-145989684D01*
X69900107Y-145995496D01*
X69922629Y-146003554D01*
X69944253Y-146013782D01*
X69964770Y-146026079D01*
X69983983Y-146040329D01*
X70001707Y-146056393D01*
X70017771Y-146074117D01*
X70032021Y-146093330D01*
X70044318Y-146113847D01*
X70054546Y-146135471D01*
X70062604Y-146157993D01*
X70068416Y-146181197D01*
X70071926Y-146204858D01*
X70073100Y-146228750D01*
X70073100Y-147141250D01*
X70071926Y-147165142D01*
X70068416Y-147188803D01*
X70062604Y-147212007D01*
X70054546Y-147234529D01*
X70044318Y-147256153D01*
X70032021Y-147276670D01*
X70017771Y-147295883D01*
X70001707Y-147313607D01*
X69983983Y-147329671D01*
X69964770Y-147343921D01*
X69944253Y-147356218D01*
X69922629Y-147366446D01*
X69900107Y-147374504D01*
X69876903Y-147380316D01*
X69853242Y-147383826D01*
X69829350Y-147385000D01*
X69341850Y-147385000D01*
X69317958Y-147383826D01*
X69294297Y-147380316D01*
X69271093Y-147374504D01*
X69248571Y-147366446D01*
X69226947Y-147356218D01*
X69206430Y-147343921D01*
X69187217Y-147329671D01*
X69169493Y-147313607D01*
X69153429Y-147295883D01*
X69139179Y-147276670D01*
X69126882Y-147256153D01*
X69116654Y-147234529D01*
X69108596Y-147212007D01*
X69102784Y-147188803D01*
X69099274Y-147165142D01*
X69098100Y-147141250D01*
X69098100Y-146228750D01*
X69099274Y-146204858D01*
X69102784Y-146181197D01*
X69108596Y-146157993D01*
X69116654Y-146135471D01*
X69126882Y-146113847D01*
X69139179Y-146093330D01*
X69153429Y-146074117D01*
X69169493Y-146056393D01*
X69187217Y-146040329D01*
X69206430Y-146026079D01*
X69226947Y-146013782D01*
X69248571Y-146003554D01*
X69271093Y-145995496D01*
X69294297Y-145989684D01*
X69317958Y-145986174D01*
X69341850Y-145985000D01*
X69829350Y-145985000D01*
X69853242Y-145986174D01*
X69853242Y-145986174D01*
G37*
D15*
X69585600Y-146685000D03*
D14*
G36*
X71387642Y-142176174D02*
G01*
X71411303Y-142179684D01*
X71434507Y-142185496D01*
X71457029Y-142193554D01*
X71478653Y-142203782D01*
X71499170Y-142216079D01*
X71518383Y-142230329D01*
X71536107Y-142246393D01*
X71552171Y-142264117D01*
X71566421Y-142283330D01*
X71578718Y-142303847D01*
X71588946Y-142325471D01*
X71597004Y-142347993D01*
X71602816Y-142371197D01*
X71606326Y-142394858D01*
X71607500Y-142418750D01*
X71607500Y-143331250D01*
X71606326Y-143355142D01*
X71602816Y-143378803D01*
X71597004Y-143402007D01*
X71588946Y-143424529D01*
X71578718Y-143446153D01*
X71566421Y-143466670D01*
X71552171Y-143485883D01*
X71536107Y-143503607D01*
X71518383Y-143519671D01*
X71499170Y-143533921D01*
X71478653Y-143546218D01*
X71457029Y-143556446D01*
X71434507Y-143564504D01*
X71411303Y-143570316D01*
X71387642Y-143573826D01*
X71363750Y-143575000D01*
X70876250Y-143575000D01*
X70852358Y-143573826D01*
X70828697Y-143570316D01*
X70805493Y-143564504D01*
X70782971Y-143556446D01*
X70761347Y-143546218D01*
X70740830Y-143533921D01*
X70721617Y-143519671D01*
X70703893Y-143503607D01*
X70687829Y-143485883D01*
X70673579Y-143466670D01*
X70661282Y-143446153D01*
X70651054Y-143424529D01*
X70642996Y-143402007D01*
X70637184Y-143378803D01*
X70633674Y-143355142D01*
X70632500Y-143331250D01*
X70632500Y-142418750D01*
X70633674Y-142394858D01*
X70637184Y-142371197D01*
X70642996Y-142347993D01*
X70651054Y-142325471D01*
X70661282Y-142303847D01*
X70673579Y-142283330D01*
X70687829Y-142264117D01*
X70703893Y-142246393D01*
X70721617Y-142230329D01*
X70740830Y-142216079D01*
X70761347Y-142203782D01*
X70782971Y-142193554D01*
X70805493Y-142185496D01*
X70828697Y-142179684D01*
X70852358Y-142176174D01*
X70876250Y-142175000D01*
X71363750Y-142175000D01*
X71387642Y-142176174D01*
X71387642Y-142176174D01*
G37*
D15*
X71120000Y-142875000D03*
D14*
G36*
X69512642Y-142176174D02*
G01*
X69536303Y-142179684D01*
X69559507Y-142185496D01*
X69582029Y-142193554D01*
X69603653Y-142203782D01*
X69624170Y-142216079D01*
X69643383Y-142230329D01*
X69661107Y-142246393D01*
X69677171Y-142264117D01*
X69691421Y-142283330D01*
X69703718Y-142303847D01*
X69713946Y-142325471D01*
X69722004Y-142347993D01*
X69727816Y-142371197D01*
X69731326Y-142394858D01*
X69732500Y-142418750D01*
X69732500Y-143331250D01*
X69731326Y-143355142D01*
X69727816Y-143378803D01*
X69722004Y-143402007D01*
X69713946Y-143424529D01*
X69703718Y-143446153D01*
X69691421Y-143466670D01*
X69677171Y-143485883D01*
X69661107Y-143503607D01*
X69643383Y-143519671D01*
X69624170Y-143533921D01*
X69603653Y-143546218D01*
X69582029Y-143556446D01*
X69559507Y-143564504D01*
X69536303Y-143570316D01*
X69512642Y-143573826D01*
X69488750Y-143575000D01*
X69001250Y-143575000D01*
X68977358Y-143573826D01*
X68953697Y-143570316D01*
X68930493Y-143564504D01*
X68907971Y-143556446D01*
X68886347Y-143546218D01*
X68865830Y-143533921D01*
X68846617Y-143519671D01*
X68828893Y-143503607D01*
X68812829Y-143485883D01*
X68798579Y-143466670D01*
X68786282Y-143446153D01*
X68776054Y-143424529D01*
X68767996Y-143402007D01*
X68762184Y-143378803D01*
X68758674Y-143355142D01*
X68757500Y-143331250D01*
X68757500Y-142418750D01*
X68758674Y-142394858D01*
X68762184Y-142371197D01*
X68767996Y-142347993D01*
X68776054Y-142325471D01*
X68786282Y-142303847D01*
X68798579Y-142283330D01*
X68812829Y-142264117D01*
X68828893Y-142246393D01*
X68846617Y-142230329D01*
X68865830Y-142216079D01*
X68886347Y-142203782D01*
X68907971Y-142193554D01*
X68930493Y-142185496D01*
X68953697Y-142179684D01*
X68977358Y-142176174D01*
X69001250Y-142175000D01*
X69488750Y-142175000D01*
X69512642Y-142176174D01*
X69512642Y-142176174D01*
G37*
D15*
X69245000Y-142875000D03*
D14*
G36*
X73322642Y-142176174D02*
G01*
X73346303Y-142179684D01*
X73369507Y-142185496D01*
X73392029Y-142193554D01*
X73413653Y-142203782D01*
X73434170Y-142216079D01*
X73453383Y-142230329D01*
X73471107Y-142246393D01*
X73487171Y-142264117D01*
X73501421Y-142283330D01*
X73513718Y-142303847D01*
X73523946Y-142325471D01*
X73532004Y-142347993D01*
X73537816Y-142371197D01*
X73541326Y-142394858D01*
X73542500Y-142418750D01*
X73542500Y-143331250D01*
X73541326Y-143355142D01*
X73537816Y-143378803D01*
X73532004Y-143402007D01*
X73523946Y-143424529D01*
X73513718Y-143446153D01*
X73501421Y-143466670D01*
X73487171Y-143485883D01*
X73471107Y-143503607D01*
X73453383Y-143519671D01*
X73434170Y-143533921D01*
X73413653Y-143546218D01*
X73392029Y-143556446D01*
X73369507Y-143564504D01*
X73346303Y-143570316D01*
X73322642Y-143573826D01*
X73298750Y-143575000D01*
X72811250Y-143575000D01*
X72787358Y-143573826D01*
X72763697Y-143570316D01*
X72740493Y-143564504D01*
X72717971Y-143556446D01*
X72696347Y-143546218D01*
X72675830Y-143533921D01*
X72656617Y-143519671D01*
X72638893Y-143503607D01*
X72622829Y-143485883D01*
X72608579Y-143466670D01*
X72596282Y-143446153D01*
X72586054Y-143424529D01*
X72577996Y-143402007D01*
X72572184Y-143378803D01*
X72568674Y-143355142D01*
X72567500Y-143331250D01*
X72567500Y-142418750D01*
X72568674Y-142394858D01*
X72572184Y-142371197D01*
X72577996Y-142347993D01*
X72586054Y-142325471D01*
X72596282Y-142303847D01*
X72608579Y-142283330D01*
X72622829Y-142264117D01*
X72638893Y-142246393D01*
X72656617Y-142230329D01*
X72675830Y-142216079D01*
X72696347Y-142203782D01*
X72717971Y-142193554D01*
X72740493Y-142185496D01*
X72763697Y-142179684D01*
X72787358Y-142176174D01*
X72811250Y-142175000D01*
X73298750Y-142175000D01*
X73322642Y-142176174D01*
X73322642Y-142176174D01*
G37*
D15*
X73055000Y-142875000D03*
D14*
G36*
X75197642Y-142176174D02*
G01*
X75221303Y-142179684D01*
X75244507Y-142185496D01*
X75267029Y-142193554D01*
X75288653Y-142203782D01*
X75309170Y-142216079D01*
X75328383Y-142230329D01*
X75346107Y-142246393D01*
X75362171Y-142264117D01*
X75376421Y-142283330D01*
X75388718Y-142303847D01*
X75398946Y-142325471D01*
X75407004Y-142347993D01*
X75412816Y-142371197D01*
X75416326Y-142394858D01*
X75417500Y-142418750D01*
X75417500Y-143331250D01*
X75416326Y-143355142D01*
X75412816Y-143378803D01*
X75407004Y-143402007D01*
X75398946Y-143424529D01*
X75388718Y-143446153D01*
X75376421Y-143466670D01*
X75362171Y-143485883D01*
X75346107Y-143503607D01*
X75328383Y-143519671D01*
X75309170Y-143533921D01*
X75288653Y-143546218D01*
X75267029Y-143556446D01*
X75244507Y-143564504D01*
X75221303Y-143570316D01*
X75197642Y-143573826D01*
X75173750Y-143575000D01*
X74686250Y-143575000D01*
X74662358Y-143573826D01*
X74638697Y-143570316D01*
X74615493Y-143564504D01*
X74592971Y-143556446D01*
X74571347Y-143546218D01*
X74550830Y-143533921D01*
X74531617Y-143519671D01*
X74513893Y-143503607D01*
X74497829Y-143485883D01*
X74483579Y-143466670D01*
X74471282Y-143446153D01*
X74461054Y-143424529D01*
X74452996Y-143402007D01*
X74447184Y-143378803D01*
X74443674Y-143355142D01*
X74442500Y-143331250D01*
X74442500Y-142418750D01*
X74443674Y-142394858D01*
X74447184Y-142371197D01*
X74452996Y-142347993D01*
X74461054Y-142325471D01*
X74471282Y-142303847D01*
X74483579Y-142283330D01*
X74497829Y-142264117D01*
X74513893Y-142246393D01*
X74531617Y-142230329D01*
X74550830Y-142216079D01*
X74571347Y-142203782D01*
X74592971Y-142193554D01*
X74615493Y-142185496D01*
X74638697Y-142179684D01*
X74662358Y-142176174D01*
X74686250Y-142175000D01*
X75173750Y-142175000D01*
X75197642Y-142176174D01*
X75197642Y-142176174D01*
G37*
D15*
X74930000Y-142875000D03*
D14*
G36*
X79642642Y-142176174D02*
G01*
X79666303Y-142179684D01*
X79689507Y-142185496D01*
X79712029Y-142193554D01*
X79733653Y-142203782D01*
X79754170Y-142216079D01*
X79773383Y-142230329D01*
X79791107Y-142246393D01*
X79807171Y-142264117D01*
X79821421Y-142283330D01*
X79833718Y-142303847D01*
X79843946Y-142325471D01*
X79852004Y-142347993D01*
X79857816Y-142371197D01*
X79861326Y-142394858D01*
X79862500Y-142418750D01*
X79862500Y-143331250D01*
X79861326Y-143355142D01*
X79857816Y-143378803D01*
X79852004Y-143402007D01*
X79843946Y-143424529D01*
X79833718Y-143446153D01*
X79821421Y-143466670D01*
X79807171Y-143485883D01*
X79791107Y-143503607D01*
X79773383Y-143519671D01*
X79754170Y-143533921D01*
X79733653Y-143546218D01*
X79712029Y-143556446D01*
X79689507Y-143564504D01*
X79666303Y-143570316D01*
X79642642Y-143573826D01*
X79618750Y-143575000D01*
X79131250Y-143575000D01*
X79107358Y-143573826D01*
X79083697Y-143570316D01*
X79060493Y-143564504D01*
X79037971Y-143556446D01*
X79016347Y-143546218D01*
X78995830Y-143533921D01*
X78976617Y-143519671D01*
X78958893Y-143503607D01*
X78942829Y-143485883D01*
X78928579Y-143466670D01*
X78916282Y-143446153D01*
X78906054Y-143424529D01*
X78897996Y-143402007D01*
X78892184Y-143378803D01*
X78888674Y-143355142D01*
X78887500Y-143331250D01*
X78887500Y-142418750D01*
X78888674Y-142394858D01*
X78892184Y-142371197D01*
X78897996Y-142347993D01*
X78906054Y-142325471D01*
X78916282Y-142303847D01*
X78928579Y-142283330D01*
X78942829Y-142264117D01*
X78958893Y-142246393D01*
X78976617Y-142230329D01*
X78995830Y-142216079D01*
X79016347Y-142203782D01*
X79037971Y-142193554D01*
X79060493Y-142185496D01*
X79083697Y-142179684D01*
X79107358Y-142176174D01*
X79131250Y-142175000D01*
X79618750Y-142175000D01*
X79642642Y-142176174D01*
X79642642Y-142176174D01*
G37*
D15*
X79375000Y-142875000D03*
D14*
G36*
X77767642Y-142176174D02*
G01*
X77791303Y-142179684D01*
X77814507Y-142185496D01*
X77837029Y-142193554D01*
X77858653Y-142203782D01*
X77879170Y-142216079D01*
X77898383Y-142230329D01*
X77916107Y-142246393D01*
X77932171Y-142264117D01*
X77946421Y-142283330D01*
X77958718Y-142303847D01*
X77968946Y-142325471D01*
X77977004Y-142347993D01*
X77982816Y-142371197D01*
X77986326Y-142394858D01*
X77987500Y-142418750D01*
X77987500Y-143331250D01*
X77986326Y-143355142D01*
X77982816Y-143378803D01*
X77977004Y-143402007D01*
X77968946Y-143424529D01*
X77958718Y-143446153D01*
X77946421Y-143466670D01*
X77932171Y-143485883D01*
X77916107Y-143503607D01*
X77898383Y-143519671D01*
X77879170Y-143533921D01*
X77858653Y-143546218D01*
X77837029Y-143556446D01*
X77814507Y-143564504D01*
X77791303Y-143570316D01*
X77767642Y-143573826D01*
X77743750Y-143575000D01*
X77256250Y-143575000D01*
X77232358Y-143573826D01*
X77208697Y-143570316D01*
X77185493Y-143564504D01*
X77162971Y-143556446D01*
X77141347Y-143546218D01*
X77120830Y-143533921D01*
X77101617Y-143519671D01*
X77083893Y-143503607D01*
X77067829Y-143485883D01*
X77053579Y-143466670D01*
X77041282Y-143446153D01*
X77031054Y-143424529D01*
X77022996Y-143402007D01*
X77017184Y-143378803D01*
X77013674Y-143355142D01*
X77012500Y-143331250D01*
X77012500Y-142418750D01*
X77013674Y-142394858D01*
X77017184Y-142371197D01*
X77022996Y-142347993D01*
X77031054Y-142325471D01*
X77041282Y-142303847D01*
X77053579Y-142283330D01*
X77067829Y-142264117D01*
X77083893Y-142246393D01*
X77101617Y-142230329D01*
X77120830Y-142216079D01*
X77141347Y-142203782D01*
X77162971Y-142193554D01*
X77185493Y-142185496D01*
X77208697Y-142179684D01*
X77232358Y-142176174D01*
X77256250Y-142175000D01*
X77743750Y-142175000D01*
X77767642Y-142176174D01*
X77767642Y-142176174D01*
G37*
D15*
X77500000Y-142875000D03*
D14*
G36*
X81577642Y-142176174D02*
G01*
X81601303Y-142179684D01*
X81624507Y-142185496D01*
X81647029Y-142193554D01*
X81668653Y-142203782D01*
X81689170Y-142216079D01*
X81708383Y-142230329D01*
X81726107Y-142246393D01*
X81742171Y-142264117D01*
X81756421Y-142283330D01*
X81768718Y-142303847D01*
X81778946Y-142325471D01*
X81787004Y-142347993D01*
X81792816Y-142371197D01*
X81796326Y-142394858D01*
X81797500Y-142418750D01*
X81797500Y-143331250D01*
X81796326Y-143355142D01*
X81792816Y-143378803D01*
X81787004Y-143402007D01*
X81778946Y-143424529D01*
X81768718Y-143446153D01*
X81756421Y-143466670D01*
X81742171Y-143485883D01*
X81726107Y-143503607D01*
X81708383Y-143519671D01*
X81689170Y-143533921D01*
X81668653Y-143546218D01*
X81647029Y-143556446D01*
X81624507Y-143564504D01*
X81601303Y-143570316D01*
X81577642Y-143573826D01*
X81553750Y-143575000D01*
X81066250Y-143575000D01*
X81042358Y-143573826D01*
X81018697Y-143570316D01*
X80995493Y-143564504D01*
X80972971Y-143556446D01*
X80951347Y-143546218D01*
X80930830Y-143533921D01*
X80911617Y-143519671D01*
X80893893Y-143503607D01*
X80877829Y-143485883D01*
X80863579Y-143466670D01*
X80851282Y-143446153D01*
X80841054Y-143424529D01*
X80832996Y-143402007D01*
X80827184Y-143378803D01*
X80823674Y-143355142D01*
X80822500Y-143331250D01*
X80822500Y-142418750D01*
X80823674Y-142394858D01*
X80827184Y-142371197D01*
X80832996Y-142347993D01*
X80841054Y-142325471D01*
X80851282Y-142303847D01*
X80863579Y-142283330D01*
X80877829Y-142264117D01*
X80893893Y-142246393D01*
X80911617Y-142230329D01*
X80930830Y-142216079D01*
X80951347Y-142203782D01*
X80972971Y-142193554D01*
X80995493Y-142185496D01*
X81018697Y-142179684D01*
X81042358Y-142176174D01*
X81066250Y-142175000D01*
X81553750Y-142175000D01*
X81577642Y-142176174D01*
X81577642Y-142176174D01*
G37*
D15*
X81310000Y-142875000D03*
D14*
G36*
X83452642Y-142176174D02*
G01*
X83476303Y-142179684D01*
X83499507Y-142185496D01*
X83522029Y-142193554D01*
X83543653Y-142203782D01*
X83564170Y-142216079D01*
X83583383Y-142230329D01*
X83601107Y-142246393D01*
X83617171Y-142264117D01*
X83631421Y-142283330D01*
X83643718Y-142303847D01*
X83653946Y-142325471D01*
X83662004Y-142347993D01*
X83667816Y-142371197D01*
X83671326Y-142394858D01*
X83672500Y-142418750D01*
X83672500Y-143331250D01*
X83671326Y-143355142D01*
X83667816Y-143378803D01*
X83662004Y-143402007D01*
X83653946Y-143424529D01*
X83643718Y-143446153D01*
X83631421Y-143466670D01*
X83617171Y-143485883D01*
X83601107Y-143503607D01*
X83583383Y-143519671D01*
X83564170Y-143533921D01*
X83543653Y-143546218D01*
X83522029Y-143556446D01*
X83499507Y-143564504D01*
X83476303Y-143570316D01*
X83452642Y-143573826D01*
X83428750Y-143575000D01*
X82941250Y-143575000D01*
X82917358Y-143573826D01*
X82893697Y-143570316D01*
X82870493Y-143564504D01*
X82847971Y-143556446D01*
X82826347Y-143546218D01*
X82805830Y-143533921D01*
X82786617Y-143519671D01*
X82768893Y-143503607D01*
X82752829Y-143485883D01*
X82738579Y-143466670D01*
X82726282Y-143446153D01*
X82716054Y-143424529D01*
X82707996Y-143402007D01*
X82702184Y-143378803D01*
X82698674Y-143355142D01*
X82697500Y-143331250D01*
X82697500Y-142418750D01*
X82698674Y-142394858D01*
X82702184Y-142371197D01*
X82707996Y-142347993D01*
X82716054Y-142325471D01*
X82726282Y-142303847D01*
X82738579Y-142283330D01*
X82752829Y-142264117D01*
X82768893Y-142246393D01*
X82786617Y-142230329D01*
X82805830Y-142216079D01*
X82826347Y-142203782D01*
X82847971Y-142193554D01*
X82870493Y-142185496D01*
X82893697Y-142179684D01*
X82917358Y-142176174D01*
X82941250Y-142175000D01*
X83428750Y-142175000D01*
X83452642Y-142176174D01*
X83452642Y-142176174D01*
G37*
D15*
X83185000Y-142875000D03*
D11*
X64770000Y-130810000D03*
D12*
X64770000Y-133350000D03*
X64770000Y-135890000D03*
X64770000Y-138430000D03*
X64770000Y-140970000D03*
X64770000Y-143510000D03*
X64770000Y-146050000D03*
X64770000Y-148590000D03*
X87630000Y-148590000D03*
X87630000Y-146050000D03*
X87630000Y-143510000D03*
X87630000Y-140970000D03*
X87630000Y-138430000D03*
X87630000Y-135890000D03*
X87630000Y-133350000D03*
D11*
X87630000Y-130810000D03*
D17*
X70965000Y-137795000D03*
X69215000Y-137795000D03*
X73279000Y-137795000D03*
X75029000Y-137795000D03*
X77343000Y-137795000D03*
X79093000Y-137795000D03*
X83157000Y-137795000D03*
X81407000Y-137795000D03*
X75565000Y-146685000D03*
X77315000Y-146685000D03*
D18*
X70485000Y-135001000D03*
X78740000Y-135001000D03*
X82423000Y-130810000D03*
X81407000Y-130810000D03*
X73152000Y-130810000D03*
X74168000Y-130810000D03*
X81915000Y-146685000D03*
X81280000Y-142875000D03*
X77470000Y-142875000D03*
X73025000Y-142875000D03*
X69215000Y-142875000D03*
X70866000Y-130810000D03*
X71882000Y-130810000D03*
X79121000Y-130810000D03*
X80137000Y-130810000D03*
X74041000Y-118745000D03*
X68199000Y-118745000D03*
X71501000Y-114300000D03*
X75565000Y-146685000D03*
X71501000Y-146685000D03*
X80947500Y-118745000D03*
X84787500Y-118745000D03*
X73279000Y-137795000D03*
X77343000Y-137795000D03*
D19*
X65780000Y-124165000D02*
X65780000Y-123190000D01*
X65780000Y-124454000D02*
X65780000Y-124165000D01*
X69265800Y-127939800D02*
X65780000Y-124454000D01*
X69850000Y-127939800D02*
X69265800Y-127939800D01*
X66372500Y-116664500D02*
X66372500Y-118745000D01*
X65780000Y-114300000D02*
X65780000Y-116072000D01*
X65780000Y-116072000D02*
X66372500Y-116664500D01*
X65780000Y-119337500D02*
X65780000Y-123190000D01*
X66372500Y-118745000D02*
X65780000Y-119337500D01*
X82550000Y-129286000D02*
X82550000Y-127939800D01*
X82296000Y-129540000D02*
X82550000Y-129286000D01*
X79629000Y-129540000D02*
X82296000Y-129540000D01*
X79375000Y-127939800D02*
X79375000Y-129286000D01*
X79375000Y-129286000D02*
X79629000Y-129540000D01*
X74295000Y-127939800D02*
X74295000Y-129286000D01*
X74295000Y-129286000D02*
X74041000Y-129540000D01*
X74041000Y-129540000D02*
X71374000Y-129540000D01*
X71374000Y-129540000D02*
X71120000Y-129286000D01*
X71120000Y-129286000D02*
X71120000Y-127939800D01*
X84200000Y-118745000D02*
X80947500Y-118745000D01*
X84787500Y-118745000D02*
X84787500Y-118745000D01*
X80947500Y-118745000D02*
X80947500Y-118745000D01*
X84787500Y-118745000D02*
X84200000Y-118745000D01*
X74550000Y-118745000D02*
X76200000Y-120395000D01*
X73962500Y-118745000D02*
X74550000Y-118745000D01*
X76200000Y-129032000D02*
X75692000Y-129540000D01*
X76200000Y-120395000D02*
X76200000Y-129032000D01*
X79629000Y-129540000D02*
X75692000Y-129540000D01*
X75692000Y-129540000D02*
X74041000Y-129540000D01*
X71495000Y-125228700D02*
X71495000Y-123190000D01*
X73025000Y-127939800D02*
X73025000Y-126758700D01*
X73025000Y-126758700D02*
X71495000Y-125228700D01*
X72087500Y-116507500D02*
X72087500Y-118745000D01*
X74295000Y-114300000D02*
X72087500Y-116507500D01*
X71495000Y-119337500D02*
X71495000Y-123190000D01*
X72087500Y-118745000D02*
X71495000Y-119337500D01*
X78105000Y-123565000D02*
X78480000Y-123190000D01*
X78105000Y-127939800D02*
X78105000Y-123565000D01*
X81280000Y-114300000D02*
X81280000Y-115824000D01*
X81280000Y-115824000D02*
X80518000Y-116586000D01*
X80518000Y-116586000D02*
X79502000Y-116586000D01*
X79072500Y-117015500D02*
X79072500Y-118745000D01*
X79502000Y-116586000D02*
X79072500Y-117015500D01*
X78480000Y-119337500D02*
X78480000Y-123190000D01*
X79072500Y-118745000D02*
X78480000Y-119337500D01*
X81280000Y-126105000D02*
X84195000Y-123190000D01*
X81280000Y-127939800D02*
X81280000Y-126105000D01*
X86995000Y-114300000D02*
X86995000Y-116205000D01*
X86662500Y-116537500D02*
X86662500Y-118745000D01*
X86995000Y-116205000D02*
X86662500Y-116537500D01*
X86662500Y-120347500D02*
X86662500Y-118745000D01*
X85852000Y-121158000D02*
X86662500Y-120347500D01*
X84709000Y-121158000D02*
X85852000Y-121158000D01*
X84195000Y-123190000D02*
X84195000Y-121672000D01*
X84195000Y-121672000D02*
X84709000Y-121158000D01*
X68580000Y-113325000D02*
X68580000Y-114300000D01*
X68580000Y-106747919D02*
X68580000Y-113325000D01*
X65972081Y-104140000D02*
X68580000Y-106747919D01*
X64770000Y-104140000D02*
X65972081Y-104140000D01*
X84195000Y-112655000D02*
X87630000Y-109220000D01*
X84195000Y-114300000D02*
X84195000Y-112655000D01*
X78480000Y-113325000D02*
X78486000Y-113319000D01*
X78480000Y-114300000D02*
X78480000Y-113325000D01*
X78486000Y-113319000D02*
X78486000Y-110998000D01*
X85344000Y-104140000D02*
X87630000Y-104140000D01*
X78486000Y-110998000D02*
X85344000Y-104140000D01*
X73327500Y-146685000D02*
X73327500Y-145747500D01*
X73327500Y-145747500D02*
X74041000Y-145034000D01*
X74041000Y-145034000D02*
X84455000Y-145034000D01*
X85471000Y-146050000D02*
X87630000Y-146050000D01*
X84455000Y-145034000D02*
X85471000Y-146050000D01*
X82550000Y-132080000D02*
X82550000Y-133350000D01*
X82296000Y-131826000D02*
X82550000Y-132080000D01*
X78105000Y-133350000D02*
X78105000Y-132168900D01*
X78105000Y-132168900D02*
X78447900Y-131826000D01*
X69850000Y-132168900D02*
X70065900Y-131953000D01*
X69850000Y-133350000D02*
X69850000Y-132168900D01*
X74041000Y-131953000D02*
X74295000Y-132207000D01*
X74295000Y-132207000D02*
X74295000Y-133350000D01*
X82423000Y-131953000D02*
X82423000Y-130810000D01*
X82550000Y-132080000D02*
X82423000Y-131953000D01*
X74295000Y-131502685D02*
X74295000Y-132207000D01*
X74168000Y-131375685D02*
X74295000Y-131502685D01*
X74168000Y-130810000D02*
X74168000Y-131375685D01*
X72574685Y-131953000D02*
X72517000Y-131953000D01*
X73152000Y-131375685D02*
X72574685Y-131953000D01*
X73152000Y-130810000D02*
X73152000Y-131375685D01*
X70065900Y-131953000D02*
X72517000Y-131953000D01*
X72517000Y-131953000D02*
X74041000Y-131953000D01*
X81407000Y-131445000D02*
X81026000Y-131826000D01*
X81407000Y-130810000D02*
X81407000Y-131445000D01*
X78447900Y-131826000D02*
X81026000Y-131826000D01*
X81026000Y-131826000D02*
X82296000Y-131826000D01*
X78105000Y-133350000D02*
X74295000Y-133350000D01*
X68580000Y-124460000D02*
X68580000Y-123190000D01*
X70485000Y-127939800D02*
X70485000Y-126365000D01*
X70485000Y-126365000D02*
X68580000Y-124460000D01*
X78740000Y-127939800D02*
X78740000Y-125730000D01*
X78740000Y-125730000D02*
X80010000Y-124460000D01*
X80010000Y-124460000D02*
X81280000Y-123190000D01*
X81915000Y-126758700D02*
X83578700Y-125095000D01*
X81915000Y-127939800D02*
X81915000Y-126758700D01*
X85090000Y-125095000D02*
X86995000Y-123190000D01*
X83578700Y-125095000D02*
X85090000Y-125095000D01*
X73660000Y-123825000D02*
X74295000Y-123190000D01*
X73660000Y-127939800D02*
X73660000Y-123825000D01*
X79375000Y-133350000D02*
X78740000Y-133350000D01*
X71120000Y-133350000D02*
X70485000Y-133350000D01*
X70485000Y-133350000D02*
X70485000Y-135001000D01*
X78740000Y-133350000D02*
X78740000Y-135001000D01*
X79375000Y-134366000D02*
X78740000Y-135001000D01*
X79375000Y-133350000D02*
X79375000Y-134366000D01*
X71120000Y-134366000D02*
X70485000Y-135001000D01*
X71120000Y-133350000D02*
X71120000Y-134366000D01*
X68950600Y-146050000D02*
X64770000Y-146050000D01*
X69585600Y-146685000D02*
X68950600Y-146050000D01*
X69531000Y-136398000D02*
X69215000Y-136714000D01*
X70358000Y-136398000D02*
X69531000Y-136398000D01*
X71755000Y-135001000D02*
X70358000Y-136398000D01*
X71755000Y-133350000D02*
X71755000Y-135001000D01*
X65619999Y-134199999D02*
X67651999Y-134199999D01*
X64770000Y-133350000D02*
X65619999Y-134199999D01*
X69215000Y-135763000D02*
X69215000Y-137033000D01*
X67651999Y-134199999D02*
X69215000Y-135763000D01*
X69215000Y-136714000D02*
X69215000Y-137033000D01*
X69215000Y-137033000D02*
X69215000Y-137795000D01*
X72390000Y-133350000D02*
X72390000Y-135128000D01*
X73279000Y-136017000D02*
X73279000Y-137795000D01*
X72390000Y-135128000D02*
X73279000Y-136017000D01*
X73279000Y-137795000D02*
X73279000Y-137795000D01*
X77343000Y-136714000D02*
X77343000Y-137795000D01*
X78167000Y-135890000D02*
X77343000Y-136714000D01*
X79248000Y-135890000D02*
X78167000Y-135890000D01*
X80010000Y-135128000D02*
X79248000Y-135890000D01*
X80010000Y-133350000D02*
X80010000Y-135128000D01*
X77343000Y-137795000D02*
X77343000Y-137795000D01*
X80645000Y-133350000D02*
X80645000Y-134531100D01*
X80645000Y-134531100D02*
X81407000Y-135293100D01*
X81407000Y-136398000D02*
X81407000Y-137795000D01*
X81407000Y-135293100D02*
X81407000Y-136398000D01*
X85598000Y-133350000D02*
X87630000Y-133350000D01*
X83820000Y-135128000D02*
X85598000Y-133350000D01*
X81407000Y-136398000D02*
X82677000Y-135128000D01*
X82677000Y-135128000D02*
X83820000Y-135128000D01*
X70965000Y-142720000D02*
X71120000Y-142875000D01*
X70965000Y-137795000D02*
X70965000Y-142720000D01*
X75029000Y-142776000D02*
X74930000Y-142875000D01*
X75029000Y-137795000D02*
X75029000Y-142776000D01*
X79093000Y-142593000D02*
X79375000Y-142875000D01*
X79093000Y-137795000D02*
X79093000Y-142593000D01*
X83157000Y-142847000D02*
X83185000Y-142875000D01*
X83157000Y-137795000D02*
X83157000Y-142847000D01*
X80010000Y-146685000D02*
X77315000Y-146685000D01*
D20*
G36*
X77314774Y-134150100D02*
G01*
X77326054Y-134264623D01*
X77359459Y-134374745D01*
X77413706Y-134476234D01*
X77486710Y-134565190D01*
X77575666Y-134638194D01*
X77677155Y-134692441D01*
X77787277Y-134725846D01*
X77901800Y-134737126D01*
X78287571Y-134737126D01*
X78403442Y-134774080D01*
X78505050Y-134785100D01*
X78663800Y-134626350D01*
X78663800Y-134614012D01*
X78703542Y-134581397D01*
X78714252Y-134594831D01*
X78809807Y-134675549D01*
X78919272Y-134736074D01*
X78929039Y-134739189D01*
X78974950Y-134785100D01*
X79057500Y-134776147D01*
X79140050Y-134785100D01*
X79185961Y-134739189D01*
X79195728Y-134736074D01*
X79235301Y-134714194D01*
X79235301Y-134807108D01*
X78927109Y-135115300D01*
X78205053Y-135115300D01*
X78167000Y-135111552D01*
X78128947Y-135115300D01*
X78015132Y-135126510D01*
X77869101Y-135170808D01*
X77734517Y-135242744D01*
X77616554Y-135339554D01*
X77592297Y-135369111D01*
X76822116Y-136139293D01*
X76792554Y-136163554D01*
X76695744Y-136281518D01*
X76623808Y-136416102D01*
X76603650Y-136482554D01*
X76583806Y-136547972D01*
X76568355Y-136552659D01*
X76466866Y-136606906D01*
X76377910Y-136679910D01*
X76304906Y-136768866D01*
X76250659Y-136870355D01*
X76217254Y-136980477D01*
X76205974Y-137095000D01*
X76205974Y-138495000D01*
X76217254Y-138609523D01*
X76250659Y-138719645D01*
X76304906Y-138821134D01*
X76377910Y-138910090D01*
X76466866Y-138983094D01*
X76568355Y-139037341D01*
X76678477Y-139070746D01*
X76793000Y-139082026D01*
X77893000Y-139082026D01*
X78007523Y-139070746D01*
X78117645Y-139037341D01*
X78218000Y-138983700D01*
X78318300Y-139037312D01*
X78318301Y-141820719D01*
X78205304Y-141727985D01*
X78061674Y-141651213D01*
X77905826Y-141603937D01*
X77743750Y-141587974D01*
X77256250Y-141587974D01*
X77094174Y-141603937D01*
X76938326Y-141651213D01*
X76794696Y-141727985D01*
X76668803Y-141831303D01*
X76565485Y-141957196D01*
X76488713Y-142100826D01*
X76441437Y-142256674D01*
X76425474Y-142418750D01*
X76425474Y-143331250D01*
X76441437Y-143493326D01*
X76488713Y-143649174D01*
X76565485Y-143792804D01*
X76668803Y-143918697D01*
X76794696Y-144022015D01*
X76938326Y-144098787D01*
X77094174Y-144146063D01*
X77256250Y-144162026D01*
X77743750Y-144162026D01*
X77905826Y-144146063D01*
X78061674Y-144098787D01*
X78205304Y-144022015D01*
X78331197Y-143918697D01*
X78434515Y-143792804D01*
X78437500Y-143787219D01*
X78440485Y-143792804D01*
X78543803Y-143918697D01*
X78669696Y-144022015D01*
X78813326Y-144098787D01*
X78969174Y-144146063D01*
X79131250Y-144162026D01*
X79618750Y-144162026D01*
X79780826Y-144146063D01*
X79936674Y-144098787D01*
X80080304Y-144022015D01*
X80206197Y-143918697D01*
X80309515Y-143792804D01*
X80342500Y-143731094D01*
X80375485Y-143792804D01*
X80478803Y-143918697D01*
X80604696Y-144022015D01*
X80748326Y-144098787D01*
X80904174Y-144146063D01*
X81066250Y-144162026D01*
X81553750Y-144162026D01*
X81715826Y-144146063D01*
X81871674Y-144098787D01*
X82015304Y-144022015D01*
X82141197Y-143918697D01*
X82244515Y-143792804D01*
X82247500Y-143787219D01*
X82250485Y-143792804D01*
X82353803Y-143918697D01*
X82479696Y-144022015D01*
X82623326Y-144098787D01*
X82779174Y-144146063D01*
X82941250Y-144162026D01*
X83428750Y-144162026D01*
X83590826Y-144146063D01*
X83746674Y-144098787D01*
X83890304Y-144022015D01*
X84016197Y-143918697D01*
X84119515Y-143792804D01*
X84196287Y-143649174D01*
X84243563Y-143493326D01*
X84259526Y-143331250D01*
X84259526Y-142418750D01*
X84243563Y-142256674D01*
X84196287Y-142100826D01*
X84119515Y-141957196D01*
X84016197Y-141831303D01*
X83931700Y-141761958D01*
X83931700Y-139037312D01*
X84033134Y-138983094D01*
X84122090Y-138910090D01*
X84195094Y-138821134D01*
X84249341Y-138719645D01*
X84282746Y-138609523D01*
X84294026Y-138495000D01*
X84294026Y-137095000D01*
X84282746Y-136980477D01*
X84249341Y-136870355D01*
X84195094Y-136768866D01*
X84122090Y-136679910D01*
X84033134Y-136606906D01*
X83931645Y-136552659D01*
X83821523Y-136519254D01*
X83707000Y-136507974D01*
X82607000Y-136507974D01*
X82492477Y-136519254D01*
X82382355Y-136552659D01*
X82308405Y-136592186D01*
X82997891Y-135902700D01*
X83781947Y-135902700D01*
X83820000Y-135906448D01*
X83858053Y-135902700D01*
X83971868Y-135891490D01*
X84117899Y-135847192D01*
X84252483Y-135775256D01*
X84370446Y-135678446D01*
X84394707Y-135648884D01*
X85918891Y-134124700D01*
X86417864Y-134124700D01*
X86431737Y-134150654D01*
X86610961Y-134369039D01*
X86829346Y-134548263D01*
X86963556Y-134620000D01*
X86829346Y-134691737D01*
X86610961Y-134870961D01*
X86431737Y-135089346D01*
X86298561Y-135338500D01*
X86216552Y-135608848D01*
X86188861Y-135890000D01*
X86216552Y-136171152D01*
X86298561Y-136441500D01*
X86431737Y-136690654D01*
X86610961Y-136909039D01*
X86829346Y-137088263D01*
X86963556Y-137160000D01*
X86829346Y-137231737D01*
X86610961Y-137410961D01*
X86431737Y-137629346D01*
X86298561Y-137878500D01*
X86216552Y-138148848D01*
X86188861Y-138430000D01*
X86216552Y-138711152D01*
X86298561Y-138981500D01*
X86431737Y-139230654D01*
X86610961Y-139449039D01*
X86829346Y-139628263D01*
X86963556Y-139700000D01*
X86829346Y-139771737D01*
X86610961Y-139950961D01*
X86431737Y-140169346D01*
X86298561Y-140418500D01*
X86216552Y-140688848D01*
X86188861Y-140970000D01*
X86216552Y-141251152D01*
X86298561Y-141521500D01*
X86431737Y-141770654D01*
X86610961Y-141989039D01*
X86829346Y-142168263D01*
X86963556Y-142240000D01*
X86829346Y-142311737D01*
X86610961Y-142490961D01*
X86431737Y-142709346D01*
X86298561Y-142958500D01*
X86216552Y-143228848D01*
X86188861Y-143510000D01*
X86216552Y-143791152D01*
X86298561Y-144061500D01*
X86431737Y-144310654D01*
X86610961Y-144529039D01*
X86829346Y-144708263D01*
X86963556Y-144780000D01*
X86829346Y-144851737D01*
X86610961Y-145030961D01*
X86431737Y-145249346D01*
X86417864Y-145275300D01*
X85791892Y-145275300D01*
X85029707Y-144513116D01*
X85005446Y-144483554D01*
X84887483Y-144386744D01*
X84752899Y-144314808D01*
X84606868Y-144270510D01*
X84493053Y-144259300D01*
X84455000Y-144255552D01*
X84416947Y-144259300D01*
X74079045Y-144259300D01*
X74040999Y-144255553D01*
X74002954Y-144259300D01*
X74002947Y-144259300D01*
X73889132Y-144270510D01*
X73743101Y-144314808D01*
X73608517Y-144386744D01*
X73490554Y-144483554D01*
X73466293Y-144513116D01*
X72806611Y-145172798D01*
X72777055Y-145197054D01*
X72680245Y-145315017D01*
X72633354Y-145402745D01*
X72608309Y-145449601D01*
X72568007Y-145582457D01*
X72496303Y-145641303D01*
X72484195Y-145656057D01*
X72470537Y-145630506D01*
X72391185Y-145533815D01*
X72294494Y-145454463D01*
X72184180Y-145395498D01*
X72064482Y-145359188D01*
X71940000Y-145346928D01*
X71738250Y-145350000D01*
X71579500Y-145508750D01*
X71579500Y-146558000D01*
X71599500Y-146558000D01*
X71599500Y-146812000D01*
X71579500Y-146812000D01*
X71579500Y-147861250D01*
X71738250Y-148020000D01*
X71940000Y-148023072D01*
X72064482Y-148010812D01*
X72184180Y-147974502D01*
X72294494Y-147915537D01*
X72391185Y-147836185D01*
X72470537Y-147739494D01*
X72484195Y-147713943D01*
X72496303Y-147728697D01*
X72622196Y-147832015D01*
X72765826Y-147908787D01*
X72921674Y-147956063D01*
X73083750Y-147972026D01*
X73571250Y-147972026D01*
X73733326Y-147956063D01*
X73889174Y-147908787D01*
X74032804Y-147832015D01*
X74158697Y-147728697D01*
X74262015Y-147602804D01*
X74338787Y-147459174D01*
X74377320Y-147332148D01*
X74376928Y-147385000D01*
X74389188Y-147509482D01*
X74425498Y-147629180D01*
X74484463Y-147739494D01*
X74563815Y-147836185D01*
X74660506Y-147915537D01*
X74770820Y-147974502D01*
X74890518Y-148010812D01*
X75015000Y-148023072D01*
X75279250Y-148020000D01*
X75438000Y-147861250D01*
X75438000Y-146812000D01*
X75418000Y-146812000D01*
X75418000Y-146558000D01*
X75438000Y-146558000D01*
X75438000Y-146538000D01*
X75692000Y-146538000D01*
X75692000Y-146558000D01*
X75712000Y-146558000D01*
X75712000Y-146812000D01*
X75692000Y-146812000D01*
X75692000Y-147861250D01*
X75850750Y-148020000D01*
X76115000Y-148023072D01*
X76239482Y-148010812D01*
X76359180Y-147974502D01*
X76469494Y-147915537D01*
X76488733Y-147899748D01*
X76540355Y-147927341D01*
X76650477Y-147960746D01*
X76765000Y-147972026D01*
X77865000Y-147972026D01*
X77979523Y-147960746D01*
X78089645Y-147927341D01*
X78191134Y-147873094D01*
X78280090Y-147800090D01*
X78353094Y-147711134D01*
X78407341Y-147609645D01*
X78440746Y-147499523D01*
X78444668Y-147459700D01*
X78998994Y-147459700D01*
X79075485Y-147602804D01*
X79178803Y-147728697D01*
X79304696Y-147832015D01*
X79448326Y-147908787D01*
X79604174Y-147956063D01*
X79766250Y-147972026D01*
X80253750Y-147972026D01*
X80415826Y-147956063D01*
X80571674Y-147908787D01*
X80715304Y-147832015D01*
X80841197Y-147728697D01*
X80944515Y-147602804D01*
X80947500Y-147597219D01*
X80950485Y-147602804D01*
X81053803Y-147728697D01*
X81179696Y-147832015D01*
X81323326Y-147908787D01*
X81479174Y-147956063D01*
X81641250Y-147972026D01*
X82128750Y-147972026D01*
X82290826Y-147956063D01*
X82446674Y-147908787D01*
X82590304Y-147832015D01*
X82716197Y-147728697D01*
X82819515Y-147602804D01*
X82896287Y-147459174D01*
X82943563Y-147303326D01*
X82959526Y-147141250D01*
X82959526Y-146228750D01*
X82943563Y-146066674D01*
X82896287Y-145910826D01*
X82841699Y-145808700D01*
X84134109Y-145808700D01*
X84896296Y-146570888D01*
X84920554Y-146600446D01*
X85038517Y-146697256D01*
X85173101Y-146769192D01*
X85314220Y-146812000D01*
X85319132Y-146813490D01*
X85471000Y-146828448D01*
X85509053Y-146824700D01*
X86417864Y-146824700D01*
X86431737Y-146850654D01*
X86610961Y-147069039D01*
X86829346Y-147248263D01*
X86963556Y-147320000D01*
X86829346Y-147391737D01*
X86610961Y-147570961D01*
X86431737Y-147789346D01*
X86298561Y-148038500D01*
X86216552Y-148308848D01*
X86188861Y-148590000D01*
X86216552Y-148871152D01*
X86298561Y-149141500D01*
X86431737Y-149390654D01*
X86610961Y-149609039D01*
X86829346Y-149788263D01*
X87078500Y-149921439D01*
X87348848Y-150003448D01*
X87559547Y-150024200D01*
X87700453Y-150024200D01*
X87893250Y-150005211D01*
X86107662Y-151790800D01*
X64109200Y-151790800D01*
X64109200Y-149863017D01*
X64218500Y-149921439D01*
X64488848Y-150003448D01*
X64699547Y-150024200D01*
X64840453Y-150024200D01*
X65051152Y-150003448D01*
X65321500Y-149921439D01*
X65570654Y-149788263D01*
X65789039Y-149609039D01*
X65968263Y-149390654D01*
X66101439Y-149141500D01*
X66183448Y-148871152D01*
X66211139Y-148590000D01*
X66183448Y-148308848D01*
X66101439Y-148038500D01*
X65968263Y-147789346D01*
X65789039Y-147570961D01*
X65570654Y-147391737D01*
X65436444Y-147320000D01*
X65570654Y-147248263D01*
X65789039Y-147069039D01*
X65968263Y-146850654D01*
X65982136Y-146824700D01*
X68511074Y-146824700D01*
X68511074Y-147141250D01*
X68527037Y-147303326D01*
X68574313Y-147459174D01*
X68651085Y-147602804D01*
X68754403Y-147728697D01*
X68880296Y-147832015D01*
X69023926Y-147908787D01*
X69179774Y-147956063D01*
X69341850Y-147972026D01*
X69829350Y-147972026D01*
X69991426Y-147956063D01*
X70147274Y-147908787D01*
X70290904Y-147832015D01*
X70416797Y-147728697D01*
X70424000Y-147719920D01*
X70434463Y-147739494D01*
X70513815Y-147836185D01*
X70610506Y-147915537D01*
X70720820Y-147974502D01*
X70840518Y-148010812D01*
X70965000Y-148023072D01*
X71166750Y-148020000D01*
X71325500Y-147861250D01*
X71325500Y-146812000D01*
X71305500Y-146812000D01*
X71305500Y-146558000D01*
X71325500Y-146558000D01*
X71325500Y-145508750D01*
X71166750Y-145350000D01*
X70965000Y-145346928D01*
X70840518Y-145359188D01*
X70720820Y-145395498D01*
X70610506Y-145454463D01*
X70513815Y-145533815D01*
X70434463Y-145630506D01*
X70424000Y-145650080D01*
X70416797Y-145641303D01*
X70290904Y-145537985D01*
X70147274Y-145461213D01*
X69991426Y-145413937D01*
X69829350Y-145397974D01*
X69374159Y-145397974D01*
X69248499Y-145330808D01*
X69102468Y-145286510D01*
X68988653Y-145275300D01*
X68950600Y-145271552D01*
X68912547Y-145275300D01*
X65982136Y-145275300D01*
X65968263Y-145249346D01*
X65789039Y-145030961D01*
X65570654Y-144851737D01*
X65436444Y-144780000D01*
X65570654Y-144708263D01*
X65789039Y-144529039D01*
X65968263Y-144310654D01*
X66101439Y-144061500D01*
X66183448Y-143791152D01*
X66211139Y-143510000D01*
X66183448Y-143228848D01*
X66101439Y-142958500D01*
X65968263Y-142709346D01*
X65789039Y-142490961D01*
X65570654Y-142311737D01*
X65436444Y-142240000D01*
X65570654Y-142168263D01*
X65789039Y-141989039D01*
X65968263Y-141770654D01*
X66101439Y-141521500D01*
X66183448Y-141251152D01*
X66211139Y-140970000D01*
X66183448Y-140688848D01*
X66101439Y-140418500D01*
X65968263Y-140169346D01*
X65789039Y-139950961D01*
X65570654Y-139771737D01*
X65436444Y-139700000D01*
X65570654Y-139628263D01*
X65789039Y-139449039D01*
X65968263Y-139230654D01*
X66101439Y-138981500D01*
X66183448Y-138711152D01*
X66211139Y-138430000D01*
X66183448Y-138148848D01*
X66101439Y-137878500D01*
X65968263Y-137629346D01*
X65789039Y-137410961D01*
X65570654Y-137231737D01*
X65436444Y-137160000D01*
X65570654Y-137088263D01*
X65789039Y-136909039D01*
X65968263Y-136690654D01*
X66101439Y-136441500D01*
X66183448Y-136171152D01*
X66211139Y-135890000D01*
X66183448Y-135608848D01*
X66101439Y-135338500D01*
X65968263Y-135089346D01*
X65874175Y-134974699D01*
X67331108Y-134974699D01*
X68440300Y-136083892D01*
X68440301Y-136552688D01*
X68338866Y-136606906D01*
X68249910Y-136679910D01*
X68176906Y-136768866D01*
X68122659Y-136870355D01*
X68089254Y-136980477D01*
X68077974Y-137095000D01*
X68077974Y-138495000D01*
X68089254Y-138609523D01*
X68122659Y-138719645D01*
X68176906Y-138821134D01*
X68249910Y-138910090D01*
X68338866Y-138983094D01*
X68440355Y-139037341D01*
X68550477Y-139070746D01*
X68665000Y-139082026D01*
X69765000Y-139082026D01*
X69879523Y-139070746D01*
X69989645Y-139037341D01*
X70090000Y-138983700D01*
X70190300Y-139037312D01*
X70190301Y-141951328D01*
X70185485Y-141957196D01*
X70182500Y-141962781D01*
X70179515Y-141957196D01*
X70076197Y-141831303D01*
X69950304Y-141727985D01*
X69806674Y-141651213D01*
X69650826Y-141603937D01*
X69488750Y-141587974D01*
X69001250Y-141587974D01*
X68839174Y-141603937D01*
X68683326Y-141651213D01*
X68539696Y-141727985D01*
X68413803Y-141831303D01*
X68310485Y-141957196D01*
X68233713Y-142100826D01*
X68186437Y-142256674D01*
X68170474Y-142418750D01*
X68170474Y-143331250D01*
X68186437Y-143493326D01*
X68233713Y-143649174D01*
X68310485Y-143792804D01*
X68413803Y-143918697D01*
X68539696Y-144022015D01*
X68683326Y-144098787D01*
X68839174Y-144146063D01*
X69001250Y-144162026D01*
X69488750Y-144162026D01*
X69650826Y-144146063D01*
X69806674Y-144098787D01*
X69950304Y-144022015D01*
X70076197Y-143918697D01*
X70179515Y-143792804D01*
X70182500Y-143787219D01*
X70185485Y-143792804D01*
X70288803Y-143918697D01*
X70414696Y-144022015D01*
X70558326Y-144098787D01*
X70714174Y-144146063D01*
X70876250Y-144162026D01*
X71363750Y-144162026D01*
X71525826Y-144146063D01*
X71681674Y-144098787D01*
X71825304Y-144022015D01*
X71951197Y-143918697D01*
X72054515Y-143792804D01*
X72087500Y-143731094D01*
X72120485Y-143792804D01*
X72223803Y-143918697D01*
X72349696Y-144022015D01*
X72493326Y-144098787D01*
X72649174Y-144146063D01*
X72811250Y-144162026D01*
X73298750Y-144162026D01*
X73460826Y-144146063D01*
X73616674Y-144098787D01*
X73760304Y-144022015D01*
X73886197Y-143918697D01*
X73989515Y-143792804D01*
X73992500Y-143787219D01*
X73995485Y-143792804D01*
X74098803Y-143918697D01*
X74224696Y-144022015D01*
X74368326Y-144098787D01*
X74524174Y-144146063D01*
X74686250Y-144162026D01*
X75173750Y-144162026D01*
X75335826Y-144146063D01*
X75491674Y-144098787D01*
X75635304Y-144022015D01*
X75761197Y-143918697D01*
X75864515Y-143792804D01*
X75941287Y-143649174D01*
X75988563Y-143493326D01*
X76004526Y-143331250D01*
X76004526Y-142418750D01*
X75988563Y-142256674D01*
X75941287Y-142100826D01*
X75864515Y-141957196D01*
X75803700Y-141883093D01*
X75803700Y-139037312D01*
X75905134Y-138983094D01*
X75994090Y-138910090D01*
X76067094Y-138821134D01*
X76121341Y-138719645D01*
X76154746Y-138609523D01*
X76166026Y-138495000D01*
X76166026Y-137095000D01*
X76154746Y-136980477D01*
X76121341Y-136870355D01*
X76067094Y-136768866D01*
X75994090Y-136679910D01*
X75905134Y-136606906D01*
X75803645Y-136552659D01*
X75693523Y-136519254D01*
X75579000Y-136507974D01*
X74479000Y-136507974D01*
X74364477Y-136519254D01*
X74254355Y-136552659D01*
X74154000Y-136606300D01*
X74053700Y-136552688D01*
X74053700Y-136055053D01*
X74057448Y-136017000D01*
X74042490Y-135865132D01*
X73998192Y-135719100D01*
X73960663Y-135648889D01*
X73926256Y-135584517D01*
X73829446Y-135466554D01*
X73799885Y-135442294D01*
X73164700Y-134807109D01*
X73164700Y-134737126D01*
X73228200Y-134737126D01*
X73342500Y-134725868D01*
X73456800Y-134737126D01*
X73863200Y-134737126D01*
X73977500Y-134725868D01*
X74091800Y-134737126D01*
X74498200Y-134737126D01*
X74612723Y-134725846D01*
X74722845Y-134692441D01*
X74824334Y-134638194D01*
X74913290Y-134565190D01*
X74986294Y-134476234D01*
X75040541Y-134374745D01*
X75073946Y-134264623D01*
X75085226Y-134150100D01*
X75085226Y-134124700D01*
X77314774Y-134124700D01*
X77314774Y-134150100D01*
X77314774Y-134150100D01*
G37*
X77314774Y-134150100D02*
X77326054Y-134264623D01*
X77359459Y-134374745D01*
X77413706Y-134476234D01*
X77486710Y-134565190D01*
X77575666Y-134638194D01*
X77677155Y-134692441D01*
X77787277Y-134725846D01*
X77901800Y-134737126D01*
X78287571Y-134737126D01*
X78403442Y-134774080D01*
X78505050Y-134785100D01*
X78663800Y-134626350D01*
X78663800Y-134614012D01*
X78703542Y-134581397D01*
X78714252Y-134594831D01*
X78809807Y-134675549D01*
X78919272Y-134736074D01*
X78929039Y-134739189D01*
X78974950Y-134785100D01*
X79057500Y-134776147D01*
X79140050Y-134785100D01*
X79185961Y-134739189D01*
X79195728Y-134736074D01*
X79235301Y-134714194D01*
X79235301Y-134807108D01*
X78927109Y-135115300D01*
X78205053Y-135115300D01*
X78167000Y-135111552D01*
X78128947Y-135115300D01*
X78015132Y-135126510D01*
X77869101Y-135170808D01*
X77734517Y-135242744D01*
X77616554Y-135339554D01*
X77592297Y-135369111D01*
X76822116Y-136139293D01*
X76792554Y-136163554D01*
X76695744Y-136281518D01*
X76623808Y-136416102D01*
X76603650Y-136482554D01*
X76583806Y-136547972D01*
X76568355Y-136552659D01*
X76466866Y-136606906D01*
X76377910Y-136679910D01*
X76304906Y-136768866D01*
X76250659Y-136870355D01*
X76217254Y-136980477D01*
X76205974Y-137095000D01*
X76205974Y-138495000D01*
X76217254Y-138609523D01*
X76250659Y-138719645D01*
X76304906Y-138821134D01*
X76377910Y-138910090D01*
X76466866Y-138983094D01*
X76568355Y-139037341D01*
X76678477Y-139070746D01*
X76793000Y-139082026D01*
X77893000Y-139082026D01*
X78007523Y-139070746D01*
X78117645Y-139037341D01*
X78218000Y-138983700D01*
X78318300Y-139037312D01*
X78318301Y-141820719D01*
X78205304Y-141727985D01*
X78061674Y-141651213D01*
X77905826Y-141603937D01*
X77743750Y-141587974D01*
X77256250Y-141587974D01*
X77094174Y-141603937D01*
X76938326Y-141651213D01*
X76794696Y-141727985D01*
X76668803Y-141831303D01*
X76565485Y-141957196D01*
X76488713Y-142100826D01*
X76441437Y-142256674D01*
X76425474Y-142418750D01*
X76425474Y-143331250D01*
X76441437Y-143493326D01*
X76488713Y-143649174D01*
X76565485Y-143792804D01*
X76668803Y-143918697D01*
X76794696Y-144022015D01*
X76938326Y-144098787D01*
X77094174Y-144146063D01*
X77256250Y-144162026D01*
X77743750Y-144162026D01*
X77905826Y-144146063D01*
X78061674Y-144098787D01*
X78205304Y-144022015D01*
X78331197Y-143918697D01*
X78434515Y-143792804D01*
X78437500Y-143787219D01*
X78440485Y-143792804D01*
X78543803Y-143918697D01*
X78669696Y-144022015D01*
X78813326Y-144098787D01*
X78969174Y-144146063D01*
X79131250Y-144162026D01*
X79618750Y-144162026D01*
X79780826Y-144146063D01*
X79936674Y-144098787D01*
X80080304Y-144022015D01*
X80206197Y-143918697D01*
X80309515Y-143792804D01*
X80342500Y-143731094D01*
X80375485Y-143792804D01*
X80478803Y-143918697D01*
X80604696Y-144022015D01*
X80748326Y-144098787D01*
X80904174Y-144146063D01*
X81066250Y-144162026D01*
X81553750Y-144162026D01*
X81715826Y-144146063D01*
X81871674Y-144098787D01*
X82015304Y-144022015D01*
X82141197Y-143918697D01*
X82244515Y-143792804D01*
X82247500Y-143787219D01*
X82250485Y-143792804D01*
X82353803Y-143918697D01*
X82479696Y-144022015D01*
X82623326Y-144098787D01*
X82779174Y-144146063D01*
X82941250Y-144162026D01*
X83428750Y-144162026D01*
X83590826Y-144146063D01*
X83746674Y-144098787D01*
X83890304Y-144022015D01*
X84016197Y-143918697D01*
X84119515Y-143792804D01*
X84196287Y-143649174D01*
X84243563Y-143493326D01*
X84259526Y-143331250D01*
X84259526Y-142418750D01*
X84243563Y-142256674D01*
X84196287Y-142100826D01*
X84119515Y-141957196D01*
X84016197Y-141831303D01*
X83931700Y-141761958D01*
X83931700Y-139037312D01*
X84033134Y-138983094D01*
X84122090Y-138910090D01*
X84195094Y-138821134D01*
X84249341Y-138719645D01*
X84282746Y-138609523D01*
X84294026Y-138495000D01*
X84294026Y-137095000D01*
X84282746Y-136980477D01*
X84249341Y-136870355D01*
X84195094Y-136768866D01*
X84122090Y-136679910D01*
X84033134Y-136606906D01*
X83931645Y-136552659D01*
X83821523Y-136519254D01*
X83707000Y-136507974D01*
X82607000Y-136507974D01*
X82492477Y-136519254D01*
X82382355Y-136552659D01*
X82308405Y-136592186D01*
X82997891Y-135902700D01*
X83781947Y-135902700D01*
X83820000Y-135906448D01*
X83858053Y-135902700D01*
X83971868Y-135891490D01*
X84117899Y-135847192D01*
X84252483Y-135775256D01*
X84370446Y-135678446D01*
X84394707Y-135648884D01*
X85918891Y-134124700D01*
X86417864Y-134124700D01*
X86431737Y-134150654D01*
X86610961Y-134369039D01*
X86829346Y-134548263D01*
X86963556Y-134620000D01*
X86829346Y-134691737D01*
X86610961Y-134870961D01*
X86431737Y-135089346D01*
X86298561Y-135338500D01*
X86216552Y-135608848D01*
X86188861Y-135890000D01*
X86216552Y-136171152D01*
X86298561Y-136441500D01*
X86431737Y-136690654D01*
X86610961Y-136909039D01*
X86829346Y-137088263D01*
X86963556Y-137160000D01*
X86829346Y-137231737D01*
X86610961Y-137410961D01*
X86431737Y-137629346D01*
X86298561Y-137878500D01*
X86216552Y-138148848D01*
X86188861Y-138430000D01*
X86216552Y-138711152D01*
X86298561Y-138981500D01*
X86431737Y-139230654D01*
X86610961Y-139449039D01*
X86829346Y-139628263D01*
X86963556Y-139700000D01*
X86829346Y-139771737D01*
X86610961Y-139950961D01*
X86431737Y-140169346D01*
X86298561Y-140418500D01*
X86216552Y-140688848D01*
X86188861Y-140970000D01*
X86216552Y-141251152D01*
X86298561Y-141521500D01*
X86431737Y-141770654D01*
X86610961Y-141989039D01*
X86829346Y-142168263D01*
X86963556Y-142240000D01*
X86829346Y-142311737D01*
X86610961Y-142490961D01*
X86431737Y-142709346D01*
X86298561Y-142958500D01*
X86216552Y-143228848D01*
X86188861Y-143510000D01*
X86216552Y-143791152D01*
X86298561Y-144061500D01*
X86431737Y-144310654D01*
X86610961Y-144529039D01*
X86829346Y-144708263D01*
X86963556Y-144780000D01*
X86829346Y-144851737D01*
X86610961Y-145030961D01*
X86431737Y-145249346D01*
X86417864Y-145275300D01*
X85791892Y-145275300D01*
X85029707Y-144513116D01*
X85005446Y-144483554D01*
X84887483Y-144386744D01*
X84752899Y-144314808D01*
X84606868Y-144270510D01*
X84493053Y-144259300D01*
X84455000Y-144255552D01*
X84416947Y-144259300D01*
X74079045Y-144259300D01*
X74040999Y-144255553D01*
X74002954Y-144259300D01*
X74002947Y-144259300D01*
X73889132Y-144270510D01*
X73743101Y-144314808D01*
X73608517Y-144386744D01*
X73490554Y-144483554D01*
X73466293Y-144513116D01*
X72806611Y-145172798D01*
X72777055Y-145197054D01*
X72680245Y-145315017D01*
X72633354Y-145402745D01*
X72608309Y-145449601D01*
X72568007Y-145582457D01*
X72496303Y-145641303D01*
X72484195Y-145656057D01*
X72470537Y-145630506D01*
X72391185Y-145533815D01*
X72294494Y-145454463D01*
X72184180Y-145395498D01*
X72064482Y-145359188D01*
X71940000Y-145346928D01*
X71738250Y-145350000D01*
X71579500Y-145508750D01*
X71579500Y-146558000D01*
X71599500Y-146558000D01*
X71599500Y-146812000D01*
X71579500Y-146812000D01*
X71579500Y-147861250D01*
X71738250Y-148020000D01*
X71940000Y-148023072D01*
X72064482Y-148010812D01*
X72184180Y-147974502D01*
X72294494Y-147915537D01*
X72391185Y-147836185D01*
X72470537Y-147739494D01*
X72484195Y-147713943D01*
X72496303Y-147728697D01*
X72622196Y-147832015D01*
X72765826Y-147908787D01*
X72921674Y-147956063D01*
X73083750Y-147972026D01*
X73571250Y-147972026D01*
X73733326Y-147956063D01*
X73889174Y-147908787D01*
X74032804Y-147832015D01*
X74158697Y-147728697D01*
X74262015Y-147602804D01*
X74338787Y-147459174D01*
X74377320Y-147332148D01*
X74376928Y-147385000D01*
X74389188Y-147509482D01*
X74425498Y-147629180D01*
X74484463Y-147739494D01*
X74563815Y-147836185D01*
X74660506Y-147915537D01*
X74770820Y-147974502D01*
X74890518Y-148010812D01*
X75015000Y-148023072D01*
X75279250Y-148020000D01*
X75438000Y-147861250D01*
X75438000Y-146812000D01*
X75418000Y-146812000D01*
X75418000Y-146558000D01*
X75438000Y-146558000D01*
X75438000Y-146538000D01*
X75692000Y-146538000D01*
X75692000Y-146558000D01*
X75712000Y-146558000D01*
X75712000Y-146812000D01*
X75692000Y-146812000D01*
X75692000Y-147861250D01*
X75850750Y-148020000D01*
X76115000Y-148023072D01*
X76239482Y-148010812D01*
X76359180Y-147974502D01*
X76469494Y-147915537D01*
X76488733Y-147899748D01*
X76540355Y-147927341D01*
X76650477Y-147960746D01*
X76765000Y-147972026D01*
X77865000Y-147972026D01*
X77979523Y-147960746D01*
X78089645Y-147927341D01*
X78191134Y-147873094D01*
X78280090Y-147800090D01*
X78353094Y-147711134D01*
X78407341Y-147609645D01*
X78440746Y-147499523D01*
X78444668Y-147459700D01*
X78998994Y-147459700D01*
X79075485Y-147602804D01*
X79178803Y-147728697D01*
X79304696Y-147832015D01*
X79448326Y-147908787D01*
X79604174Y-147956063D01*
X79766250Y-147972026D01*
X80253750Y-147972026D01*
X80415826Y-147956063D01*
X80571674Y-147908787D01*
X80715304Y-147832015D01*
X80841197Y-147728697D01*
X80944515Y-147602804D01*
X80947500Y-147597219D01*
X80950485Y-147602804D01*
X81053803Y-147728697D01*
X81179696Y-147832015D01*
X81323326Y-147908787D01*
X81479174Y-147956063D01*
X81641250Y-147972026D01*
X82128750Y-147972026D01*
X82290826Y-147956063D01*
X82446674Y-147908787D01*
X82590304Y-147832015D01*
X82716197Y-147728697D01*
X82819515Y-147602804D01*
X82896287Y-147459174D01*
X82943563Y-147303326D01*
X82959526Y-147141250D01*
X82959526Y-146228750D01*
X82943563Y-146066674D01*
X82896287Y-145910826D01*
X82841699Y-145808700D01*
X84134109Y-145808700D01*
X84896296Y-146570888D01*
X84920554Y-146600446D01*
X85038517Y-146697256D01*
X85173101Y-146769192D01*
X85314220Y-146812000D01*
X85319132Y-146813490D01*
X85471000Y-146828448D01*
X85509053Y-146824700D01*
X86417864Y-146824700D01*
X86431737Y-146850654D01*
X86610961Y-147069039D01*
X86829346Y-147248263D01*
X86963556Y-147320000D01*
X86829346Y-147391737D01*
X86610961Y-147570961D01*
X86431737Y-147789346D01*
X86298561Y-148038500D01*
X86216552Y-148308848D01*
X86188861Y-148590000D01*
X86216552Y-148871152D01*
X86298561Y-149141500D01*
X86431737Y-149390654D01*
X86610961Y-149609039D01*
X86829346Y-149788263D01*
X87078500Y-149921439D01*
X87348848Y-150003448D01*
X87559547Y-150024200D01*
X87700453Y-150024200D01*
X87893250Y-150005211D01*
X86107662Y-151790800D01*
X64109200Y-151790800D01*
X64109200Y-149863017D01*
X64218500Y-149921439D01*
X64488848Y-150003448D01*
X64699547Y-150024200D01*
X64840453Y-150024200D01*
X65051152Y-150003448D01*
X65321500Y-149921439D01*
X65570654Y-149788263D01*
X65789039Y-149609039D01*
X65968263Y-149390654D01*
X66101439Y-149141500D01*
X66183448Y-148871152D01*
X66211139Y-148590000D01*
X66183448Y-148308848D01*
X66101439Y-148038500D01*
X65968263Y-147789346D01*
X65789039Y-147570961D01*
X65570654Y-147391737D01*
X65436444Y-147320000D01*
X65570654Y-147248263D01*
X65789039Y-147069039D01*
X65968263Y-146850654D01*
X65982136Y-146824700D01*
X68511074Y-146824700D01*
X68511074Y-147141250D01*
X68527037Y-147303326D01*
X68574313Y-147459174D01*
X68651085Y-147602804D01*
X68754403Y-147728697D01*
X68880296Y-147832015D01*
X69023926Y-147908787D01*
X69179774Y-147956063D01*
X69341850Y-147972026D01*
X69829350Y-147972026D01*
X69991426Y-147956063D01*
X70147274Y-147908787D01*
X70290904Y-147832015D01*
X70416797Y-147728697D01*
X70424000Y-147719920D01*
X70434463Y-147739494D01*
X70513815Y-147836185D01*
X70610506Y-147915537D01*
X70720820Y-147974502D01*
X70840518Y-148010812D01*
X70965000Y-148023072D01*
X71166750Y-148020000D01*
X71325500Y-147861250D01*
X71325500Y-146812000D01*
X71305500Y-146812000D01*
X71305500Y-146558000D01*
X71325500Y-146558000D01*
X71325500Y-145508750D01*
X71166750Y-145350000D01*
X70965000Y-145346928D01*
X70840518Y-145359188D01*
X70720820Y-145395498D01*
X70610506Y-145454463D01*
X70513815Y-145533815D01*
X70434463Y-145630506D01*
X70424000Y-145650080D01*
X70416797Y-145641303D01*
X70290904Y-145537985D01*
X70147274Y-145461213D01*
X69991426Y-145413937D01*
X69829350Y-145397974D01*
X69374159Y-145397974D01*
X69248499Y-145330808D01*
X69102468Y-145286510D01*
X68988653Y-145275300D01*
X68950600Y-145271552D01*
X68912547Y-145275300D01*
X65982136Y-145275300D01*
X65968263Y-145249346D01*
X65789039Y-145030961D01*
X65570654Y-144851737D01*
X65436444Y-144780000D01*
X65570654Y-144708263D01*
X65789039Y-144529039D01*
X65968263Y-144310654D01*
X66101439Y-144061500D01*
X66183448Y-143791152D01*
X66211139Y-143510000D01*
X66183448Y-143228848D01*
X66101439Y-142958500D01*
X65968263Y-142709346D01*
X65789039Y-142490961D01*
X65570654Y-142311737D01*
X65436444Y-142240000D01*
X65570654Y-142168263D01*
X65789039Y-141989039D01*
X65968263Y-141770654D01*
X66101439Y-141521500D01*
X66183448Y-141251152D01*
X66211139Y-140970000D01*
X66183448Y-140688848D01*
X66101439Y-140418500D01*
X65968263Y-140169346D01*
X65789039Y-139950961D01*
X65570654Y-139771737D01*
X65436444Y-139700000D01*
X65570654Y-139628263D01*
X65789039Y-139449039D01*
X65968263Y-139230654D01*
X66101439Y-138981500D01*
X66183448Y-138711152D01*
X66211139Y-138430000D01*
X66183448Y-138148848D01*
X66101439Y-137878500D01*
X65968263Y-137629346D01*
X65789039Y-137410961D01*
X65570654Y-137231737D01*
X65436444Y-137160000D01*
X65570654Y-137088263D01*
X65789039Y-136909039D01*
X65968263Y-136690654D01*
X66101439Y-136441500D01*
X66183448Y-136171152D01*
X66211139Y-135890000D01*
X66183448Y-135608848D01*
X66101439Y-135338500D01*
X65968263Y-135089346D01*
X65874175Y-134974699D01*
X67331108Y-134974699D01*
X68440300Y-136083892D01*
X68440301Y-136552688D01*
X68338866Y-136606906D01*
X68249910Y-136679910D01*
X68176906Y-136768866D01*
X68122659Y-136870355D01*
X68089254Y-136980477D01*
X68077974Y-137095000D01*
X68077974Y-138495000D01*
X68089254Y-138609523D01*
X68122659Y-138719645D01*
X68176906Y-138821134D01*
X68249910Y-138910090D01*
X68338866Y-138983094D01*
X68440355Y-139037341D01*
X68550477Y-139070746D01*
X68665000Y-139082026D01*
X69765000Y-139082026D01*
X69879523Y-139070746D01*
X69989645Y-139037341D01*
X70090000Y-138983700D01*
X70190300Y-139037312D01*
X70190301Y-141951328D01*
X70185485Y-141957196D01*
X70182500Y-141962781D01*
X70179515Y-141957196D01*
X70076197Y-141831303D01*
X69950304Y-141727985D01*
X69806674Y-141651213D01*
X69650826Y-141603937D01*
X69488750Y-141587974D01*
X69001250Y-141587974D01*
X68839174Y-141603937D01*
X68683326Y-141651213D01*
X68539696Y-141727985D01*
X68413803Y-141831303D01*
X68310485Y-141957196D01*
X68233713Y-142100826D01*
X68186437Y-142256674D01*
X68170474Y-142418750D01*
X68170474Y-143331250D01*
X68186437Y-143493326D01*
X68233713Y-143649174D01*
X68310485Y-143792804D01*
X68413803Y-143918697D01*
X68539696Y-144022015D01*
X68683326Y-144098787D01*
X68839174Y-144146063D01*
X69001250Y-144162026D01*
X69488750Y-144162026D01*
X69650826Y-144146063D01*
X69806674Y-144098787D01*
X69950304Y-144022015D01*
X70076197Y-143918697D01*
X70179515Y-143792804D01*
X70182500Y-143787219D01*
X70185485Y-143792804D01*
X70288803Y-143918697D01*
X70414696Y-144022015D01*
X70558326Y-144098787D01*
X70714174Y-144146063D01*
X70876250Y-144162026D01*
X71363750Y-144162026D01*
X71525826Y-144146063D01*
X71681674Y-144098787D01*
X71825304Y-144022015D01*
X71951197Y-143918697D01*
X72054515Y-143792804D01*
X72087500Y-143731094D01*
X72120485Y-143792804D01*
X72223803Y-143918697D01*
X72349696Y-144022015D01*
X72493326Y-144098787D01*
X72649174Y-144146063D01*
X72811250Y-144162026D01*
X73298750Y-144162026D01*
X73460826Y-144146063D01*
X73616674Y-144098787D01*
X73760304Y-144022015D01*
X73886197Y-143918697D01*
X73989515Y-143792804D01*
X73992500Y-143787219D01*
X73995485Y-143792804D01*
X74098803Y-143918697D01*
X74224696Y-144022015D01*
X74368326Y-144098787D01*
X74524174Y-144146063D01*
X74686250Y-144162026D01*
X75173750Y-144162026D01*
X75335826Y-144146063D01*
X75491674Y-144098787D01*
X75635304Y-144022015D01*
X75761197Y-143918697D01*
X75864515Y-143792804D01*
X75941287Y-143649174D01*
X75988563Y-143493326D01*
X76004526Y-143331250D01*
X76004526Y-142418750D01*
X75988563Y-142256674D01*
X75941287Y-142100826D01*
X75864515Y-141957196D01*
X75803700Y-141883093D01*
X75803700Y-139037312D01*
X75905134Y-138983094D01*
X75994090Y-138910090D01*
X76067094Y-138821134D01*
X76121341Y-138719645D01*
X76154746Y-138609523D01*
X76166026Y-138495000D01*
X76166026Y-137095000D01*
X76154746Y-136980477D01*
X76121341Y-136870355D01*
X76067094Y-136768866D01*
X75994090Y-136679910D01*
X75905134Y-136606906D01*
X75803645Y-136552659D01*
X75693523Y-136519254D01*
X75579000Y-136507974D01*
X74479000Y-136507974D01*
X74364477Y-136519254D01*
X74254355Y-136552659D01*
X74154000Y-136606300D01*
X74053700Y-136552688D01*
X74053700Y-136055053D01*
X74057448Y-136017000D01*
X74042490Y-135865132D01*
X73998192Y-135719100D01*
X73960663Y-135648889D01*
X73926256Y-135584517D01*
X73829446Y-135466554D01*
X73799885Y-135442294D01*
X73164700Y-134807109D01*
X73164700Y-134737126D01*
X73228200Y-134737126D01*
X73342500Y-134725868D01*
X73456800Y-134737126D01*
X73863200Y-134737126D01*
X73977500Y-134725868D01*
X74091800Y-134737126D01*
X74498200Y-134737126D01*
X74612723Y-134725846D01*
X74722845Y-134692441D01*
X74824334Y-134638194D01*
X74913290Y-134565190D01*
X74986294Y-134476234D01*
X75040541Y-134374745D01*
X75073946Y-134264623D01*
X75085226Y-134150100D01*
X75085226Y-134124700D01*
X77314774Y-134124700D01*
X77314774Y-134150100D01*
G36*
X71222132Y-130303490D02*
G01*
X71373999Y-130318448D01*
X71412052Y-130314700D01*
X72299262Y-130314700D01*
X72279813Y-130343807D01*
X72205622Y-130522919D01*
X72167800Y-130713065D01*
X72167800Y-130906935D01*
X72205622Y-131097081D01*
X72239264Y-131178300D01*
X70103953Y-131178300D01*
X70065900Y-131174552D01*
X70027847Y-131178300D01*
X69914032Y-131189510D01*
X69768001Y-131233808D01*
X69633417Y-131305744D01*
X69515454Y-131402554D01*
X69491189Y-131432120D01*
X69329112Y-131594197D01*
X69299555Y-131618454D01*
X69275299Y-131648010D01*
X69275297Y-131648012D01*
X69268287Y-131656554D01*
X69202745Y-131736417D01*
X69168154Y-131801133D01*
X69130809Y-131871001D01*
X69086510Y-132017033D01*
X69071552Y-132168900D01*
X69075301Y-132206963D01*
X69075301Y-132421377D01*
X69071054Y-132435377D01*
X69059774Y-132549900D01*
X69059774Y-134150100D01*
X69071054Y-134264623D01*
X69104459Y-134374745D01*
X69158706Y-134476234D01*
X69231710Y-134565190D01*
X69320666Y-134638194D01*
X69422155Y-134692441D01*
X69532277Y-134725846D01*
X69646800Y-134737126D01*
X70032571Y-134737126D01*
X70148442Y-134774080D01*
X70250050Y-134785100D01*
X70408800Y-134626350D01*
X70408800Y-134614012D01*
X70448542Y-134581397D01*
X70459252Y-134594831D01*
X70554807Y-134675549D01*
X70664272Y-134736074D01*
X70674039Y-134739189D01*
X70719950Y-134785100D01*
X70802500Y-134776147D01*
X70876262Y-134784147D01*
X70037109Y-135623300D01*
X69979688Y-135623300D01*
X69978490Y-135611132D01*
X69943599Y-135496112D01*
X69934192Y-135465101D01*
X69862256Y-135330517D01*
X69765446Y-135212554D01*
X69735891Y-135188299D01*
X68226706Y-133679115D01*
X68202445Y-133649553D01*
X68084482Y-133552743D01*
X67949898Y-133480807D01*
X67803867Y-133436509D01*
X67690052Y-133425299D01*
X67651999Y-133421551D01*
X67613946Y-133425299D01*
X66203723Y-133425299D01*
X66211139Y-133350000D01*
X66183448Y-133068848D01*
X66101439Y-132798500D01*
X65968263Y-132549346D01*
X65789039Y-132330961D01*
X65679610Y-132241155D01*
X65734523Y-132235746D01*
X65844645Y-132202341D01*
X65946134Y-132148094D01*
X66035090Y-132075090D01*
X66108094Y-131986134D01*
X66162341Y-131884645D01*
X66195746Y-131774523D01*
X66207026Y-131660000D01*
X66207026Y-130302000D01*
X71217220Y-130302000D01*
X71222132Y-130303490D01*
X71222132Y-130303490D01*
G37*
X71222132Y-130303490D02*
X71373999Y-130318448D01*
X71412052Y-130314700D01*
X72299262Y-130314700D01*
X72279813Y-130343807D01*
X72205622Y-130522919D01*
X72167800Y-130713065D01*
X72167800Y-130906935D01*
X72205622Y-131097081D01*
X72239264Y-131178300D01*
X70103953Y-131178300D01*
X70065900Y-131174552D01*
X70027847Y-131178300D01*
X69914032Y-131189510D01*
X69768001Y-131233808D01*
X69633417Y-131305744D01*
X69515454Y-131402554D01*
X69491189Y-131432120D01*
X69329112Y-131594197D01*
X69299555Y-131618454D01*
X69275299Y-131648010D01*
X69275297Y-131648012D01*
X69268287Y-131656554D01*
X69202745Y-131736417D01*
X69168154Y-131801133D01*
X69130809Y-131871001D01*
X69086510Y-132017033D01*
X69071552Y-132168900D01*
X69075301Y-132206963D01*
X69075301Y-132421377D01*
X69071054Y-132435377D01*
X69059774Y-132549900D01*
X69059774Y-134150100D01*
X69071054Y-134264623D01*
X69104459Y-134374745D01*
X69158706Y-134476234D01*
X69231710Y-134565190D01*
X69320666Y-134638194D01*
X69422155Y-134692441D01*
X69532277Y-134725846D01*
X69646800Y-134737126D01*
X70032571Y-134737126D01*
X70148442Y-134774080D01*
X70250050Y-134785100D01*
X70408800Y-134626350D01*
X70408800Y-134614012D01*
X70448542Y-134581397D01*
X70459252Y-134594831D01*
X70554807Y-134675549D01*
X70664272Y-134736074D01*
X70674039Y-134739189D01*
X70719950Y-134785100D01*
X70802500Y-134776147D01*
X70876262Y-134784147D01*
X70037109Y-135623300D01*
X69979688Y-135623300D01*
X69978490Y-135611132D01*
X69943599Y-135496112D01*
X69934192Y-135465101D01*
X69862256Y-135330517D01*
X69765446Y-135212554D01*
X69735891Y-135188299D01*
X68226706Y-133679115D01*
X68202445Y-133649553D01*
X68084482Y-133552743D01*
X67949898Y-133480807D01*
X67803867Y-133436509D01*
X67690052Y-133425299D01*
X67651999Y-133421551D01*
X67613946Y-133425299D01*
X66203723Y-133425299D01*
X66211139Y-133350000D01*
X66183448Y-133068848D01*
X66101439Y-132798500D01*
X65968263Y-132549346D01*
X65789039Y-132330961D01*
X65679610Y-132241155D01*
X65734523Y-132235746D01*
X65844645Y-132202341D01*
X65946134Y-132148094D01*
X66035090Y-132075090D01*
X66108094Y-131986134D01*
X66162341Y-131884645D01*
X66195746Y-131774523D01*
X66207026Y-131660000D01*
X66207026Y-130302000D01*
X71217220Y-130302000D01*
X71222132Y-130303490D01*
G36*
X75692000Y-130318448D02*
G01*
X75730053Y-130314700D01*
X79590946Y-130314700D01*
X79628999Y-130318448D01*
X79667052Y-130314700D01*
X80554262Y-130314700D01*
X80534813Y-130343807D01*
X80460622Y-130522919D01*
X80422800Y-130713065D01*
X80422800Y-130906935D01*
X80451516Y-131051300D01*
X78485953Y-131051300D01*
X78447900Y-131047552D01*
X78296032Y-131062510D01*
X78150000Y-131106808D01*
X78122370Y-131121577D01*
X78015417Y-131178744D01*
X77897454Y-131275554D01*
X77873189Y-131305121D01*
X77584112Y-131594197D01*
X77554555Y-131618454D01*
X77530299Y-131648010D01*
X77530297Y-131648012D01*
X77523287Y-131656554D01*
X77457745Y-131736417D01*
X77423154Y-131801133D01*
X77385809Y-131871001D01*
X77341510Y-132017033D01*
X77326552Y-132168900D01*
X77330301Y-132206963D01*
X77330301Y-132421377D01*
X77326054Y-132435377D01*
X77314774Y-132549900D01*
X77314774Y-132575300D01*
X75085226Y-132575300D01*
X75085226Y-132549900D01*
X75073946Y-132435377D01*
X75069700Y-132421380D01*
X75069700Y-132245052D01*
X75073448Y-132206999D01*
X75069700Y-132168946D01*
X75069700Y-131540737D01*
X75073448Y-131502684D01*
X75058490Y-131350818D01*
X75048083Y-131316510D01*
X75037206Y-131280654D01*
X75040187Y-131276193D01*
X75114378Y-131097081D01*
X75152200Y-130906935D01*
X75152200Y-130713065D01*
X75114378Y-130522919D01*
X75040187Y-130343807D01*
X75020738Y-130314700D01*
X75653947Y-130314700D01*
X75692000Y-130318448D01*
X75692000Y-130318448D01*
G37*
X75692000Y-130318448D02*
X75730053Y-130314700D01*
X79590946Y-130314700D01*
X79628999Y-130318448D01*
X79667052Y-130314700D01*
X80554262Y-130314700D01*
X80534813Y-130343807D01*
X80460622Y-130522919D01*
X80422800Y-130713065D01*
X80422800Y-130906935D01*
X80451516Y-131051300D01*
X78485953Y-131051300D01*
X78447900Y-131047552D01*
X78296032Y-131062510D01*
X78150000Y-131106808D01*
X78122370Y-131121577D01*
X78015417Y-131178744D01*
X77897454Y-131275554D01*
X77873189Y-131305121D01*
X77584112Y-131594197D01*
X77554555Y-131618454D01*
X77530299Y-131648010D01*
X77530297Y-131648012D01*
X77523287Y-131656554D01*
X77457745Y-131736417D01*
X77423154Y-131801133D01*
X77385809Y-131871001D01*
X77341510Y-132017033D01*
X77326552Y-132168900D01*
X77330301Y-132206963D01*
X77330301Y-132421377D01*
X77326054Y-132435377D01*
X77314774Y-132549900D01*
X77314774Y-132575300D01*
X75085226Y-132575300D01*
X75085226Y-132549900D01*
X75073946Y-132435377D01*
X75069700Y-132421380D01*
X75069700Y-132245052D01*
X75073448Y-132206999D01*
X75069700Y-132168946D01*
X75069700Y-131540737D01*
X75073448Y-131502684D01*
X75058490Y-131350818D01*
X75048083Y-131316510D01*
X75037206Y-131280654D01*
X75040187Y-131276193D01*
X75114378Y-131097081D01*
X75152200Y-130906935D01*
X75152200Y-130713065D01*
X75114378Y-130522919D01*
X75040187Y-130343807D01*
X75020738Y-130314700D01*
X75653947Y-130314700D01*
X75692000Y-130318448D01*
G36*
X67805301Y-112944120D02*
G01*
X67739973Y-112979038D01*
X67613133Y-113083133D01*
X67509038Y-113209973D01*
X67431689Y-113354684D01*
X67384057Y-113511704D01*
X67367974Y-113675000D01*
X67367974Y-114925000D01*
X67384057Y-115088296D01*
X67431689Y-115245316D01*
X67509038Y-115390027D01*
X67613133Y-115516867D01*
X67739973Y-115620962D01*
X67884684Y-115698311D01*
X68041704Y-115745943D01*
X68205000Y-115762026D01*
X68955000Y-115762026D01*
X69118296Y-115745943D01*
X69275316Y-115698311D01*
X69420027Y-115620962D01*
X69546867Y-115516867D01*
X69650962Y-115390027D01*
X69728311Y-115245316D01*
X69775943Y-115088296D01*
X69792026Y-114925000D01*
X69792026Y-113675000D01*
X69775943Y-113511704D01*
X69728311Y-113354684D01*
X69650962Y-113209973D01*
X69546867Y-113083133D01*
X69420027Y-112979038D01*
X69354700Y-112944120D01*
X69354700Y-111252000D01*
X77711301Y-111252000D01*
X77711300Y-112940913D01*
X77639973Y-112979038D01*
X77513133Y-113083133D01*
X77409038Y-113209973D01*
X77331689Y-113354684D01*
X77284057Y-113511704D01*
X77267974Y-113675000D01*
X77267974Y-114925000D01*
X77284057Y-115088296D01*
X77331689Y-115245316D01*
X77409038Y-115390027D01*
X77513133Y-115516867D01*
X77639973Y-115620962D01*
X77784684Y-115698311D01*
X77941704Y-115745943D01*
X78105000Y-115762026D01*
X78855000Y-115762026D01*
X79018296Y-115745943D01*
X79175316Y-115698311D01*
X79320027Y-115620962D01*
X79446867Y-115516867D01*
X79550962Y-115390027D01*
X79628311Y-115245316D01*
X79675943Y-115088296D01*
X79692026Y-114925000D01*
X79692026Y-113675000D01*
X79675943Y-113511704D01*
X79628311Y-113354684D01*
X79550962Y-113209973D01*
X79446867Y-113083133D01*
X79320027Y-112979038D01*
X79260700Y-112947327D01*
X79260700Y-111318891D01*
X79327591Y-111252000D01*
X84502409Y-111252000D01*
X83674111Y-112080298D01*
X83644555Y-112104554D01*
X83547745Y-112222517D01*
X83475809Y-112357101D01*
X83431510Y-112503133D01*
X83416552Y-112655000D01*
X83420301Y-112693063D01*
X83420301Y-112944120D01*
X83354973Y-112979038D01*
X83228133Y-113083133D01*
X83124038Y-113209973D01*
X83046689Y-113354684D01*
X82999057Y-113511704D01*
X82982974Y-113675000D01*
X82982974Y-114925000D01*
X82999057Y-115088296D01*
X83046689Y-115245316D01*
X83124038Y-115390027D01*
X83228133Y-115516867D01*
X83354973Y-115620962D01*
X83499684Y-115698311D01*
X83656704Y-115745943D01*
X83820000Y-115762026D01*
X84570000Y-115762026D01*
X84733296Y-115745943D01*
X84890316Y-115698311D01*
X85035027Y-115620962D01*
X85161867Y-115516867D01*
X85265962Y-115390027D01*
X85343311Y-115245316D01*
X85390943Y-115088296D01*
X85407026Y-114925000D01*
X85407026Y-113675000D01*
X85390943Y-113511704D01*
X85343311Y-113354684D01*
X85265962Y-113209973D01*
X85161867Y-113083133D01*
X85035027Y-112979038D01*
X84990404Y-112955187D01*
X86693591Y-111252000D01*
X88290800Y-111252000D01*
X88290801Y-129372974D01*
X86780000Y-129372974D01*
X86665477Y-129384254D01*
X86570714Y-129413000D01*
X83315939Y-129413000D01*
X83324700Y-129324053D01*
X83324700Y-129324052D01*
X83328448Y-129286001D01*
X83324700Y-129247948D01*
X83324700Y-128868420D01*
X83328946Y-128854423D01*
X83340226Y-128739900D01*
X83340226Y-127139700D01*
X83328946Y-127025177D01*
X83295541Y-126915055D01*
X83241294Y-126813566D01*
X83168290Y-126724610D01*
X83100398Y-126668893D01*
X83899592Y-125869700D01*
X85051947Y-125869700D01*
X85090000Y-125873448D01*
X85128053Y-125869700D01*
X85241868Y-125858490D01*
X85387899Y-125814192D01*
X85522483Y-125742256D01*
X85640446Y-125645446D01*
X85664707Y-125615884D01*
X86628565Y-124652026D01*
X87370000Y-124652026D01*
X87533296Y-124635943D01*
X87690316Y-124588311D01*
X87835027Y-124510962D01*
X87961867Y-124406867D01*
X88065962Y-124280027D01*
X88143311Y-124135316D01*
X88190943Y-123978296D01*
X88207026Y-123815000D01*
X88207026Y-122565000D01*
X88190943Y-122401704D01*
X88143311Y-122244684D01*
X88065962Y-122099973D01*
X87961867Y-121973133D01*
X87835027Y-121869038D01*
X87690316Y-121791689D01*
X87533296Y-121744057D01*
X87370000Y-121727974D01*
X86620000Y-121727974D01*
X86456704Y-121744057D01*
X86301794Y-121791049D01*
X86402446Y-121708446D01*
X86426707Y-121678884D01*
X87183391Y-120922201D01*
X87212946Y-120897946D01*
X87309756Y-120779983D01*
X87381692Y-120645399D01*
X87425990Y-120499368D01*
X87437200Y-120385553D01*
X87437200Y-120385552D01*
X87440948Y-120347501D01*
X87437200Y-120309448D01*
X87437200Y-119835063D01*
X87493697Y-119788697D01*
X87597015Y-119662804D01*
X87673787Y-119519174D01*
X87721063Y-119363326D01*
X87737026Y-119201250D01*
X87737026Y-118288750D01*
X87721063Y-118126674D01*
X87673787Y-117970826D01*
X87597015Y-117827196D01*
X87493697Y-117701303D01*
X87437200Y-117654937D01*
X87437200Y-116858391D01*
X87515884Y-116779707D01*
X87545446Y-116755446D01*
X87642256Y-116637483D01*
X87714192Y-116502899D01*
X87758490Y-116356868D01*
X87769700Y-116243053D01*
X87773448Y-116205001D01*
X87769700Y-116166948D01*
X87769700Y-115655880D01*
X87835027Y-115620962D01*
X87961867Y-115516867D01*
X88065962Y-115390027D01*
X88143311Y-115245316D01*
X88190943Y-115088296D01*
X88207026Y-114925000D01*
X88207026Y-113675000D01*
X88190943Y-113511704D01*
X88143311Y-113354684D01*
X88065962Y-113209973D01*
X87961867Y-113083133D01*
X87835027Y-112979038D01*
X87690316Y-112901689D01*
X87533296Y-112854057D01*
X87370000Y-112837974D01*
X86620000Y-112837974D01*
X86456704Y-112854057D01*
X86299684Y-112901689D01*
X86154973Y-112979038D01*
X86028133Y-113083133D01*
X85924038Y-113209973D01*
X85846689Y-113354684D01*
X85799057Y-113511704D01*
X85782974Y-113675000D01*
X85782974Y-114925000D01*
X85799057Y-115088296D01*
X85846689Y-115245316D01*
X85924038Y-115390027D01*
X86028133Y-115516867D01*
X86154973Y-115620962D01*
X86220301Y-115655880D01*
X86220301Y-115884108D01*
X86141616Y-115962793D01*
X86112054Y-115987054D01*
X86015244Y-116105018D01*
X85943308Y-116239602D01*
X85907736Y-116356868D01*
X85899010Y-116385633D01*
X85884052Y-116537500D01*
X85887800Y-116575553D01*
X85887801Y-117654937D01*
X85831303Y-117701303D01*
X85727985Y-117827196D01*
X85725000Y-117832781D01*
X85722015Y-117827196D01*
X85618697Y-117701303D01*
X85492804Y-117597985D01*
X85349174Y-117521213D01*
X85193326Y-117473937D01*
X85031250Y-117457974D01*
X84543750Y-117457974D01*
X84381674Y-117473937D01*
X84225826Y-117521213D01*
X84082196Y-117597985D01*
X83956303Y-117701303D01*
X83852985Y-117827196D01*
X83776494Y-117970300D01*
X81958506Y-117970300D01*
X81882015Y-117827196D01*
X81778697Y-117701303D01*
X81652804Y-117597985D01*
X81509174Y-117521213D01*
X81353326Y-117473937D01*
X81191250Y-117457974D01*
X80703750Y-117457974D01*
X80541674Y-117473937D01*
X80385826Y-117521213D01*
X80242196Y-117597985D01*
X80116303Y-117701303D01*
X80012985Y-117827196D01*
X80010000Y-117832781D01*
X80007015Y-117827196D01*
X79903697Y-117701303D01*
X79847200Y-117654937D01*
X79847200Y-117360700D01*
X80479947Y-117360700D01*
X80518000Y-117364448D01*
X80556053Y-117360700D01*
X80669868Y-117349490D01*
X80815899Y-117305192D01*
X80950483Y-117233256D01*
X81068446Y-117136446D01*
X81092707Y-117106884D01*
X81800884Y-116398707D01*
X81830446Y-116374446D01*
X81927256Y-116256483D01*
X81999192Y-116121899D01*
X82043490Y-115975868D01*
X82054700Y-115862053D01*
X82058448Y-115824000D01*
X82054700Y-115785947D01*
X82054700Y-115655880D01*
X82120027Y-115620962D01*
X82246867Y-115516867D01*
X82350962Y-115390027D01*
X82428311Y-115245316D01*
X82475943Y-115088296D01*
X82492026Y-114925000D01*
X82492026Y-113675000D01*
X82475943Y-113511704D01*
X82428311Y-113354684D01*
X82350962Y-113209973D01*
X82246867Y-113083133D01*
X82120027Y-112979038D01*
X81975316Y-112901689D01*
X81818296Y-112854057D01*
X81655000Y-112837974D01*
X80905000Y-112837974D01*
X80741704Y-112854057D01*
X80584684Y-112901689D01*
X80439973Y-112979038D01*
X80313133Y-113083133D01*
X80209038Y-113209973D01*
X80131689Y-113354684D01*
X80084057Y-113511704D01*
X80067974Y-113675000D01*
X80067974Y-114925000D01*
X80084057Y-115088296D01*
X80131689Y-115245316D01*
X80209038Y-115390027D01*
X80313133Y-115516867D01*
X80411123Y-115597286D01*
X80197109Y-115811300D01*
X79540053Y-115811300D01*
X79502000Y-115807552D01*
X79463947Y-115811300D01*
X79350132Y-115822510D01*
X79204101Y-115866808D01*
X79069517Y-115938744D01*
X78951554Y-116035554D01*
X78927289Y-116065121D01*
X78551616Y-116440793D01*
X78522054Y-116465054D01*
X78425244Y-116583018D01*
X78353308Y-116717602D01*
X78330985Y-116791192D01*
X78309010Y-116863633D01*
X78294052Y-117015500D01*
X78297800Y-117053553D01*
X78297800Y-117654937D01*
X78241303Y-117701303D01*
X78137985Y-117827196D01*
X78061213Y-117970826D01*
X78013937Y-118126674D01*
X77997974Y-118288750D01*
X77997974Y-118723935D01*
X77959116Y-118762793D01*
X77929554Y-118787054D01*
X77832744Y-118905018D01*
X77760808Y-119039602D01*
X77718983Y-119177482D01*
X77716510Y-119185633D01*
X77701552Y-119337500D01*
X77705300Y-119375553D01*
X77705301Y-121834120D01*
X77639973Y-121869038D01*
X77513133Y-121973133D01*
X77409038Y-122099973D01*
X77331689Y-122244684D01*
X77284057Y-122401704D01*
X77267974Y-122565000D01*
X77267974Y-123815000D01*
X77284057Y-123978296D01*
X77330301Y-124130740D01*
X77330300Y-127011179D01*
X77326054Y-127025177D01*
X77314774Y-127139700D01*
X77314774Y-128739900D01*
X77317276Y-128765300D01*
X76974700Y-128765300D01*
X76974700Y-120433045D01*
X76978447Y-120394999D01*
X76974700Y-120356954D01*
X76974700Y-120356947D01*
X76963490Y-120243132D01*
X76919192Y-120097101D01*
X76847256Y-119962517D01*
X76750446Y-119844554D01*
X76720885Y-119820294D01*
X75124707Y-118224116D01*
X75100446Y-118194554D01*
X75021356Y-118129646D01*
X75021063Y-118126674D01*
X74973787Y-117970826D01*
X74897015Y-117827196D01*
X74793697Y-117701303D01*
X74667804Y-117597985D01*
X74524174Y-117521213D01*
X74368326Y-117473937D01*
X74206250Y-117457974D01*
X73718750Y-117457974D01*
X73556674Y-117473937D01*
X73400826Y-117521213D01*
X73257196Y-117597985D01*
X73131303Y-117701303D01*
X73027985Y-117827196D01*
X73025000Y-117832781D01*
X73022015Y-117827196D01*
X72918697Y-117701303D01*
X72862200Y-117654937D01*
X72862200Y-116828391D01*
X73928565Y-115762026D01*
X74670000Y-115762026D01*
X74833296Y-115745943D01*
X74990316Y-115698311D01*
X75135027Y-115620962D01*
X75261867Y-115516867D01*
X75365962Y-115390027D01*
X75443311Y-115245316D01*
X75490943Y-115088296D01*
X75507026Y-114925000D01*
X75507026Y-113675000D01*
X75490943Y-113511704D01*
X75443311Y-113354684D01*
X75365962Y-113209973D01*
X75261867Y-113083133D01*
X75135027Y-112979038D01*
X74990316Y-112901689D01*
X74833296Y-112854057D01*
X74670000Y-112837974D01*
X73920000Y-112837974D01*
X73756704Y-112854057D01*
X73599684Y-112901689D01*
X73454973Y-112979038D01*
X73328133Y-113083133D01*
X73224038Y-113209973D01*
X73146689Y-113354684D01*
X73099057Y-113511704D01*
X73082974Y-113675000D01*
X73082974Y-114416435D01*
X72707026Y-114792383D01*
X72707026Y-113675000D01*
X72690943Y-113511704D01*
X72643311Y-113354684D01*
X72565962Y-113209973D01*
X72461867Y-113083133D01*
X72335027Y-112979038D01*
X72190316Y-112901689D01*
X72033296Y-112854057D01*
X71870000Y-112837974D01*
X71120000Y-112837974D01*
X70956704Y-112854057D01*
X70799684Y-112901689D01*
X70654973Y-112979038D01*
X70528133Y-113083133D01*
X70424038Y-113209973D01*
X70346689Y-113354684D01*
X70299057Y-113511704D01*
X70282974Y-113675000D01*
X70282974Y-114925000D01*
X70299057Y-115088296D01*
X70346689Y-115245316D01*
X70424038Y-115390027D01*
X70528133Y-115516867D01*
X70654973Y-115620962D01*
X70799684Y-115698311D01*
X70956704Y-115745943D01*
X71120000Y-115762026D01*
X71737383Y-115762026D01*
X71566616Y-115932793D01*
X71537054Y-115957054D01*
X71440244Y-116075018D01*
X71368308Y-116209602D01*
X71324010Y-116355632D01*
X71324010Y-116355633D01*
X71309052Y-116507500D01*
X71312800Y-116545553D01*
X71312801Y-117654937D01*
X71256303Y-117701303D01*
X71152985Y-117827196D01*
X71076213Y-117970826D01*
X71028937Y-118126674D01*
X71012974Y-118288750D01*
X71012974Y-118723935D01*
X70974116Y-118762793D01*
X70944554Y-118787054D01*
X70847744Y-118905018D01*
X70775808Y-119039602D01*
X70733983Y-119177482D01*
X70731510Y-119185633D01*
X70716552Y-119337500D01*
X70720300Y-119375553D01*
X70720301Y-121834120D01*
X70654973Y-121869038D01*
X70528133Y-121973133D01*
X70424038Y-122099973D01*
X70346689Y-122244684D01*
X70299057Y-122401704D01*
X70282974Y-122565000D01*
X70282974Y-123815000D01*
X70299057Y-123978296D01*
X70346689Y-124135316D01*
X70424038Y-124280027D01*
X70528133Y-124406867D01*
X70654973Y-124510962D01*
X70720300Y-124545880D01*
X70720300Y-125190647D01*
X70716552Y-125228700D01*
X70720300Y-125266752D01*
X70731510Y-125380567D01*
X70775808Y-125526598D01*
X70814411Y-125598820D01*
X69580940Y-124365349D01*
X69650962Y-124280027D01*
X69728311Y-124135316D01*
X69775943Y-123978296D01*
X69792026Y-123815000D01*
X69792026Y-122565000D01*
X69775943Y-122401704D01*
X69728311Y-122244684D01*
X69650962Y-122099973D01*
X69546867Y-121973133D01*
X69420027Y-121869038D01*
X69275316Y-121791689D01*
X69118296Y-121744057D01*
X68955000Y-121727974D01*
X68205000Y-121727974D01*
X68041704Y-121744057D01*
X67884684Y-121791689D01*
X67739973Y-121869038D01*
X67613133Y-121973133D01*
X67509038Y-122099973D01*
X67431689Y-122244684D01*
X67384057Y-122401704D01*
X67367974Y-122565000D01*
X67367974Y-123815000D01*
X67384057Y-123978296D01*
X67431689Y-124135316D01*
X67509038Y-124280027D01*
X67613133Y-124406867D01*
X67739973Y-124510962D01*
X67810272Y-124548538D01*
X67816510Y-124611867D01*
X67860808Y-124757898D01*
X67932744Y-124892482D01*
X68029554Y-125010446D01*
X68059116Y-125034707D01*
X69583334Y-126558925D01*
X69532277Y-126563954D01*
X69422155Y-126597359D01*
X69320666Y-126651606D01*
X69231710Y-126724610D01*
X69193167Y-126771576D01*
X66783645Y-124362054D01*
X66850962Y-124280027D01*
X66928311Y-124135316D01*
X66975943Y-123978296D01*
X66992026Y-123815000D01*
X66992026Y-122565000D01*
X66975943Y-122401704D01*
X66928311Y-122244684D01*
X66850962Y-122099973D01*
X66746867Y-121973133D01*
X66620027Y-121869038D01*
X66554700Y-121834120D01*
X66554700Y-120032026D01*
X66616250Y-120032026D01*
X66778326Y-120016063D01*
X66934174Y-119968787D01*
X67077804Y-119892015D01*
X67203697Y-119788697D01*
X67307015Y-119662804D01*
X67310000Y-119657219D01*
X67312985Y-119662804D01*
X67416303Y-119788697D01*
X67542196Y-119892015D01*
X67685826Y-119968787D01*
X67841674Y-120016063D01*
X68003750Y-120032026D01*
X68491250Y-120032026D01*
X68653326Y-120016063D01*
X68809174Y-119968787D01*
X68952804Y-119892015D01*
X69078697Y-119788697D01*
X69182015Y-119662804D01*
X69258787Y-119519174D01*
X69306063Y-119363326D01*
X69322026Y-119201250D01*
X69322026Y-118288750D01*
X69306063Y-118126674D01*
X69258787Y-117970826D01*
X69182015Y-117827196D01*
X69078697Y-117701303D01*
X68952804Y-117597985D01*
X68809174Y-117521213D01*
X68653326Y-117473937D01*
X68491250Y-117457974D01*
X68003750Y-117457974D01*
X67841674Y-117473937D01*
X67685826Y-117521213D01*
X67542196Y-117597985D01*
X67416303Y-117701303D01*
X67312985Y-117827196D01*
X67310000Y-117832781D01*
X67307015Y-117827196D01*
X67203697Y-117701303D01*
X67147200Y-117654937D01*
X67147200Y-116702556D01*
X67150948Y-116664500D01*
X67135991Y-116512632D01*
X67091692Y-116366601D01*
X67086490Y-116356868D01*
X67019756Y-116232017D01*
X66922946Y-116114054D01*
X66893385Y-116089794D01*
X66554700Y-115751109D01*
X66554700Y-115655880D01*
X66620027Y-115620962D01*
X66746867Y-115516867D01*
X66850962Y-115390027D01*
X66928311Y-115245316D01*
X66975943Y-115088296D01*
X66992026Y-114925000D01*
X66992026Y-113675000D01*
X66975943Y-113511704D01*
X66928311Y-113354684D01*
X66850962Y-113209973D01*
X66746867Y-113083133D01*
X66620027Y-112979038D01*
X66475316Y-112901689D01*
X66318296Y-112854057D01*
X66155000Y-112837974D01*
X65405000Y-112837974D01*
X65241704Y-112854057D01*
X65084684Y-112901689D01*
X64939973Y-112979038D01*
X64813133Y-113083133D01*
X64709038Y-113209973D01*
X64631689Y-113354684D01*
X64584057Y-113511704D01*
X64567974Y-113675000D01*
X64567974Y-114925000D01*
X64584057Y-115088296D01*
X64631689Y-115245316D01*
X64709038Y-115390027D01*
X64813133Y-115516867D01*
X64939973Y-115620962D01*
X65005301Y-115655880D01*
X65005301Y-116033937D01*
X65001552Y-116072000D01*
X65016510Y-116223867D01*
X65038485Y-116296308D01*
X65060809Y-116369899D01*
X65132745Y-116504483D01*
X65229555Y-116622446D01*
X65259111Y-116646702D01*
X65597800Y-116985391D01*
X65597800Y-117654937D01*
X65541303Y-117701303D01*
X65437985Y-117827196D01*
X65361213Y-117970826D01*
X65313937Y-118126674D01*
X65297974Y-118288750D01*
X65297974Y-118723935D01*
X65259116Y-118762793D01*
X65229554Y-118787054D01*
X65132744Y-118905018D01*
X65060808Y-119039602D01*
X65018983Y-119177482D01*
X65016510Y-119185633D01*
X65001552Y-119337500D01*
X65005300Y-119375553D01*
X65005301Y-121834120D01*
X64939973Y-121869038D01*
X64813133Y-121973133D01*
X64709038Y-122099973D01*
X64631689Y-122244684D01*
X64584057Y-122401704D01*
X64567974Y-122565000D01*
X64567974Y-123815000D01*
X64584057Y-123978296D01*
X64631689Y-124135316D01*
X64709038Y-124280027D01*
X64813133Y-124406867D01*
X64939973Y-124510962D01*
X65010896Y-124548871D01*
X65016510Y-124605867D01*
X65060808Y-124751898D01*
X65132744Y-124886482D01*
X65229554Y-125004446D01*
X65259116Y-125028707D01*
X68691093Y-128460684D01*
X68715354Y-128490246D01*
X68833317Y-128587056D01*
X68930021Y-128638745D01*
X68967901Y-128658992D01*
X69059774Y-128686862D01*
X69059774Y-128739900D01*
X69071054Y-128854423D01*
X69104459Y-128964545D01*
X69158706Y-129066034D01*
X69231710Y-129154990D01*
X69320666Y-129227994D01*
X69422155Y-129282241D01*
X69532277Y-129315646D01*
X69646800Y-129326926D01*
X70053200Y-129326926D01*
X70167500Y-129315668D01*
X70281800Y-129326926D01*
X70345583Y-129326926D01*
X70354061Y-129413000D01*
X65829286Y-129413000D01*
X65734523Y-129384254D01*
X65620000Y-129372974D01*
X64109200Y-129372974D01*
X64109200Y-111252000D01*
X67805301Y-111252000D01*
X67805301Y-112944120D01*
X67805301Y-112944120D01*
G37*
X67805301Y-112944120D02*
X67739973Y-112979038D01*
X67613133Y-113083133D01*
X67509038Y-113209973D01*
X67431689Y-113354684D01*
X67384057Y-113511704D01*
X67367974Y-113675000D01*
X67367974Y-114925000D01*
X67384057Y-115088296D01*
X67431689Y-115245316D01*
X67509038Y-115390027D01*
X67613133Y-115516867D01*
X67739973Y-115620962D01*
X67884684Y-115698311D01*
X68041704Y-115745943D01*
X68205000Y-115762026D01*
X68955000Y-115762026D01*
X69118296Y-115745943D01*
X69275316Y-115698311D01*
X69420027Y-115620962D01*
X69546867Y-115516867D01*
X69650962Y-115390027D01*
X69728311Y-115245316D01*
X69775943Y-115088296D01*
X69792026Y-114925000D01*
X69792026Y-113675000D01*
X69775943Y-113511704D01*
X69728311Y-113354684D01*
X69650962Y-113209973D01*
X69546867Y-113083133D01*
X69420027Y-112979038D01*
X69354700Y-112944120D01*
X69354700Y-111252000D01*
X77711301Y-111252000D01*
X77711300Y-112940913D01*
X77639973Y-112979038D01*
X77513133Y-113083133D01*
X77409038Y-113209973D01*
X77331689Y-113354684D01*
X77284057Y-113511704D01*
X77267974Y-113675000D01*
X77267974Y-114925000D01*
X77284057Y-115088296D01*
X77331689Y-115245316D01*
X77409038Y-115390027D01*
X77513133Y-115516867D01*
X77639973Y-115620962D01*
X77784684Y-115698311D01*
X77941704Y-115745943D01*
X78105000Y-115762026D01*
X78855000Y-115762026D01*
X79018296Y-115745943D01*
X79175316Y-115698311D01*
X79320027Y-115620962D01*
X79446867Y-115516867D01*
X79550962Y-115390027D01*
X79628311Y-115245316D01*
X79675943Y-115088296D01*
X79692026Y-114925000D01*
X79692026Y-113675000D01*
X79675943Y-113511704D01*
X79628311Y-113354684D01*
X79550962Y-113209973D01*
X79446867Y-113083133D01*
X79320027Y-112979038D01*
X79260700Y-112947327D01*
X79260700Y-111318891D01*
X79327591Y-111252000D01*
X84502409Y-111252000D01*
X83674111Y-112080298D01*
X83644555Y-112104554D01*
X83547745Y-112222517D01*
X83475809Y-112357101D01*
X83431510Y-112503133D01*
X83416552Y-112655000D01*
X83420301Y-112693063D01*
X83420301Y-112944120D01*
X83354973Y-112979038D01*
X83228133Y-113083133D01*
X83124038Y-113209973D01*
X83046689Y-113354684D01*
X82999057Y-113511704D01*
X82982974Y-113675000D01*
X82982974Y-114925000D01*
X82999057Y-115088296D01*
X83046689Y-115245316D01*
X83124038Y-115390027D01*
X83228133Y-115516867D01*
X83354973Y-115620962D01*
X83499684Y-115698311D01*
X83656704Y-115745943D01*
X83820000Y-115762026D01*
X84570000Y-115762026D01*
X84733296Y-115745943D01*
X84890316Y-115698311D01*
X85035027Y-115620962D01*
X85161867Y-115516867D01*
X85265962Y-115390027D01*
X85343311Y-115245316D01*
X85390943Y-115088296D01*
X85407026Y-114925000D01*
X85407026Y-113675000D01*
X85390943Y-113511704D01*
X85343311Y-113354684D01*
X85265962Y-113209973D01*
X85161867Y-113083133D01*
X85035027Y-112979038D01*
X84990404Y-112955187D01*
X86693591Y-111252000D01*
X88290800Y-111252000D01*
X88290801Y-129372974D01*
X86780000Y-129372974D01*
X86665477Y-129384254D01*
X86570714Y-129413000D01*
X83315939Y-129413000D01*
X83324700Y-129324053D01*
X83324700Y-129324052D01*
X83328448Y-129286001D01*
X83324700Y-129247948D01*
X83324700Y-128868420D01*
X83328946Y-128854423D01*
X83340226Y-128739900D01*
X83340226Y-127139700D01*
X83328946Y-127025177D01*
X83295541Y-126915055D01*
X83241294Y-126813566D01*
X83168290Y-126724610D01*
X83100398Y-126668893D01*
X83899592Y-125869700D01*
X85051947Y-125869700D01*
X85090000Y-125873448D01*
X85128053Y-125869700D01*
X85241868Y-125858490D01*
X85387899Y-125814192D01*
X85522483Y-125742256D01*
X85640446Y-125645446D01*
X85664707Y-125615884D01*
X86628565Y-124652026D01*
X87370000Y-124652026D01*
X87533296Y-124635943D01*
X87690316Y-124588311D01*
X87835027Y-124510962D01*
X87961867Y-124406867D01*
X88065962Y-124280027D01*
X88143311Y-124135316D01*
X88190943Y-123978296D01*
X88207026Y-123815000D01*
X88207026Y-122565000D01*
X88190943Y-122401704D01*
X88143311Y-122244684D01*
X88065962Y-122099973D01*
X87961867Y-121973133D01*
X87835027Y-121869038D01*
X87690316Y-121791689D01*
X87533296Y-121744057D01*
X87370000Y-121727974D01*
X86620000Y-121727974D01*
X86456704Y-121744057D01*
X86301794Y-121791049D01*
X86402446Y-121708446D01*
X86426707Y-121678884D01*
X87183391Y-120922201D01*
X87212946Y-120897946D01*
X87309756Y-120779983D01*
X87381692Y-120645399D01*
X87425990Y-120499368D01*
X87437200Y-120385553D01*
X87437200Y-120385552D01*
X87440948Y-120347501D01*
X87437200Y-120309448D01*
X87437200Y-119835063D01*
X87493697Y-119788697D01*
X87597015Y-119662804D01*
X87673787Y-119519174D01*
X87721063Y-119363326D01*
X87737026Y-119201250D01*
X87737026Y-118288750D01*
X87721063Y-118126674D01*
X87673787Y-117970826D01*
X87597015Y-117827196D01*
X87493697Y-117701303D01*
X87437200Y-117654937D01*
X87437200Y-116858391D01*
X87515884Y-116779707D01*
X87545446Y-116755446D01*
X87642256Y-116637483D01*
X87714192Y-116502899D01*
X87758490Y-116356868D01*
X87769700Y-116243053D01*
X87773448Y-116205001D01*
X87769700Y-116166948D01*
X87769700Y-115655880D01*
X87835027Y-115620962D01*
X87961867Y-115516867D01*
X88065962Y-115390027D01*
X88143311Y-115245316D01*
X88190943Y-115088296D01*
X88207026Y-114925000D01*
X88207026Y-113675000D01*
X88190943Y-113511704D01*
X88143311Y-113354684D01*
X88065962Y-113209973D01*
X87961867Y-113083133D01*
X87835027Y-112979038D01*
X87690316Y-112901689D01*
X87533296Y-112854057D01*
X87370000Y-112837974D01*
X86620000Y-112837974D01*
X86456704Y-112854057D01*
X86299684Y-112901689D01*
X86154973Y-112979038D01*
X86028133Y-113083133D01*
X85924038Y-113209973D01*
X85846689Y-113354684D01*
X85799057Y-113511704D01*
X85782974Y-113675000D01*
X85782974Y-114925000D01*
X85799057Y-115088296D01*
X85846689Y-115245316D01*
X85924038Y-115390027D01*
X86028133Y-115516867D01*
X86154973Y-115620962D01*
X86220301Y-115655880D01*
X86220301Y-115884108D01*
X86141616Y-115962793D01*
X86112054Y-115987054D01*
X86015244Y-116105018D01*
X85943308Y-116239602D01*
X85907736Y-116356868D01*
X85899010Y-116385633D01*
X85884052Y-116537500D01*
X85887800Y-116575553D01*
X85887801Y-117654937D01*
X85831303Y-117701303D01*
X85727985Y-117827196D01*
X85725000Y-117832781D01*
X85722015Y-117827196D01*
X85618697Y-117701303D01*
X85492804Y-117597985D01*
X85349174Y-117521213D01*
X85193326Y-117473937D01*
X85031250Y-117457974D01*
X84543750Y-117457974D01*
X84381674Y-117473937D01*
X84225826Y-117521213D01*
X84082196Y-117597985D01*
X83956303Y-117701303D01*
X83852985Y-117827196D01*
X83776494Y-117970300D01*
X81958506Y-117970300D01*
X81882015Y-117827196D01*
X81778697Y-117701303D01*
X81652804Y-117597985D01*
X81509174Y-117521213D01*
X81353326Y-117473937D01*
X81191250Y-117457974D01*
X80703750Y-117457974D01*
X80541674Y-117473937D01*
X80385826Y-117521213D01*
X80242196Y-117597985D01*
X80116303Y-117701303D01*
X80012985Y-117827196D01*
X80010000Y-117832781D01*
X80007015Y-117827196D01*
X79903697Y-117701303D01*
X79847200Y-117654937D01*
X79847200Y-117360700D01*
X80479947Y-117360700D01*
X80518000Y-117364448D01*
X80556053Y-117360700D01*
X80669868Y-117349490D01*
X80815899Y-117305192D01*
X80950483Y-117233256D01*
X81068446Y-117136446D01*
X81092707Y-117106884D01*
X81800884Y-116398707D01*
X81830446Y-116374446D01*
X81927256Y-116256483D01*
X81999192Y-116121899D01*
X82043490Y-115975868D01*
X82054700Y-115862053D01*
X82058448Y-115824000D01*
X82054700Y-115785947D01*
X82054700Y-115655880D01*
X82120027Y-115620962D01*
X82246867Y-115516867D01*
X82350962Y-115390027D01*
X82428311Y-115245316D01*
X82475943Y-115088296D01*
X82492026Y-114925000D01*
X82492026Y-113675000D01*
X82475943Y-113511704D01*
X82428311Y-113354684D01*
X82350962Y-113209973D01*
X82246867Y-113083133D01*
X82120027Y-112979038D01*
X81975316Y-112901689D01*
X81818296Y-112854057D01*
X81655000Y-112837974D01*
X80905000Y-112837974D01*
X80741704Y-112854057D01*
X80584684Y-112901689D01*
X80439973Y-112979038D01*
X80313133Y-113083133D01*
X80209038Y-113209973D01*
X80131689Y-113354684D01*
X80084057Y-113511704D01*
X80067974Y-113675000D01*
X80067974Y-114925000D01*
X80084057Y-115088296D01*
X80131689Y-115245316D01*
X80209038Y-115390027D01*
X80313133Y-115516867D01*
X80411123Y-115597286D01*
X80197109Y-115811300D01*
X79540053Y-115811300D01*
X79502000Y-115807552D01*
X79463947Y-115811300D01*
X79350132Y-115822510D01*
X79204101Y-115866808D01*
X79069517Y-115938744D01*
X78951554Y-116035554D01*
X78927289Y-116065121D01*
X78551616Y-116440793D01*
X78522054Y-116465054D01*
X78425244Y-116583018D01*
X78353308Y-116717602D01*
X78330985Y-116791192D01*
X78309010Y-116863633D01*
X78294052Y-117015500D01*
X78297800Y-117053553D01*
X78297800Y-117654937D01*
X78241303Y-117701303D01*
X78137985Y-117827196D01*
X78061213Y-117970826D01*
X78013937Y-118126674D01*
X77997974Y-118288750D01*
X77997974Y-118723935D01*
X77959116Y-118762793D01*
X77929554Y-118787054D01*
X77832744Y-118905018D01*
X77760808Y-119039602D01*
X77718983Y-119177482D01*
X77716510Y-119185633D01*
X77701552Y-119337500D01*
X77705300Y-119375553D01*
X77705301Y-121834120D01*
X77639973Y-121869038D01*
X77513133Y-121973133D01*
X77409038Y-122099973D01*
X77331689Y-122244684D01*
X77284057Y-122401704D01*
X77267974Y-122565000D01*
X77267974Y-123815000D01*
X77284057Y-123978296D01*
X77330301Y-124130740D01*
X77330300Y-127011179D01*
X77326054Y-127025177D01*
X77314774Y-127139700D01*
X77314774Y-128739900D01*
X77317276Y-128765300D01*
X76974700Y-128765300D01*
X76974700Y-120433045D01*
X76978447Y-120394999D01*
X76974700Y-120356954D01*
X76974700Y-120356947D01*
X76963490Y-120243132D01*
X76919192Y-120097101D01*
X76847256Y-119962517D01*
X76750446Y-119844554D01*
X76720885Y-119820294D01*
X75124707Y-118224116D01*
X75100446Y-118194554D01*
X75021356Y-118129646D01*
X75021063Y-118126674D01*
X74973787Y-117970826D01*
X74897015Y-117827196D01*
X74793697Y-117701303D01*
X74667804Y-117597985D01*
X74524174Y-117521213D01*
X74368326Y-117473937D01*
X74206250Y-117457974D01*
X73718750Y-117457974D01*
X73556674Y-117473937D01*
X73400826Y-117521213D01*
X73257196Y-117597985D01*
X73131303Y-117701303D01*
X73027985Y-117827196D01*
X73025000Y-117832781D01*
X73022015Y-117827196D01*
X72918697Y-117701303D01*
X72862200Y-117654937D01*
X72862200Y-116828391D01*
X73928565Y-115762026D01*
X74670000Y-115762026D01*
X74833296Y-115745943D01*
X74990316Y-115698311D01*
X75135027Y-115620962D01*
X75261867Y-115516867D01*
X75365962Y-115390027D01*
X75443311Y-115245316D01*
X75490943Y-115088296D01*
X75507026Y-114925000D01*
X75507026Y-113675000D01*
X75490943Y-113511704D01*
X75443311Y-113354684D01*
X75365962Y-113209973D01*
X75261867Y-113083133D01*
X75135027Y-112979038D01*
X74990316Y-112901689D01*
X74833296Y-112854057D01*
X74670000Y-112837974D01*
X73920000Y-112837974D01*
X73756704Y-112854057D01*
X73599684Y-112901689D01*
X73454973Y-112979038D01*
X73328133Y-113083133D01*
X73224038Y-113209973D01*
X73146689Y-113354684D01*
X73099057Y-113511704D01*
X73082974Y-113675000D01*
X73082974Y-114416435D01*
X72707026Y-114792383D01*
X72707026Y-113675000D01*
X72690943Y-113511704D01*
X72643311Y-113354684D01*
X72565962Y-113209973D01*
X72461867Y-113083133D01*
X72335027Y-112979038D01*
X72190316Y-112901689D01*
X72033296Y-112854057D01*
X71870000Y-112837974D01*
X71120000Y-112837974D01*
X70956704Y-112854057D01*
X70799684Y-112901689D01*
X70654973Y-112979038D01*
X70528133Y-113083133D01*
X70424038Y-113209973D01*
X70346689Y-113354684D01*
X70299057Y-113511704D01*
X70282974Y-113675000D01*
X70282974Y-114925000D01*
X70299057Y-115088296D01*
X70346689Y-115245316D01*
X70424038Y-115390027D01*
X70528133Y-115516867D01*
X70654973Y-115620962D01*
X70799684Y-115698311D01*
X70956704Y-115745943D01*
X71120000Y-115762026D01*
X71737383Y-115762026D01*
X71566616Y-115932793D01*
X71537054Y-115957054D01*
X71440244Y-116075018D01*
X71368308Y-116209602D01*
X71324010Y-116355632D01*
X71324010Y-116355633D01*
X71309052Y-116507500D01*
X71312800Y-116545553D01*
X71312801Y-117654937D01*
X71256303Y-117701303D01*
X71152985Y-117827196D01*
X71076213Y-117970826D01*
X71028937Y-118126674D01*
X71012974Y-118288750D01*
X71012974Y-118723935D01*
X70974116Y-118762793D01*
X70944554Y-118787054D01*
X70847744Y-118905018D01*
X70775808Y-119039602D01*
X70733983Y-119177482D01*
X70731510Y-119185633D01*
X70716552Y-119337500D01*
X70720300Y-119375553D01*
X70720301Y-121834120D01*
X70654973Y-121869038D01*
X70528133Y-121973133D01*
X70424038Y-122099973D01*
X70346689Y-122244684D01*
X70299057Y-122401704D01*
X70282974Y-122565000D01*
X70282974Y-123815000D01*
X70299057Y-123978296D01*
X70346689Y-124135316D01*
X70424038Y-124280027D01*
X70528133Y-124406867D01*
X70654973Y-124510962D01*
X70720300Y-124545880D01*
X70720300Y-125190647D01*
X70716552Y-125228700D01*
X70720300Y-125266752D01*
X70731510Y-125380567D01*
X70775808Y-125526598D01*
X70814411Y-125598820D01*
X69580940Y-124365349D01*
X69650962Y-124280027D01*
X69728311Y-124135316D01*
X69775943Y-123978296D01*
X69792026Y-123815000D01*
X69792026Y-122565000D01*
X69775943Y-122401704D01*
X69728311Y-122244684D01*
X69650962Y-122099973D01*
X69546867Y-121973133D01*
X69420027Y-121869038D01*
X69275316Y-121791689D01*
X69118296Y-121744057D01*
X68955000Y-121727974D01*
X68205000Y-121727974D01*
X68041704Y-121744057D01*
X67884684Y-121791689D01*
X67739973Y-121869038D01*
X67613133Y-121973133D01*
X67509038Y-122099973D01*
X67431689Y-122244684D01*
X67384057Y-122401704D01*
X67367974Y-122565000D01*
X67367974Y-123815000D01*
X67384057Y-123978296D01*
X67431689Y-124135316D01*
X67509038Y-124280027D01*
X67613133Y-124406867D01*
X67739973Y-124510962D01*
X67810272Y-124548538D01*
X67816510Y-124611867D01*
X67860808Y-124757898D01*
X67932744Y-124892482D01*
X68029554Y-125010446D01*
X68059116Y-125034707D01*
X69583334Y-126558925D01*
X69532277Y-126563954D01*
X69422155Y-126597359D01*
X69320666Y-126651606D01*
X69231710Y-126724610D01*
X69193167Y-126771576D01*
X66783645Y-124362054D01*
X66850962Y-124280027D01*
X66928311Y-124135316D01*
X66975943Y-123978296D01*
X66992026Y-123815000D01*
X66992026Y-122565000D01*
X66975943Y-122401704D01*
X66928311Y-122244684D01*
X66850962Y-122099973D01*
X66746867Y-121973133D01*
X66620027Y-121869038D01*
X66554700Y-121834120D01*
X66554700Y-120032026D01*
X66616250Y-120032026D01*
X66778326Y-120016063D01*
X66934174Y-119968787D01*
X67077804Y-119892015D01*
X67203697Y-119788697D01*
X67307015Y-119662804D01*
X67310000Y-119657219D01*
X67312985Y-119662804D01*
X67416303Y-119788697D01*
X67542196Y-119892015D01*
X67685826Y-119968787D01*
X67841674Y-120016063D01*
X68003750Y-120032026D01*
X68491250Y-120032026D01*
X68653326Y-120016063D01*
X68809174Y-119968787D01*
X68952804Y-119892015D01*
X69078697Y-119788697D01*
X69182015Y-119662804D01*
X69258787Y-119519174D01*
X69306063Y-119363326D01*
X69322026Y-119201250D01*
X69322026Y-118288750D01*
X69306063Y-118126674D01*
X69258787Y-117970826D01*
X69182015Y-117827196D01*
X69078697Y-117701303D01*
X68952804Y-117597985D01*
X68809174Y-117521213D01*
X68653326Y-117473937D01*
X68491250Y-117457974D01*
X68003750Y-117457974D01*
X67841674Y-117473937D01*
X67685826Y-117521213D01*
X67542196Y-117597985D01*
X67416303Y-117701303D01*
X67312985Y-117827196D01*
X67310000Y-117832781D01*
X67307015Y-117827196D01*
X67203697Y-117701303D01*
X67147200Y-117654937D01*
X67147200Y-116702556D01*
X67150948Y-116664500D01*
X67135991Y-116512632D01*
X67091692Y-116366601D01*
X67086490Y-116356868D01*
X67019756Y-116232017D01*
X66922946Y-116114054D01*
X66893385Y-116089794D01*
X66554700Y-115751109D01*
X66554700Y-115655880D01*
X66620027Y-115620962D01*
X66746867Y-115516867D01*
X66850962Y-115390027D01*
X66928311Y-115245316D01*
X66975943Y-115088296D01*
X66992026Y-114925000D01*
X66992026Y-113675000D01*
X66975943Y-113511704D01*
X66928311Y-113354684D01*
X66850962Y-113209973D01*
X66746867Y-113083133D01*
X66620027Y-112979038D01*
X66475316Y-112901689D01*
X66318296Y-112854057D01*
X66155000Y-112837974D01*
X65405000Y-112837974D01*
X65241704Y-112854057D01*
X65084684Y-112901689D01*
X64939973Y-112979038D01*
X64813133Y-113083133D01*
X64709038Y-113209973D01*
X64631689Y-113354684D01*
X64584057Y-113511704D01*
X64567974Y-113675000D01*
X64567974Y-114925000D01*
X64584057Y-115088296D01*
X64631689Y-115245316D01*
X64709038Y-115390027D01*
X64813133Y-115516867D01*
X64939973Y-115620962D01*
X65005301Y-115655880D01*
X65005301Y-116033937D01*
X65001552Y-116072000D01*
X65016510Y-116223867D01*
X65038485Y-116296308D01*
X65060809Y-116369899D01*
X65132745Y-116504483D01*
X65229555Y-116622446D01*
X65259111Y-116646702D01*
X65597800Y-116985391D01*
X65597800Y-117654937D01*
X65541303Y-117701303D01*
X65437985Y-117827196D01*
X65361213Y-117970826D01*
X65313937Y-118126674D01*
X65297974Y-118288750D01*
X65297974Y-118723935D01*
X65259116Y-118762793D01*
X65229554Y-118787054D01*
X65132744Y-118905018D01*
X65060808Y-119039602D01*
X65018983Y-119177482D01*
X65016510Y-119185633D01*
X65001552Y-119337500D01*
X65005300Y-119375553D01*
X65005301Y-121834120D01*
X64939973Y-121869038D01*
X64813133Y-121973133D01*
X64709038Y-122099973D01*
X64631689Y-122244684D01*
X64584057Y-122401704D01*
X64567974Y-122565000D01*
X64567974Y-123815000D01*
X64584057Y-123978296D01*
X64631689Y-124135316D01*
X64709038Y-124280027D01*
X64813133Y-124406867D01*
X64939973Y-124510962D01*
X65010896Y-124548871D01*
X65016510Y-124605867D01*
X65060808Y-124751898D01*
X65132744Y-124886482D01*
X65229554Y-125004446D01*
X65259116Y-125028707D01*
X68691093Y-128460684D01*
X68715354Y-128490246D01*
X68833317Y-128587056D01*
X68930021Y-128638745D01*
X68967901Y-128658992D01*
X69059774Y-128686862D01*
X69059774Y-128739900D01*
X69071054Y-128854423D01*
X69104459Y-128964545D01*
X69158706Y-129066034D01*
X69231710Y-129154990D01*
X69320666Y-129227994D01*
X69422155Y-129282241D01*
X69532277Y-129315646D01*
X69646800Y-129326926D01*
X70053200Y-129326926D01*
X70167500Y-129315668D01*
X70281800Y-129326926D01*
X70345583Y-129326926D01*
X70354061Y-129413000D01*
X65829286Y-129413000D01*
X65734523Y-129384254D01*
X65620000Y-129372974D01*
X64109200Y-129372974D01*
X64109200Y-111252000D01*
X67805301Y-111252000D01*
X67805301Y-112944120D01*
G36*
X75425301Y-128711109D02*
G01*
X75371109Y-128765300D01*
X75082724Y-128765300D01*
X75085226Y-128739900D01*
X75085226Y-127139700D01*
X75073946Y-127025177D01*
X75040541Y-126915055D01*
X74986294Y-126813566D01*
X74913290Y-126724610D01*
X74824334Y-126651606D01*
X74722845Y-126597359D01*
X74612723Y-126563954D01*
X74498200Y-126552674D01*
X74434700Y-126552674D01*
X74434700Y-124652026D01*
X74670000Y-124652026D01*
X74833296Y-124635943D01*
X74990316Y-124588311D01*
X75135027Y-124510962D01*
X75261867Y-124406867D01*
X75365962Y-124280027D01*
X75425300Y-124169012D01*
X75425301Y-128711109D01*
X75425301Y-128711109D01*
G37*
X75425301Y-128711109D02*
X75371109Y-128765300D01*
X75082724Y-128765300D01*
X75085226Y-128739900D01*
X75085226Y-127139700D01*
X75073946Y-127025177D01*
X75040541Y-126915055D01*
X74986294Y-126813566D01*
X74913290Y-126724610D01*
X74824334Y-126651606D01*
X74722845Y-126597359D01*
X74612723Y-126563954D01*
X74498200Y-126552674D01*
X74434700Y-126552674D01*
X74434700Y-124652026D01*
X74670000Y-124652026D01*
X74833296Y-124635943D01*
X74990316Y-124588311D01*
X75135027Y-124510962D01*
X75261867Y-124406867D01*
X75365962Y-124280027D01*
X75425300Y-124169012D01*
X75425301Y-128711109D01*
G36*
X80759111Y-125530298D02*
G01*
X80729555Y-125554554D01*
X80632745Y-125672517D01*
X80622360Y-125691947D01*
X80560809Y-125807101D01*
X80516510Y-125953133D01*
X80501552Y-126105000D01*
X80505301Y-126143063D01*
X80505301Y-126552674D01*
X80441800Y-126552674D01*
X80327500Y-126563932D01*
X80213200Y-126552674D01*
X79806800Y-126552674D01*
X79692500Y-126563932D01*
X79578200Y-126552674D01*
X79514700Y-126552674D01*
X79514700Y-126050891D01*
X80913565Y-124652026D01*
X81637383Y-124652026D01*
X80759111Y-125530298D01*
X80759111Y-125530298D01*
G37*
X80759111Y-125530298D02*
X80729555Y-125554554D01*
X80632745Y-125672517D01*
X80622360Y-125691947D01*
X80560809Y-125807101D01*
X80516510Y-125953133D01*
X80501552Y-126105000D01*
X80505301Y-126143063D01*
X80505301Y-126552674D01*
X80441800Y-126552674D01*
X80327500Y-126563932D01*
X80213200Y-126552674D01*
X79806800Y-126552674D01*
X79692500Y-126563932D01*
X79578200Y-126552674D01*
X79514700Y-126552674D01*
X79514700Y-126050891D01*
X80913565Y-124652026D01*
X81637383Y-124652026D01*
X80759111Y-125530298D01*
G36*
X71723383Y-126552674D02*
G01*
X71551800Y-126552674D01*
X71437500Y-126563932D01*
X71323200Y-126552674D01*
X71259700Y-126552674D01*
X71259700Y-126403053D01*
X71263448Y-126365000D01*
X71248490Y-126213132D01*
X71204192Y-126067100D01*
X71183238Y-126027899D01*
X71165590Y-125994881D01*
X71723383Y-126552674D01*
X71723383Y-126552674D01*
G37*
X71723383Y-126552674D02*
X71551800Y-126552674D01*
X71437500Y-126563932D01*
X71323200Y-126552674D01*
X71259700Y-126552674D01*
X71259700Y-126403053D01*
X71263448Y-126365000D01*
X71248490Y-126213132D01*
X71204192Y-126067100D01*
X71183238Y-126027899D01*
X71165590Y-125994881D01*
X71723383Y-126552674D01*
G36*
X73027985Y-119662804D02*
G01*
X73131303Y-119788697D01*
X73257196Y-119892015D01*
X73400826Y-119968787D01*
X73556674Y-120016063D01*
X73718750Y-120032026D01*
X74206250Y-120032026D01*
X74368326Y-120016063D01*
X74524174Y-119968787D01*
X74624546Y-119915137D01*
X75425300Y-120715891D01*
X75425300Y-122210988D01*
X75365962Y-122099973D01*
X75261867Y-121973133D01*
X75135027Y-121869038D01*
X74990316Y-121791689D01*
X74833296Y-121744057D01*
X74670000Y-121727974D01*
X73920000Y-121727974D01*
X73756704Y-121744057D01*
X73599684Y-121791689D01*
X73454973Y-121869038D01*
X73328133Y-121973133D01*
X73224038Y-122099973D01*
X73146689Y-122244684D01*
X73099057Y-122401704D01*
X73082974Y-122565000D01*
X73082974Y-123306943D01*
X73012745Y-123392517D01*
X73001726Y-123413133D01*
X72940809Y-123527101D01*
X72896510Y-123673133D01*
X72881552Y-123825000D01*
X72885301Y-123863063D01*
X72885301Y-125523410D01*
X72269700Y-124907809D01*
X72269700Y-124545880D01*
X72335027Y-124510962D01*
X72461867Y-124406867D01*
X72565962Y-124280027D01*
X72643311Y-124135316D01*
X72690943Y-123978296D01*
X72707026Y-123815000D01*
X72707026Y-122565000D01*
X72690943Y-122401704D01*
X72643311Y-122244684D01*
X72565962Y-122099973D01*
X72461867Y-121973133D01*
X72335027Y-121869038D01*
X72269700Y-121834120D01*
X72269700Y-120032026D01*
X72331250Y-120032026D01*
X72493326Y-120016063D01*
X72649174Y-119968787D01*
X72792804Y-119892015D01*
X72918697Y-119788697D01*
X73022015Y-119662804D01*
X73025000Y-119657219D01*
X73027985Y-119662804D01*
X73027985Y-119662804D01*
G37*
X73027985Y-119662804D02*
X73131303Y-119788697D01*
X73257196Y-119892015D01*
X73400826Y-119968787D01*
X73556674Y-120016063D01*
X73718750Y-120032026D01*
X74206250Y-120032026D01*
X74368326Y-120016063D01*
X74524174Y-119968787D01*
X74624546Y-119915137D01*
X75425300Y-120715891D01*
X75425300Y-122210988D01*
X75365962Y-122099973D01*
X75261867Y-121973133D01*
X75135027Y-121869038D01*
X74990316Y-121791689D01*
X74833296Y-121744057D01*
X74670000Y-121727974D01*
X73920000Y-121727974D01*
X73756704Y-121744057D01*
X73599684Y-121791689D01*
X73454973Y-121869038D01*
X73328133Y-121973133D01*
X73224038Y-122099973D01*
X73146689Y-122244684D01*
X73099057Y-122401704D01*
X73082974Y-122565000D01*
X73082974Y-123306943D01*
X73012745Y-123392517D01*
X73001726Y-123413133D01*
X72940809Y-123527101D01*
X72896510Y-123673133D01*
X72881552Y-123825000D01*
X72885301Y-123863063D01*
X72885301Y-125523410D01*
X72269700Y-124907809D01*
X72269700Y-124545880D01*
X72335027Y-124510962D01*
X72461867Y-124406867D01*
X72565962Y-124280027D01*
X72643311Y-124135316D01*
X72690943Y-123978296D01*
X72707026Y-123815000D01*
X72707026Y-122565000D01*
X72690943Y-122401704D01*
X72643311Y-122244684D01*
X72565962Y-122099973D01*
X72461867Y-121973133D01*
X72335027Y-121869038D01*
X72269700Y-121834120D01*
X72269700Y-120032026D01*
X72331250Y-120032026D01*
X72493326Y-120016063D01*
X72649174Y-119968787D01*
X72792804Y-119892015D01*
X72918697Y-119788697D01*
X73022015Y-119662804D01*
X73025000Y-119657219D01*
X73027985Y-119662804D01*
G36*
X83852985Y-119662804D02*
G01*
X83956303Y-119788697D01*
X84082196Y-119892015D01*
X84225826Y-119968787D01*
X84381674Y-120016063D01*
X84543750Y-120032026D01*
X85031250Y-120032026D01*
X85193326Y-120016063D01*
X85349174Y-119968787D01*
X85492804Y-119892015D01*
X85618697Y-119788697D01*
X85722015Y-119662804D01*
X85725000Y-119657219D01*
X85727985Y-119662804D01*
X85831303Y-119788697D01*
X85887800Y-119835063D01*
X85887800Y-120026608D01*
X85531109Y-120383300D01*
X84747053Y-120383300D01*
X84709000Y-120379552D01*
X84670947Y-120383300D01*
X84557132Y-120394510D01*
X84411101Y-120438808D01*
X84276517Y-120510744D01*
X84158554Y-120607554D01*
X84134289Y-120637121D01*
X83674112Y-121097297D01*
X83644555Y-121121554D01*
X83547745Y-121239517D01*
X83510142Y-121309868D01*
X83475809Y-121374101D01*
X83431510Y-121520133D01*
X83416552Y-121672000D01*
X83420301Y-121710063D01*
X83420301Y-121834120D01*
X83354973Y-121869038D01*
X83228133Y-121973133D01*
X83124038Y-122099973D01*
X83046689Y-122244684D01*
X82999057Y-122401704D01*
X82982974Y-122565000D01*
X82982974Y-123306435D01*
X82492026Y-123797383D01*
X82492026Y-122565000D01*
X82475943Y-122401704D01*
X82428311Y-122244684D01*
X82350962Y-122099973D01*
X82246867Y-121973133D01*
X82120027Y-121869038D01*
X81975316Y-121791689D01*
X81818296Y-121744057D01*
X81655000Y-121727974D01*
X80905000Y-121727974D01*
X80741704Y-121744057D01*
X80584684Y-121791689D01*
X80439973Y-121869038D01*
X80313133Y-121973133D01*
X80209038Y-122099973D01*
X80131689Y-122244684D01*
X80084057Y-122401704D01*
X80067974Y-122565000D01*
X80067974Y-123306435D01*
X79692026Y-123682383D01*
X79692026Y-122565000D01*
X79675943Y-122401704D01*
X79628311Y-122244684D01*
X79550962Y-122099973D01*
X79446867Y-121973133D01*
X79320027Y-121869038D01*
X79254700Y-121834120D01*
X79254700Y-120032026D01*
X79316250Y-120032026D01*
X79478326Y-120016063D01*
X79634174Y-119968787D01*
X79777804Y-119892015D01*
X79903697Y-119788697D01*
X80007015Y-119662804D01*
X80010000Y-119657219D01*
X80012985Y-119662804D01*
X80116303Y-119788697D01*
X80242196Y-119892015D01*
X80385826Y-119968787D01*
X80541674Y-120016063D01*
X80703750Y-120032026D01*
X81191250Y-120032026D01*
X81353326Y-120016063D01*
X81509174Y-119968787D01*
X81652804Y-119892015D01*
X81778697Y-119788697D01*
X81882015Y-119662804D01*
X81958506Y-119519700D01*
X83776494Y-119519700D01*
X83852985Y-119662804D01*
X83852985Y-119662804D01*
G37*
X83852985Y-119662804D02*
X83956303Y-119788697D01*
X84082196Y-119892015D01*
X84225826Y-119968787D01*
X84381674Y-120016063D01*
X84543750Y-120032026D01*
X85031250Y-120032026D01*
X85193326Y-120016063D01*
X85349174Y-119968787D01*
X85492804Y-119892015D01*
X85618697Y-119788697D01*
X85722015Y-119662804D01*
X85725000Y-119657219D01*
X85727985Y-119662804D01*
X85831303Y-119788697D01*
X85887800Y-119835063D01*
X85887800Y-120026608D01*
X85531109Y-120383300D01*
X84747053Y-120383300D01*
X84709000Y-120379552D01*
X84670947Y-120383300D01*
X84557132Y-120394510D01*
X84411101Y-120438808D01*
X84276517Y-120510744D01*
X84158554Y-120607554D01*
X84134289Y-120637121D01*
X83674112Y-121097297D01*
X83644555Y-121121554D01*
X83547745Y-121239517D01*
X83510142Y-121309868D01*
X83475809Y-121374101D01*
X83431510Y-121520133D01*
X83416552Y-121672000D01*
X83420301Y-121710063D01*
X83420301Y-121834120D01*
X83354973Y-121869038D01*
X83228133Y-121973133D01*
X83124038Y-122099973D01*
X83046689Y-122244684D01*
X82999057Y-122401704D01*
X82982974Y-122565000D01*
X82982974Y-123306435D01*
X82492026Y-123797383D01*
X82492026Y-122565000D01*
X82475943Y-122401704D01*
X82428311Y-122244684D01*
X82350962Y-122099973D01*
X82246867Y-121973133D01*
X82120027Y-121869038D01*
X81975316Y-121791689D01*
X81818296Y-121744057D01*
X81655000Y-121727974D01*
X80905000Y-121727974D01*
X80741704Y-121744057D01*
X80584684Y-121791689D01*
X80439973Y-121869038D01*
X80313133Y-121973133D01*
X80209038Y-122099973D01*
X80131689Y-122244684D01*
X80084057Y-122401704D01*
X80067974Y-122565000D01*
X80067974Y-123306435D01*
X79692026Y-123682383D01*
X79692026Y-122565000D01*
X79675943Y-122401704D01*
X79628311Y-122244684D01*
X79550962Y-122099973D01*
X79446867Y-121973133D01*
X79320027Y-121869038D01*
X79254700Y-121834120D01*
X79254700Y-120032026D01*
X79316250Y-120032026D01*
X79478326Y-120016063D01*
X79634174Y-119968787D01*
X79777804Y-119892015D01*
X79903697Y-119788697D01*
X80007015Y-119662804D01*
X80010000Y-119657219D01*
X80012985Y-119662804D01*
X80116303Y-119788697D01*
X80242196Y-119892015D01*
X80385826Y-119968787D01*
X80541674Y-120016063D01*
X80703750Y-120032026D01*
X81191250Y-120032026D01*
X81353326Y-120016063D01*
X81509174Y-119968787D01*
X81652804Y-119892015D01*
X81778697Y-119788697D01*
X81882015Y-119662804D01*
X81958506Y-119519700D01*
X83776494Y-119519700D01*
X83852985Y-119662804D01*
G36*
X86028133Y-121973133D02*
G01*
X85924038Y-122099973D01*
X85846689Y-122244684D01*
X85799057Y-122401704D01*
X85782974Y-122565000D01*
X85782974Y-123306435D01*
X85407026Y-123682383D01*
X85407026Y-122565000D01*
X85390943Y-122401704D01*
X85343311Y-122244684D01*
X85265962Y-122099973D01*
X85161867Y-121973133D01*
X85112599Y-121932700D01*
X85813947Y-121932700D01*
X85852000Y-121936448D01*
X85890053Y-121932700D01*
X86003868Y-121921490D01*
X86142187Y-121879532D01*
X86028133Y-121973133D01*
X86028133Y-121973133D01*
G37*
X86028133Y-121973133D02*
X85924038Y-122099973D01*
X85846689Y-122244684D01*
X85799057Y-122401704D01*
X85782974Y-122565000D01*
X85782974Y-123306435D01*
X85407026Y-123682383D01*
X85407026Y-122565000D01*
X85390943Y-122401704D01*
X85343311Y-122244684D01*
X85265962Y-122099973D01*
X85161867Y-121973133D01*
X85112599Y-121932700D01*
X85813947Y-121932700D01*
X85852000Y-121936448D01*
X85890053Y-121932700D01*
X86003868Y-121921490D01*
X86142187Y-121879532D01*
X86028133Y-121973133D01*
G36*
X86145000Y-96234250D02*
G01*
X86303750Y-96393000D01*
X87503000Y-96393000D01*
X87503000Y-96373000D01*
X87757000Y-96373000D01*
X87757000Y-96393000D01*
X87777000Y-96393000D01*
X87777000Y-96647000D01*
X87757000Y-96647000D01*
X87757000Y-96667000D01*
X87503000Y-96667000D01*
X87503000Y-96647000D01*
X86303750Y-96647000D01*
X86145000Y-96805750D01*
X86141928Y-97370000D01*
X86154188Y-97494482D01*
X86190498Y-97614180D01*
X86249463Y-97724494D01*
X86328815Y-97821185D01*
X86425506Y-97900537D01*
X86535820Y-97959502D01*
X86655518Y-97995812D01*
X86664855Y-97996732D01*
X86610961Y-98040961D01*
X86431737Y-98259346D01*
X86298561Y-98508500D01*
X86216552Y-98778848D01*
X86188861Y-99060000D01*
X86216552Y-99341152D01*
X86298561Y-99611500D01*
X86431737Y-99860654D01*
X86610961Y-100079039D01*
X86829346Y-100258263D01*
X86916489Y-100304842D01*
X86748645Y-100404822D01*
X86532412Y-100599731D01*
X86358359Y-100833080D01*
X86233175Y-101095901D01*
X86188524Y-101243110D01*
X86309845Y-101473000D01*
X87503000Y-101473000D01*
X87503000Y-101453000D01*
X87757000Y-101453000D01*
X87757000Y-101473000D01*
X87777000Y-101473000D01*
X87777000Y-101727000D01*
X87757000Y-101727000D01*
X87757000Y-101747000D01*
X87503000Y-101747000D01*
X87503000Y-101727000D01*
X86309845Y-101727000D01*
X86188524Y-101956890D01*
X86233175Y-102104099D01*
X86358359Y-102366920D01*
X86532412Y-102600269D01*
X86748645Y-102795178D01*
X86916489Y-102895158D01*
X86829346Y-102941737D01*
X86610961Y-103120961D01*
X86431737Y-103339346D01*
X86417864Y-103365300D01*
X85382056Y-103365300D01*
X85344000Y-103361552D01*
X85192132Y-103376509D01*
X85046101Y-103420808D01*
X84911517Y-103492744D01*
X84793554Y-103589554D01*
X84769293Y-103619116D01*
X78025409Y-110363000D01*
X69354700Y-110363000D01*
X69354700Y-106785964D01*
X69358447Y-106747918D01*
X69354700Y-106709873D01*
X69354700Y-106709866D01*
X69343490Y-106596051D01*
X69299192Y-106450020D01*
X69227256Y-106315436D01*
X69130446Y-106197473D01*
X69100885Y-106173213D01*
X66546788Y-103619116D01*
X66522527Y-103589554D01*
X66404564Y-103492744D01*
X66269980Y-103420808D01*
X66123949Y-103376510D01*
X66010134Y-103365300D01*
X65980580Y-103362389D01*
X65968263Y-103339346D01*
X65789039Y-103120961D01*
X65570654Y-102941737D01*
X65483511Y-102895158D01*
X65651355Y-102795178D01*
X65867588Y-102600269D01*
X66041641Y-102366920D01*
X66166825Y-102104099D01*
X66211476Y-101956890D01*
X66090155Y-101727000D01*
X64897000Y-101727000D01*
X64897000Y-101747000D01*
X64643000Y-101747000D01*
X64643000Y-101727000D01*
X64623000Y-101727000D01*
X64623000Y-101473000D01*
X64643000Y-101473000D01*
X64643000Y-101453000D01*
X64897000Y-101453000D01*
X64897000Y-101473000D01*
X66090155Y-101473000D01*
X66211476Y-101243110D01*
X66166825Y-101095901D01*
X66041641Y-100833080D01*
X65867588Y-100599731D01*
X65651355Y-100404822D01*
X65483511Y-100304842D01*
X65570654Y-100258263D01*
X65789039Y-100079039D01*
X65968263Y-99860654D01*
X66101439Y-99611500D01*
X66116936Y-99560413D01*
X73974192Y-99560413D01*
X74069956Y-99824814D01*
X74359571Y-99965704D01*
X74671108Y-100047384D01*
X74992595Y-100066718D01*
X75311675Y-100022961D01*
X75616088Y-99917795D01*
X75790044Y-99824814D01*
X75885808Y-99560413D01*
X74930000Y-98604605D01*
X73974192Y-99560413D01*
X66116936Y-99560413D01*
X66183448Y-99341152D01*
X66211139Y-99060000D01*
X66183448Y-98778848D01*
X66101439Y-98508500D01*
X66090266Y-98487595D01*
X73288282Y-98487595D01*
X73332039Y-98806675D01*
X73437205Y-99111088D01*
X73530186Y-99285044D01*
X73794587Y-99380808D01*
X74750395Y-98425000D01*
X75109605Y-98425000D01*
X76065413Y-99380808D01*
X76176472Y-99340583D01*
X76239472Y-99434868D01*
X76460132Y-99655528D01*
X76719600Y-99828900D01*
X77007906Y-99948320D01*
X77313970Y-100009200D01*
X77626030Y-100009200D01*
X77932094Y-99948320D01*
X78220400Y-99828900D01*
X78479868Y-99655528D01*
X78700528Y-99434868D01*
X78873900Y-99175400D01*
X78993320Y-98887094D01*
X79054200Y-98581030D01*
X79054200Y-98268970D01*
X78993320Y-97962906D01*
X78873900Y-97674600D01*
X78700528Y-97415132D01*
X78479868Y-97194472D01*
X78220400Y-97021100D01*
X77932094Y-96901680D01*
X77626030Y-96840800D01*
X77313970Y-96840800D01*
X77007906Y-96901680D01*
X76719600Y-97021100D01*
X76460132Y-97194472D01*
X76239472Y-97415132D01*
X76176472Y-97509417D01*
X76065413Y-97469192D01*
X75109605Y-98425000D01*
X74750395Y-98425000D01*
X73794587Y-97469192D01*
X73530186Y-97564956D01*
X73389296Y-97854571D01*
X73307616Y-98166108D01*
X73288282Y-98487595D01*
X66090266Y-98487595D01*
X65968263Y-98259346D01*
X65789039Y-98040961D01*
X65735145Y-97996732D01*
X65744482Y-97995812D01*
X65864180Y-97959502D01*
X65974494Y-97900537D01*
X66071185Y-97821185D01*
X66150537Y-97724494D01*
X66209502Y-97614180D01*
X66245812Y-97494482D01*
X66258072Y-97370000D01*
X66257635Y-97289587D01*
X73974192Y-97289587D01*
X74930000Y-98245395D01*
X75885808Y-97289587D01*
X75790044Y-97025186D01*
X75500429Y-96884296D01*
X75188892Y-96802616D01*
X74867405Y-96783282D01*
X74548325Y-96827039D01*
X74243912Y-96932205D01*
X74069956Y-97025186D01*
X73974192Y-97289587D01*
X66257635Y-97289587D01*
X66255000Y-96805750D01*
X66096250Y-96647000D01*
X64897000Y-96647000D01*
X64897000Y-96667000D01*
X64643000Y-96667000D01*
X64643000Y-96647000D01*
X64623000Y-96647000D01*
X64623000Y-96393000D01*
X64643000Y-96393000D01*
X64643000Y-96373000D01*
X64897000Y-96373000D01*
X64897000Y-96393000D01*
X66096250Y-96393000D01*
X66255000Y-96234250D01*
X66257042Y-95859200D01*
X86142958Y-95859200D01*
X86145000Y-96234250D01*
X86145000Y-96234250D01*
G37*
X86145000Y-96234250D02*
X86303750Y-96393000D01*
X87503000Y-96393000D01*
X87503000Y-96373000D01*
X87757000Y-96373000D01*
X87757000Y-96393000D01*
X87777000Y-96393000D01*
X87777000Y-96647000D01*
X87757000Y-96647000D01*
X87757000Y-96667000D01*
X87503000Y-96667000D01*
X87503000Y-96647000D01*
X86303750Y-96647000D01*
X86145000Y-96805750D01*
X86141928Y-97370000D01*
X86154188Y-97494482D01*
X86190498Y-97614180D01*
X86249463Y-97724494D01*
X86328815Y-97821185D01*
X86425506Y-97900537D01*
X86535820Y-97959502D01*
X86655518Y-97995812D01*
X86664855Y-97996732D01*
X86610961Y-98040961D01*
X86431737Y-98259346D01*
X86298561Y-98508500D01*
X86216552Y-98778848D01*
X86188861Y-99060000D01*
X86216552Y-99341152D01*
X86298561Y-99611500D01*
X86431737Y-99860654D01*
X86610961Y-100079039D01*
X86829346Y-100258263D01*
X86916489Y-100304842D01*
X86748645Y-100404822D01*
X86532412Y-100599731D01*
X86358359Y-100833080D01*
X86233175Y-101095901D01*
X86188524Y-101243110D01*
X86309845Y-101473000D01*
X87503000Y-101473000D01*
X87503000Y-101453000D01*
X87757000Y-101453000D01*
X87757000Y-101473000D01*
X87777000Y-101473000D01*
X87777000Y-101727000D01*
X87757000Y-101727000D01*
X87757000Y-101747000D01*
X87503000Y-101747000D01*
X87503000Y-101727000D01*
X86309845Y-101727000D01*
X86188524Y-101956890D01*
X86233175Y-102104099D01*
X86358359Y-102366920D01*
X86532412Y-102600269D01*
X86748645Y-102795178D01*
X86916489Y-102895158D01*
X86829346Y-102941737D01*
X86610961Y-103120961D01*
X86431737Y-103339346D01*
X86417864Y-103365300D01*
X85382056Y-103365300D01*
X85344000Y-103361552D01*
X85192132Y-103376509D01*
X85046101Y-103420808D01*
X84911517Y-103492744D01*
X84793554Y-103589554D01*
X84769293Y-103619116D01*
X78025409Y-110363000D01*
X69354700Y-110363000D01*
X69354700Y-106785964D01*
X69358447Y-106747918D01*
X69354700Y-106709873D01*
X69354700Y-106709866D01*
X69343490Y-106596051D01*
X69299192Y-106450020D01*
X69227256Y-106315436D01*
X69130446Y-106197473D01*
X69100885Y-106173213D01*
X66546788Y-103619116D01*
X66522527Y-103589554D01*
X66404564Y-103492744D01*
X66269980Y-103420808D01*
X66123949Y-103376510D01*
X66010134Y-103365300D01*
X65980580Y-103362389D01*
X65968263Y-103339346D01*
X65789039Y-103120961D01*
X65570654Y-102941737D01*
X65483511Y-102895158D01*
X65651355Y-102795178D01*
X65867588Y-102600269D01*
X66041641Y-102366920D01*
X66166825Y-102104099D01*
X66211476Y-101956890D01*
X66090155Y-101727000D01*
X64897000Y-101727000D01*
X64897000Y-101747000D01*
X64643000Y-101747000D01*
X64643000Y-101727000D01*
X64623000Y-101727000D01*
X64623000Y-101473000D01*
X64643000Y-101473000D01*
X64643000Y-101453000D01*
X64897000Y-101453000D01*
X64897000Y-101473000D01*
X66090155Y-101473000D01*
X66211476Y-101243110D01*
X66166825Y-101095901D01*
X66041641Y-100833080D01*
X65867588Y-100599731D01*
X65651355Y-100404822D01*
X65483511Y-100304842D01*
X65570654Y-100258263D01*
X65789039Y-100079039D01*
X65968263Y-99860654D01*
X66101439Y-99611500D01*
X66116936Y-99560413D01*
X73974192Y-99560413D01*
X74069956Y-99824814D01*
X74359571Y-99965704D01*
X74671108Y-100047384D01*
X74992595Y-100066718D01*
X75311675Y-100022961D01*
X75616088Y-99917795D01*
X75790044Y-99824814D01*
X75885808Y-99560413D01*
X74930000Y-98604605D01*
X73974192Y-99560413D01*
X66116936Y-99560413D01*
X66183448Y-99341152D01*
X66211139Y-99060000D01*
X66183448Y-98778848D01*
X66101439Y-98508500D01*
X66090266Y-98487595D01*
X73288282Y-98487595D01*
X73332039Y-98806675D01*
X73437205Y-99111088D01*
X73530186Y-99285044D01*
X73794587Y-99380808D01*
X74750395Y-98425000D01*
X75109605Y-98425000D01*
X76065413Y-99380808D01*
X76176472Y-99340583D01*
X76239472Y-99434868D01*
X76460132Y-99655528D01*
X76719600Y-99828900D01*
X77007906Y-99948320D01*
X77313970Y-100009200D01*
X77626030Y-100009200D01*
X77932094Y-99948320D01*
X78220400Y-99828900D01*
X78479868Y-99655528D01*
X78700528Y-99434868D01*
X78873900Y-99175400D01*
X78993320Y-98887094D01*
X79054200Y-98581030D01*
X79054200Y-98268970D01*
X78993320Y-97962906D01*
X78873900Y-97674600D01*
X78700528Y-97415132D01*
X78479868Y-97194472D01*
X78220400Y-97021100D01*
X77932094Y-96901680D01*
X77626030Y-96840800D01*
X77313970Y-96840800D01*
X77007906Y-96901680D01*
X76719600Y-97021100D01*
X76460132Y-97194472D01*
X76239472Y-97415132D01*
X76176472Y-97509417D01*
X76065413Y-97469192D01*
X75109605Y-98425000D01*
X74750395Y-98425000D01*
X73794587Y-97469192D01*
X73530186Y-97564956D01*
X73389296Y-97854571D01*
X73307616Y-98166108D01*
X73288282Y-98487595D01*
X66090266Y-98487595D01*
X65968263Y-98259346D01*
X65789039Y-98040961D01*
X65735145Y-97996732D01*
X65744482Y-97995812D01*
X65864180Y-97959502D01*
X65974494Y-97900537D01*
X66071185Y-97821185D01*
X66150537Y-97724494D01*
X66209502Y-97614180D01*
X66245812Y-97494482D01*
X66258072Y-97370000D01*
X66257635Y-97289587D01*
X73974192Y-97289587D01*
X74930000Y-98245395D01*
X75885808Y-97289587D01*
X75790044Y-97025186D01*
X75500429Y-96884296D01*
X75188892Y-96802616D01*
X74867405Y-96783282D01*
X74548325Y-96827039D01*
X74243912Y-96932205D01*
X74069956Y-97025186D01*
X73974192Y-97289587D01*
X66257635Y-97289587D01*
X66255000Y-96805750D01*
X66096250Y-96647000D01*
X64897000Y-96647000D01*
X64897000Y-96667000D01*
X64643000Y-96667000D01*
X64643000Y-96647000D01*
X64623000Y-96647000D01*
X64623000Y-96393000D01*
X64643000Y-96393000D01*
X64643000Y-96373000D01*
X64897000Y-96373000D01*
X64897000Y-96393000D01*
X66096250Y-96393000D01*
X66255000Y-96234250D01*
X66257042Y-95859200D01*
X86142958Y-95859200D01*
X86145000Y-96234250D01*
G36*
X86431737Y-104940654D02*
G01*
X86610961Y-105159039D01*
X86829346Y-105338263D01*
X86916489Y-105384842D01*
X86748645Y-105484822D01*
X86532412Y-105679731D01*
X86358359Y-105913080D01*
X86233175Y-106175901D01*
X86188524Y-106323110D01*
X86309845Y-106553000D01*
X87503000Y-106553000D01*
X87503000Y-106533000D01*
X87757000Y-106533000D01*
X87757000Y-106553000D01*
X87777000Y-106553000D01*
X87777000Y-106807000D01*
X87757000Y-106807000D01*
X87757000Y-106827000D01*
X87503000Y-106827000D01*
X87503000Y-106807000D01*
X86309845Y-106807000D01*
X86188524Y-107036890D01*
X86233175Y-107184099D01*
X86358359Y-107446920D01*
X86532412Y-107680269D01*
X86748645Y-107875178D01*
X86916489Y-107975158D01*
X86829346Y-108021737D01*
X86610961Y-108200961D01*
X86431737Y-108419346D01*
X86298561Y-108668500D01*
X86216552Y-108938848D01*
X86188861Y-109220000D01*
X86216552Y-109501152D01*
X86225095Y-109529314D01*
X85391409Y-110363000D01*
X80216591Y-110363000D01*
X85664891Y-104914700D01*
X86417864Y-104914700D01*
X86431737Y-104940654D01*
X86431737Y-104940654D01*
G37*
X86431737Y-104940654D02*
X86610961Y-105159039D01*
X86829346Y-105338263D01*
X86916489Y-105384842D01*
X86748645Y-105484822D01*
X86532412Y-105679731D01*
X86358359Y-105913080D01*
X86233175Y-106175901D01*
X86188524Y-106323110D01*
X86309845Y-106553000D01*
X87503000Y-106553000D01*
X87503000Y-106533000D01*
X87757000Y-106533000D01*
X87757000Y-106553000D01*
X87777000Y-106553000D01*
X87777000Y-106807000D01*
X87757000Y-106807000D01*
X87757000Y-106827000D01*
X87503000Y-106827000D01*
X87503000Y-106807000D01*
X86309845Y-106807000D01*
X86188524Y-107036890D01*
X86233175Y-107184099D01*
X86358359Y-107446920D01*
X86532412Y-107680269D01*
X86748645Y-107875178D01*
X86916489Y-107975158D01*
X86829346Y-108021737D01*
X86610961Y-108200961D01*
X86431737Y-108419346D01*
X86298561Y-108668500D01*
X86216552Y-108938848D01*
X86188861Y-109220000D01*
X86216552Y-109501152D01*
X86225095Y-109529314D01*
X85391409Y-110363000D01*
X80216591Y-110363000D01*
X85664891Y-104914700D01*
X86417864Y-104914700D01*
X86431737Y-104940654D01*
G36*
X67805300Y-107068810D02*
G01*
X67805301Y-110363000D01*
X65637992Y-110363000D01*
X65789039Y-110239039D01*
X65968263Y-110020654D01*
X66101439Y-109771500D01*
X66183448Y-109501152D01*
X66211139Y-109220000D01*
X66183448Y-108938848D01*
X66101439Y-108668500D01*
X65968263Y-108419346D01*
X65789039Y-108200961D01*
X65570654Y-108021737D01*
X65483511Y-107975158D01*
X65651355Y-107875178D01*
X65867588Y-107680269D01*
X66041641Y-107446920D01*
X66166825Y-107184099D01*
X66211476Y-107036890D01*
X66090155Y-106807000D01*
X64897000Y-106807000D01*
X64897000Y-106827000D01*
X64643000Y-106827000D01*
X64643000Y-106807000D01*
X64623000Y-106807000D01*
X64623000Y-106553000D01*
X64643000Y-106553000D01*
X64643000Y-106533000D01*
X64897000Y-106533000D01*
X64897000Y-106553000D01*
X66090155Y-106553000D01*
X66211476Y-106323110D01*
X66166825Y-106175901D01*
X66041641Y-105913080D01*
X65867588Y-105679731D01*
X65651355Y-105484822D01*
X65483511Y-105384842D01*
X65570654Y-105338263D01*
X65789039Y-105159039D01*
X65837040Y-105100550D01*
X67805300Y-107068810D01*
X67805300Y-107068810D01*
G37*
X67805300Y-107068810D02*
X67805301Y-110363000D01*
X65637992Y-110363000D01*
X65789039Y-110239039D01*
X65968263Y-110020654D01*
X66101439Y-109771500D01*
X66183448Y-109501152D01*
X66211139Y-109220000D01*
X66183448Y-108938848D01*
X66101439Y-108668500D01*
X65968263Y-108419346D01*
X65789039Y-108200961D01*
X65570654Y-108021737D01*
X65483511Y-107975158D01*
X65651355Y-107875178D01*
X65867588Y-107680269D01*
X66041641Y-107446920D01*
X66166825Y-107184099D01*
X66211476Y-107036890D01*
X66090155Y-106807000D01*
X64897000Y-106807000D01*
X64897000Y-106827000D01*
X64643000Y-106827000D01*
X64643000Y-106807000D01*
X64623000Y-106807000D01*
X64623000Y-106553000D01*
X64643000Y-106553000D01*
X64643000Y-106533000D01*
X64897000Y-106533000D01*
X64897000Y-106553000D01*
X66090155Y-106553000D01*
X66211476Y-106323110D01*
X66166825Y-106175901D01*
X66041641Y-105913080D01*
X65867588Y-105679731D01*
X65651355Y-105484822D01*
X65483511Y-105384842D01*
X65570654Y-105338263D01*
X65789039Y-105159039D01*
X65837040Y-105100550D01*
X67805300Y-107068810D01*
M02*
