M48
; DRILL file {KiCad (5.1.2)-2} date 14.12.2019. 19:53:24
; FORMAT={-:-/ absolute / inch / decimal}
; #@! TF.CreationDate,2019-12-14T19:53:24+01:00
; #@! TF.GenerationSoftware,Kicad,Pcbnew,(5.1.2)-2
; #@! TF.FileFunction,Plated,1,2,PTH
FMAT,2
INCH
T1C0.0157
T2C0.0394
T3C0.0433
%
G90
G05
T1
X2.685Y-4.675
X2.725Y-5.625
X2.775Y-5.315
X2.79Y-5.15
X2.815Y-4.5
X2.815Y-5.775
X2.83Y-5.15
X2.875Y-5.625
X2.88Y-5.15
X2.885Y-5.425
X2.915Y-4.675
X2.92Y-5.15
X2.975Y-5.775
X3.045Y-5.425
X3.05Y-5.625
X3.1Y-5.315
X3.115Y-5.15
X3.155Y-5.15
X3.1869Y-4.675
X3.2Y-5.625
X3.205Y-5.15
X3.225Y-5.775
X3.245Y-5.15
X3.3381Y-4.675
T2
X3.45Y-3.8
X3.45Y-3.9
X3.45Y-4.0
X3.45Y-4.1
X3.45Y-4.2
X3.45Y-4.3
X3.45Y-5.15
X3.45Y-5.25
X3.45Y-5.35
X3.45Y-5.45
X3.45Y-5.55
X3.45Y-5.65
X3.45Y-5.75
X3.45Y-5.85
X2.55Y-5.15
X2.55Y-5.25
X2.55Y-5.35
X2.55Y-5.45
X2.55Y-5.55
X2.55Y-5.65
X2.55Y-5.75
X2.55Y-5.85
X2.55Y-3.8
X2.55Y-3.9
X2.55Y-4.0
X2.55Y-4.1
X2.55Y-4.2
X2.55Y-4.3
T3
X2.95Y-3.875
X3.05Y-3.875
T0
M30
