G04 #@! TF.GenerationSoftware,KiCad,Pcbnew,(5.1.2)-2*
G04 #@! TF.CreationDate,2019-12-14T19:53:28+01:00*
G04 #@! TF.ProjectId,IS1212_click,49533132-3132-45f6-936c-69636b2e6b69,rev?*
G04 #@! TF.SameCoordinates,Original*
G04 #@! TF.FileFunction,Copper,L2,Bot*
G04 #@! TF.FilePolarity,Positive*
%FSLAX46Y46*%
G04 Gerber Fmt 4.6, Leading zero omitted, Abs format (unit mm)*
G04 Created by KiCad (PCBNEW (5.1.2)-2) date 2019-12-14 19:53:28*
%MOMM*%
%LPD*%
G04 APERTURE LIST*
%ADD10R,1.700000X1.700000*%
%ADD11O,1.700000X1.700000*%
%ADD12C,2.000000*%
%ADD13C,0.800000*%
%ADD14C,0.381000*%
%ADD15C,0.254000*%
G04 APERTURE END LIST*
D10*
X64770000Y-96520000D03*
D11*
X64770000Y-99060000D03*
X64770000Y-101600000D03*
X64770000Y-104140000D03*
X64770000Y-106680000D03*
X64770000Y-109220000D03*
X87630000Y-109220000D03*
X87630000Y-106680000D03*
X87630000Y-104140000D03*
X87630000Y-101600000D03*
X87630000Y-99060000D03*
D10*
X87630000Y-96520000D03*
D12*
X74930000Y-98425000D03*
X77470000Y-98425000D03*
D10*
X64770000Y-130810000D03*
D11*
X64770000Y-133350000D03*
X64770000Y-135890000D03*
X64770000Y-138430000D03*
X64770000Y-140970000D03*
X64770000Y-143510000D03*
X64770000Y-146050000D03*
X64770000Y-148590000D03*
X87630000Y-148590000D03*
X87630000Y-146050000D03*
X87630000Y-143510000D03*
X87630000Y-140970000D03*
X87630000Y-138430000D03*
X87630000Y-135890000D03*
X87630000Y-133350000D03*
D10*
X87630000Y-130810000D03*
D13*
X70485000Y-135001000D03*
X78740000Y-135001000D03*
X82423000Y-130810000D03*
X81407000Y-130810000D03*
X73152000Y-130810000D03*
X74168000Y-130810000D03*
X81915000Y-146685000D03*
X81280000Y-142875000D03*
X77470000Y-142875000D03*
X73025000Y-142875000D03*
X69215000Y-142875000D03*
X70866000Y-130810000D03*
X71882000Y-130810000D03*
X79121000Y-130810000D03*
X80137000Y-130810000D03*
X74041000Y-118745000D03*
X68199000Y-118745000D03*
X71501000Y-114300000D03*
X75565000Y-146685000D03*
X71501000Y-146685000D03*
X80947500Y-118745000D03*
X84787500Y-118745000D03*
X73279000Y-137795000D03*
X77343000Y-137795000D03*
D14*
X64770000Y-106680000D02*
X66675000Y-106680000D01*
X66675000Y-106680000D02*
X67310000Y-106045000D01*
X67310000Y-106045000D02*
X67310000Y-102235000D01*
X66675000Y-101600000D02*
X64770000Y-101600000D01*
X67310000Y-102235000D02*
X66675000Y-101600000D01*
X87630000Y-106680000D02*
X85725000Y-106680000D01*
X85725000Y-106680000D02*
X85090000Y-106045000D01*
X85090000Y-106045000D02*
X85090000Y-102235000D01*
X85090000Y-102235000D02*
X85725000Y-101600000D01*
X85725000Y-101600000D02*
X87630000Y-101600000D01*
X64770000Y-109220000D02*
X70104000Y-109220000D01*
X71501000Y-110617000D02*
X71501000Y-114300000D01*
X70104000Y-109220000D02*
X71501000Y-110617000D01*
X69215000Y-142875000D02*
X69215000Y-144145000D01*
X69215000Y-144145000D02*
X67310000Y-146050000D01*
X67310000Y-146050000D02*
X67310000Y-147955000D01*
X66675000Y-148590000D02*
X64770000Y-148590000D01*
X67310000Y-147955000D02*
X66675000Y-148590000D01*
X81280000Y-146050000D02*
X81915000Y-146685000D01*
X81280000Y-142875000D02*
X81280000Y-146050000D01*
X81280000Y-142875000D02*
X77470000Y-142875000D01*
X69215000Y-142875000D02*
X73025000Y-142875000D01*
X83820000Y-148590000D02*
X81915000Y-146685000D01*
X87630000Y-148590000D02*
X83820000Y-148590000D01*
X70485000Y-135001000D02*
X78740000Y-135001000D01*
X70485000Y-131191000D02*
X70866000Y-130810000D01*
X70485000Y-135001000D02*
X70485000Y-131191000D01*
X78740000Y-131191000D02*
X79121000Y-130810000D01*
X78740000Y-135001000D02*
X78740000Y-131191000D01*
X73279000Y-137795000D02*
X70993000Y-137795000D01*
X69088000Y-135890000D02*
X64770000Y-135890000D01*
X70993000Y-137795000D02*
X69088000Y-135890000D01*
X77343000Y-137795000D02*
X83185000Y-137795000D01*
X83185000Y-137795000D02*
X85090000Y-135890000D01*
X85090000Y-135890000D02*
X85090000Y-132080000D01*
X86360000Y-130810000D02*
X87630000Y-130810000D01*
X85090000Y-132080000D02*
X86360000Y-130810000D01*
D15*
G36*
X84569111Y-131505298D02*
G01*
X84539555Y-131529554D01*
X84515299Y-131559110D01*
X84515297Y-131559112D01*
X84502687Y-131574478D01*
X84442745Y-131647517D01*
X84370809Y-131782101D01*
X84326510Y-131928133D01*
X84311552Y-132080000D01*
X84315301Y-132118063D01*
X84315300Y-135569109D01*
X82864109Y-137020300D01*
X77955093Y-137020300D01*
X77809193Y-136922813D01*
X77630081Y-136848622D01*
X77439935Y-136810800D01*
X77246065Y-136810800D01*
X77055919Y-136848622D01*
X76876807Y-136922813D01*
X76715609Y-137030522D01*
X76578522Y-137167609D01*
X76470813Y-137328807D01*
X76396622Y-137507919D01*
X76358800Y-137698065D01*
X76358800Y-137891935D01*
X76396622Y-138082081D01*
X76470813Y-138261193D01*
X76578522Y-138422391D01*
X76715609Y-138559478D01*
X76876807Y-138667187D01*
X77055919Y-138741378D01*
X77246065Y-138779200D01*
X77439935Y-138779200D01*
X77630081Y-138741378D01*
X77809193Y-138667187D01*
X77955093Y-138569700D01*
X83146947Y-138569700D01*
X83185000Y-138573448D01*
X83223053Y-138569700D01*
X83336868Y-138558490D01*
X83482899Y-138514192D01*
X83617483Y-138442256D01*
X83735446Y-138345446D01*
X83759707Y-138315884D01*
X85610885Y-136464706D01*
X85640446Y-136440446D01*
X85737256Y-136322483D01*
X85790608Y-136222668D01*
X85809192Y-136187900D01*
X85853490Y-136041868D01*
X85868448Y-135890000D01*
X85864700Y-135851947D01*
X85864700Y-132400891D01*
X86287570Y-131978021D01*
X86291906Y-131986134D01*
X86364910Y-132075090D01*
X86453866Y-132148094D01*
X86555355Y-132202341D01*
X86665477Y-132235746D01*
X86720390Y-132241155D01*
X86610961Y-132330961D01*
X86431737Y-132549346D01*
X86298561Y-132798500D01*
X86216552Y-133068848D01*
X86188861Y-133350000D01*
X86216552Y-133631152D01*
X86298561Y-133901500D01*
X86431737Y-134150654D01*
X86610961Y-134369039D01*
X86829346Y-134548263D01*
X86963556Y-134620000D01*
X86829346Y-134691737D01*
X86610961Y-134870961D01*
X86431737Y-135089346D01*
X86298561Y-135338500D01*
X86216552Y-135608848D01*
X86188861Y-135890000D01*
X86216552Y-136171152D01*
X86298561Y-136441500D01*
X86431737Y-136690654D01*
X86610961Y-136909039D01*
X86829346Y-137088263D01*
X86963556Y-137160000D01*
X86829346Y-137231737D01*
X86610961Y-137410961D01*
X86431737Y-137629346D01*
X86298561Y-137878500D01*
X86216552Y-138148848D01*
X86188861Y-138430000D01*
X86216552Y-138711152D01*
X86298561Y-138981500D01*
X86431737Y-139230654D01*
X86610961Y-139449039D01*
X86829346Y-139628263D01*
X86963556Y-139700000D01*
X86829346Y-139771737D01*
X86610961Y-139950961D01*
X86431737Y-140169346D01*
X86298561Y-140418500D01*
X86216552Y-140688848D01*
X86188861Y-140970000D01*
X86216552Y-141251152D01*
X86298561Y-141521500D01*
X86431737Y-141770654D01*
X86610961Y-141989039D01*
X86829346Y-142168263D01*
X86963556Y-142240000D01*
X86829346Y-142311737D01*
X86610961Y-142490961D01*
X86431737Y-142709346D01*
X86298561Y-142958500D01*
X86216552Y-143228848D01*
X86188861Y-143510000D01*
X86216552Y-143791152D01*
X86298561Y-144061500D01*
X86431737Y-144310654D01*
X86610961Y-144529039D01*
X86829346Y-144708263D01*
X86963556Y-144780000D01*
X86829346Y-144851737D01*
X86610961Y-145030961D01*
X86431737Y-145249346D01*
X86298561Y-145498500D01*
X86216552Y-145768848D01*
X86188861Y-146050000D01*
X86216552Y-146331152D01*
X86298561Y-146601500D01*
X86431737Y-146850654D01*
X86610961Y-147069039D01*
X86829346Y-147248263D01*
X86916489Y-147294842D01*
X86748645Y-147394822D01*
X86532412Y-147589731D01*
X86358359Y-147823080D01*
X86233175Y-148085901D01*
X86188524Y-148233110D01*
X86309845Y-148463000D01*
X87503000Y-148463000D01*
X87503000Y-148443000D01*
X87757000Y-148443000D01*
X87757000Y-148463000D01*
X87777000Y-148463000D01*
X87777000Y-148717000D01*
X87757000Y-148717000D01*
X87757000Y-149910814D01*
X87908255Y-149990206D01*
X86107662Y-151790800D01*
X64109200Y-151790800D01*
X64109200Y-149916556D01*
X64138748Y-149934157D01*
X64413109Y-150031481D01*
X64643000Y-149910814D01*
X64643000Y-148717000D01*
X64897000Y-148717000D01*
X64897000Y-149910814D01*
X65126891Y-150031481D01*
X65401252Y-149934157D01*
X65651355Y-149785178D01*
X65867588Y-149590269D01*
X66041641Y-149356920D01*
X66166825Y-149094099D01*
X66211476Y-148946890D01*
X86188524Y-148946890D01*
X86233175Y-149094099D01*
X86358359Y-149356920D01*
X86532412Y-149590269D01*
X86748645Y-149785178D01*
X86998748Y-149934157D01*
X87273109Y-150031481D01*
X87503000Y-149910814D01*
X87503000Y-148717000D01*
X86309845Y-148717000D01*
X86188524Y-148946890D01*
X66211476Y-148946890D01*
X66090155Y-148717000D01*
X64897000Y-148717000D01*
X64643000Y-148717000D01*
X64623000Y-148717000D01*
X64623000Y-148463000D01*
X64643000Y-148463000D01*
X64643000Y-148443000D01*
X64897000Y-148443000D01*
X64897000Y-148463000D01*
X66090155Y-148463000D01*
X66211476Y-148233110D01*
X66166825Y-148085901D01*
X66041641Y-147823080D01*
X65867588Y-147589731D01*
X65651355Y-147394822D01*
X65483511Y-147294842D01*
X65570654Y-147248263D01*
X65789039Y-147069039D01*
X65968263Y-146850654D01*
X66101439Y-146601500D01*
X66105514Y-146588065D01*
X70516800Y-146588065D01*
X70516800Y-146781935D01*
X70554622Y-146972081D01*
X70628813Y-147151193D01*
X70736522Y-147312391D01*
X70873609Y-147449478D01*
X71034807Y-147557187D01*
X71213919Y-147631378D01*
X71404065Y-147669200D01*
X71597935Y-147669200D01*
X71788081Y-147631378D01*
X71967193Y-147557187D01*
X72128391Y-147449478D01*
X72265478Y-147312391D01*
X72373187Y-147151193D01*
X72447378Y-146972081D01*
X72485200Y-146781935D01*
X72485200Y-146588065D01*
X74580800Y-146588065D01*
X74580800Y-146781935D01*
X74618622Y-146972081D01*
X74692813Y-147151193D01*
X74800522Y-147312391D01*
X74937609Y-147449478D01*
X75098807Y-147557187D01*
X75277919Y-147631378D01*
X75468065Y-147669200D01*
X75661935Y-147669200D01*
X75852081Y-147631378D01*
X76031193Y-147557187D01*
X76192391Y-147449478D01*
X76329478Y-147312391D01*
X76437187Y-147151193D01*
X76511378Y-146972081D01*
X76549200Y-146781935D01*
X76549200Y-146588065D01*
X76511378Y-146397919D01*
X76437187Y-146218807D01*
X76329478Y-146057609D01*
X76192391Y-145920522D01*
X76031193Y-145812813D01*
X75852081Y-145738622D01*
X75661935Y-145700800D01*
X75468065Y-145700800D01*
X75277919Y-145738622D01*
X75098807Y-145812813D01*
X74937609Y-145920522D01*
X74800522Y-146057609D01*
X74692813Y-146218807D01*
X74618622Y-146397919D01*
X74580800Y-146588065D01*
X72485200Y-146588065D01*
X72447378Y-146397919D01*
X72373187Y-146218807D01*
X72265478Y-146057609D01*
X72128391Y-145920522D01*
X71967193Y-145812813D01*
X71788081Y-145738622D01*
X71597935Y-145700800D01*
X71404065Y-145700800D01*
X71213919Y-145738622D01*
X71034807Y-145812813D01*
X70873609Y-145920522D01*
X70736522Y-146057609D01*
X70628813Y-146218807D01*
X70554622Y-146397919D01*
X70516800Y-146588065D01*
X66105514Y-146588065D01*
X66183448Y-146331152D01*
X66211139Y-146050000D01*
X66183448Y-145768848D01*
X66101439Y-145498500D01*
X65968263Y-145249346D01*
X65789039Y-145030961D01*
X65570654Y-144851737D01*
X65436444Y-144780000D01*
X65570654Y-144708263D01*
X65789039Y-144529039D01*
X65968263Y-144310654D01*
X66101439Y-144061500D01*
X66183448Y-143791152D01*
X66211139Y-143510000D01*
X66183448Y-143228848D01*
X66101439Y-142958500D01*
X65968263Y-142709346D01*
X65789039Y-142490961D01*
X65570654Y-142311737D01*
X65436444Y-142240000D01*
X65570654Y-142168263D01*
X65789039Y-141989039D01*
X65968263Y-141770654D01*
X66101439Y-141521500D01*
X66183448Y-141251152D01*
X66211139Y-140970000D01*
X66183448Y-140688848D01*
X66101439Y-140418500D01*
X65968263Y-140169346D01*
X65789039Y-139950961D01*
X65570654Y-139771737D01*
X65436444Y-139700000D01*
X65570654Y-139628263D01*
X65789039Y-139449039D01*
X65968263Y-139230654D01*
X66101439Y-138981500D01*
X66183448Y-138711152D01*
X66211139Y-138430000D01*
X66183448Y-138148848D01*
X66101439Y-137878500D01*
X65968263Y-137629346D01*
X65789039Y-137410961D01*
X65570654Y-137231737D01*
X65436444Y-137160000D01*
X65570654Y-137088263D01*
X65789039Y-136909039D01*
X65968263Y-136690654D01*
X65982136Y-136664700D01*
X68767109Y-136664700D01*
X70418293Y-138315884D01*
X70442554Y-138345446D01*
X70560517Y-138442256D01*
X70660332Y-138495608D01*
X70695100Y-138514192D01*
X70841132Y-138558490D01*
X70993000Y-138573448D01*
X71031053Y-138569700D01*
X72666907Y-138569700D01*
X72812807Y-138667187D01*
X72991919Y-138741378D01*
X73182065Y-138779200D01*
X73375935Y-138779200D01*
X73566081Y-138741378D01*
X73745193Y-138667187D01*
X73906391Y-138559478D01*
X74043478Y-138422391D01*
X74151187Y-138261193D01*
X74225378Y-138082081D01*
X74263200Y-137891935D01*
X74263200Y-137698065D01*
X74225378Y-137507919D01*
X74151187Y-137328807D01*
X74043478Y-137167609D01*
X73906391Y-137030522D01*
X73745193Y-136922813D01*
X73566081Y-136848622D01*
X73375935Y-136810800D01*
X73182065Y-136810800D01*
X72991919Y-136848622D01*
X72812807Y-136922813D01*
X72666907Y-137020300D01*
X71313891Y-137020300D01*
X70251658Y-135958067D01*
X70388065Y-135985200D01*
X70581935Y-135985200D01*
X70772081Y-135947378D01*
X70951193Y-135873187D01*
X71097093Y-135775700D01*
X78127907Y-135775700D01*
X78273807Y-135873187D01*
X78452919Y-135947378D01*
X78643065Y-135985200D01*
X78836935Y-135985200D01*
X79027081Y-135947378D01*
X79206193Y-135873187D01*
X79367391Y-135765478D01*
X79504478Y-135628391D01*
X79612187Y-135467193D01*
X79686378Y-135288081D01*
X79724200Y-135097935D01*
X79724200Y-134904065D01*
X79686378Y-134713919D01*
X79612187Y-134534807D01*
X79514700Y-134388907D01*
X79514700Y-131712215D01*
X79587193Y-131682187D01*
X79629000Y-131654252D01*
X79670807Y-131682187D01*
X79849919Y-131756378D01*
X80040065Y-131794200D01*
X80233935Y-131794200D01*
X80424081Y-131756378D01*
X80603193Y-131682187D01*
X80764391Y-131574478D01*
X80901478Y-131437391D01*
X81009187Y-131276193D01*
X81083378Y-131097081D01*
X81121200Y-130906935D01*
X81121200Y-130713065D01*
X81083378Y-130522919D01*
X81009187Y-130343807D01*
X80981252Y-130302000D01*
X85772409Y-130302000D01*
X84569111Y-131505298D01*
X84569111Y-131505298D01*
G37*
X84569111Y-131505298D02*
X84539555Y-131529554D01*
X84515299Y-131559110D01*
X84515297Y-131559112D01*
X84502687Y-131574478D01*
X84442745Y-131647517D01*
X84370809Y-131782101D01*
X84326510Y-131928133D01*
X84311552Y-132080000D01*
X84315301Y-132118063D01*
X84315300Y-135569109D01*
X82864109Y-137020300D01*
X77955093Y-137020300D01*
X77809193Y-136922813D01*
X77630081Y-136848622D01*
X77439935Y-136810800D01*
X77246065Y-136810800D01*
X77055919Y-136848622D01*
X76876807Y-136922813D01*
X76715609Y-137030522D01*
X76578522Y-137167609D01*
X76470813Y-137328807D01*
X76396622Y-137507919D01*
X76358800Y-137698065D01*
X76358800Y-137891935D01*
X76396622Y-138082081D01*
X76470813Y-138261193D01*
X76578522Y-138422391D01*
X76715609Y-138559478D01*
X76876807Y-138667187D01*
X77055919Y-138741378D01*
X77246065Y-138779200D01*
X77439935Y-138779200D01*
X77630081Y-138741378D01*
X77809193Y-138667187D01*
X77955093Y-138569700D01*
X83146947Y-138569700D01*
X83185000Y-138573448D01*
X83223053Y-138569700D01*
X83336868Y-138558490D01*
X83482899Y-138514192D01*
X83617483Y-138442256D01*
X83735446Y-138345446D01*
X83759707Y-138315884D01*
X85610885Y-136464706D01*
X85640446Y-136440446D01*
X85737256Y-136322483D01*
X85790608Y-136222668D01*
X85809192Y-136187900D01*
X85853490Y-136041868D01*
X85868448Y-135890000D01*
X85864700Y-135851947D01*
X85864700Y-132400891D01*
X86287570Y-131978021D01*
X86291906Y-131986134D01*
X86364910Y-132075090D01*
X86453866Y-132148094D01*
X86555355Y-132202341D01*
X86665477Y-132235746D01*
X86720390Y-132241155D01*
X86610961Y-132330961D01*
X86431737Y-132549346D01*
X86298561Y-132798500D01*
X86216552Y-133068848D01*
X86188861Y-133350000D01*
X86216552Y-133631152D01*
X86298561Y-133901500D01*
X86431737Y-134150654D01*
X86610961Y-134369039D01*
X86829346Y-134548263D01*
X86963556Y-134620000D01*
X86829346Y-134691737D01*
X86610961Y-134870961D01*
X86431737Y-135089346D01*
X86298561Y-135338500D01*
X86216552Y-135608848D01*
X86188861Y-135890000D01*
X86216552Y-136171152D01*
X86298561Y-136441500D01*
X86431737Y-136690654D01*
X86610961Y-136909039D01*
X86829346Y-137088263D01*
X86963556Y-137160000D01*
X86829346Y-137231737D01*
X86610961Y-137410961D01*
X86431737Y-137629346D01*
X86298561Y-137878500D01*
X86216552Y-138148848D01*
X86188861Y-138430000D01*
X86216552Y-138711152D01*
X86298561Y-138981500D01*
X86431737Y-139230654D01*
X86610961Y-139449039D01*
X86829346Y-139628263D01*
X86963556Y-139700000D01*
X86829346Y-139771737D01*
X86610961Y-139950961D01*
X86431737Y-140169346D01*
X86298561Y-140418500D01*
X86216552Y-140688848D01*
X86188861Y-140970000D01*
X86216552Y-141251152D01*
X86298561Y-141521500D01*
X86431737Y-141770654D01*
X86610961Y-141989039D01*
X86829346Y-142168263D01*
X86963556Y-142240000D01*
X86829346Y-142311737D01*
X86610961Y-142490961D01*
X86431737Y-142709346D01*
X86298561Y-142958500D01*
X86216552Y-143228848D01*
X86188861Y-143510000D01*
X86216552Y-143791152D01*
X86298561Y-144061500D01*
X86431737Y-144310654D01*
X86610961Y-144529039D01*
X86829346Y-144708263D01*
X86963556Y-144780000D01*
X86829346Y-144851737D01*
X86610961Y-145030961D01*
X86431737Y-145249346D01*
X86298561Y-145498500D01*
X86216552Y-145768848D01*
X86188861Y-146050000D01*
X86216552Y-146331152D01*
X86298561Y-146601500D01*
X86431737Y-146850654D01*
X86610961Y-147069039D01*
X86829346Y-147248263D01*
X86916489Y-147294842D01*
X86748645Y-147394822D01*
X86532412Y-147589731D01*
X86358359Y-147823080D01*
X86233175Y-148085901D01*
X86188524Y-148233110D01*
X86309845Y-148463000D01*
X87503000Y-148463000D01*
X87503000Y-148443000D01*
X87757000Y-148443000D01*
X87757000Y-148463000D01*
X87777000Y-148463000D01*
X87777000Y-148717000D01*
X87757000Y-148717000D01*
X87757000Y-149910814D01*
X87908255Y-149990206D01*
X86107662Y-151790800D01*
X64109200Y-151790800D01*
X64109200Y-149916556D01*
X64138748Y-149934157D01*
X64413109Y-150031481D01*
X64643000Y-149910814D01*
X64643000Y-148717000D01*
X64897000Y-148717000D01*
X64897000Y-149910814D01*
X65126891Y-150031481D01*
X65401252Y-149934157D01*
X65651355Y-149785178D01*
X65867588Y-149590269D01*
X66041641Y-149356920D01*
X66166825Y-149094099D01*
X66211476Y-148946890D01*
X86188524Y-148946890D01*
X86233175Y-149094099D01*
X86358359Y-149356920D01*
X86532412Y-149590269D01*
X86748645Y-149785178D01*
X86998748Y-149934157D01*
X87273109Y-150031481D01*
X87503000Y-149910814D01*
X87503000Y-148717000D01*
X86309845Y-148717000D01*
X86188524Y-148946890D01*
X66211476Y-148946890D01*
X66090155Y-148717000D01*
X64897000Y-148717000D01*
X64643000Y-148717000D01*
X64623000Y-148717000D01*
X64623000Y-148463000D01*
X64643000Y-148463000D01*
X64643000Y-148443000D01*
X64897000Y-148443000D01*
X64897000Y-148463000D01*
X66090155Y-148463000D01*
X66211476Y-148233110D01*
X66166825Y-148085901D01*
X66041641Y-147823080D01*
X65867588Y-147589731D01*
X65651355Y-147394822D01*
X65483511Y-147294842D01*
X65570654Y-147248263D01*
X65789039Y-147069039D01*
X65968263Y-146850654D01*
X66101439Y-146601500D01*
X66105514Y-146588065D01*
X70516800Y-146588065D01*
X70516800Y-146781935D01*
X70554622Y-146972081D01*
X70628813Y-147151193D01*
X70736522Y-147312391D01*
X70873609Y-147449478D01*
X71034807Y-147557187D01*
X71213919Y-147631378D01*
X71404065Y-147669200D01*
X71597935Y-147669200D01*
X71788081Y-147631378D01*
X71967193Y-147557187D01*
X72128391Y-147449478D01*
X72265478Y-147312391D01*
X72373187Y-147151193D01*
X72447378Y-146972081D01*
X72485200Y-146781935D01*
X72485200Y-146588065D01*
X74580800Y-146588065D01*
X74580800Y-146781935D01*
X74618622Y-146972081D01*
X74692813Y-147151193D01*
X74800522Y-147312391D01*
X74937609Y-147449478D01*
X75098807Y-147557187D01*
X75277919Y-147631378D01*
X75468065Y-147669200D01*
X75661935Y-147669200D01*
X75852081Y-147631378D01*
X76031193Y-147557187D01*
X76192391Y-147449478D01*
X76329478Y-147312391D01*
X76437187Y-147151193D01*
X76511378Y-146972081D01*
X76549200Y-146781935D01*
X76549200Y-146588065D01*
X76511378Y-146397919D01*
X76437187Y-146218807D01*
X76329478Y-146057609D01*
X76192391Y-145920522D01*
X76031193Y-145812813D01*
X75852081Y-145738622D01*
X75661935Y-145700800D01*
X75468065Y-145700800D01*
X75277919Y-145738622D01*
X75098807Y-145812813D01*
X74937609Y-145920522D01*
X74800522Y-146057609D01*
X74692813Y-146218807D01*
X74618622Y-146397919D01*
X74580800Y-146588065D01*
X72485200Y-146588065D01*
X72447378Y-146397919D01*
X72373187Y-146218807D01*
X72265478Y-146057609D01*
X72128391Y-145920522D01*
X71967193Y-145812813D01*
X71788081Y-145738622D01*
X71597935Y-145700800D01*
X71404065Y-145700800D01*
X71213919Y-145738622D01*
X71034807Y-145812813D01*
X70873609Y-145920522D01*
X70736522Y-146057609D01*
X70628813Y-146218807D01*
X70554622Y-146397919D01*
X70516800Y-146588065D01*
X66105514Y-146588065D01*
X66183448Y-146331152D01*
X66211139Y-146050000D01*
X66183448Y-145768848D01*
X66101439Y-145498500D01*
X65968263Y-145249346D01*
X65789039Y-145030961D01*
X65570654Y-144851737D01*
X65436444Y-144780000D01*
X65570654Y-144708263D01*
X65789039Y-144529039D01*
X65968263Y-144310654D01*
X66101439Y-144061500D01*
X66183448Y-143791152D01*
X66211139Y-143510000D01*
X66183448Y-143228848D01*
X66101439Y-142958500D01*
X65968263Y-142709346D01*
X65789039Y-142490961D01*
X65570654Y-142311737D01*
X65436444Y-142240000D01*
X65570654Y-142168263D01*
X65789039Y-141989039D01*
X65968263Y-141770654D01*
X66101439Y-141521500D01*
X66183448Y-141251152D01*
X66211139Y-140970000D01*
X66183448Y-140688848D01*
X66101439Y-140418500D01*
X65968263Y-140169346D01*
X65789039Y-139950961D01*
X65570654Y-139771737D01*
X65436444Y-139700000D01*
X65570654Y-139628263D01*
X65789039Y-139449039D01*
X65968263Y-139230654D01*
X66101439Y-138981500D01*
X66183448Y-138711152D01*
X66211139Y-138430000D01*
X66183448Y-138148848D01*
X66101439Y-137878500D01*
X65968263Y-137629346D01*
X65789039Y-137410961D01*
X65570654Y-137231737D01*
X65436444Y-137160000D01*
X65570654Y-137088263D01*
X65789039Y-136909039D01*
X65968263Y-136690654D01*
X65982136Y-136664700D01*
X68767109Y-136664700D01*
X70418293Y-138315884D01*
X70442554Y-138345446D01*
X70560517Y-138442256D01*
X70660332Y-138495608D01*
X70695100Y-138514192D01*
X70841132Y-138558490D01*
X70993000Y-138573448D01*
X71031053Y-138569700D01*
X72666907Y-138569700D01*
X72812807Y-138667187D01*
X72991919Y-138741378D01*
X73182065Y-138779200D01*
X73375935Y-138779200D01*
X73566081Y-138741378D01*
X73745193Y-138667187D01*
X73906391Y-138559478D01*
X74043478Y-138422391D01*
X74151187Y-138261193D01*
X74225378Y-138082081D01*
X74263200Y-137891935D01*
X74263200Y-137698065D01*
X74225378Y-137507919D01*
X74151187Y-137328807D01*
X74043478Y-137167609D01*
X73906391Y-137030522D01*
X73745193Y-136922813D01*
X73566081Y-136848622D01*
X73375935Y-136810800D01*
X73182065Y-136810800D01*
X72991919Y-136848622D01*
X72812807Y-136922813D01*
X72666907Y-137020300D01*
X71313891Y-137020300D01*
X70251658Y-135958067D01*
X70388065Y-135985200D01*
X70581935Y-135985200D01*
X70772081Y-135947378D01*
X70951193Y-135873187D01*
X71097093Y-135775700D01*
X78127907Y-135775700D01*
X78273807Y-135873187D01*
X78452919Y-135947378D01*
X78643065Y-135985200D01*
X78836935Y-135985200D01*
X79027081Y-135947378D01*
X79206193Y-135873187D01*
X79367391Y-135765478D01*
X79504478Y-135628391D01*
X79612187Y-135467193D01*
X79686378Y-135288081D01*
X79724200Y-135097935D01*
X79724200Y-134904065D01*
X79686378Y-134713919D01*
X79612187Y-134534807D01*
X79514700Y-134388907D01*
X79514700Y-131712215D01*
X79587193Y-131682187D01*
X79629000Y-131654252D01*
X79670807Y-131682187D01*
X79849919Y-131756378D01*
X80040065Y-131794200D01*
X80233935Y-131794200D01*
X80424081Y-131756378D01*
X80603193Y-131682187D01*
X80764391Y-131574478D01*
X80901478Y-131437391D01*
X81009187Y-131276193D01*
X81083378Y-131097081D01*
X81121200Y-130906935D01*
X81121200Y-130713065D01*
X81083378Y-130522919D01*
X81009187Y-130343807D01*
X80981252Y-130302000D01*
X85772409Y-130302000D01*
X84569111Y-131505298D01*
G36*
X78248813Y-130343807D02*
G01*
X78174622Y-130522919D01*
X78138960Y-130702203D01*
X78092745Y-130758517D01*
X78020809Y-130893101D01*
X77976510Y-131039133D01*
X77961552Y-131191000D01*
X77965301Y-131229063D01*
X77965300Y-134226300D01*
X71259700Y-134226300D01*
X71259700Y-131712215D01*
X71332193Y-131682187D01*
X71374000Y-131654252D01*
X71415807Y-131682187D01*
X71594919Y-131756378D01*
X71785065Y-131794200D01*
X71978935Y-131794200D01*
X72169081Y-131756378D01*
X72348193Y-131682187D01*
X72509391Y-131574478D01*
X72646478Y-131437391D01*
X72754187Y-131276193D01*
X72828378Y-131097081D01*
X72866200Y-130906935D01*
X72866200Y-130713065D01*
X72828378Y-130522919D01*
X72754187Y-130343807D01*
X72726252Y-130302000D01*
X78276748Y-130302000D01*
X78248813Y-130343807D01*
X78248813Y-130343807D01*
G37*
X78248813Y-130343807D02*
X78174622Y-130522919D01*
X78138960Y-130702203D01*
X78092745Y-130758517D01*
X78020809Y-130893101D01*
X77976510Y-131039133D01*
X77961552Y-131191000D01*
X77965301Y-131229063D01*
X77965300Y-134226300D01*
X71259700Y-134226300D01*
X71259700Y-131712215D01*
X71332193Y-131682187D01*
X71374000Y-131654252D01*
X71415807Y-131682187D01*
X71594919Y-131756378D01*
X71785065Y-131794200D01*
X71978935Y-131794200D01*
X72169081Y-131756378D01*
X72348193Y-131682187D01*
X72509391Y-131574478D01*
X72646478Y-131437391D01*
X72754187Y-131276193D01*
X72828378Y-131097081D01*
X72866200Y-130906935D01*
X72866200Y-130713065D01*
X72828378Y-130522919D01*
X72754187Y-130343807D01*
X72726252Y-130302000D01*
X78276748Y-130302000D01*
X78248813Y-130343807D01*
G36*
X86192974Y-97370000D02*
G01*
X86204254Y-97484523D01*
X86237659Y-97594645D01*
X86291906Y-97696134D01*
X86364910Y-97785090D01*
X86453866Y-97858094D01*
X86555355Y-97912341D01*
X86660532Y-97944246D01*
X86532412Y-98059731D01*
X86358359Y-98293080D01*
X86233175Y-98555901D01*
X86188524Y-98703110D01*
X86309845Y-98933000D01*
X87503000Y-98933000D01*
X87503000Y-98913000D01*
X87757000Y-98913000D01*
X87757000Y-98933000D01*
X87777000Y-98933000D01*
X87777000Y-99187000D01*
X87757000Y-99187000D01*
X87757000Y-99207000D01*
X87503000Y-99207000D01*
X87503000Y-99187000D01*
X86309845Y-99187000D01*
X86188524Y-99416890D01*
X86233175Y-99564099D01*
X86358359Y-99826920D01*
X86532412Y-100060269D01*
X86748645Y-100255178D01*
X86916489Y-100355158D01*
X86829346Y-100401737D01*
X86610961Y-100580961D01*
X86431737Y-100799346D01*
X86417864Y-100825300D01*
X85763056Y-100825300D01*
X85725000Y-100821552D01*
X85573132Y-100836509D01*
X85427101Y-100880808D01*
X85292517Y-100952744D01*
X85174554Y-101049554D01*
X85150293Y-101079116D01*
X84569111Y-101660298D01*
X84539555Y-101684554D01*
X84442745Y-101802517D01*
X84400714Y-101881152D01*
X84370809Y-101937101D01*
X84326510Y-102083133D01*
X84311552Y-102235000D01*
X84315301Y-102273063D01*
X84315300Y-106006947D01*
X84311552Y-106045000D01*
X84315300Y-106083052D01*
X84326510Y-106196867D01*
X84370808Y-106342898D01*
X84442744Y-106477482D01*
X84539554Y-106595446D01*
X84569116Y-106619707D01*
X85150293Y-107200884D01*
X85174554Y-107230446D01*
X85292517Y-107327256D01*
X85427099Y-107399191D01*
X85427101Y-107399192D01*
X85573132Y-107443491D01*
X85725000Y-107458448D01*
X85763056Y-107454700D01*
X86417864Y-107454700D01*
X86431737Y-107480654D01*
X86610961Y-107699039D01*
X86829346Y-107878263D01*
X86963556Y-107950000D01*
X86829346Y-108021737D01*
X86610961Y-108200961D01*
X86431737Y-108419346D01*
X86298561Y-108668500D01*
X86216552Y-108938848D01*
X86188861Y-109220000D01*
X86216552Y-109501152D01*
X86298561Y-109771500D01*
X86431737Y-110020654D01*
X86610961Y-110239039D01*
X86829346Y-110418263D01*
X87078500Y-110551439D01*
X87348848Y-110633448D01*
X87559547Y-110654200D01*
X87700453Y-110654200D01*
X87911152Y-110633448D01*
X88181500Y-110551439D01*
X88290800Y-110493017D01*
X88290801Y-129372974D01*
X86780000Y-129372974D01*
X86665477Y-129384254D01*
X86570714Y-129413000D01*
X65829286Y-129413000D01*
X65734523Y-129384254D01*
X65620000Y-129372974D01*
X64109200Y-129372974D01*
X64109200Y-110493017D01*
X64218500Y-110551439D01*
X64488848Y-110633448D01*
X64699547Y-110654200D01*
X64840453Y-110654200D01*
X65051152Y-110633448D01*
X65321500Y-110551439D01*
X65570654Y-110418263D01*
X65789039Y-110239039D01*
X65968263Y-110020654D01*
X65982136Y-109994700D01*
X69783109Y-109994700D01*
X70726300Y-110937891D01*
X70726301Y-113687906D01*
X70628813Y-113833807D01*
X70554622Y-114012919D01*
X70516800Y-114203065D01*
X70516800Y-114396935D01*
X70554622Y-114587081D01*
X70628813Y-114766193D01*
X70736522Y-114927391D01*
X70873609Y-115064478D01*
X71034807Y-115172187D01*
X71213919Y-115246378D01*
X71404065Y-115284200D01*
X71597935Y-115284200D01*
X71788081Y-115246378D01*
X71967193Y-115172187D01*
X72128391Y-115064478D01*
X72265478Y-114927391D01*
X72373187Y-114766193D01*
X72447378Y-114587081D01*
X72485200Y-114396935D01*
X72485200Y-114203065D01*
X72447378Y-114012919D01*
X72373187Y-113833807D01*
X72275700Y-113687907D01*
X72275700Y-110655045D01*
X72279447Y-110616999D01*
X72275700Y-110578954D01*
X72275700Y-110578947D01*
X72264490Y-110465132D01*
X72220192Y-110319101D01*
X72148256Y-110184517D01*
X72051446Y-110066554D01*
X72021885Y-110042294D01*
X70678707Y-108699116D01*
X70654446Y-108669554D01*
X70536483Y-108572744D01*
X70401899Y-108500808D01*
X70255868Y-108456510D01*
X70142053Y-108445300D01*
X70104000Y-108441552D01*
X70065947Y-108445300D01*
X65982136Y-108445300D01*
X65968263Y-108419346D01*
X65789039Y-108200961D01*
X65570654Y-108021737D01*
X65436444Y-107950000D01*
X65570654Y-107878263D01*
X65789039Y-107699039D01*
X65968263Y-107480654D01*
X65982136Y-107454700D01*
X66636947Y-107454700D01*
X66675000Y-107458448D01*
X66713053Y-107454700D01*
X66826868Y-107443490D01*
X66972899Y-107399192D01*
X67107483Y-107327256D01*
X67225446Y-107230446D01*
X67249707Y-107200884D01*
X67830885Y-106619706D01*
X67860446Y-106595446D01*
X67957256Y-106477483D01*
X68029192Y-106342899D01*
X68029192Y-106342898D01*
X68073491Y-106196868D01*
X68088448Y-106045000D01*
X68084700Y-106006944D01*
X68084700Y-102273056D01*
X68088448Y-102235000D01*
X68073491Y-102083132D01*
X68029192Y-101937101D01*
X67999287Y-101881152D01*
X67957256Y-101802517D01*
X67860446Y-101684554D01*
X67830884Y-101660293D01*
X67249707Y-101079116D01*
X67225446Y-101049554D01*
X67107483Y-100952744D01*
X66972899Y-100880808D01*
X66826868Y-100836510D01*
X66713053Y-100825300D01*
X66675000Y-100821552D01*
X66636947Y-100825300D01*
X65982136Y-100825300D01*
X65968263Y-100799346D01*
X65789039Y-100580961D01*
X65570654Y-100401737D01*
X65483511Y-100355158D01*
X65651355Y-100255178D01*
X65867588Y-100060269D01*
X66041641Y-99826920D01*
X66166825Y-99564099D01*
X66211476Y-99416890D01*
X66090155Y-99187000D01*
X64897000Y-99187000D01*
X64897000Y-99207000D01*
X64643000Y-99207000D01*
X64643000Y-99187000D01*
X64623000Y-99187000D01*
X64623000Y-98933000D01*
X64643000Y-98933000D01*
X64643000Y-98913000D01*
X64897000Y-98913000D01*
X64897000Y-98933000D01*
X66090155Y-98933000D01*
X66211476Y-98703110D01*
X66166825Y-98555901D01*
X66041641Y-98293080D01*
X66023658Y-98268970D01*
X73345800Y-98268970D01*
X73345800Y-98581030D01*
X73406680Y-98887094D01*
X73526100Y-99175400D01*
X73699472Y-99434868D01*
X73920132Y-99655528D01*
X74179600Y-99828900D01*
X74467906Y-99948320D01*
X74773970Y-100009200D01*
X75086030Y-100009200D01*
X75392094Y-99948320D01*
X75680400Y-99828900D01*
X75939868Y-99655528D01*
X76034983Y-99560413D01*
X76514192Y-99560413D01*
X76609956Y-99824814D01*
X76899571Y-99965704D01*
X77211108Y-100047384D01*
X77532595Y-100066718D01*
X77851675Y-100022961D01*
X78156088Y-99917795D01*
X78330044Y-99824814D01*
X78425808Y-99560413D01*
X77470000Y-98604605D01*
X76514192Y-99560413D01*
X76034983Y-99560413D01*
X76160528Y-99434868D01*
X76223528Y-99340583D01*
X76334587Y-99380808D01*
X77290395Y-98425000D01*
X77649605Y-98425000D01*
X78605413Y-99380808D01*
X78869814Y-99285044D01*
X79010704Y-98995429D01*
X79092384Y-98683892D01*
X79111718Y-98362405D01*
X79067961Y-98043325D01*
X78962795Y-97738912D01*
X78869814Y-97564956D01*
X78605413Y-97469192D01*
X77649605Y-98425000D01*
X77290395Y-98425000D01*
X76334587Y-97469192D01*
X76223528Y-97509417D01*
X76160528Y-97415132D01*
X76034983Y-97289587D01*
X76514192Y-97289587D01*
X77470000Y-98245395D01*
X78425808Y-97289587D01*
X78330044Y-97025186D01*
X78040429Y-96884296D01*
X77728892Y-96802616D01*
X77407405Y-96783282D01*
X77088325Y-96827039D01*
X76783912Y-96932205D01*
X76609956Y-97025186D01*
X76514192Y-97289587D01*
X76034983Y-97289587D01*
X75939868Y-97194472D01*
X75680400Y-97021100D01*
X75392094Y-96901680D01*
X75086030Y-96840800D01*
X74773970Y-96840800D01*
X74467906Y-96901680D01*
X74179600Y-97021100D01*
X73920132Y-97194472D01*
X73699472Y-97415132D01*
X73526100Y-97674600D01*
X73406680Y-97962906D01*
X73345800Y-98268970D01*
X66023658Y-98268970D01*
X65867588Y-98059731D01*
X65739468Y-97944246D01*
X65844645Y-97912341D01*
X65946134Y-97858094D01*
X66035090Y-97785090D01*
X66108094Y-97696134D01*
X66162341Y-97594645D01*
X66195746Y-97484523D01*
X66207026Y-97370000D01*
X66207026Y-95859200D01*
X86192974Y-95859200D01*
X86192974Y-97370000D01*
X86192974Y-97370000D01*
G37*
X86192974Y-97370000D02*
X86204254Y-97484523D01*
X86237659Y-97594645D01*
X86291906Y-97696134D01*
X86364910Y-97785090D01*
X86453866Y-97858094D01*
X86555355Y-97912341D01*
X86660532Y-97944246D01*
X86532412Y-98059731D01*
X86358359Y-98293080D01*
X86233175Y-98555901D01*
X86188524Y-98703110D01*
X86309845Y-98933000D01*
X87503000Y-98933000D01*
X87503000Y-98913000D01*
X87757000Y-98913000D01*
X87757000Y-98933000D01*
X87777000Y-98933000D01*
X87777000Y-99187000D01*
X87757000Y-99187000D01*
X87757000Y-99207000D01*
X87503000Y-99207000D01*
X87503000Y-99187000D01*
X86309845Y-99187000D01*
X86188524Y-99416890D01*
X86233175Y-99564099D01*
X86358359Y-99826920D01*
X86532412Y-100060269D01*
X86748645Y-100255178D01*
X86916489Y-100355158D01*
X86829346Y-100401737D01*
X86610961Y-100580961D01*
X86431737Y-100799346D01*
X86417864Y-100825300D01*
X85763056Y-100825300D01*
X85725000Y-100821552D01*
X85573132Y-100836509D01*
X85427101Y-100880808D01*
X85292517Y-100952744D01*
X85174554Y-101049554D01*
X85150293Y-101079116D01*
X84569111Y-101660298D01*
X84539555Y-101684554D01*
X84442745Y-101802517D01*
X84400714Y-101881152D01*
X84370809Y-101937101D01*
X84326510Y-102083133D01*
X84311552Y-102235000D01*
X84315301Y-102273063D01*
X84315300Y-106006947D01*
X84311552Y-106045000D01*
X84315300Y-106083052D01*
X84326510Y-106196867D01*
X84370808Y-106342898D01*
X84442744Y-106477482D01*
X84539554Y-106595446D01*
X84569116Y-106619707D01*
X85150293Y-107200884D01*
X85174554Y-107230446D01*
X85292517Y-107327256D01*
X85427099Y-107399191D01*
X85427101Y-107399192D01*
X85573132Y-107443491D01*
X85725000Y-107458448D01*
X85763056Y-107454700D01*
X86417864Y-107454700D01*
X86431737Y-107480654D01*
X86610961Y-107699039D01*
X86829346Y-107878263D01*
X86963556Y-107950000D01*
X86829346Y-108021737D01*
X86610961Y-108200961D01*
X86431737Y-108419346D01*
X86298561Y-108668500D01*
X86216552Y-108938848D01*
X86188861Y-109220000D01*
X86216552Y-109501152D01*
X86298561Y-109771500D01*
X86431737Y-110020654D01*
X86610961Y-110239039D01*
X86829346Y-110418263D01*
X87078500Y-110551439D01*
X87348848Y-110633448D01*
X87559547Y-110654200D01*
X87700453Y-110654200D01*
X87911152Y-110633448D01*
X88181500Y-110551439D01*
X88290800Y-110493017D01*
X88290801Y-129372974D01*
X86780000Y-129372974D01*
X86665477Y-129384254D01*
X86570714Y-129413000D01*
X65829286Y-129413000D01*
X65734523Y-129384254D01*
X65620000Y-129372974D01*
X64109200Y-129372974D01*
X64109200Y-110493017D01*
X64218500Y-110551439D01*
X64488848Y-110633448D01*
X64699547Y-110654200D01*
X64840453Y-110654200D01*
X65051152Y-110633448D01*
X65321500Y-110551439D01*
X65570654Y-110418263D01*
X65789039Y-110239039D01*
X65968263Y-110020654D01*
X65982136Y-109994700D01*
X69783109Y-109994700D01*
X70726300Y-110937891D01*
X70726301Y-113687906D01*
X70628813Y-113833807D01*
X70554622Y-114012919D01*
X70516800Y-114203065D01*
X70516800Y-114396935D01*
X70554622Y-114587081D01*
X70628813Y-114766193D01*
X70736522Y-114927391D01*
X70873609Y-115064478D01*
X71034807Y-115172187D01*
X71213919Y-115246378D01*
X71404065Y-115284200D01*
X71597935Y-115284200D01*
X71788081Y-115246378D01*
X71967193Y-115172187D01*
X72128391Y-115064478D01*
X72265478Y-114927391D01*
X72373187Y-114766193D01*
X72447378Y-114587081D01*
X72485200Y-114396935D01*
X72485200Y-114203065D01*
X72447378Y-114012919D01*
X72373187Y-113833807D01*
X72275700Y-113687907D01*
X72275700Y-110655045D01*
X72279447Y-110616999D01*
X72275700Y-110578954D01*
X72275700Y-110578947D01*
X72264490Y-110465132D01*
X72220192Y-110319101D01*
X72148256Y-110184517D01*
X72051446Y-110066554D01*
X72021885Y-110042294D01*
X70678707Y-108699116D01*
X70654446Y-108669554D01*
X70536483Y-108572744D01*
X70401899Y-108500808D01*
X70255868Y-108456510D01*
X70142053Y-108445300D01*
X70104000Y-108441552D01*
X70065947Y-108445300D01*
X65982136Y-108445300D01*
X65968263Y-108419346D01*
X65789039Y-108200961D01*
X65570654Y-108021737D01*
X65436444Y-107950000D01*
X65570654Y-107878263D01*
X65789039Y-107699039D01*
X65968263Y-107480654D01*
X65982136Y-107454700D01*
X66636947Y-107454700D01*
X66675000Y-107458448D01*
X66713053Y-107454700D01*
X66826868Y-107443490D01*
X66972899Y-107399192D01*
X67107483Y-107327256D01*
X67225446Y-107230446D01*
X67249707Y-107200884D01*
X67830885Y-106619706D01*
X67860446Y-106595446D01*
X67957256Y-106477483D01*
X68029192Y-106342899D01*
X68029192Y-106342898D01*
X68073491Y-106196868D01*
X68088448Y-106045000D01*
X68084700Y-106006944D01*
X68084700Y-102273056D01*
X68088448Y-102235000D01*
X68073491Y-102083132D01*
X68029192Y-101937101D01*
X67999287Y-101881152D01*
X67957256Y-101802517D01*
X67860446Y-101684554D01*
X67830884Y-101660293D01*
X67249707Y-101079116D01*
X67225446Y-101049554D01*
X67107483Y-100952744D01*
X66972899Y-100880808D01*
X66826868Y-100836510D01*
X66713053Y-100825300D01*
X66675000Y-100821552D01*
X66636947Y-100825300D01*
X65982136Y-100825300D01*
X65968263Y-100799346D01*
X65789039Y-100580961D01*
X65570654Y-100401737D01*
X65483511Y-100355158D01*
X65651355Y-100255178D01*
X65867588Y-100060269D01*
X66041641Y-99826920D01*
X66166825Y-99564099D01*
X66211476Y-99416890D01*
X66090155Y-99187000D01*
X64897000Y-99187000D01*
X64897000Y-99207000D01*
X64643000Y-99207000D01*
X64643000Y-99187000D01*
X64623000Y-99187000D01*
X64623000Y-98933000D01*
X64643000Y-98933000D01*
X64643000Y-98913000D01*
X64897000Y-98913000D01*
X64897000Y-98933000D01*
X66090155Y-98933000D01*
X66211476Y-98703110D01*
X66166825Y-98555901D01*
X66041641Y-98293080D01*
X66023658Y-98268970D01*
X73345800Y-98268970D01*
X73345800Y-98581030D01*
X73406680Y-98887094D01*
X73526100Y-99175400D01*
X73699472Y-99434868D01*
X73920132Y-99655528D01*
X74179600Y-99828900D01*
X74467906Y-99948320D01*
X74773970Y-100009200D01*
X75086030Y-100009200D01*
X75392094Y-99948320D01*
X75680400Y-99828900D01*
X75939868Y-99655528D01*
X76034983Y-99560413D01*
X76514192Y-99560413D01*
X76609956Y-99824814D01*
X76899571Y-99965704D01*
X77211108Y-100047384D01*
X77532595Y-100066718D01*
X77851675Y-100022961D01*
X78156088Y-99917795D01*
X78330044Y-99824814D01*
X78425808Y-99560413D01*
X77470000Y-98604605D01*
X76514192Y-99560413D01*
X76034983Y-99560413D01*
X76160528Y-99434868D01*
X76223528Y-99340583D01*
X76334587Y-99380808D01*
X77290395Y-98425000D01*
X77649605Y-98425000D01*
X78605413Y-99380808D01*
X78869814Y-99285044D01*
X79010704Y-98995429D01*
X79092384Y-98683892D01*
X79111718Y-98362405D01*
X79067961Y-98043325D01*
X78962795Y-97738912D01*
X78869814Y-97564956D01*
X78605413Y-97469192D01*
X77649605Y-98425000D01*
X77290395Y-98425000D01*
X76334587Y-97469192D01*
X76223528Y-97509417D01*
X76160528Y-97415132D01*
X76034983Y-97289587D01*
X76514192Y-97289587D01*
X77470000Y-98245395D01*
X78425808Y-97289587D01*
X78330044Y-97025186D01*
X78040429Y-96884296D01*
X77728892Y-96802616D01*
X77407405Y-96783282D01*
X77088325Y-96827039D01*
X76783912Y-96932205D01*
X76609956Y-97025186D01*
X76514192Y-97289587D01*
X76034983Y-97289587D01*
X75939868Y-97194472D01*
X75680400Y-97021100D01*
X75392094Y-96901680D01*
X75086030Y-96840800D01*
X74773970Y-96840800D01*
X74467906Y-96901680D01*
X74179600Y-97021100D01*
X73920132Y-97194472D01*
X73699472Y-97415132D01*
X73526100Y-97674600D01*
X73406680Y-97962906D01*
X73345800Y-98268970D01*
X66023658Y-98268970D01*
X65867588Y-98059731D01*
X65739468Y-97944246D01*
X65844645Y-97912341D01*
X65946134Y-97858094D01*
X66035090Y-97785090D01*
X66108094Y-97696134D01*
X66162341Y-97594645D01*
X66195746Y-97484523D01*
X66207026Y-97370000D01*
X66207026Y-95859200D01*
X86192974Y-95859200D01*
X86192974Y-97370000D01*
M02*
